<mxfile host="Electron" modified="2024-06-01T08:24:09.049Z" agent="Mozilla/5.0 (X11; Linux x86_64) AppleWebKit/537.36 (KHTML, like Gecko) draw.io/22.0.3 Chrome/114.0.5735.289 Electron/25.8.4 Safari/537.36" etag="vFnAypvziggAZXbiPVnY" version="22.0.3" type="device">
  <diagram name="第 1 页" id="aBTrB4Ce0X48wefxGtq_">
    <mxGraphModel dx="1195" dy="733" grid="1" gridSize="10" guides="1" tooltips="1" connect="1" arrows="1" fold="1" page="1" pageScale="1" pageWidth="4681" pageHeight="3300" math="0" shadow="0">
      <root>
        <mxCell id="0" />
        <mxCell id="1" parent="0" />
        <mxCell id="5eA97bqAue3jfniv3n-x-1" value="" style="shape=image;imageAspect=0;aspect=fixed;verticalLabelPosition=bottom;verticalAlign=top;image=data:image/png,iVBORw0KGgoAAAANSUhEUgAAAXAAAAHcCAIAAABApWb9AAAACXBIWXMAAA7EAAAOxAGVKw4bAAAgAElEQVR4nOzdeTwU//8A8Nl15o5yJaGUDh1UFHJVRI5KRenwqY9S6pOkW4dOnR/pkG6VTjk6qOSIEhUKEcp932sde838/pjfZx/7Xdvaze7O0vv5186Ymfdr13qZeZ84BEEgAAAAXsBjHQAAAAMHSCgAAPAMSCgAAPAMSCgAAPAMSCgAAPAMSCgAAPCMKP8uXVJSkpCQ8Ndff+FwOAiCCATCkydPcnJyDA0NHRwcZGVlIQjKz8+PiYlBEMTR0XHcuHH8CwYAAAHg1x1Kd3f39u3br1+/jvZzaWlpMTU1ff78uZmZ2bVr1xYsWABB0Lt37+zt7VVUVOTk5GbPnp2amsqnYAAAEAy+3KG8f/9+69atVVVVmpqa6J7i4uLq6ur379/LyMjY2dmNGDHi58+fV69eXbBgwerVqyEIKioqCgsLMzU15Uc8AAAIBl8SysyZMz98+HD69OknT56ge9TU1C5cuCAjIwNBEIlEQhBk0KBBU6dOffToUXV1NY1GS01N9fX1pV+BRqPV1tbSe/Hi8Xj0uQkAAAFAEASGYfQ1Ho9XVlYWFeUoV/CxDoWRhobG0qVLIQgqKipycHBwdHRUVVVdsWLFpUuXRo8ejSCIlpbW/Pnz6ce/evXqzJkz+vr66KaUlBQeLxT1x4mJiZaWllhHwayiokJOTk5eXh7rQP4HjUaLjo5euHAh1oEwKygoEBUVHTVqFNaBMHv69Km9vb0wfNWpVGp3dzf6urm52dfXl/7H2AuEb06dOjVz5kwajYZutre379y5U1dXNygoqKuri0Kh2NnZrVy5srOzs729fdWqVTY2NlQqFT34wYMHZ8+e5V9sv23VqlVYh8BCYmJiSUkJ1lEw6+rqmjFjBtZRsHDv3r3IyEiso2Bh9uzZFAoF6yiYZWVlZWVlcXiwgHJhR0eHiYlJbW3tt2/fNm/eLCkp2dHRkZ+f7+zsPGjQIBkZmUWLFn39+rWzs1Mw8fw2BQUFrEPoN/B4PPi4uKKgoNDfH+0FlFDS0tI6Ozu3b99eXl7+8+fPnz9/iouLa2lpRUREoInt6dOn06dPRytZAADop/hYh6KmpjZ+/Hg049bX1yspKXl4eNB/evv27fDwcC8vr8mTJ+PxeB0dnRs3bgh/emas6BEeOjo6wlaBAkGQiIgI2oQnbCZOnMhhFaOALVu2TPj/BNjDIUI5H8rDhw+rq6u3bNmCdSAA8KfLzs6GIGjy5MmcHIx9fXL/cvLkSaxDYOHTp0/V1dVYR8GMQqF4e3tjHQULcXFxiYmJWEfBgp+fH41GwzqKPgF3KAAAsAPuUAAAwAZIKAAA8AxIKAAA8AxIKNxpbm7GOgQWuru7qVQq1lEwQxCkrq4O6yhY6OjoEM4ulPX19cJZp8k5kFC4AxIK50BC4VZDQwPWIfSVMHbvEWZCOKIMEtYBAXg8fuLEiVhHwYKysjLWIbA2fvx4rEPoK3CHAgAAz4CEAgAAz4CEAgAAz4CEwp1du3ZhHQILqamp5eXlWEfBjEwmL1myBOsoWIiIiHj+/DnWUbCwevVq0PWeL0DXewAQEqDrPQAA2AAJBQAAngEJBQAAngEJhTsZGRlYh8BCbW0tkUjEOgpmNBotPj4e6yhYKCkpEcI6bAiCkpKS6ItX9FOgpyx3pk+fjnUILKiqqmIdAgsiIiKzZ8/GOgoWtLW1sQ6BNQsLC6xD6CtwhwIAAM+AhAIAAM+AhAIAAM+AhAIAAM+AhMKd8PBwrENgoaCgoLGxEesomFGp1DNnzmAdBQvp6emZmZlYR8HChQsX+nsrD+h6DwAAO6DrPQAA2AAJBQAAngEJBQAAngEJhTvXrl3DOgQWcnNz6+vrsY6CGZVKPXToENZRsJCSkpKeno51FCycOHECVMryBaiUBQAhASplAQDABkgoAADwDEgoAADwDEgoAADwDEgo3MnJycE6BBYaGxuFcG1NGIbT0tKwjoKFysrKmpoarKNgISMjQzgbSTgHJljijr6+PtYhsDBkyBCsQ2ABj8fPmDED6yhY0NDQwDoE1oRz+i6ugDsUAAB4BiQUAAB4BiQUAAB4BiQU7ghn592kpKTS0lKso2BGJpPt7OywjoKF+/fvR0VFYR0FC4sXLwZLkfIF6HoPAEICdL0HAAAbIKEAAMAzIKEAAMAzfE8o379/37Nnz8qVKy9evNje3k7fT6FQDhw4EBMTw+8AeAv0lOUc6CnLrQHQU5a/CaWmpmbKlCmSkpKHDh06d+5cUFAQ/UdJSUmHDx8uKiriawA8J7Q9ZaWkpLCOgpkw95RVU1PDOgoWpk+fjsPhsI6iT/jb9T4+Pt7U1HTXrl2ioqKPHj3Kz89H9xcUFGzbtm38+PF8LR0AAAHj7x1KbGysq6traGjopk2b8vPz7e3tIQiiUCh79+4NDAxkv8R3aWlpxn+6urrKysrIZDLjAXV1dYyb3759o1Kp9E0ikUggEBgPKCwsZJxfr66urru7m/GAiooKxs2eJTY0NPC1xJ8/f3JbIpFIHGAl5uTk8LVEGo3GbYnFxcV8LZFAIHBbYlVVFbclMvZw6bXEqqqq9PR09K8vLy8P4hh/E0pZWdn69eu7urrs7e29vb2PHz8OQZCvr6+Ojo6trS37c+vr60v/Q6FQmpqamPr8MNbIQBBUXV3N+ImQyWSm30FtbS3jA2p7ezuFQmE8oLm5mXGzZ4lMvwNOSmQKmH2JjY2N3JbI9Mc5AEqsqqritkTGP85eS4RhmNsSmebr5aRExgv2WmJXVxe3Jba2tvK1xMbGxuLiYvSvjyl5scffjm0zZswwNjY+c+YMDodLT09fs2ZNdHT0jBkz/v33X0VFxT179hgYGKxcudLMzIzpRNCxDQCEhBB1bBs7dqyamhpaz6SqqoogCA6Hmzp16p07d86dO1dZWZmamnrnzh2+xsBbYNZ7zoFZ77kFZr3vRUJCgpOTU05Ojrq6+sKFC/X19Y8ePUov0cnJydzcfOvWrXg8c14DdygAICS4ukPhbyuPmZnZpUuXPDw8KBSKqampn58fDoejN4wZGxvr6ur2zCYAAPRT/E0oYmJi7u7u7u7uLH+6Z88evpYOAICAgbsDAAB4BiQU7oSHh2MdAgsFBQWNjY1YR8GMSqWeOXMG6yhYSE9Pz8zMxDoKFi5cuAAqZfkCVMoCgJAQomZjAAD+KCChAADAMyChAADAMyChAADAMyChcCcjIwPrEFiora1lGgwmDGg0Wnx8PNZRsFBSUlJeXo51FCwkJSX191YesBQpd4RzsUj2E0FgRUREZPbs2VhHwYK2tjbWIbBmYWGBdQh9Be5QAADgGZBQAADgGZBQAADgGZBQuLNr1y6sQ2AhNTVVCGsZyWTykiVLsI6ChYiIiOfPn2MdBQurV68GS5HyBeh6DwBCAnS9BwAAGyChAADAMyChAADAMyChcKe4uBjrEFhobW1lWsFDGMAw/PXrV6yjYKG+vl4Ip4+BICgvL0846zQ5B3rKckdRURHrEFiQlJQUFRW6XyUOh1NRUcE6ChakpaWFc8XPoUOHYh1CXwndt1DICW1CwToEFoQ5oWAdAmvKyspYh9BX4JEHAACeAQkFAACeAQkFAACeAQmFOydPnsQ6BBY+ffpUXV2NdRTMKBSKt7c31lGwEBcXl5iYiHUULPj5+YGu93wBut4DgJAAXe8BAMAGSCgAAPAMSCgAAPAMSCjciYyMxDoEFoqLi5ubm7GOghmVSg0NDcU6ChYyMzNzcnKwjoKFmzdv9vdJqkGlLAAA7IBKWQAAsAESCgAAPAMSCgAAPAMSCgAAPAMSCnfi4uKwDoGF0tLS1tZWrKNgRqPR7t69i3UULOTm5hYUFGAdBQsPHz4ErTx8AVp5AEBIgFYeAACwARIKAAA8AxIKAAA8AxIKd8B8KJwD86FwC8yHwi+gUhYAhASolAUAABsgoQAAwDP8XZens7Pz7Nmz7969k5CQmDVrlpeXl6SkZGtr67Fjxz5//iwnJ7d06dKlS5fyNQYAAASGvwnl2bNnQUFB9+7dQxDE1dVVSUnJ3d3dxcWFSqUGBQUVFRWtXbtWT09v0qRJfA2Dh5qbm4Vwra/u7m5RUVFhWzwQQZD6+nohXOuro6MDh8NJSUlhHQiz+vr6oUOHCueqhhzi71fw/v37Dx8+tLCwQBDEycmpoKCgpaUlOzv72bNnkyZNmjRp0rNnz86ePXvz5k2+hsFDXV1dWIfAApVKxeOF7ukVQZCOjg6so2CBTCYL4ccFQVBnZyfWIfQVfz/W27dvz5o1q6Cg4O7du4mJiZaWlrKysjExMegtSVdXV15enrGxMctzP3/+/Og/BAIhKyuL6eNmWrf8zZs3ZDKZvtnc3FxfX894QEpKCmObXHFxcXt7O+MBX758YdzsWWJJScmwYcO4KpFxaEavJWZkZPQskf17bGpqgiBIRkZGXFxckCVy8h7xeLyOjg63Jb58+ZLbEolEIufvkUKhtLa2ysvLc15iWloatyUy/uOhUCjs32NdXR1aopaWFnp70muJeXl53JZIoVB6lvir95iXl3f//n30r+/169cQx/h7h4IuInvhwoWIiAgcDjd48GBxcfGZM2fSaLSioiI3NzdlZeX169ezPFdERGTQoEHoazweLyYmxvRfhekOX0JCgvFeEY/Hi4iIMB3AdDrTBdG/STrBlyguLs5tidD/GgAlSkpK8rVEHA7HbYlMF+R5iSIiIkzfnF5LFBMT42uJOBxu0KBB6DFcrZwtiH4oMAx3d3eHhITExMQkJSUhCLJp0yb0YcfGxobloyzohwIAQkJY+qEgCGJoaFhfX4/H46WkpIyNjYlEIpVK9fDwqKys/PTp04IFC4SwYgwAgN/Gx4SCw+HMzc2XLVtWVlZWWFi4fv16Ozu7urq6yMjIhQsXZmdnx8fHx8fH5+bm8i8GngsICMA6BBY+fPhQWVmJdRTMKBSKh4cH1lGw8PTp01evXmEdBQsbNmwAXe/ZIRKJR44cSUhIGDRo0MqVK11dXQkEwqFDhxg/NSMjo55fO/DIAwBCgqtHHv5WysrIyBw7doxxj5SU1IULF/haKMCV1tZWMpnc37s/AEJCGFvjAUF6/fr1jBkzpk2bduvWrba2NuEcLAr0FyCh/OkWL178/fv3x48fp6amjh07Njo6GuuIgH4MJBTuJCcnYx0CC5WVlQQC4bdPFxUV1dLSunz58pkzZ7y8vC5evMiTqGg0WlRUFE8uxVvfv3//8eMH1lGw8Pz5czBJNV+ASlnBgGH4+/fvNTU1RkZGaC/E5OTkhQsXvnv3Tk9PD+voAKEgLP1QACGHIEhQUJCtra2Xl9fs2bMbGxshCDI3N7948aK1tXVbWxvWAQL9D0gofy4qlRoWFvbixYucnJzRo0fb29vX1dVBELRgwQJNTc2UlBSsAwT6H5BQ/kQIgkRHR0+aNOnnz5/Dhg0TFxe/devWpEmTdHV1y8rKxMXFHz58mJSUhHWYQP8DEsqfqLy8/MCBA4GBgaqqqvTBmWfPnvX09Hzy5AkEQcOHDxfOAf6AkANfGu5ERkZiHQILxcXFzc3NHB6cnZ199uxZV1dXBweH5OTk+vr6ZcuWtba2SktLnzp1atOmTehhhw8f7mNUVCo1NDS0jxfhh8zMzJycHKyjYOHmzZuglYcvQCsP/+Tn55ubmzs4OFy9ehWHw7W1tZmamo4cOfLx48fCNucbIAxAKw/Ajp6e3suXL+Pj448dOwbDsLy8fGpqqrW1dX8flgYIA5BQ/hS5ubmzZ88ePnz4nj17xowZ8+jRo9DQ0NOnT9NoNHl5+U2bNjFNXAQAvwHc4v4RmpqaLC0tHz16NHLkSE1NTRKJFBgYmJmZOWHCBARBtm/fjnWAwAAB7lC4c/78eaxDYCE7O7u2tpbNAS9fvtTX1581a9aHDx8sLCwSExPXrVtHoVBev369du1aPkVFoVB27tzJp4v3RUJCQmpqKtZRsHDgwIH+/uAJ7lC4I5yL9fZaYYbOflxeXh4UFBQVFVVeXj5nzpzU1NS4uDj+rQoiJiZ2/PhxPl28L6ysrLAOgbUDBw5gHUJfgTuUgYxMJhMIhI6ODmNj4zdv3pw7d87S0lJJSam2ttbLy+v79+/a2tpYxwgMKCChDFj5+fnTpk0zMjLS1dXds2cPBEFycnKxsbG3b9/29vZ2cXHBOkBgAAIJZWDq7Ox0dXX18fH59u3bjh07IiMjm5ub/fz8pk6devv27VOnTnHYrQAAuALqULjT1dVFXy1IeKArB9I7y9NotKampsrKyuXLlxcVFZ0+fToxMdHe3v7KlSshISECiwpdOVBGRkZgJXKITCbjcDimpW2EQUdHh5SUVL+eixPcoXCnqqoK6xBYIBKJ9JXoCASCi4uLpKSkjIzMvn37HBwc4uPjR44ciS5TL8ioEAT5+fOnIEvkUGtrq3BOzlBaWop1CH0F7lC4M2rUKKxDYEFBQQF90dLSEhcXJykpOWTIEG9v7127dv37778jR478+vVrYWGhurq6IKPC4/ETJ04UZIkcUlZWxjoE1saPH491CH0F7lD6PQRBampqYBiGYfjBgwdr164dNWoUDofz8/M7ePCgn5+fqqrqrFmzrl69qqOjg3WwwAAH7lD6vZaWlpkzZ65evbq0tDQ0NJREIh0/fnzp0qUTJkzYvXv3ihUrWlpaVFRUVFVVsY4UGPhAQun3FBUVQ0ND7e3tlyxZIioq+s8//8AwPG/evCdPnkybNk1TU1NTUxPrGIE/BXjk4c6uXbuwDoEFEol06dKl5ORkHx8fGo3m4+Nz4sQJMzOzz58/YxgVmUxesmQJhgH8SkRExPPnz7GOgoXVq1eDrvd/FqaFEDFXUlJy6tQpdXV1X19fIyOjRYsWiYiIBAYGLlq0CIZhbAcQo1NJYhjAryxatAjrEFi7efMm1iH0FUgo/Vh+fr6Njc3y5cthGMbj8ePHj4+Pj587d25BQUFnZ+eLFy+EsMsMMLCBhNLPZGdn02g0Q0NDCILOnj0bGxs7duzY8vLy2bNnV1VVvXr1Kicn5+jRox4eHiCbAIIHEko/09jYeOvWrbCwMLQ/5aVLl7q7u+Pj4318fBobG93d3VNSUvbt24d1mMAfClTKcicjIwPbAExNTb9+/drZ2QlB0O7duysqKkRERMLDw9esWWNgYEDvLysMaDRafHw81lGwUFJSUl5ejnUULCQlJYFJqvkCTFLNxs6dO/F4/NGjR9FNGo2Wk5OjqalpaGgYHh4+Y8YMbMMDBhiuJqkGjzz9z8aNG/X09CZMmLBs2TIIgkpKSrZv397W1hYSEtLvsgmNRsPhcGANICY0Gg2Px/fHUYLgF9n/DB8+/NGjRzt27Hj48CEMw6NGjXr16lV6erqNjQ3WoTHz9fWl30n1tG/fPm1t7S9fvjg6OqKroHIoKSkJHXa4ZcuWvq8fxDknJ6fc3FyWP+rs7Hz69ClPSlm7dq2hoWFTUxNPriZgIKH0S3Z2dufOnXN1dT148CCVSsU6nF9qa2trb2//1U8fPHjw5cuXKVOmNDc3c/XofeDAgdevX0MQtHPnTvrKhwJw/vz5X40ObW5u9vT05EkpsbGxKSkpQ4YM4cnVBAw88vRXCxYsKC4uPn36tIGBgZmZ2YoVK6ZPn86PZ4djx44ZGBhcvXq1o6Nj2bJly5cvx+FwBAIhICAgJydHS0vr2LFjioqKMAyHh4eHh4dTqdSZM2fu2rWLsVtdU1PTjh07tm3bpqenB0EQjUYLDAysqanZsmXL3r176YeVl5dv27atqalp3Lhxx48fl5aWptFooaGhMTExCIKYmppu3749KSnp27dvV65cUVZWbmpqkpWVdXZ23rFjh5WV1d27d9vb211dXVeuXAlBUF5e3tGjRzs7O93d3d++fXv06FFpaemeb/DDhw/fvn2rra198+bNlClTDh06NGjQIBiGz58/HxMTIykpuXnz5jlz5uBwuLCwMHd394qKimfPnqmrqz9//lxdXR1dimTDhg0tLS1+fn4nT55EL0ulUv39/c3MzC5fvkylUtetW+fo6AhBUHNz8+7du0tKSsaOHXv48GEZGZm4uLimpqb8/Pyuri4ikdjS0rJz586jR4/SaLS9e/d++/Zt+PDhR44c0dTU/PDhQ1hY2JgxY+rr652dnT9//tze3v7q1atZs2Y5OjqirXubNm2aPXs2BEHZ2dkHDx5sb28fMWLE2bNn5eTkYmJiIAhKT0//+PHj6NGjT5w4ISUlRaVSd+7c+fnz5yFDhhw7dgzNmCEhIdHR0XJycjt27ODqSwXuULgTHh4umILQuWAhCOrq6jp+/LipqWlgYCBTI46Ojs6FCxcSExONjY2jo6OJRCI/IomLi9u5c+fKlSvd3d3379+fnZ1NJpNdXV27urq2bt0qIyNjbm7e2dn5/fv3/fv3b9iwYd++fREREdevX6dSqUVFRRAEVVVVzZs3T09PD80mEAThcDgLCws5OTkXFxclJSV0Z0tLi4ODg7Gx8b59+6hUqqmpaUdHx+fPn0+cOLF58+bt27ffunXr4cOHo0ePVlFRMTY2njBhwrt37zIzM6lU6osXLw4ePLhgwQInJydfX9+mpqampqalS5dOmTJl2bJlwcHB165do3966enpmZmZ9DdYUlLi4+NDoVAOHDhQVFS0dOlSGo129OjR+/fv7927d8mSJV5eXujxcXFxzc3NZWVlwcHBZWVl3t7etbW1u3btkpaWXrhwoZSU1Pz58+mXhWE4Ojr6wIEDXl5e6Ox5RUVFJBJp6dKlCgoKW7du7ezsnDlzZnd3d3Fx8d69e6urqxUUFBwdHaWlpR0dHSUlJd3c3GAYPn78+KhRo8zMzBoaGioqKq5du5aWlmZoaFhVVbVr166WlhZPT88LFy789ddfrq6ukydPRudRp9Fo7u7uDg4OR48elZWVNTc3RxDk+/fva9eulZKSWr9+fUxMzJ07d0gkkpWVVX19/aFDh0aNGrVx40YYhrds2RIREfHPP/9Mnz7d1dWVu2l0EKH04MGDs2fPYh0FltD6BSKRGB4erqWlFRMTo6GhMWfOHCqVKuBIZs2aFRQUhL4+f/68i4tLbGzsuHHjiEQigiDt7e2qqqqxsbGNjY1FRUUIgsAwvHTp0j179iAIsmbNGk9PTxUVlZCQkJ5XHjNmDPrCxMSkpqbmzJkzs2bNQvc0NjbKyMi8f/++rq6upKQEvaydnd2JEycQBDE3N0cvuHr16u3btxOJRF1d3Tt37qDnWlhYJCQkHD58ePny5eie1NRUaWlp9MGqp/DwcFNTU/R1UVGRsrIykUjU09PLy8tDdwYHB6OXMjU1zczMvHPnjq6uLvr2c3Jyxo8fjyBIRUWFqqoq42VJJNLYsWOvXLmCbu7Zs2fZsmX37t2bNm0a43tMT08PDg6eOHEi/cThw4cjCFJaWjp27Fj6TnSa8YcPHyorK7e2tiIIEhkZaWRkhCAIlUqdMWPGsWPH0CMVFRURBOnu7s7MzET3vHnzBoIgKpV64sQJOzs7ejzoDKFiYmLl5eXozoCAADSv5ebmons8PDyWL1+elZXF8qPrCTzyCKmtW7eWlJTMmzcPrbaUk5MzNDR0cnJavHjxvXv3BDxIZ9y4cegLPT29S5culZSUVFRU2NnZ4XA4BEEkJSU7OjrIZLKvr291dbW6unp5eTm9ruHOnTtGRkZpaWnr1q1jX0phYaGGhgb6Wk5ODo/Ht7a2dnZ2/v33321tbRoaGuw7j9ArHaSlpSkUCuPV6D+6c+cO/ZEEZWpqampqqquri25qaWmRSCQajdbW1jZ27Fj6ztu3bzOeJSkpKSkpCUGQrKws+zqs0aNHoy90dHSePn2qq6tbXFxsYWEBQRD6x9/d3Q1B0JQpU5hOzMrKGjNmDH1z5MiRP378UFBQEBcXl5KSou9EX+BwuMGDBzOeLiYmdvPmzVWrVqmqqjI+6NFvEhUVFQkEAoFAwOFww4YNQ3f6+/v/+PGju7t73bp16ELXTU1Nw4cPZ/MGmYCEInQIBEJ+fv7UqVNDQ0M9PDwePHhw+PBhOTk5dXX11NTUuXPnLlmyJCIiQpALm9P/ksvKyrS1tZWUlLS1tePi4gYNGkSlUjMyMsaPH79r1y5FRcVHjx6JiYm5urrSz121atWBAwcmT5789OlTBwcHNqUoKyvT50BsaWmh0WiKiooBAQHjx48/ceKEmJiYvb09m9OZGllVVFSam5vR142NjegLOzu7qVOnMh4mLS2dmppaXV2NbtbW1oqJiYmIiIiLizc1NaGZqKCggJ5SuUWfM7S6unrkyJGqqqpjx45NSkqCIIhEIn38+HHy5Mlfv37t2UKsoaFRX1+PvoZhOD8//6+//mJq+mH8DjBd4dGjRwkJCWlpaTIyMgkJCVFRUeh+pgoRSUlJGIYJBIKCggIMw9evX7exsREVFQ0LC0On4/r27RtXnQBBHYrQKS8vt7KyWrp0qYWFRXh4+Lp168aMGYO2qkpISLx588bZ2VlERESQIV2/fp1CodTU1Ozevdvf39/Ozq66uvrjx48QBKWkpNjY2NBoNAKBoKamJi4uXlFR8erVK+S/Vht5eXllZeXdu3fv2LGDfSkeHh5paWnoEoiRkZFSUlIGBgbt7e3Dhw8XFxfPyspKTk5GLysqKtrrg/3ff/8dFRVVVVVFJpMDAgLQnYqKinr/C/33++rVq6ysLAiCDhw4gM6/a2ZmtmXLFhiGa2trjx8/3usSiDgcrru7G632YoQOIK6qqvr333+PHj26bNmywsLCwsJC9D3a2Nj8qmvs1KlTGxoaHjx4AEHQixcvamtrJ0yYwD4GRkQiUUZGRkZGhkQioZW1CKt2NF1dXVlZ2bt37yIIcurUqUePHqmpqWlra1+7dg0N29ramkKhcF4uSCjcQT9ofkAQxN/f/+TJk+PGjVuzZk1ERMS8eVJocjEAACAASURBVPMgCDp+/PiWLVusra1//PgBQZCoqKiHhwfTv6Pc3Fz6fzN+MDU1tbe3X7hwYUBAgKGhoYyMzJs3b4KCgoyNjYODg9PT0xUVFY8ePZqXlzdr1qyzZ89GRER8+vSptLS0oqICnVZ2/fr18+fPf/z4MeNl7ezs0BfW1taSkpJaWloRERHu7u5Tp05NSUnJyMhA1x6MjY2dNWvW48ePnz179ubNm+rq6oMHDyYnJ0dGRk6fPn3ixImioqL29vb0KenMzMxUVVV1dXXDw8N37dr1119/2djY4HA4ehZOSUlJT09njGTevHkhISHTpk0TExN7/PixiIjI6dOnhw4damxsvHjxYnReXgiCrKysFBQURowYYWtri/4KpKSk0HehqKjo7u7ec5XoKVOmWFpaohfR09OTk5OLi4vbsmWLsbFxTExMdna2nJzcqFGjjIyMIAg6ceIEDMP0+7iHDx/eu3dv6tSpISEhERERQ4cOHT58uKOjI3qXoaGhgZ6Fw+Gsra3p83suWLAAgqDly5ebmppOnz59zZo1e/funT179vPnz/X09CZNmoQeNmbMGAMDAykpqc+fP3/58sXS0rKwsDA0NFRUVPT169ednZ3GxsYrV668evUqV488oFJWiGRnZ48dO/by5cvnz5+/ffu2goJCaGgojUZDEGTbtm2TJ0/u7OwUfFSzZs168eKF4Mvto4KCgnv37qGvIyIitLS0KBQKyyPDw8NXrFjB8wDQStk3b97w/MoClpWVBSpl+6VJkya9fPlSV1f3yJEjGzdudHR01NbWrqqqOnDgQGBg4NevX7GdMKl/GTZsmLm5+a1btyQkJF6/fv3+/XtB1jr9ufia21BtbW1z585taWmh7/Hz85swYcLkyZMPHz7M8pQ/8A4FhuGIiAhjY+NFixYNHjx4+/btCIJ8+fJl7Nix06dPP3PmDFaBffv2jfF314/U1dUlJCS8fv26uLiYzWGNjY0/fvzgeek0Gu3r169tbW08v7KACdEdSmdnZ0pKyrVr13Jzc9HJMhEEOX78eHJyclRUVGdnp4ODw/z58+nPdX8aGo1WWVk5YsQICIJIJJKvr29oaOicOXN+/vy5dOnSvXv37tmzJz4+/smTJ3/99Reb61AolK6uLj4FibYpEggEPl2ffyQlJdGZqCC28YuJiQ0ZMoQfbxD9zfbHj45RR0cHyx7GrPEztSG1tbUbNmxYvHixurp6Y2Mj8l8/KPozeXl5eX19fc8T/5A7lGfPnklKSqLdiggEwpAhQ9AaEwRB8vPzIQjy8fHp9SLp6elc/L4BgHuc36Hwt5VHRUXlwoUL+/fvp+9pbW3t6Oj49OnTnDlzrK2tX79+PXToUJbnJiUlXfhPS0vL27dvmbqW5+TkMG4+fvyYRCLRN+vq6piWDX327BljH6ScnBympsf3798zbvYsMT8/n3GCJU5KZJzEvGeJ0tLST58+7ezsfPfunYSExNChQ0NDQ9Ef6erqioiIVFdXMxbRs8SYmBhnZ+eerZUAgAlOH3nKy8tJJJK2tnZ0dHRNTY2jo+PvrfZCJpOpVOrnz5/PnDlTXl7u6emppaVlZWXV88hhw4bRH4UkJCSGDRvGtLo103BM9C+QviklJcXUwq+trc3Yq2fIkCFMdZxqampMATCVqKioSO89yWGJjO27PUscMWKEqqpqaGhoUFDQgwcP/P39/fz85OXljYyMPn78OGTIkFOnTjGewlRiUVGRi4sLV90EAICvOJqxjUAg6Ojo+Pv7Kyoqbt++3cXFJT4+Pi8vj8NhiHl5eXPnzv369auSklJJScmECROSk5PRDotbt26tqqpCe+8w+kNmbGtqakI7Sr569crd3T09PR2GYWNjYxqNpqmpmZWVpaio+KtzCwsL9fX16QPeJCQk6B2xhUU5BBEhSBqCRmAdCdAH3d3dERERvJyxLSwszNHRcfPmzfb29l5eXrt377a0tMzLy9PX1+c2OFlZWUlJSfqjBJFI/JOXyJSVlZ02bdrt27c3btxIo9EWLFgQFBTU0dFRXV09dOhQGRmZX51YXV3t5OREzyZoR3j6sBFhYQ9BLyBoFgS9wDoSoA/QKSA5xFFCaW9vR0cxFRQUHDhwAEEQGIZ/b4kzJSWlJUuWHD58GIbh+vr61NTUhISE37hOf9fS0lJUVGRgYHD9+vXJkyfb29u7ubl1d3f/888/EyZM+NUsPqgfP36YmZnV1NSgmxoaGsKYTYA/Eyc1txUVFYqKioaGhuig9d27d+vo6JDJZA4rfmtra48cOdLR0YFuUqnU+/fvz5o1a+nSpYWFhSxPEdpWnp07d/LkOl5eXmJiYs7OziQSyd/f383NDUEQGIZzcnJIJBKbE1taWuiDaFEZGRkpKSllZWU8CYyHSHakxdBiZB7WcfSA9uLHOgoWVq1aJfjpKXrFVT+UXupQEARBqxVzcnLQphkZGZng4GBXV1f6iG9+GGB1KOiHzFhBW11dbWJisnDhwujoaCcnp9TU1Js3bzLW+LLU0dFhZWVFb2lSVFSMj4/vOfIdAHiIq1nve6lVPXTokKen5/Pnz+Xk5Dw8PDQ0NBQUFPz9/fmaTQaenz9/uri41NbWkkgkDw+PJ0+eDB061NfXt7m5+cuXL52dnSUlJRs2bGC/Jkt9ff3MmTPp2URJSenOnTsgmwBCpZeEsmPHjh07dkRGRk6ePHn69OnPnz/v7wsRYQIdgI+uZG5vb79+/XojIyMnJ6eampqioqILFy5kZWU9fvyYzbIJVCp10aJFX79+pe+5cOGCra2tQMIHAE71klDQxsirV6+WlZWdOnXq8+fPtra2tra2gYGBgolvYBAXFw8LCxsxYsS0adPMzMzy8/PXrVtna2vb2trq4ODQ2to6bNgwJSWlXyUUBEFcXFxSU1PRTWlp6SdPnixZsqQ/rtsCDGyc9pSVk5ObNWvWvn37nj59eujQIT7Nhyz8mLrncqiiomLWrFm1tbXi4uI2NjbNzc3r1q379OnT3Llz5eTkWlpa2JxLIBAcHByio6MhCI+DBg0aNCgoKMjZ2ZkxmzQ2NqKLkwoVGIbT0tKwjoKFyspKehuZUMnIyGBfp9kPcFh5e+/evXPnzrW3t0+cOFFeXv7+/fu/UV3MOaFt5fm9GUnc3NyCg4OpVCqJRNq7d+/IkSPRNi8Yhru6umAYZnPupk2bGH5duBs3bvQ8nkKh0AcBCQ8Yhtvb27GOggUSicR5G6UgEYlE9l8GTHDVysPRHUpqaurJkyetra2PHz+OLkdy+PBh+jydf5RBgwb9xlnfv3+fPHkyOlNpQEDA1KlT9fX18/PzcTicpKQkmyeXtWvXBgcHo68lJCQuXw5xd3fvebyoqKgQruaJw+HY9M3DkLi4ONOgCiEhLS3d3x9jOfoWJicnW1tbjxkz5tWrV4sXLzY2NlZVVUXXggTYgGEYvRNxd3c/duwYOoQPh8NNnz59yZIl7M8lkUh79uyhzzgpIiLi4+Ozdu3a/jRLkD0E4SDIDuswAAHiKKEMHTq0rq6uo6OjuLjY1taWSqXW1tb206USBYZCoSxfvlxNTe3EiRN//fVXcXHxokWLCARCTU3N9evXd+3aRV/QgKVjx44xrgrs6+t75MgRIbwNAQBGHH1BV6xYQaVStbS0tmzZIiYmNnXq1NmzZ2tra/M7uH5t9+7deDw+LCzs8ePH27Zte/Xq1bhx4wwMDObNm7dv3z45Oblf3dzCMHzw4MFDhw6hmzgcbufOnQcPHgTZBOgHOK+b6ezsbGhoqK2tLSoq4nfVkdBWygYHB/d6DIVCefTo0bx589Bu1GVlZePGjfP29kbXmuv13OvXrzM+4XMyf3JWVlZNTQ0n8QsS2Y68A9ohhF3v37x5k5KSgnUULOzfv7+/d73nNKHEx8cPHjxYWlpaRkZm+vTplZWVvxseR4Q2oXCCTCZbWlqKi4sTCAR0T2Nj49ixY9EBO+zdvHmT8c5lzZo1wtkewRE7BIEQIUwoAFd438rz9evXDRs2nDlz5uXLl9HR0ebm5gsXLmRauBugExMTe/HihbOzs42NDTpFm5KSUnJy8sqVK9mchSDI1atXvb29kf96Ijg6Op4+fVo42yMAgCWOEsrz58+tra1Xr15tYmJiZWWFTj5QVFTE7+D6l/b2dj8/P2Vl5bVr19JotNu3b2tra8+ZM6eyshKCoKFDh7LpKY8gSEpKypYtW+g9Bm1tbaOiouTl5QUUPQDwAkcJxcDAgLHXCQzDVCpVXV2db1H1S+vWrZORkSksLMzKypo7dy6CIDdv3hwzZszs2bPZr6cNQVBCQoK1tTV9atg5c+ZERUX19y4J0AMIaoGgh1iHAQgQRwlFS0srLy9vwYIFe/fu9fPzs7W1FRMTO3369N69e4WzbzX/REZGstxfVFT06dMnHx+fpqYmKpUqKirq5ubW1tZ25cqVkJAQNp1HEARJTk5etmwZPekYGBjcuXOHqzW9iouL6QuDCw+qJDX0YSgkfF3bMjMzf28IBb/dvHmzvw++5aiXFJFIRNc3QddhR6enRl+3t7fzMzyhgy4c25OUlJSUlBSNRtu2bduWLVtWrlw5atSosWPH3rp1i76CL0s5OTkuLi70G0ADA4O0tDRxcXGuomI/wxtWREVFPT09sY6CBQMDA6xDYG316tVYh9BXHCUUQ0PDsLCw7u7ujIyMYcOGCd1kyJiCYbi7u1tdXT0tLS0/Px+Px69evRqGYUtLy3PnzklJSbE59+vXr9OmTaNXb2tpacXFxXGbTQBAeHDaV8rPz09TU3Pfvn0LFizQ1dV9/PgxX8MSco8fP0an1D179qyOjo6mpqapqem3b99gGM7Ly4uLi1u8ePG0adNkZGTY9EbLyclZunQ5mfz/bTpaWlpv3rz51SpFANAvcJRQYmNj37x5U11dnZSU9PXr1/v37/v4+PT3BRZ/G4Ig//777/r16wkEwv379z9+/NjQ0GBhYYEukDh//nw/Pz81NbU1a9awuUhpaamTk1NBQS4OkoAgMU1NzU+fPuno6AjsXQAAP3D0yPP27du5c+fSaxYnTZqko6OTn59vZGTEz9iEFA6He/bs2fz5821tbR0cHNB7ioCAADKZHBgYeObMmYCAAElJSTb3JpWVlSYmJtXV1RAEIRBRTW3Y8+fPlZSUBPceAIA/OLpDmTZt2ocPH+jrZrS0tFRWVv6Z/06Tk5MhCFJQUHjy5ImMjMyLFy+6u7shCBIREXF1dX348KGIiIiUlBSbbFJeXr5gwQI0m0AQJC0t/eLFswkTJvQlqsrKSiG8YaSF0KK0o6BQrOPo4fv37z9+/MA6ChYGwBSrHCWUhQsXjhgxQlNT09PTc9WqVWPGjFm7du2f+bRvbm6OvlBWVn758qWSkpKbm1tVVVV7e3t8fDz9p7/S0NBgZ2f36dMndFNFReXt27cczifOhoaGhpycXB8vwnMiT0WcS52hKKzj6GHMmDHC2bBgb2/f34eAcjq5RmhoaFFR0bt370RFRf39/bW0tPgZVf+Aw+EePHiwdu3aSZMmiYuLjxkzJiIigs3xRCLRwsLi27dv9D03b94U2iZMAPgNvSSU9PT0srIy+ubgwYMhCMrMzMzMzOx1iqCBp6io6MyZM5cuXaLvkZKSunz58saNGydPnuzj48Omb2tnZ+eSJUvo2URaWvrevXtg2npggOklocTGxr54wXpl2j8woSgqKj59+nTPnj2Ma/fJysqGhYXRaDQ22YRAIDg7OycmJqKbMjIyt27dcnBw4HvEACBYvSQUT09Pb29vIXw+x4SSkpK2trazs3NGRgbTs66IiMivzqLRaMuXL09KSqLvCQoK+lWP29/z4cMHDQ0NpiVKMUeBKJ6Q5w3oBtaBMHv69KmEhMTcuXOxDoTZhg0bgoOD2XyX+gH2sxusWLHiypUrCIK0trauWrWqoaHh96dV4IZQzYfy8+dPLy+vtLQ0GIZra2slJCSSkpI4PBeGYcZZC8TExEJDQ4VwZnO+APOhDAi8nw8FgqDu7u4HDx7Qh8P+OYhE4o4dO5qamuzt7VesWNHc3Hzy5Ek0yfZ6LplM3rhxY1hYGLopLi6+Y8eONWvW9PthxBzSgaBJEPQn9i74c/WfKdSx0NraGh8fr6+vv3v37paWlhs3bpiZmQ0bNqyioiI3N1dfX5/96du3bw8JCaFv7tq1a//+/X9KNoEgKBjrAACB69+N3vwWFha2detWbW1tERGRIUOG+Pn5FRYWbtmyRVdX9/jx4+z7IPn7+wcFBaE3MqKiovv37/f39/+DsgnwR+r9DiUrKysqKqqtrY1Go7169Yren83Z2ZnPsWFvw4YNWVlZhw8fNjc3Hz58OARBXV1dHh4ejo6OM2bM6OrqkpaW7nkWlUoNDw+nL4KBx+PXr1+/d+9e/lW2EYlEcXFxYRumDMNwaWmpEPaobmlpwePxQjgbXmlp6YgRI/r1f51eEoqmpubTp0/RZbrHjh17/vx5+o8GcEJpb2/39/f/8OGDm5vbtWvXtm/fbm5unpOTIy0tja4cqKCgICYm9qt52EJCQrZs2UK/f/H09Pz333/5WnUvtCsHsky4mBMXFxfOP1r2k130C70klMOHDx8+fFgwoQiJtrY2FxcXIyOjFStW3Lp16/Xr13fv3pWVldXT00tISNDV1YUgKCcnx9nZmeVfS3h4+JYtW+jjnlxcXE6ePMnvhkBJSUm+Xv/34HA4FRUVrKNgQTjTHARBysrKWIfQV70/8tBotKqqKk1NzZycnKamJvp+CwsLPsaFnZCQECUlJTSNurm5TZ069caNG/v27YNhmD4t4+TJk3sOwKHRaG/evFmzZg09m9jY2Ny+fVs4/9oBgB96uU/u7Oy0t7cfN24cBEF79+5dtWrV7Nmz58yZ8/btW4GEh4H6+np64lBUVPz48WNoaCgOhztw4AA69+WvxMTEODk5oYOPIQhavHhxdHQ0yCbAH6WXhBIaGlpcXJyQkIBu3r17t76+fuPGjehyMwMJmUxG77/c3NwSExMLCwvR/dLS0mh+Yf/U/eXLl+XLV9GzCTr/I1cTTQ9AYLH0P08vCeXp06dXr16dPn06fY+iouLRo0djYmIYF9bo76qqqgwMDHR0dPbv36+vr79p0yYDA4OHDx9+/vzZ1NTU29ubfuTJkyeZzkUQJD093cLCUhQage4xMjJ6+vSpqqqqwOL/9OkTfYIV4UGBKN6Qd+/HCVxcXBx9XJVQ8fPzoz8v91fsO9Lq6+vT19N8//492vWeRCJNmzYtLS3ttzvz9krAXe8dHBxu376dn5+vqqq6atUqMpmckpJiZGQ0bty4R48eUSgUNudmZ2czVs7PmzePkzWM/wig6/2AwFXX+96bjcPDw9etWwdB0IwZM9CdVCq1oaFhANRIQxBUX1//4sWLgoICU1NTLS2trKwsGxubNWvW3Lhx48OHD72enpmZ6ejo2NnZiW5OmjTp8uXLQtuIAAD81ssjj7u7u4+Pz9u3b4lEIgzDZDK5uroa7TwqhB2WuNXZ2WlpaRkYGFhXVxcXF0ej0VRVVd++fZufn+/h4cG+IyyCIOXl5fPnz6+qqkL3jBs3LjExEe3/BgB/pl7uUBYtWtTW1ubg4KCsrCwjI0MmkxsbGyUlJenVtP0XiUTKz8+3tbU9cuTIly9fFixYQKVSvb295eXlnz9/3tnZyb4WtqyszMzMrKamBt0cMWLEixcvFBQUBBI7AAipXhKKmJiYp6enubl5SkpKVVWVhITE+PHj582bJyYmJpj4+Ofly5fLly/funWrpKTk9OnTHz169Ndff3V2dm7dupXN01xcXJytre3Pnz/nz5+ProIOQZCKisr9+/dHjBghqNiZlZaWKigoCFs6o0G0+9D95dBypv3fv39PSkoqKioiEony8vJ6enpmZmaCXPwwNzdXVFRUT09PYCVy6OHDhy4uLkLY6ZlzOISDYfi8QiAQurq65OXle+2d8fDhw+rq6i1btvA1nmvXrnl7e8fFxaGTS2dmZi5evPj169fsn+ZaWlqsrKyys7PRTWVl5czMzGHDhvE11AEAQZDKysrdu3e/fft2xIgRY8eOHTx4cEtLS25ubm1trZOT0/bt2wXZNAZwCP2qczqVOv8qh5ncunVr5MiRampqEyZM+PjxI/uD+dfKA8PwnTt3bGxsjhw5QqFQrl27pqKikpmZif60qamJ/exHjY2NaO97lJycXEpKyp8yYVLffPz4ce7cuampqUwfMo1Ga2xsTEhIsLS0bG9vxzBCgCVetvLwys+fPzdt2vTw4UMDA4OzZ8/6+flh1RFg27Ztubm5jo6OMTEx0dHRr1+/lpCQmDNnzv3792fPnq2oqMjm3IaGBnd396KiInRTVFT0yZMnenp6Fy9eTE1NLSws7OjoUFBQGD16tLW19cKFC2VlZQXynvoHfX39uLi4njVTeDxeSUnJ0tJy5syZ9MXkgH6Ki98fgiBkMllMTOw3nvFaWlq6u7tNTU2lpKQWL14cFYXNYi0UCuXly5e5ubkkEiklJcXQ0DA9PX3p0qVDhgzpdew/hUJxcXGhjzmQkpKKi4trb283MjIaNWrU4sWLfX19lZSUGhoaPn36dPny5YsXL16+fHnixIn9+pGYh8rLyxctWgRBEIIg6JzeIiIiVCoVh8PZ2NicOXPmT+9YPDBweCeTk5Mze/ZsXV3d169fu7m5NTY2cnXXRCQSnZ2dTUxMNm3apKamduHCBfbHP3jwwNTUdNt/amtrIyMjW1tbGY959+4d4+a5c+c6Ozvpm+Xl5UVFRYwHXL16taGhQV9fv7u7287OzsnJCZ2tIyMjA4ZhGIafPn3KeDxjiR0dHaampvT/rjgcLiYm5uTJk6GhobW1tegNPGOJMAxXVFTY2tq2tbUxBlxfX89YBFOJ9+/fZ3qPGRkZ7N9jWVkZ03ukUqnCWWJXV1deXt6+fftOnDihra395s2bvLy8lJQUWVnZJ0+e0I8/efIktyUyTXXM/j12dXUxvcdeSwwLC+O2RMbfe68lFhYWclviy5cvuS2xq6uL8xJfvXrl4+OD/vWtXLmS80cejhJKZWWlnp7e6dOn9fT0kpKSfH19ra2tGYvvVVVV1cyZM93c3AICAqZNm7Zhwwb2xz948AB9NkF1d3dXV1eTyWTGY5qamhg3f/z4wRhSZ2cnY4/VpqamwsJCGo02Y8aMOXPmBAQE1NfXNzU1aWpq0j+smpoaxgvSS+zq6lq1ahU9BeNwuOvXr6Ml5uXlffvP58+fP378iL6ura1FEKS0tJSxsqCpqam7u5uxCKYSKysrmd5jc3Mz+/eIfi9LSkpaWloEWSIdmxKpVOqdO3d6lrhgwYKqqir6nqioqNmzZ9M3i4qKuC2RRCJx/h6pVCra1YjzEsvLy7ktkbF3NZVKZfpUmUpsb29HS3zw4AGNRuOkxLq6Op6U+Kv3WFNT8+XLF/Sv7/HjxzxOKKdPn16xYgUMwyYmJunp6WjX+7y8PA7LQBAkJCREX18fjZhMJispKaF/cr/Cw0pZGo12+fJlGRkZHR2dgoKChIQEOTk5X1/fHz9+bNu2zcXFhf3pVCrVw8ODnk1ERUVDQ0PpPx0+fLiSkpKioiIOh5OTkxsyZIiMjAwej9+9ezdPgh+Q5s6dW1BQQP/6Pn/+3MTEBNuQADZ4P+v94MGDe3Yb5WrCQQRB5OXl0UcGMTEx9K+O89P7oqKi4tixY+/fv9+6dauZmRkej8/Ozm5tbV27dq2qquqtW7fYnEuj0f7++2/6tPUQBB0RObI2di19Mzs7u7CwcNWqVZs3b87Pzy8sLPz27Zu3t3fflyseCDZB0GSo5/DAVatWzZw5c9u2bTdv3kTnxFi7di2r84F+iJOs09TUNGPGDH9/f11d3YCAgL///tvBwYGrR57CwsIhQ4b4+Phcu3Zt8eLFjo6O7I/n1R1KYmJiQEDAtm3bEAShUCgXL17U1tZ+9uwZJw29VCrVx8eH8bMKHBQIQzAy7n8OI5PJgwcPZhwq+f3795kzZ/Y9+H7vF4MDaTTay5cvvby8HB0dPTw8Xrx4AdrdhRlXdyicVsrW1NRYWVmpqampq6svWbIEfWLnSnNzs7e3t7W19aFDh5ge7HviSUJJSUlRVFRUVVVVUlKiP7RfvHhRXl6+sLCQ/bk0Gu3YsWP0VILH4z09PWmWNARCmBIKjUbT0tIKDg4mkUgwDHd3d9+7d2/RokV9DH4g+HVCaWxsrGLAVB0GCBW+JBQEQWAY7ujoYKwr5p++J5Tm5mZ0xEB7e7u7u/uECRPQJEij0TIzM3vNaMeOHWN8ptu4cSMMw4gVcgI6wZRQEAQpKCjQ1tbW09MzMTEZPXq0urp6SUlJX4Ln1sePHxmrOYUE2Y68EdrYM6GEh4crKSnJyMjI/sfNzU2QgcXGxiYkJAiyRA5t27aNqxt/weAqofTS9f7QoUOxsbEsf/T+/fu+PWyx08eu9zAMOzo6JiYmZmRkjB8/HobhzZs3Jycnx8TEaGtr93r6rVu3Vq9eTd9cv359cHCwqKgoZA1BCRA0DoLymE9paGiIiooqLy/X0NBYsGDBwJjboa/sIegFBM2DoBf/s9vOzs7Dw8PBwQHMj9kvcNX1vpeObX///bebmxsPghIsPB5//fp1c3PzwMDAK1euSEhIBAcH+/j4HDhwgH0tLIIgt27dojfr4HA4S0vLf//9l30PTgqFUlxcjMfj0eXKIyMjJ0yYYGJiwsN3NJCIiIjY29uDbDIg9ZJQ6IO1iERicHBwTk6OiorKqlWrhL8VQ1lZ+cOHD87OzgsWLIiMjJSQkDh16hT7KU4gCHr9+rWXlxd909HR8cGDB7324FyxYsW7d+/mzJlDn1ppyJAhfYx/APPx8bG0tLx+/bqWlhba8CciIgK6yQ4MHHW9R5cKl5OTGz9+fEdHx7JlyxYuMmE3XwAAIABJREFUXCiE6/U0NTUpKSnRN+Xl5cPDw1evXr1mzZrz58/3Oro/MjJyyZIl9OW77O3tb968+T9f9IUQpA9B/zsglkQixcbGRkVFWVpa8uqNDBBOEKQLQeOYd0dHR9fX18+fP5++Z86cOaGhoQKNDeATTipazp8/7+TkRN/s6OjQ1tYuLy/nvn6HUxxWysIwzNjhj2XdHpFIXLZsGft5XmEYjouLY5zkZcKECUx9DVE92yNoNNrEiRNfvHjRa7T809XVxX7iW0zAMMy++yJWiERiR0cH1lGwUFdXJ4Qt6LwfbYwuFU7fFBUVHTJkSFdXF+/TG5dycnJcXV1fvXqFVl6UlZX1PEZaWvrOnTvsp1/LyspydXWlUCjopqmpaWxsrIyMTM8je75rPB6/bt26jRs3Lly4UE1NDS3IwMBAkAuhUalUIRyCiCBIR0dHz/21tbVM+6WkpNTU1AQVF0Qmk4Xw44IgiD45cf/VS0KpqqoiEAj6+vrXr1+Pjo4eN24ciURKTExUUVFhnBYEK6NHj3ZwcHBzcwsLC9PW1kbH+PX8rrDPJm/fvrWzs6N/xadPn/7gwQOW2QSCIJYTKeXk5EyfPr2yspI+hxvjk5cA/CpabOHxeJZTVZ0+ffrly5cQBMEw3NDQ0N7evmnTpsDAQIEFNnjwYIGVxRUtLS2sQ+irXpqN//77719NNdDQ0MCfkCCIy2bj3bt3R0VFJSYmTpgwAYIgKysrGxsbc3Pz4cOHsx8fgCBIcXGxiYkJ/b0MGzYsKytr6NChfX8LAIfc3d1NTU3Xr1+PdSAAa1w1G/eSUNra2uir4TGqrKycMmUK/+4buUooFArlzJkzISEh4uLiN27c+Pjx45s3b2pqamJjY9m3ttTV1RkZGZWVlUGQiLSkhtZImdjY2N+Ytv7UqVPt7e2Me4yNjefNm8ftdf5Mb9++PXDgwACY9nyg4mU/FHl5eXl5eQiCkpKSPn36hGYfGIYvXbqUlpYmyOfenlpaWoKCgj59+rR582ZfX18REZGgoCBJScnNmzf/888/vZ6en5/v4ODwX7ULbfqMMffuhamoqPxGJHV1dW1tbRAEwTBcXV2dlpYmhBMgC4/8/Hz6LSEMw9evXxe26bWB38dJze23b98UFBTc3NyGDBmycOFCVVXVAwcO/F6NMYd6beWBYXjevHleXl5RUVHS0tKRkZEwDP/777/Dhg1jmiqC5bktLS2TJk2ifwhDhw79/v1772HVIAc9DiKVvRz15MmTkydP9n413klLS6uoqBBkiZwgV5BXW6xGerTzeHp6qvxHVVV10qRJAh43EBMTwzRBkZDw8vLq713vOUoox48f/+eff8hk8pQpU6qqqmpra+fMmcPXdspeE8rHjx9dXFyoVGpdXd3MmTOVlZXv379PpVJjY2N7/Xa2trZOmTKFnk1UVFS+fPnCUXOdFdJzcGBPeXl5jDMG/bl+MTiQSCS2MBDCBm+AEe+bjUVFRSkUiqioqLy8fG5urpWVFYlEKigoQCtBMdHV1YXH41tbW62srM6fP19bW7t8+fLAwMCYmBh1dXU2J5aWli5ZsiQrKwvdlJeXv3nz5sSJE/sSzIULF4hEIvq6u7s7Li5uyZIlfbngwAbD8OXLlyMjIxsbGzU0NFatWuXu7j4AVnoCIA57yrq5uenr6+vr65ubmx87doxCoXz79g2TphAEQSgUCh6PNzMz09PTi46ONjY2trCweP/+vb+/v6urK9oh5VfIZPKaNWs+fvyIbg4aNOjly5dGRkZ9jCo9Pb25uRl9LSYm5uzs7O3dY1oh4D+3bt0KCQl5/PjxyJEj09LSvLy8qqqq9u7di3VcAA9wlFDU1dUzMjIaGhomTpwoIiISHBx8+/bt36u/7IuWlhYvL68vX74oKipeuHBh8uTJP3/+bG9vJxKJhw8fPnHixJgxY9icTiAQnJyckpKS0E0FBYXo6Ohp06b1PTB0Srfa2trq6mpdXV2wegZ7kZGR2dnZaGX/vHnzwsLCdu7cCRLKwMBpu++IESOGDRtWXV3t5uZ2/vx5QS4cSffPP/+oqqrevXvXwsLC2Ni4oqLC3d39x48f48ePNzAwGDt2LJtz29raPD096dlEQkLi7t27s2bN4rblOxlK7rmzvr5+zpw5JiYma9eu1dPTW7lyJdroIzCVlZUEAkGQJXKCBtGiIBadmCQkJBj7IiAIIiIiIsC4oO/fv//48UOQJXLo+fPnvY5fFXacVLRQKBRbW1sxMTFJBr9dx8OJnpWyRCJRT08PQRACgTBt2rTU1NSAgAAOR2RQKBTGZxAxMbFnz579TlisKmVhGJ45cyZ9VmoymbxixYqdO3f+zvUHmF9Uyl69elVNTS01NbWlpSUvL09XV5ffjYZAX/C+Uvb27dvt7e1fvnyRkpLiW2brhaioaHt7e3d399y5c319fU1MTA4fPmxgYGBvb8/+RBKJtHTp0qdPn6KbIiIiFy9etLW15VVgHR0dOTk5V65cQTfFxMT27du3aNEixhkkAUbu7u5oz4OioiJVVdWAgAB0ATBgAOAooRCJxDFjxrB/puCTtra2mJiY5uZmKysrBweHYcOGHT58eOnSpWQyua6ujv2q5hAEkcnkffv2xcTEIP91CD558uTvz7H+hsW+QYMGDR06NDs7e9y4/x+o//XrV2EY6IS956x3S0hIGBkZ/fPPP+3t7UOHDjUxMQFNPAMHJ7cxbW1tU6dOra+v7+jo6PzP799CcQB95CGTyVOnTtXX1zc0NBQTE7ty5crIkSPV1dX9/f11dHS2b9/O/iI0Gm3Hjh30d4rH4w8fPsyPaPPz82VkZJydnQMDA52dnWVlZXudBPtPlpWVJSYmJisriy5jpK+vz7TYICBUeP/I8/bt26KiIk1NTSUlJfrI3YqKCr5kuP+gq5+ZmZkFBgaKiIgkJiYuW7bs9evXNTU1P3/+vHPnjqGhIZvTaTTa1q1bL168SN+zf//+7du38yNUPT29r1+/JiUlff/+3c7O7sSJE5hUWvcXx44du3LlyqJFi6SlpYlE4qFDh9atW/fkyROs4wJ4gKM2DgsLi8zMzLy8vLdv3yb/h9+RvXjxwsTERENDA12e3draesuWLR4eHnPnzvXy8poxYwabkcToaKNLly7Rp1/z9PTct29f32+tw8PDWe4vKyurqKjo7u4mkUg0Gq2PpXCroKCgsbFRwIX2ikqlnjlzpuf+pqYmd3d3GRkZHA4nKyu7aNGiuro6QQaWnp6emZkpyBI5dOHChf7eytNLQqmvr6+vr8fhcD3vbfgdmYODg4ODw8GDB6urq9E9EydO/PbtW69FIwhy+fLlTZs2oRMm4XC49evXh4SE8CSqZcuW9SwuLCzMzs6uvLx8+PDhaE+5vLwe8+Lzk56enhDOYisqKrp161b6JgzDZDKZTCbPnTt3//796Cxz3d3dd+/enTlzpiADMzIyMjAwEGSJHNq4caNwzvzEuV4eeS5duiQuLm5iYtLzYeHDhw98iwqCIAiHw506dUpOTm7WrFmXLl0aOXLkiRMnrl69yv4TR7PJtm3b6HsWLVoUFBTEfo6lviCTyT4+Po8ePULbm7Zu3fry5UtfX190DiGArri42MnJCYIgEolUWlp6584dWVlZIpFYWVnp6emJdXQAb/SSUPbv34++YEwfCIIQCAQEQfj3V4oSERE5ePCguLj43LlzDQ0N16xZs3z5cvanPHjwYNOmTfQnnUWLFoWHh/O1EQGPx0tISNAnAcPhcBoaGvz+ZPojDQ2NGzduMO4hkUjoHOBCO4UawDUOK287Ojpqa2trampqamoqKioMDQ0FOUn1hQsX5OXl8/Ly2J919+5dxrdmaGhIJpN5GVaPjm1tbW1tbW0vX760sLCora0lEAhFRUXGxsYZGRm8LLef+kXHNroxY8YIMBrgN/G+laeurs7c3FxcXPznz5/Dhw///v27q6urIBfHQ+cHnDdv3uvXr0ePHs3ymNTU1I0bN9I3raysHj9+zPN7k2vQtTXQGvqmmZkZOm11Z2enkZER2myBIEhCQgJPRglxKDc3V1lZWdiWK6RC1GPQMX/IH+tAmKWkpIiLi/d9UCjPnThxYtu2bf27GoWTrHPu3DkPDw8SiTR58uSWlpYvX764ubnRaLTfT3q9YTkfSnR09K/62ickJDAuoGNpacl+3YzfxHY+FBKJ9PHjRxKJxPty+ylwhzIgcHWHwlEubG1tVVFRERUVlZKSys/PHzduXHV1dWFhId+yHGuOjo4s+/7n5uba2NiQSCR0U0tLKzIykr6In8A0NDTY2Ng0NTUJuFwAEB4cPfLY29svWbLE2tp68uTJ165dk5WVLSkpEZK1I0tKSuzt7elL6ujp6SUnJ6ND4wEAEDCO7lAMDAyOHj2anZ29b9++0tJSZ2fnlStXamtr8zu4Xn39+tXY2Li8vBzdnDBhwvPnz4WtKgEA/hwc3aEQCARzc3N0RqX4+HgEQcrLy1kuqSVI6Cwk9fX16KaUlNSTJ096HS7YR11Q1yBoEF+L+A3oyoHCVpmHQEgH1CED/XIRspSUFEHGQ0cmk3E4nBCOSOzo6JCSkurXfQ56SSjt7e0pKSnJycnZ2dn0tSm6u7u9vb1zcnIEvD4eo9bW1rlz59KziZaW1qtXr/g+xjcAKt5UrC+rz99SuNfa2iolJYXh5BIsIXuRnL9zZqjM6PkjAoFw//59MTGxOXPmSEhICHg60fr6ehEREWwXgWEpLy9PkI2D/NBLQmlsbDx+/HhDQ0NLS8vx48fp+52dnRUVFfkc2y9VVFTMmDGjqqoK3VRXV4+OjhbEjAEmkD70y2wiKio6cuRIAU8+hhLCfvcQBOFn4GdALLJJWlravHn/1955BzR1fXH8JgQIU5aAMkRkKoIMlaEiojipOHCggtY6cOPeIiq2jloHrqqoWKyKUkVQkSooDlRAlgwBFZAdSBjZyfv98X6mMaAmJbz3sPfzF+/kwvkmJCf33XvuOWNdXV3ZbLa9vf2sWbMiIyPd3NoZ2Ul8vfAwjgwaNAhvCR1Gmq2gxMTEPXv2/Pt9J9n5ShsNoVAoUR7p2bNnWGprS1VVFb4Cuhb+/v7JycktLS2enp4Igpw+fXrUqFF4i4J8EflvG7PZbPEiqRwOZ9SoUaI671iCIMjYsWPv3r2LXhoYGDx79gz3DKUJEyZYWlrOnTv30aNHXf20KAYwGIyhQ4eKLt3c3AhYEBfy7/jGLU9RUZGXlxeLxWKz2ZcuXUKNQqGwZ8+e6upfXGzrJOrq6hYuXCg6dKeqqhoRETF48GDcF7FevXr1/PnzK1eurFmzRigUTp06ddy4cXZ2drjc/hAfDw+PVatWBQcHCwSCysrKY8eO4djgCSJnpJnGXL58+ccff/z3cybZafeW54cffhBXfvHiRSwloaxcufLrA3JyctAVjWHDhlVUfKtrqZx4+PDhu3fvsPElPRwOZ+zYdvJkm5ubXVxcRP9HJyenzi4AKMHly5djY2Ox9CglaDNMvFVIItMtDwmRorIJm83mcrmampoAgMrKyrNnzyYkJDx79kzewe0frl69WllZuWrVKvSSx+PNmzdPdPZPUVHxjz/+mDx5MnGmAMnJyRcvXnzx4oWiouLs2bO9vb0LCws3bNiQmZkJj9JK0NraqqKiUlRU1NDQoK6ubm5uTiKRsM9shkjJ69evAQADBgyQZrBUeShUKpXBYKSmpp4/fz4xMdHCwmL48OEdkSgTLBZr165dolJpSkpKe/fu9ff3x0zAPzwBoA4ADQC8PzM7Ojo2NTW5ubkdPnx4+PDhaJgbMGBAXFwc9tXbCMQzAGoAMACirR4Gg0Gj0VauXHn48GElJSVDQ0MAQHR09I0bN0TrYpCuzTfnMBUVFb6+vgAAMpmsq6v766+/dmj+JB3itzzbtn12XPXkyZMYCGifLxwO/PDhAx5qCE+bw4HHjh1r9024atUq/FRCvoE8d3lCQkIsLCwcHBxSU1PpdPrIkSPlFcikQSgULlu2LDw8HL0kk8m7du368ccfsdTwTXg8nru7+9WrV/EW0gUIDAwsKytbtGhRmRiVlZUHDx7EWxpEPnzjlsfMzMzU1DQ5OblXr17du3fv+AReIBAUFxebmpqqqHwjgV0gEBw9evTkyZMipyEhIbh3wM0BORK5bYqKijt37jxx4kSPHj1EXY27d+9uZGSEmar6+noCZsoKgTANpInntmloaGhoaKxdu7aqqkp8ZEtLC5adjCoqKoiZKfvixYuBAwfivmvZIb45hxEKhenp6cOGDQMAkEgkUc/Nf0dOTo6SktKrV6++PuzKlSuOjo4WZp4inStWrOiIX/nwhVuetm/Nb24G/Sf4Qj2UadOmib9WZDJ50qRJeOiDSIWcK7aRSCQnJ6eHDx9++PDh8ePHZ86cMTIycnZ2vnXrlqzBq6KiYvLkyVKmfmVmZgGAkIAaAlpXrFhB5M6eaFsvcQsBD54Rh0uXLl24cAEAIBQKm5qadu3a9aUqfJAuh7TnU8lkcu/evQMDA1NSUm7duoWePJYJBEE2b94cGBgoZbESMtABAEFAa0DArMOHDxNtPi+OiorK1atXJ06cOHjw4Pnz5z99+pRCkWr77L+JoqIilUqlUqmqqqqGhobTp0+/efMm3qIg8kHmA+8kEsnZ2VnUG1x6zp8/T6VSg4ODpRyPAB4AQE1NjcvlVFRUnDt3TqIYmsRG4+bNm1tbW0WXxcXFubm54gP27t3L5XJFl/fu3RN1/EGJiooSv2zr8WHxw3Y97t2799ChQ0uXLj179uzkyZNnzJiBatu7d6+o/r40HiMiIiQ9Pmzfo+g5vn37VuI5Es6jQNJjZWVlyydoNNqaNWvEs65Xr14tq8fq6mrpnyOLxZJ4jt/0+Ouvv8rqsbGxUXqPOTk5snqU2ASQxiOTyZTe47Vr1yZNmjRt2rRp06bJ1m+zE++9xMjNzbWysqqoqKivr9fV1ZVmDWXO7Plz5szJzc0tLS3lcrn19fU8Hk98DIPBEL/8+PGjeJlbNpvNYrHEB1RXVwuFQvFfl6iJT6PRxC/bekSbh0h4ZLFYWlpaqampIo8vXrwYOnTov/BYW1srjUfx58hmszvyHHHxuHz5chsxJk+eXFhYKBpQUVHRqc9RIBBIPMdveqypqZHVo3jC6zc9MplMWT02NDR0qkcajVZSUlJaWlpaWnr79m3p11AwCigLFy50dXWdO3fuzJkzlZWVfX19Hz9+/JXxXzltjC9nzpyRsLBYLG1t7bS0NJElOzvb3d0dS1U5OTk1NTVYepQGHo8XFhbW7kNCoZDBYHz8+LGpqUn8fYwNjx49ev78OcZOpeGXX37p1Nrv/w6ZFmUxCigMBgPtalpUVKSjo3P//v2vH98gbEBpl927d9vZ2eXl5QmFwpycHAsLC1zOGXUVWCxWUFCQaI68ZcsWvBVBvob8+/J0HPQcEABAQUGBTCZra2t/Mw+lC7Fp0yZdXd2goKCqqip9ff3ly5dPnz4db1HEZc+ePY2NjYmJid27d29oaNi0aZNAICDyLh5EerDejFBXVz99+jQRClzLETKZHBAQMH78eOTT5nFra6uSkhK+qgjL06dP7969K9pZP3TokHgvakiXBuuyxkpKSpMmTcKxfGRnkJGRoa+vb2pq2usTO3fuxFsUcbGyshI1KgAA1NbW4licGCJfYLqEbERHRwcEBIhbeDzehAkTdu7cOW7cOJER409IQUGBnp4e0SrL8vn8I0eOrF69WsJuY2Pj4uIyevToHj16VFVVPXjwwMPDY8WKFQCA0NBQDL5s0tLSFBUVnZycOtuRrERERAQHBxOte4FMwIAiC94g4EEA2ANA3j82BEFIJJKrq2v//rhVw7exscHL9VegTKSsTlgNkgBI+Myura2NBmUul6urq4tWosCyzgPuNUO/hHhz7i4KDCgdRVFR8fLly+vWrduxY4cogVhfX9/ExARfYYQlMDAwMDAQbxWQTgEGFDkQHR1dWVl54MAB0TnRKVOmLFmyBF9VhAWtZdfY2Cg61TV06FBRkQpIlwYGlI7CZrOjo6Pj4uI8PT2/PRoCwI4dOwwNDWfPni1aLCBgJQHIvwMGlI5CpVJdXV0lTsRAvkJVVdUff/xBnHrAEDkCA4psvAAvBoHP2ruRSCQTE5Pg4ODIyEhNTU30rmf06NFz5szBTFV1dbW6ujr2jU2+jgAIHoKHI4Fklb+5c+cGBASsXbtWtBeGHjvGTNi7d+8UFBRMTU0x8yglycnJw4YNg7s8/yEkogmKubn5vHnzxC1aWlpYKQIAACw/jdKjABTaRhMAgLq6+s2bNx8/fixachozZszZs2cxE0bYvEosa793EjCgyMJNAPjtJANu2bIFDzWE5woA/HbeYocPH87IyDAzMxNZ4O3Pd0MXnlzhgDoAWgBoSpq5XG5wcLC1tbWHh0d0dPSyZcvYbDYe+ggG+nK1uQ+zsbGhUCiqYigrK+OhDyJ/YEDpKAiCrFixoqys7PDhwywWa9iwYcXFxefPn8dbF3EZP378kCFDjhw5Eh8ff+fOnTt37qSnp+MtCiIfYECRjU2bNklY2Gz25cuXd+7caWFhQSKRjI2Njxw5cu7cOSxVpaamip+OIQhcLleiHjVKXl7egAEDbt++ffjw4UOHDh06dCguLg5LYdevX4+Pj8fSo5TMnTu3q3eGg2sostH2lL2ysnL37t0rKipEC7HV1dX/ouZuRxgyZAiW7qRESUmp3XZFW7duRRCERqPV1dX16tUL+2rBU6ZMwdijlHwHE1sYUDoKmUyOiooKCgoaP358Y2NjWFjYmTNnbty4gbcu4kKj0VasWJGYmKisrMxgMFauXLlu3TopS5dDCA685ZEDbm5uycnJQqHQyMiopqbmyZMnzs7OeIsiLuHh4QoKCqWlpW/fvq2srMzIyGh7IhnSRYEzFFmIAOAtAIYAbJR8hEQiBQYGzp49GwBQXV2NIAgB86aw5jQAbwDoC8DCz8wZGRmJiYmiAkvh4eGLFy/GQR6kE4AzFFm4AYoPF4MoSXN0dLS9vb2/v/+MT6CNrDCDTqcTcKNaeFOYfTgb/CVp19bWfvv2rai6XWlpqZqaGpbCamtr6+vrsfQoJXl5ecjnHeO6HHCGIhtGQLJjMYfDWbp0aWRk5JgxY0RGjDO11NXVCZivTQIkc2De1r506VJnZ+dp06YNHjy4oKDg7Nmzly9fxlKYlpYWMfsHiyf7dVEI9y4kOCpAsra2goKCnp4e9XMwbkVKoVCIGVDU26a1AeDl5fXgwQNjY+Nnz55RKJSEhIQffvgBS2FKSkrE7BWrpqZGzEgnPXCG0lEoFEp0dPTs2bMDAwNF5Qvt7e09PDzwFUZYmExmcXHx5MmTnZ2dT506BQDg8/mweev3AeG+1rocCIKsXbtWIBDk5+c/+8T79+/x1kVcfv31159//llDQwMAYG5uHhgYGBkZibcoiHyAXwsdhcPhvH79OiEhAU5JpCQpKSktLQ0ttjBq1KhTp07t379/wYIFeOuCyAE4Q5EFB3DM8xgY+JmNSqUGBQW9ePGiubmZz+cLBAKBQCAqbogNr1+/lmimTQR4/XkbPTcCe0m7trZ2WVmZaDujqakJ4/udBw8epKamYulRSkJDQ7t66j2JmNtUV69eraysXLVqFd5CpMLJyenNmzc6Ojqipb4ff/xxx44d+KoiLLdv3549e7afn9+AAQPevXt34cKFqKgoX19fvHVB2uf169cAgAEDBkgzGN7yyIHw8HCJNJA+ffrgJYb4jBs3LiEh4fbt2+np6d27d799+zYxzyJB/gUwoPx7mExmRkaGs7OzeAaKCDqdnpWVNWjQoO+pi3NHKC8vLy8vd3JyolKp7u7u7u7u4o+2tLQ8ePDAx8eHSqXipRDSceAayr+HSqVeu3bN2dk5KiqKTqeL7FVVVXv37h00aFB+fj7scCxCV1f35s2bLi4uZ86caWlpEdnLy8t/+eUXa2vrmpoa+HJ1dWBAkY3Y2FjRz2Qy+bfffrtw4cLz58+HDh1qYGBgZGTUo0cPf39/DocTHx+/ePFibFJmi4uLGxoaMHAkE3w+//Tp06JLVVXVn3/++dy5c7m5uYMGDUJfLj09vYCAgObm5gcPHvz000/YpOdlZGTk5ORg4EhWzp8/j/FyvtyBi7JyQyAQ0On0bt26wRwtaRAKhQwGQ1NTExaUJThwURYfFBQUMO6R3qUhk8na2tp4q4DIGXjLIwveAJAA6Ie3jK7CeABIAIzDWwYEQ2BAgUAgcgMGFAgEIjdgQJGNFJCCt4R2qKioaGpqwluFJAIg+Ovz8kotLS3+/v59+vRxd3cXJb+fPn0a44M8hYWFJSUlWHqUkvj4+K6+ywMXZWXDE3iKX9bW1nK53LbD1NXVsexGamxsjJkv6VEACn7AT9wSEhLCZDL//PPPxMTEWbNmpaen6+npNTU11dXVYSnM2toaS3fSM378eLwldBQYUDrE7Nmznz9/3tYeHBz8yy+/YK+HyCAIEhMT8/jxYzs7O2dn58rKyk2bNv3+++9464LIExhQOkRsbOyqVatoNNrPP/8sbse4WXpXoVu3bpWVlXZ2dmQyOSwszNvbOzc3F29REHkCA4os/C1pUFNTW7BgwaVLl6ysrPAQRGw+b85HIpEOHDgQEBCwcOHC8PBwXV3dXbt2DR482NPTE2bcfzfARVnZCAsLk7A4OTmFh4fjIkbE8+fPKyoq8NXQFh6PN2/ePHHLlClTnjx5gtZqAwCMHz8+Ozvb0NAQ45YjcXFxiYmJWHqUkiVLlsB6KJ1CV0y9h0C+S2RKvYczFAgEIjdgQIFAIHID04Dy9u3blJSUd+/eEfM+61+TlJREwLwywpKdnc1kMvFWAekUMAoofD5/69at7u7uixcvdnR07Lo5Gh8/fmxr3Lx5s6Wl5fr163O2VkywAAAgAElEQVRzc8VLB2FGS0tLu/l1+CIUCktLS9vaT5482bNnz9WrV+fk5DQ3N2P/7dLY2MhgMDB2Kg3v37/v6t+1GAWUoqKi33777f79+5mZmU+fPt2/f3+X/EpfCMAAACZLmu/fv5+UlKSoqOjj4+Pk5LRly5bm5mY89BGMFQAMAGCZpPmXX35B93p8fX0dHR23bduGcaYspBNBMCErK2vOnDnoz0Kh0NTUtKCg4Cvjr1y5cujQIUykycIIBAEI0veLjzOZzG3btqmqqqqqqgYEBCQnJwuFQgz1EYxxCAIQZOwXH6fT6WFhYZqammpqatOnT3/69CmG4iDSkpmZmZmZKeVgjGYo9vb2Fy9eBACwWKzdu3draGh8MxMsKipqwSeqqqouX77c2NgoPuDhw4fil3v37hW/M3/37l1BQYH4gCNHjvB4PPFfr6mpER8QExMjftnW45P3T9r1SKfTs7Oz165da2pqGh0dvXDhwtLSUm9v74CAAPG/8E2PkZGRkh6ftO9R9BzfvXsn8Rz5fD6xPAokPZaVleXm5m7btq1///6RkZF+fn5ZWVl+fn6TJ09ubGzcsWOHrB5ra2ulf44sFkviOX7T48mTJ2X1KH5L9U2P+fn5snq8deuWrB5ZLJb0Hm/dujVv3jz009c29+prdGpsk+DVq1fOzs5ubm5FRUVfH3nlypXdu3c3fILP57e2tgoEAvExbDZb/LKpqUl8OsDj8Xg8nviA5uZm8QFsNpvP54sPYDKZ4pfteBzGFp+hiDwOHDhQV1d35cqVWVlZDAZDNH7kyJG1tbXSe2xpacH4OXaux3EIAhDmWEmPixYtUldXX7JkSWZmJp1OF3mcMGHC27dvGQxGpz5HoVAo8Ry/6bGlpaVTPXK5XKJ5ZDKZok/fo0ePpJ+hYBRQ+Hz+gQMHXFxcIiMjuVzuN8d3rVueNWvWoFtXKE1NTdnZ2VjqIihfuOU5d+5cU1OT6LKuru7FixeYCoPIAhFvefLy8sLCwi5duhQQEIAgCBpTsHEtX8LAZ9O/xsbGsrKyqKionJycsk/cu3dv586dWKoiaOo94M0Dn6XeNzc3l5WVxcbGoq8bSnR09JYtW7AUBlPvOw+MDgc+e/aMy+X6+f1THSM2NtbGxgYb73JkO9gufnn8+PGzZ8/W19cvWrRI1KGKSqWeOnUKS1Wurq5YupMSRaAYCSLFLX/99deOHTtqamqGDx8uMiorK8t2l95hCNv29Pjx43hL6CgYneV59+7dhw8fxC0uLi7q6upfGk/QszwXAHgHQHcAln5mXr58+apVq2D7UUn+AOAtAJYAzPrMHBERsXTp0i/8DoRwyHSWBx4O7BBZWVm2trbFxcUSvY319fWJWUUNR9hsdn5+vq2tbXV1tURbMi0tLXNzc7yEQb4O7MuDHRs2bLh48eKuXbskljCmTp26cuVKvFQRk9ra2tWrV0dGRl66dOnevXviDw0dOhT3EhAQuQBnKLKRkpLi6en5lQE0Gk1dXV1ZWRkzSQCAiooKTU1NTU1NLJ1+E4FAEBcXJ75wJgGCIPX19Zqamhi/XIWFhRQKhYC3qPHx8WPHjsWmH6v0wPIFnUi70YTBYIwbN47JZJ47d87U1NTS0rKyshJLVcbGxkSLJgAABQWFdqNJZWWlj49PYWHh+fPnTU1NbWxs8vPzsRRmbW1NwGgCABg/fjzRoomswFuejoIgiJeX18yZM1ks1tatW6Ojo8lk8po1ay5fvoy3NIKyY8eOadOmmZmZTZ069eXLly9evFizZk1CQgLeuiByoGuHQyLAYrGKi4t/+OGHyspKNpvt7e3dv39/jL9yuxZlZWU//fRTeXm5QCCws7MbPXo0PBz43QBnKLJQDQAbAEUAjP6xKSsr6+jo5ObmZmVljR07VklJ6c2bN2ZmZriJJA41ALAAUAHA4DOztrZ2ZmZmZGSkg4MDn89PTEyEXdO/G2BAkYVZADwAoC8Aef/YFBQUHjx4MHXq1JaWlqSkJHTTR+Lg4n+UHwFIAGAsAJ/fzezYsWPixIkcDicxMTE1NTUsLOzatWs4SYTIGXjLIxuxILat0dzcPD09vaCgwNTUdPLkyW/evME4q6K4uFgis4MI8AH/NDjd1m5ra1tYWPj+/Xtra2snJ6fc3FwXFxcshWVkZOTk5GDpUUrOnz8PW5H+t5gEJrU10un01atXv3r1SnQAPDAwcOPGjZipsrCwwMyX9FAAZSFY2NZeVVW1du3a3NxcUTUJb2/vo0ePYibMyckJM18yMXfuXLwldBQYUDoKgiA+Pj5mZmb79u1TUVFBjUZGRl//rf8yO3bsYLPZP//8s6qqKmrR09PDVxJEXsCA0lE4HE5hYeGxY8cGDRqEt5auQVFR0f379xUVFfEWApE/cA2lo1Cp1EmTJmVmZnK5XOEniJl/TBBGjhx57do1DocjFANvURD5AAOKbBwDx9oam5qa1q9f7+Hh4fkJLFcEAACvX7+urq7G0qM08ABvI2hnIam1tXXevHnu7u6il2vr1q1YCnvw4EFqaiqWHqUkNDS0q9dDgWd55MClS5ckGs3Y2dm5u7vjpYfgJCUlSbTXMDMz8/HxwUsP5OvA08ZYM3v2bDqdXlBQ0NjY6ObmhiCIlpYW3qKIi7e3t5OTU1FREZvNdnZ2FgqF3bp1w1sURD7AWx45kJ+f7+Lisnjx4tWrV8fGxg4ePBjjw4Fdi/T0dCcnpxUrVoSGhubl5Q0cOBD9DoR8B8CA0lEEAsH06dPXrFkTExOjqqo6d+7cjRs3bt68GW9dxOXo0aM7d+588OABAMDV1XXBggXbtm3DWxREPsCAIhvizU1QuFzuhw8fPDw80EsSiTR8+PCsrCwsVfH5fAJulCAI0m5j1o8fP86ZM4dEIqGXfn5+Eq18Ohu0iQSWHqWktbWVmGua0gMDimy07W1MpVJHjBjxxx9/oJcCgeD8+fPe3t5YqiJmb2MEQdrtbTxw4MC1a9eKBEdERGB8UoFOpxO2tzHeEjoK3OWRAywWKyAgIC0tjcFg6Orq9u3b988//4Trsl+iurp6wYIFeXl5dXV1enp6FhYW58+fh7nFhAXu8nQa3u2cNka5fv16a2trdna2ra2tlpaWeFfH/y7j2z9trK2tHRcX19zcnJ+fb2lpqampCV+u7wZ4yyMH3N3ds7OzNTQ0PDw8dHR0MjIyli1bhrco4hISEgIA0NDQGDRokLa2dkJCwndwKA6CAmcoHSIsLOzUqVNVVVWjRo1SUlJCjXw+H+NWeF2F8+fPb9mypaGh4ebNmyIjj8ebP38+jqog8kS+bVDlBWF7G28EG9v2Nu7Tp8+rV6/wEPR/Hj9+/OHDBxwFtAtnHMcf+LftbRwUFISDGjFiYmJu376Nr4Z2CQoKkmiKTgRk6m0MF2Vl4QtrKHQ6vbW1taysTLQW0LNnT2LWVceUL6yhtLS0sNnst2/fil4udCUbB4UQKYCLslgTGxu7fv16Q0ND0V3PzJkz165di68qwhIfHz9v3rw+ffqIXq7hw4cfPHgQX1UQuQADSkfh8XirVq36448/JkyYgLeWrsGZM2devnzZr18/vIVA5A8MKLJwEAA6AKqf2UgkkoaGBsw6aYe9AKwDQEfSrK6ubmJigocgSKejEBoaireGdsjLy2tubnZ1dcVbyOcYghe1L4wGfZaCRSaTVVRULly4YGhoWF9fX1lZWVlZKRAIsDxBixZDEd1BEASBnuBB6QNzN8ksWB6Pt3btWmNj44aGBvTlYjKZurq6mAl79+5dc3MzAY84Jycnm5qaig4lEAT03WVoaCjNYLgoKwcsLS0l6hstWbLkl19+wUsPwQkKCrpx44a4ZcKECbDRImGBi7JY8/LlS4m4jHH3765FRETEb7/9Jm6B9WW/G2BA6RCFhYXtHvPV1tYWlXSHoHA4nHbPCgIA1NXV1dXVMdYD6QxgQOkQQ4cObWpqamtftmzZgQMHsNdDZD58+ODo6NjuQ76+vrB54PcBDCgdIiUlpd0Zio5Om72N/zy9evVKT09v9yENDQ2MxUA6CRhQZOEeiD4YHbAkAPj932Bra4uroP9TUFCgp6dHtHZZ/Lv8IxuOrD64GowEAABlZWWC5J6kpaUpKioSsH9gREREcHAwmdyFj+zCXR5Z+HL5Akg7fCH1HtK1kGmXpwvHQggEQjRgQIFAIHIDrqF0iFWrVrHZ7Lb2ESNGTJs2DXs9RKa6uvpLadkODg7BwcHYyoF0CjCgyMZZcHY++KcaUN++fdutDi1lnrK8yM3N1dfX19fXx9LpN+ED/l6wdxv4f4sMZWVlOzu7dkeamppiqAs8fvxYSUlp8ODBWDqVhn379q1du7ZLL8rCgCIb4tEEALBw4UL0BwRBRPvHNBotOTkZS1Vf+qDiCwVQRNEEAKCtrS2qjCn+clVXV//9999YChs6dCiW7qRn/fr1eEvoKF04FhKHhoYGKysryicMDAyuX7+OtyjiUlxcbGpqKnq5jI2NRU1IIF0drGcoRUVFBgYGBDzoKRXtfY8KhUJPT8/58+erqallZGTMmDEjLCxs9+7dmIsjHvHtm3ft2hUaGkqj0Z49e7Zs2bKNGzdu2rQJW2WQzgLTGUp9ff2sWbOKi4uxdNrZsNnsDx8+TJ482cvLq7y8fPTo0cePHz98+DDeuohLdXX1/Pnz/f392Wy2t7f33r17jxw5grcoiHzAKKDweDwvLy8DA4NXr15h4xEzlJWVlZWVP3z40K1bt6ysLDabraam9uzZM7x1ERcVFZV379716tWrtrYWANCzZ8+2/RghXRSMAoqCgsKxY8fS09PNzc2JVj9GJnJyciQsCgoKt27dWr58eXNz89ChQwcPHjxhwoRFixZhqaq+vp7JZGLpURqEQmG7gXX9+vWenp6ZmZmurq4uLi7jxo3DuHNrRUVFVVUVlh6l5MWLF8TMXJeBzqm8/0X69u2bnp7+zWFXrlxxdXVd+Ynq6uqYmJjGxkbxMY8ePRK//PXXX9Fe0yjv378vKioSH3Dy5Ekulyv+6zU1NeID/vrrL/HLth6fP3/+JY88Hq+4uLigoCAyMvLq1as8Hg/1iP4gpcdLly5J7xF9ju/fv5d4jl3Co1Ao5PF4zc3Nv//++969e4VCoWhAeHi4rB7r6uqkf44sFkviOX7T47lz52T1yGAwpPdYWFgoq8eEhARZPbJYLOk9JiQkLF26FP30BQQEELeNRr9+/aKior55LougZ3m+TFlZWXZ2No/HQy/79Oljb2+PryQiU1lZmZGRIXq5evToQbhyn5BPwIptWLNs2bLY2FhXV1dRUSUfHx8YUL7Evn37wsPDR4wYoaamhlqcnZ1hQPk+gAFFFto7bczlcqOiomJiYkaNGoWfMkLyhdPGiYmJWVlZvXr1wkkWpBOBiW2ysQpI3oVRKBRtbW18q6ImJye/f/8eRwHtwgXccWBcW7uenh6+FZX+/PPPv/76C0cBX8Lf318gEOCtokNgPUOJiYnp0l9Nv4HfJCxkMnn9+vXr1q0LCgoSlTiysrLCsn7P8OHDMfMlPUpAKaG9Uijjx493dXVdsmSJ6MSTkZERlunwM2bMwMyXTHwHdTCxDigEKXEmX5KSklRVVcXfDVOnTiVgQTCCUFJS0qNHj9jYWJFlyJAhhD1fA5EJuIYiByS6zEC+TmhoKDHby0E6DlxDkQM8Hm/hwoUWFhYGBgYODg5bt27lcDh4iyIuDQ0NP/74o5WVlaGhYb9+/eDL9T0BA4ps5ADJTFkEQRYtWtTQ0JCYmFhaWnrs2LGnT5+eO3cOS1UEzZQFwmegnUzZY8eO1dfXx8fHFxcXnz9//tGjR5s3b8ZSGMyU7USkTIDDmCtXrhw6dAhvFW1oRpiNTITxma2lpUVDQ+P169ciS35+vpOTE5a6eDyeQCDA0qM0CJuFzY3NSLOkfdiwYeJJmenp6YMHD8ZSGIfDEc+ZJg4tLS3iScMEITMzU/pMWThDkQV1oKKlAjQ/sykpKSkrK9NoNJGlqakJ4748FAqFgGW+SOokdS110KYjoKamZnl5ueiyuroa486tSkpKxGx+qqam1qVPugG4KNtxFBUVIyIili9fvnjx4j59+hQXF//222+nTp3CWxdx+emnn9zd3Tdu3NinT5+ampo9e/Zs3boVb1EQ+QADihzw9/e3trbetm3bgQMH7OzsYmJivtRzEwIA8PX1tbOz27Rp09GjR83Nza9evQq32L8bYEDpEC0tLaqqqiwWy9zcXLyOIYfDoVKpOAojIEKhsLW1VVVVlcfj6evrnz17VvQQh8NRUVHBURtEXhDuxpvgiH8MAACOjo7V1dWjRo2y/Jw9e/ZgqSo3NxctVkQo+Hz+rl27RJelpaV9+/YtKSlZt26dxMuFcQ+Nx48fp6WlYelRSvbt29duq+wuBGxF2iFaW1tVVFTYbLbE+0BRURHjhUbiIxQKmUymqqoql8vl8/niD1EoFDihIyywFWmnsQ+AuQCI5UyoqamRyeTRo0eXlpaqf6KkpGTjxo24iSQOhwCYC8Cv/78ik8nq6upkMnnz5s3qYjx58mTp0qV46oTIDxhQZOEeABcAuPmPYefOnT169Hjy5ImXl1ePT3h5eenq6uKnkjAkAXABgKR/DJGRkT169Dhx4kQPMWbMmAGnJ98NcFG2Q2zYsCEkJMTKyury5cvOzs6okUQiiSotQcSZNWvWlClTfvzxR/FMYhKJBFdkvxvgDEU2okG0+CWVStXU1Hz9+rWHh4fmJ4RC4f3797FUVVBQUF9fj6VHaeAD/q+iGx4AAABKSkqampqnT5/WFIPP58fFxWEpLC0tLSMjA0uPUhIREdHVF2XhDEU2AkBAWyOZTN6xY8eHDx/QSzqdrqWlNWbMGMxU2djYYOZLeiiAshqsbmtns9nr1q0Ttc6ora1VUVGZNGkSZsII2NUY5TtYS4IzlI6CIIifn19TU1OfPn10dHSGDh1aWFh46NAhvHURl927d7PZbH19fQRBRo0aVVZWdvLkSbxFQeQDDCgdhcVi5ebmLlu2zN/f//3798HBwadPnz5x4gTeuohLSUnJ4cOHg4ODW1pa5s2bFxYWBlPvvxtgQJEFBwA8ARj4mU1RUVFVVbWqqkpTUzMrK4vFYpmYmNy5cwcniUSiPwCeALQp/q+qqlpWVmZmZlZdXS0UCvv3719QUICHPoj8gWsosvBrOzYKhRIREeHr6/vkyRMdHR1vb28ajYbligBx+bl985w5c/r375+UlGRsbOzu7l5XV+fm5oatMkhnAQOKbKSkpHh6eopbSCTSlClTbGxsTE1N79y5c/HiRRUVlQULFmCpqqKiAt0xwdLpNxEIBHFxcX5+fhJ2Pz+/J0+emJqaHjlyJCoqSk1Nbc6cOVgKKywspFAoffr0wdKpNMTHx48dO5aAlSikB6bedxQ2m21lZYVOUvDW0jUYPXp0eHi4KG0HQnBg6j2mKCsrb9++PTo6+ttDIQAAAGbPnh0SEgLryH6XwFuejkIikWJjY5OTk42NjbW1tdGKW7NmzdqwYQPe0ghKXl7es2fPzM3NRQcUvLy8Dh8+jK8qiFyAAUUOnDx5UiLBEd/OeARnzZo1EvUKYOr9dwO85ZGNsLCwtkYTExMKhXLq1KkjR47Q6XQlJSWMa8o+f/68oqICS4/SwOPx5s2b19bevXt3DQ2Nc+fORUVF8fl8RUVFfX19LIXFxcUlJiZi6VFKlixZ0tVbkcKAIgveYPuO7aCfpDk+Pn7EiBFVVVX37t2rqakZMmRIeno6lrpcXV2NjY2x9CgNin6Kkecj23Y3vnfvnoWFRX19fVJSEo/H8/Lywvgsj6+vr4+PD5YepeT48eMKCgp4q+gQMKB0FD6fv3DhwgMHDmzZskVZWdnHxycyMnLHjh146yIuJ06cePDgwb59+wAANjY2u3btgicVvhtgQOkoQqGwpaXFyMhIZOnZsycBCzISBw6HY2//T/5s3759CdilDPLvgAGloygpKS1dujQ8PLywsFAgEGRlZYWGhmKcqdW1GD169JQpU3Jycng8XmFh4bZt2zw8PPAWBZEPMKDIRjEobmsMDw83MjIKDg7+8OHDhAkTFBQUMM6UpdPpbDYbS4/SIATCbJDd1r5o0aLu3bvPmDEjPz/f29tbS0srPDwcS2G1tbUELB8DAMjLyyNmoqn0wG1j2dAB7W/fHDp0aMeOHVwuV0lJqVu3bhgvrVGpVAqFcP9KEiAZAIO2dhUVlVOnTjEYDDabraioqKWlhfHLRdgGfd27d8dbQkeBMxTZaDegsFisRYsWDRo0yMHBYciQIWvXrmWxWFiq6loBpba2dv78+QMHDnRwcHB3d1+3bl1LSwuWwtTU1IhZo1NfX5+YkU56YECRhb8BQADI+8yGIEhAQEBNTU1CQkJlZeXFixdTU1MjIyNxkkgk4gFAAEiQNB86dKi8vDw2Nvbjx4+3bt169OjRtm3b8NAHkT8woHQUFov1999/79q1y8rKSkFBwcXF5cKFC+JFmCESpKWlxcfH29nZUSgUa2vr48ePP3/+HG9REPkAA0pHoVKpXl5e4iWCSktLhw8fjp8iouPi4pKSkiJafczNzTU3N8dXEkRewIAiG/v375ewkMnkUaNGLVq0aObMmWFhYVOmTJk2bRqfz9+8efOuXbuwWR149epVZWUlBo5kgsfjLVu2rK29X79+Y8aM8ff33759+/Tp05cvX66lpbV58+bNmzfT6XQMhN29e/fhw4cYOJKVdevWdfXUe1gPRQ5cvHix3U+CkpJSYGAgMdf/cCQxMfFLNR/nzZsHz1USDZnqoRBua6DLgVZFff/+fWtrq7Gx8aBBg2AE+TrGxsatra2tra0mJibu7u6Kiop4K4LIDRhQOkRdXd2SJUvu3r2rra1NoVCam5u7det28eJFV1fXLl3Ir5NgMBg//fRTfHy8np6egoJCc3Mz2uVryJAhXX27FIICA4osBADwFABLAD71BZw7d25VVdWbN2/Q7CwWi3Xt2rWxY8fm5OSYmpriqpUAzAPgIQBeAEQCAIBQKJwwYQJ6OsHQ0JBMJrPZ7IcPH06aNOnWrVvu7u54y4XIAfgtKgs14O6Hu+DT6iebzc7MzLxx44aJiYmGhoaqqqquru7ixYtDQ0N3796Npa73799js5wpE4JawR8f/gA1/7/Mycl5+fJlZGSkpaWlhoaGmpqarq7u1KlT58+ff+DAASyF5ebmErNxx9WrV7t6K1IYUGRjDPinwWhJSYmlpaWZmZnEmNGjR2O8iWBiYkK0kvcAAAWgMAvMEl2Wl5crKyu3+3KVlZVhKczW1tbS0hJLj1Li5+fX1W/9MAoocXFx4kWJWSzWzJkzGQxGU1PThQsXLly4gPFbSi6oq6s3NDS0tXM4HIwT4dPS0kStggmLoqKiUChse4iRTqdjvN50+/ZtjLvZS8ny5cvhDOXb3L59e/HixeIZGampqXV1dXV1dYMGDUpISEhNTfXy8rp58yYGYuSIqalpU1PTH3/8Ib71zmazf/755xkzZmCphMvlEj9/wc7OTiAQJCUlSdgvXLjQv39/LJWwWCwCHs4GALT7/dS16Nwv0vLy8jFjxlRWVkrspCYlJS1cuHDPnj0+Pj5HjhwBAJw8eXLZsmWjR4+mUqmdKkmOkEikFStWBAcHv3nzxs/PT11dva6ubv369fX19bD7d1uMjIzOnj07Z86clJSUuXPnUqnUjx8/bt++vbKy8unTp3irg8iHzp2hGBoa3rt3LyYmRsKekZExceLEvn37Tps2DbVoamoKhcIuN99btWpVYmLiw4cP3d3dHR0dR40aheaVa2lp4S2NiEyfPj0lJaWgoMDFxcXR0dHPz69v376pqani9e4gXRosMmXz8vJ8fHyys7PRPiwlJSUbN268du0a+qhQKExOTl61atXixYuDg4PRRam8vLzDh6J6GhNrtuKQ5ZDWmDZUbejLgS8lHmKz2XQ6XVdXF5c0LTqdTqVSiTa565vd937D/TE6Y3LscyQe4nK5jY2NWlpaysrK2Aurra0lk8l6enrYu/46GRkZAwYMIFoGE5fLXbx4sZRpEFgHFARBVqxYYWtru2TJEgBATU3N7t274+Li9uzZM2vWrG/+KQgEQmSwjoUsFuvmzZteXl4AADqd7unp2a1bt1evXsFoAoF8B2AdUKqrq3v16mVjYyMUChcuXDhy5MiVK1ciCFJXV0ej0brcGgoEAhEHi3QJBQUFTU1NdHEkIyNj8eLFJBKJyWQWFxcnJiZeunQJHWZgYPDy5UsCJmhBIBApwWINhcfjNTY26unpkcnk5uZmKpWK5jjV19eLT0nQdTKirUhBIBDpweLTizavRSOFhoYGug9CJpP19fUNP6GpqSmR61lRUSGeM9bc3Pzq1SsM1EqAJuCJW1JSUt6+fYsgSElJyePHj0tKSvCqKdPS0vLu3TtcXH8JNpv94sWLFy9eEPBsEQDg7du3hKpEJRAIMjIy0tPTeTwe3lo+Q+KsE51Of/LkSW5uLp/P/8ZvIgRAIBBcu3bNxMSEw+GIjCdOnNiwYYNowMKFC93c3DAWxuFwJk2adP78eZGFz+cbGRk9f/786NGjGhoaPXv21NbWPnDgAJ/Px1gbj8eLiIj46aefMPb7FZhM5pAhQ7p3796jRw9LS8vS0lK8FX1GQ0ODkZFRZGQk3kL+T21trYODg4GBgb6+vqWlZXV1Nd6KEARBBAJBenr6wIEDRZbCwkIjIyMjIyM9Pb1169Z9/a2Of0ApKSkZPHhwt27dJALK5MmT6+vr0Z/v379vZWWFZUARCoVhYWG2trYAAPGAUlRUpKqqWlRU1KNHjzdv3jCZzFevXlGp1GfPnmGmDUGQS5cuOTk5KSsrEyqgbNy4cerUqY2NjS0tLSEhIf379+fxeHiL+j88Hm/EiBHGxsbECShHjhzx9vokdS8AABLsSURBVPZuamqi0+lubm4HDhzAWxHy/PnzIUOGaGpqigIKn8+3t7ePiopis9kfPnzQ19d/+fLlV/4C/gsWOjo6W7duRVvtiY5aNjU1MRgMNBGusLDwp59+WrduHcbCfHx89u3bZ2FhIX4ANDMzc926dY2NjX5+fpaWlioqKubm5goKChK3RZ2No6Pjzp07p0+fjqXTr4MgSGtr66xZs7S0tNTU1Ozs7Orr6wkyk0cQ5Pjx466urqNGjcJbyz+w2WwymYxmJCooKBChs5KJicmGDRvWr18vsuTm5tJotBEjRhQXFwsEgtzc3G8cvMIg7ElDdHS0iYkJl8tFL8+dO7dmzRoEQbhc7tSpUx89epSYmIj9LQ+CIGhbDNHl7Nmzm5ubRZdsNjsqKkpTU7OsrAx7bXv37iXUDAVFKBQ2NDQMHz48KChIKBTiLQdBEOTly5eGhoYNDQ3z5s0jzgyloqLC2NjYwcHB3t5eT0/v48ePeCv6P3///bdohnL9+nUDAwN7e3tDQ0Ntbe1du3Z9/ZYH/xlKWwQCwaVLl8aPH48gyObNm/X09IYOHYq3KAAAoNPp+fn56urq6GVZWdmoUaMOHDiQmZlpYmKCrzaCIBQKz5w5069fv2HDhp06dYoI1T04HM6qVauePn2qra2Nt5bPuHXrllAo3L9///79+5WVlf/66y+8FbVDa2trc3PzoUOH3r59iy4dJiYmfmU8/rOstjAYDDqd7u7uzuFwrl+/bmJiMnHixLq6uoKCgokTJ544caJnz564CLtx44adnR3686VLl7Zs2RISErJo0SIVFRVc9BANFos1d+7cxsbGmJgY4pR0vH79ekFBAdpBITMz8/Xr1wwGY+XKlXjrAsePHz979ix6F3b27NnQ0FD0PAqhUFdX19XVdXBwUFdX79OnT/fu3YuLi78ynogB5e3bt15eXsrKygiCpKeno7kqT58+3bVr17lz53A8yBsTE4O+EUtKStasWZOZmYkeMONyuRQK5T+eQYMgyMaNGxUUFG7fvg0A4HK5JBKJQqHgPkmZPHny6NGj0Z9Xr149aNCgoKAgfCWhaGtr19TUCIVCEonU0tKCrhgSjX79+rFYrPr6el1d3dbW1paWlt69e39lPBEDyuHDh9EGUSQSSTRN1dDQoFAo+L7odDrd29sbABAXF9fc3DxixAjRp+XIkSOEWvDDHhaLde/ePQaD4eDggFr09PTu3buHe1MR8XPYysrKampqoptWfNmyZYu/v39MTIyiouL9+/eJWWDM0tJy8+bNY8aMcXNze/PmjY+Pjyg6twtRGn1VVlYWFRUNGzaMTCYnJycPHDhQTU1NfEBDQ0NRUZGrqyvGwp4+fdqrVy+0YEdmZqajoyMAoKioqLS0VHyYo6OjgYEBxtpKSkpYLJboLgxfeDzekydPxCuhKSkpDRs2jAibFyJyc3O1tbWJU36loKDg3r17AICRI0f269cPbzn/h0ajFRUVubm5oZdCofDRo0fZ2dmmpqbjxo1TUlL6yu8SJaBAIJDvgP/0bT8EApEvMKBAIBC5AQMKBAKRGwRaMPv++Pjx45UrVxoaGvr06TN16lQNDY1OcvTy5UsbG5sO/v2XL1/a29uLF3mtqakpLCwcNmxYhwW2D5fLffz48eDBg2XadklNTXV0dKTRaG/fvhW3Gxsb9+7d+9mzZx4eHh1cCRYKhTk5OQoKCjU1/+972LNnTysrKwUFBVn/FJvNvnjx4vz58//F73ZJOjuN9z/LwYMHNTU1J06cuGDBghEjRhgaGt68eVO+LpYvX97a2oogyLRp0/Ly8jr41wYOHFhVVSVuuXLlira29pfG79y5MykpqSMeaTSatbV1QUFBfX39jBkzampqvvkr+fn57u7uLBbr4MGDqqqqw4cP9/rE4cOHa2pqtLS0GAxGR1QhCHLlypUtW7YEBATY29v7+flNnDjR3d3dycmpuLi43fHJycmbNm1q9yGhUBgcHHzv3r0OSuoqwIDSKbx7905VVfXx48fopUAg2L17t6mpKZvN5vF4ra2tHA6ntra2qalJ9CsCgaChoaG+vh49KyEUCul0Oo/Ho9Fo6AAmk1lbW1tfX4+eeGppaTE1NS0rK+PxeC0tLaLfYjAYNTU1DAYDPUfD5XKZTCaLxZJw19raWlNTQ6PRRAeCvxJQ2Gw2i8VqbW2tra1taWlBLR4eHocOHWKxWAiC8Pl8VLzoNFZTUxN6qAc9IogahUIhjUarra1lMpnoU2YwGHw+Pz8/HwDw+vVrFoslflQKfVRc0pw5c65evYogyMGDB21sbETuUMQDCvqUxV/PlpYWLpdLo9HEJfF4PLTkDZvNFv0j+vfvn5SUFBAQcOzYMdEfHzdu3Pz58/l8vnjAam5uZjKZERERDg4O6CsjFAqbmprq6uqYTCb6L2AwGO7u7sQ5eN2pwIDSKUyYMGHBggXiFi6Xa2dnFxkZmZKS4ufn5+XlZWdnZ2tre+fOHQRBmEzmjz/+aG1tbW5u7uvrS6PRGAyGubl5cHBw7969EQQpLCx0dHR0cXGxsbGZNm0al8tdunQphUKxsLB49uzZ1KlT0RlKfHy8lZVV3759ra2tY2NjEQRJTExcvnz50KFDzc3Nra2tnz59iiBIVlaWg4PDwIEDLS0tFy5ciCr8SkA5derUxo0bBw4c2Lt3b1tb25ycnN9//11FRcXAwODkyZMIgoSEhFhYWJiamk6ZMgWtQeHj43Pw4EFLS8tevXoFBQWx2WyhULh69Wp7e/sBAwa4uLiUlpbSaDRLS8v8/Hw0XbB3795XrlxxcHBAP3ssFsvZ2Vn0OUcQRCAQ9OvXDw0iXw8otbW1I0aMsLW17dWr16JFi3g8HpfLHTNmDNpxoU+fPuizFggEQUFBAwYMsLOz++GHH1BfFRUVWlpaTU1NEgFl7NixW7ZsaW1tdXBwQMMoj8dzcnK6ePGigYGBsrJycHAwgiC///67tbV1nz59nJycCgsL0X+9u7t7YmKiHN5YhAcGFPnD5XJNTEwiIiIk7P7+/osXL05ISFBRUUlOThYKhdHR0ZqamrW1tUePHvXy8kIPMaEfxcbGRgDAzJkz8/PzEQTZsGHDzp070a90c3NzdNpiZmZGp9MRBBk8eHBGRsbbt28NDAzS09MRBElJSdHX1y8pKYmNjUXnSjweLzAwMDAwUCgUBgYGovIaGhp69eqFfod/JaDs27dPTU0tJyeHzWYPGTJk48aNCIJ4enqi0WTfvn1jxoxpbm5ms9nTpk1btGiRUCi0tLScNWsWk8l8/fq1qqpqbm5uVlYWlUotKyvj8/lbt249ffp0bW0tACArKwvtbF1SUoKeE3n9+jWCIAcPHgwKChLXc//+ffTIKPqotrb20qVLl3+CTqejAaWxsXHs2LHbtm0TCATNzc2Ojo4HDx7kcDi2traTJ0/m8/k0Gm3QoEHXr1+/c+eOnZ2dUCjkcrnBwcHJycmolxUrViAIEhAQ4OHhsXDhwgULFowePdrBwQGd4o0ZM+bUqVMIgjx69EhXV7euri4yMtLJyQlBkNTUVH19/fz8fB6Pd/z4cS8vL7R93YIFC0JCQuT6LiMocJdH/vD5fIFA0PbEoEAgQOuDODg4eHp6kkikcePGMZnMysrK2NjY5cuXNzQ0NDY2rly58vr16+ivrFq1ysbGBgAQHh4eEhLy9u3b2NjY6upqLpfb1m9SUpK+vj6a+e7q6qqnp4cWzRwzZsyQIUMoFIq3t3dDQwOJRDp37tzs2bPz8vKuX79eU1MjTdWSqVOn2tnZKSsr//DDD2ggQOHxeEePHh01alR9fX1VVdWIESPi4uI4HA4A4ODBgyoqKvb29giCsFgstFD5+vXrs7OzN27cOH/+/LZezM3Nrays0tLSeDze/v37J02aJP5odna2eDqyoqKiqalpr0+IVj1ramqePHkSGBhIJpPV1dVnzJjx6NEj9KHAwEAFBQUdHZ2pU6eeOnVKX1+/tLR0zZo179+/P3jwILr8fOPGjdWrV6PjBwwYMGXKlClTpkybNo1Go61atQpBkHHjxv3+++8CgeD+/fsuLi7iDcMePHjg7u5OpVIrKiqGDx+ek5NTVVVFIpFMTEzQoPndA3d55I+ysnLPnj3RdQFxsrOzd+7cCQAQHW9RV1cnkUg8Hq+2tjY5OTkrKwu1z549G/1BlOa8adOmu3fv+vr6uri4mJmZteuXRqNpaGignysSiUQikbhcrpKSkugQA/oQj8dbtGhRXl7e2LFjXVxcpMxDF20hSexWcLlcHo+XlpbW1NSEWkJCQtBzkujeDYlEQn/FzMwsPz8/Pj5+w4YN2dnZ27dv9/f3l/BCIpFOnz69a9cuV1fXxsZGiSPLDAZDvDGjjo5OSEiIuIXJZAIAmpqaFBQURNtVioqKoogp6qmgo6NTV1fn5OT06tWrW7duBQUFffz48cyZM+7u7qmpqb/++is6zNbW1sfHB/1ZW1t72bJlzc3Nvr6+YWFhVVVViYmJJ06cEFdIo9GqqqrOnz+PXi5duhT9D1Kp1G9XY/0ugDMU+UMmk0NDQy9duoSuawAABAJBREQEmUxGP0Lv3r0TCAQAgIKCAjKZrKOj069fP2tr69DQ0NDQ0IEDB7Y9Uf3XX3+dO3du9+7dw4cPr6qqQo3I58cmrKysqqqq0A8VjUaj0Wjo7EbivC+Dwbh7925kZGRoaKibm1sHa82pqKj07NlzwIABqPjBgwcjCNJuP9bMzMyTJ08uXrw4MTExJiYmKiqq3T/o6elZXl7+559/zpgxo3v37uIP9evXr6Gh4ZuSDA0NAQBoMWq00a21tbVIA/rD06dPfXx84uLiUlNTN2zY8PTp05CQkKNHjyYkJPTu3bvdBqmlpaUqKioUCsXMzGzw4MHXrl0TCoXo2S7w6X9hYWGhoKCwZcuW0NDQ5cuXc7lcHR0dAEB9ff1/pN01nKF0CuPHj/fx8XF1dV20aJGFhcXDhw/j4+NjY2PRT1p5ebmfn9/8+fPDw8Pd3d3NzMwWL148YcIEKpXK5XJXr16NHhgTp0ePHr/99tu8efO2b99OpVJv3749Z86cbt26bdu2TVSwb9KkSdu2bVu+fPmUKVOOHTuGLuJWVFRI/Ckqlaqrq3vy5ElfX9+1a9cqKyvHxcX5+fnJ+hz19fWvXr3q4uISGRnp7e3ds2dPMpm8du3amJiYdksWaGhoHDlypGfPnoMGDdq+fTu6EIuirKysoKBw/PjxPXv2KCsrDxw4cP/+/RLHLwEAP/zwQ3h4OIIgXy+J0K1bt+3bt0+fPv23334rLS1NSUk5cuQI+tDhw4dNTExevXp1+/bt8vLy9PT0n376ycDAQFtbOyoqavXq1XFxcbNnzxb9/dOnT6Nb4x8+fCgsLPz999/R2eWaNWu8vb23b9+ODlNTU0OXq/z9/bdu3bpjx45BgwaFhIQsX76cTCYLhcK8vLzx48fL+gp3ReDhwM6Cw+G8fv364cOHDAbD1tbW09PT1NSURCLduXPn559/3rNnT2pqqp2d3ciRI6lUqlAoLCgoSExMJJPJ3t7etra2QqEwNTXVxcUFvXGorKyMi4tjsVhjxoyhUCgpKSmzZ88uLy9PS0sbPXp0WVmZpaWlhoYGnU5PTEwsKCiwt7cfOXKkurp6fX19XV0dWm27pqamtrbWzs6uvLw8Li4OQZCxY8cymczMzMyZM2dmZ2f3799f/CxpbW1tUVHRkCFDysrKOByOpaUlAKC8vLy1tdXGxqa+vj45OXnAgAEWFhYFBQV///03m80ePXo0evo5LS3NxcUFvdl5/PjxgAEDNDQ0iouL7969S6PRnJ2dR4wYQaFQnj596uLioqam9vLlyw8fPkyaNIlCoVy8ePHo0aNPnjxpe7B1+PDhx48f79u3b3l5eVVVlYuLi3gZGi6X++LFC/RI+vPnz588eaKqqurr62tmZsblcgcMGLB169bGxkYSiTRmzBhzc3MAQGZm5t9//83hcDw8PIYNG5adnW1ra4vOUN68eSNaLaJQKCYmJr169UIvy8vLHR0dk5OT0SfLZDIfPHigq6vr5uZWU1OTmJhYUVHh4eHh6uqqpKTEYrHc3Nzu378vMeH6PsFrNfg/S0JCgpeXF94qCAqHwykuLvb19T1y5Ei79WivXbuG7tT8i79sa2v7999/d1zkx48fT548OXnyZCkr5t64cQOdWP0XgLc8WEOhUHCvOURY6urqHBwcnJ2dly5d2u59zdSpUx8+fIg2opT1j6upqckl/339+vUpKSmPHj2Sphgdh8PZsGHDkydPOu63SwBvebCGz+fzeDxYhrZd0ExftDrfl8YIBAIymSxrZUkEQdhstpKSUsdjSmtrK9r+QhoNCILw+fx2V6m/S2BAgUAgcgNuG0MgELkBAwoEApEbMKBAIBC5AQMKBAKRGzCgQCAQuQEDCgQCkRswoEAgELkBAwoEApEb/wPG5nYAdVFGRgAAAABJRU5ErkJggg==;movable=0;resizable=0;rotatable=0;deletable=0;editable=0;locked=1;connectable=0;" vertex="1" parent="1">
          <mxGeometry x="270" y="140" width="355.63" height="460" as="geometry" />
        </mxCell>
        <mxCell id="5eA97bqAue3jfniv3n-x-4" value="" style="group;movable=1;resizable=1;rotatable=1;deletable=1;editable=1;locked=0;connectable=1;" vertex="1" connectable="0" parent="1">
          <mxGeometry x="410" y="290" width="20" height="20" as="geometry" />
        </mxCell>
        <mxCell id="5eA97bqAue3jfniv3n-x-2" value="" style="endArrow=none;html=1;rounded=0;strokeWidth=4;fillColor=#e51400;strokeColor=#FF0000;movable=1;resizable=1;rotatable=1;deletable=1;editable=1;locked=0;connectable=1;" edge="1" parent="5eA97bqAue3jfniv3n-x-4">
          <mxGeometry width="50" height="50" relative="1" as="geometry">
            <mxPoint y="20" as="sourcePoint" />
            <mxPoint x="20" as="targetPoint" />
          </mxGeometry>
        </mxCell>
        <mxCell id="5eA97bqAue3jfniv3n-x-3" value="" style="endArrow=none;html=1;rounded=0;strokeWidth=4;fillColor=#e51400;strokeColor=#FF0000;movable=1;resizable=1;rotatable=1;deletable=1;editable=1;locked=0;connectable=1;" edge="1" parent="5eA97bqAue3jfniv3n-x-4">
          <mxGeometry width="50" height="50" relative="1" as="geometry">
            <mxPoint x="20" y="20" as="sourcePoint" />
            <mxPoint as="targetPoint" />
          </mxGeometry>
        </mxCell>
        <mxCell id="5eA97bqAue3jfniv3n-x-8" value="" style="group;movable=1;resizable=1;rotatable=1;deletable=1;editable=1;locked=0;connectable=1;" vertex="1" connectable="0" parent="1">
          <mxGeometry x="530" y="290" width="20" height="20" as="geometry" />
        </mxCell>
        <mxCell id="5eA97bqAue3jfniv3n-x-9" value="" style="endArrow=none;html=1;rounded=0;strokeWidth=4;fillColor=#e51400;strokeColor=#FF0000;movable=1;resizable=1;rotatable=1;deletable=1;editable=1;locked=0;connectable=1;" edge="1" parent="5eA97bqAue3jfniv3n-x-8">
          <mxGeometry width="50" height="50" relative="1" as="geometry">
            <mxPoint y="20" as="sourcePoint" />
            <mxPoint x="20" as="targetPoint" />
          </mxGeometry>
        </mxCell>
        <mxCell id="5eA97bqAue3jfniv3n-x-10" value="" style="endArrow=none;html=1;rounded=0;strokeWidth=4;fillColor=#e51400;strokeColor=#FF0000;movable=1;resizable=1;rotatable=1;deletable=1;editable=1;locked=0;connectable=1;" edge="1" parent="5eA97bqAue3jfniv3n-x-8">
          <mxGeometry width="50" height="50" relative="1" as="geometry">
            <mxPoint x="20" y="20" as="sourcePoint" />
            <mxPoint as="targetPoint" />
          </mxGeometry>
        </mxCell>
        <mxCell id="5eA97bqAue3jfniv3n-x-14" value="" style="group;movable=1;resizable=1;rotatable=1;deletable=1;editable=1;locked=0;connectable=1;" vertex="1" connectable="0" parent="1">
          <mxGeometry x="530" y="360" width="20" height="20" as="geometry" />
        </mxCell>
        <mxCell id="5eA97bqAue3jfniv3n-x-15" value="" style="endArrow=none;html=1;rounded=0;strokeWidth=4;fillColor=#e51400;strokeColor=#FF0000;movable=1;resizable=1;rotatable=1;deletable=1;editable=1;locked=0;connectable=1;" edge="1" parent="5eA97bqAue3jfniv3n-x-14">
          <mxGeometry width="50" height="50" relative="1" as="geometry">
            <mxPoint y="20" as="sourcePoint" />
            <mxPoint x="20" as="targetPoint" />
          </mxGeometry>
        </mxCell>
        <mxCell id="5eA97bqAue3jfniv3n-x-16" value="" style="endArrow=none;html=1;rounded=0;strokeWidth=4;fillColor=#e51400;strokeColor=#FF0000;movable=1;resizable=1;rotatable=1;deletable=1;editable=1;locked=0;connectable=1;" edge="1" parent="5eA97bqAue3jfniv3n-x-14">
          <mxGeometry width="50" height="50" relative="1" as="geometry">
            <mxPoint x="20" y="20" as="sourcePoint" />
            <mxPoint as="targetPoint" />
          </mxGeometry>
        </mxCell>
        <mxCell id="5eA97bqAue3jfniv3n-x-18" value="" style="endArrow=none;html=1;rounded=0;strokeWidth=4;fillColor=#e51400;strokeColor=#FF0000;movable=1;resizable=1;rotatable=1;deletable=1;editable=1;locked=0;connectable=1;" edge="1" parent="1">
          <mxGeometry width="50" height="50" relative="1" as="geometry">
            <mxPoint x="340" y="380" as="sourcePoint" />
            <mxPoint x="360" y="360" as="targetPoint" />
          </mxGeometry>
        </mxCell>
        <mxCell id="5eA97bqAue3jfniv3n-x-19" value="" style="endArrow=none;html=1;rounded=0;strokeWidth=4;fillColor=#e51400;strokeColor=#FF0000;movable=1;resizable=1;rotatable=1;deletable=1;editable=1;locked=0;connectable=1;" edge="1" parent="1">
          <mxGeometry width="50" height="50" relative="1" as="geometry">
            <mxPoint x="360" y="380" as="sourcePoint" />
            <mxPoint x="340" y="360" as="targetPoint" />
          </mxGeometry>
        </mxCell>
        <mxCell id="5eA97bqAue3jfniv3n-x-26" value="" style="group;movable=1;resizable=1;rotatable=1;deletable=1;editable=1;locked=0;connectable=1;" vertex="1" connectable="0" parent="1">
          <mxGeometry x="360" y="440" width="20" height="20" as="geometry" />
        </mxCell>
        <mxCell id="5eA97bqAue3jfniv3n-x-27" value="" style="endArrow=none;html=1;rounded=0;strokeWidth=4;fillColor=#e51400;strokeColor=#FF0000;movable=1;resizable=1;rotatable=1;deletable=1;editable=1;locked=0;connectable=1;" edge="1" parent="5eA97bqAue3jfniv3n-x-26">
          <mxGeometry width="50" height="50" relative="1" as="geometry">
            <mxPoint y="20" as="sourcePoint" />
            <mxPoint x="20" as="targetPoint" />
          </mxGeometry>
        </mxCell>
        <mxCell id="5eA97bqAue3jfniv3n-x-28" value="" style="endArrow=none;html=1;rounded=0;strokeWidth=4;fillColor=#e51400;strokeColor=#FF0000;movable=1;resizable=1;rotatable=1;deletable=1;editable=1;locked=0;connectable=1;" edge="1" parent="5eA97bqAue3jfniv3n-x-26">
          <mxGeometry width="50" height="50" relative="1" as="geometry">
            <mxPoint x="20" y="20" as="sourcePoint" />
            <mxPoint as="targetPoint" />
          </mxGeometry>
        </mxCell>
        <mxCell id="5eA97bqAue3jfniv3n-x-29" value="" style="group;movable=1;resizable=1;rotatable=1;deletable=1;editable=1;locked=0;connectable=1;" vertex="1" connectable="0" parent="1">
          <mxGeometry x="490" y="240" width="20" height="20" as="geometry" />
        </mxCell>
        <mxCell id="5eA97bqAue3jfniv3n-x-30" value="" style="endArrow=none;html=1;rounded=0;strokeWidth=4;fillColor=#e51400;strokeColor=#FF0000;movable=1;resizable=1;rotatable=1;deletable=1;editable=1;locked=0;connectable=1;" edge="1" parent="5eA97bqAue3jfniv3n-x-29">
          <mxGeometry width="50" height="50" relative="1" as="geometry">
            <mxPoint y="20" as="sourcePoint" />
            <mxPoint x="20" as="targetPoint" />
          </mxGeometry>
        </mxCell>
        <mxCell id="5eA97bqAue3jfniv3n-x-31" value="" style="endArrow=none;html=1;rounded=0;strokeWidth=4;fillColor=#e51400;strokeColor=#FF0000;movable=1;resizable=1;rotatable=1;deletable=1;editable=1;locked=0;connectable=1;" edge="1" parent="5eA97bqAue3jfniv3n-x-29">
          <mxGeometry width="50" height="50" relative="1" as="geometry">
            <mxPoint x="20" y="20" as="sourcePoint" />
            <mxPoint as="targetPoint" />
          </mxGeometry>
        </mxCell>
        <mxCell id="5eA97bqAue3jfniv3n-x-38" value="" style="group;movable=1;resizable=1;rotatable=1;deletable=1;editable=1;locked=0;connectable=1;" vertex="1" connectable="0" parent="1">
          <mxGeometry x="340" y="310" width="20" height="20" as="geometry" />
        </mxCell>
        <mxCell id="5eA97bqAue3jfniv3n-x-39" value="" style="endArrow=none;html=1;rounded=0;strokeWidth=4;fillColor=#e51400;strokeColor=#FF0000;movable=1;resizable=1;rotatable=1;deletable=1;editable=1;locked=0;connectable=1;" edge="1" parent="5eA97bqAue3jfniv3n-x-38">
          <mxGeometry width="50" height="50" relative="1" as="geometry">
            <mxPoint y="20" as="sourcePoint" />
            <mxPoint x="20" as="targetPoint" />
          </mxGeometry>
        </mxCell>
        <mxCell id="5eA97bqAue3jfniv3n-x-40" value="" style="endArrow=none;html=1;rounded=0;strokeWidth=4;fillColor=#e51400;strokeColor=#FF0000;movable=1;resizable=1;rotatable=1;deletable=1;editable=1;locked=0;connectable=1;" edge="1" parent="5eA97bqAue3jfniv3n-x-38">
          <mxGeometry width="50" height="50" relative="1" as="geometry">
            <mxPoint x="20" y="20" as="sourcePoint" />
            <mxPoint as="targetPoint" />
          </mxGeometry>
        </mxCell>
        <mxCell id="5eA97bqAue3jfniv3n-x-41" value="&lt;b&gt;&lt;font face=&quot;Courier New&quot;&gt;P1&lt;/font&gt;&lt;/b&gt;" style="text;html=1;strokeColor=none;fillColor=none;align=center;verticalAlign=middle;whiteSpace=wrap;rounded=0;" vertex="1" parent="1">
          <mxGeometry x="510" y="220" width="30" height="30" as="geometry" />
        </mxCell>
        <mxCell id="5eA97bqAue3jfniv3n-x-42" value="&lt;b&gt;&lt;font face=&quot;Courier New&quot;&gt;P2&lt;/font&gt;&lt;/b&gt;" style="text;html=1;strokeColor=none;fillColor=none;align=center;verticalAlign=middle;whiteSpace=wrap;rounded=0;" vertex="1" parent="1">
          <mxGeometry x="350" y="285" width="30" height="30" as="geometry" />
        </mxCell>
        <mxCell id="5eA97bqAue3jfniv3n-x-43" value="&lt;b&gt;&lt;font face=&quot;Courier New&quot;&gt;P3&lt;/font&gt;&lt;/b&gt;" style="text;html=1;strokeColor=none;fillColor=none;align=center;verticalAlign=middle;whiteSpace=wrap;rounded=0;" vertex="1" parent="1">
          <mxGeometry x="420" y="305" width="30" height="30" as="geometry" />
        </mxCell>
        <mxCell id="5eA97bqAue3jfniv3n-x-44" value="&lt;b&gt;&lt;font face=&quot;Courier New&quot;&gt;P4&lt;/font&gt;&lt;/b&gt;" style="text;html=1;strokeColor=none;fillColor=none;align=center;verticalAlign=middle;whiteSpace=wrap;rounded=0;" vertex="1" parent="1">
          <mxGeometry x="335" y="380" width="30" height="30" as="geometry" />
        </mxCell>
        <mxCell id="5eA97bqAue3jfniv3n-x-45" value="&lt;b&gt;&lt;font face=&quot;Courier New&quot;&gt;P5&lt;/font&gt;&lt;/b&gt;" style="text;html=1;strokeColor=none;fillColor=none;align=center;verticalAlign=middle;whiteSpace=wrap;rounded=0;" vertex="1" parent="1">
          <mxGeometry x="330" y="450" width="30" height="30" as="geometry" />
        </mxCell>
        <mxCell id="5eA97bqAue3jfniv3n-x-46" value="&lt;b&gt;&lt;font face=&quot;Courier New&quot;&gt;P6&lt;/font&gt;&lt;/b&gt;" style="text;html=1;strokeColor=none;fillColor=none;align=center;verticalAlign=middle;whiteSpace=wrap;rounded=0;" vertex="1" parent="1">
          <mxGeometry x="540" y="310" width="30" height="30" as="geometry" />
        </mxCell>
        <mxCell id="5eA97bqAue3jfniv3n-x-47" value="&lt;b&gt;&lt;font face=&quot;Courier New&quot;&gt;P7&lt;/font&gt;&lt;/b&gt;" style="text;html=1;strokeColor=none;fillColor=none;align=center;verticalAlign=middle;whiteSpace=wrap;rounded=0;" vertex="1" parent="1">
          <mxGeometry x="550" y="370" width="30" height="30" as="geometry" />
        </mxCell>
        <mxCell id="5eA97bqAue3jfniv3n-x-48" value="" style="shape=image;imageAspect=0;aspect=fixed;verticalLabelPosition=bottom;verticalAlign=top;image=data:image/png,iVBORw0KGgoAAAANSUhEUgAAAhwAAAJ2CAIAAACb88wXAAAACXBIWXMAAA7EAAAOxAGVKw4bAAAgAElEQVR4nOzdeUAUdfsA8Jm9dzl3uW8QRAFBEPCIVPJIK69SU8u83jwqNfXVyl4zj8xK80rNNMMwS9RE00RR8uCQW5BTLrnv3WXve+b3x7zx23dBo2WPVp7PX/BlduaZL8/MszPznRkUx3EEAAAAMASSuQMAAADw7ICiAgAAwGCgqAAAADAYKCoAAAAMBooKAAAAg4GiAgAAwGCgqAAAADAYKCoAAAAMBooKAAAAg4GiAgAAwGCgqAAAADAYKCoAAAAMBooKAAAAg4GiAgAAwGCgqAAAADAYirkDAM8mHMd5PB6FQrGzs+v5VwzDOjs7bWxsmEzmU2ai0Wg6Ojr4fL5KpWIymU5OTnZ2diiK9j0MtVrN4/H+ckHahEKhUql0cHD4Wwvqic/nk0gkW1vbfs4HwzCRSCSXy7tbSCQSk8lksVgkkv5fCru6uhAE+bv9CcBfgqICjEIsFn/zzTfTpk2Liorq+VcMw5KSkjQazbJly54yhxMnTly/fr2+vl4ul9vb2wcGBs6bN2/WrFlP35mKxeLKykpPT08nJ6fm5ubVq1e/8847L730Uh8j//777wsKCo4fP85gMPr4kW6lpaUoigYFBSEIsnfvXhsbm3//+99UKvXvzkebVCo9fPhwWlpadwuJRGKz2aNHj16xYgWNRtNvtvv27UMQ5D//+Q+dTu9PeADogNNfwCjy8/OLioq8vLx6/SuZTI6IiDh06FBtbW2vE8jl8vfff3/Lli00Gu3LL7+8evXqe++9V1JSsnTp0u++++7pi66qqlq6dOkff/yBIAiKojQajUwm9z1yCoWi95568+bNmzdv7p4PhWKAL21qtbqgoODx48cz/jR16lSZTPaf//xn69ates+WSqUaJDwAdKDwOmFgcEql8tVXX500adL7779PIpFwHJdIJHw+X61W29racjgcFEVxHF+0aJFEIklISND5Lo/jeGJi4vLly9944409e/Z0HzE0NDRMmTKFRCKdO3cuODiYz+fT6XSNRkOcZ+NwOAwGQ61W3717d8mSJR999NGiRYtYLFZXV5e1tTWDwRAIBBiGMZlMHo+nVqs5HI6VlRWfzxeLxXQ63cnJiTgAEolEKpXK3t5eIBAolUrtwKytrVksFoIgCoWCx+MpFAoGg8Fms+l0Oo7jQqHw5ZdfJpFIly9ftrOzk0gkJBLJ2toaRVHiFFb3GSdbW1sSiYRhmEAgIGpeZ2cn8ScbGxudzuzq6lq+fDmPx0tJSeluFAgEr7/++u3bt0UiEXGooVKpeDyeXC5nMpkODg7ddVSj0XR1dclkMhsbGwaDIZVKbW1tyWSyQCBAEIQ4O4fjuEgk4vP5OI7b2dnZ2dkR4YlEIjKZTKVSOzs7cRy3sbHpPpmpVCq5XC6xOKIHDJU8wNLBVxVgeOnp6cXFxdu2bSMqSnl5+bFjx/Ly8pRKpZub23vvvffiiy+iKLp48eIFCxYUFRWNGDFC++NCoTApKYnD4Wzbtk37HJSXl9fBgwdnzpx569atoKCgDz/80Nvbu6Wlpbi4GMOwcePGbdy4kcvlHjhwgMvlHj9+XKPRzJgxY/369atWrZo6dSpxYDR48OAbN24IBIIpU6ZERUWdOXOmvr6ezWa//fbb8+bNQxDk5MmTBQUFR44c2blzZ1FRkXZgS5cunT9/vkAg2Lt3b1ZWlkajoVAoI0eO/OCDD0gk0qFDh8rLyxEE2bJly5YtW7799ltbW9v169dTqdSsrKyjR48+fvxYo9H4+/uvXLly7NixIpHos88+8/X1bWxszMjIUKlUERER69evDwwM/MsetrW1dXBw0Gg0KpWKTqcLhcJjx4798ccfXV1d9vb28+bNmzt3rrW1tUwmu3Tp0tmzZzs6Ovz9/cePH5+SkvLll196e3vv378fQZCPP/6YRqPl5+cfPny4qqpKpVL5+vouX7584sSJEonk8OHDTCaTy+WmpqYqlcqAgICPP/44ODgYx/GDBw/+8ccfMpmMRqO9+OKLK1assLW1NUjyAIuHA2BoS5cuHTZsmFAoxHFcKBQuXLhw7NixOTk5eXl5CxYscHd3b2trw3FcIpFwOJzDhw/rfLympmbcuHFLly7tOWe1Ws1mszds2KBUKgcNGuTi4nLgwIHi4uKEhASizEgkknPnzrm6uu7cubO+vr6kpIRGo3333Xc4js+dO5fFYq1atSojI+PHH390dHT08PA4fvx4RkbGggULHBwcmpubcRxfsmSJl5eXSCTKzMxM+tOLL77I4XB+/fVXDMOOHDkSERGRlJRUXl5++vTpIUOGxMfHq1Sqx48fR0ZGRkVFlZeXy+XyyZMnz58/X6FQiMXiYcOG/etf/8rPz8/Ozl68eHFQUBCfz29vbx83bhybzX7nnXeys7N//fVXOzu7TZs2KZVK7VXm8/lz5syZMGFCdwuGYQ8ePBg2bNjMmTMxDMMwbPXq1QEBAefOnSsoKDhw4ICbm9vvv/+O4/i9e/cGDRq0d+/e/Pz8r7/+2tfX18rKqri4GMfxl19++aWXXpJKpRKJJCws7I033sjJySkoKFi1alVgYCCPx+PxePPmzbO3t1+2bFlWVtalS5dsbW1XrlypUCiSk5ODgoLOnz9fVlZ24cKFIUOGXLp0ybApBCwXHKkAA8Nx/M6dO0OHDiXO5FRXV1+/fv3UqVPEFftNmzbl5+c/fPhw0qRJLBbLx8enrKxMo9FoX/aQSqWdnZ2TJ0/uOXMymezu7s7n8xUKBYIgMTExixYtYrPZwcHBBQUFe/fu/eCDD/z8/Gg0mre3t5eXV1lZmfbHvby81qxZExwcPHjw4MOHD0dHRy9fvhxBkLa2tosXL1ZWVrq5uRFToig6atQoBEHUanViYmJ6evrq1atnzJiBoiiKomvWrJk0aRKGYTQazcvLKz8//6233vL19SVOdg0ZMkR7ofv371er1Rs2bAgODkYQ5IMPPpg9e/bhw4dXrlyJIAiHwzlw4ACNRouOjv7xxx+rq6vFYjGbzdZZ8dzcXCIeBEEkEkl1dXVISEh8fDyKorm5uWfPnt25c+drr72GIMiQIUOKioouXrz48ssvHzt2bNy4catWrbKysgoPD3/w4EFiYqLOnI8ePdrV1bVp06bw8HAEQf79739nZ2fv3bt348aNCIKw2exvv/2WuMg0bdq0x48fCwSCrKwsKpXq5+fn6+vr4+NDTNbX/ADPOigqwMCUSiWfz+/ey5SUlHh4eHRfsR8+fPiDBw+6L6I4OjqKRCKFQkFcqyCQSCQymSyVSnvOHMfx9vZ2FotFoVBIJJK/vz9xlp8Yc4Wi6OPHj58Sm729vaenJzE9nU7vPtFEpVJRFCUKlc7iMjMzP//88+nTp2/ZsoW4sr1kyZLc3NzTp083NTVVVlYWFRWFhIQ8ZaFpaWlubm6DBw8mfvXx8WGz2Q8fPiR+jY2N7R4X4OnpWV9fr9Foeo18woQJxM9KpbK4uLi0tDQlJeXVV1999OiRTCarq6s7duwYETOXy21ubkYQpKSk5K233iKGU6MoOnHixJ5FJTMz09HRkSh4CIJ4eHg4OzsXFBQQv8bExHSH5+fn19LSolarX3nllZ9//nnVqlUTJ04MDw8fNmyYTh0FAxkUFWBgKpUKw7DuI4+Ojg4Gg9G9YyLuseiemEajYRiG/+9oERsbG3d399zc3J4zLygoEIlE3t7eNBoNRVEGg9E9vNjKygpFUblc/pSLxlQqVfsizV9eXu7o6Ni8ebOnp+f+/futra2Jxi+//DIxMTE4ODgoKOi5554rLy9/+q0eHR0drq6u3XWUONZRq9XEr9q98ZSh0gEBAbt37yZ+xnG8qqpq/vz5+/fvf/XVV0UikUajIcZBdE88duxYBEFEIpF2F/V6sw6Xy2UymToD3lQqFfGDdnd1zyciIuKnn366d+9eRkbGhQsXGAzGzp07X3311ad0Ahg4YEgxMDAWi8VgMPh8PvGrr69vV1eXWCwmfq2pqZkzZ05GRgbxK5/Pt7Ky0tmjubi4REdH37p1q2dd2b59u7u7e0xMDIlE0mg0bW1t3QO0GhsbMQx70iBmPWg0mtdff10kEu3YscPV1ZVoFAgEn3/++bx5886cObN169YXX3yRyWTiTx1C6e/vT4wxI35tbW0VCoX9+WqPoqiPj4+bm1tDQwOCIM7OzlQqdfHixXv27NmzZ89XX321cuXK2NhYBEFcXFx4PF73oU/34ZE2X19fPp8vFAqJXzs7O/l8fvexV6/1Mi0tjU6nr1u37ty5c/n5+eHh4d98843eqwOeMVBUgIGRSKQXX3yxpaVFJpMhCBIVFUWhUH799deGhob6+vqjR49mZGT4+voiCKJWqxsbGz09PXVumKBSqXPnzg0PD1+8ePHVq1erqqoaGxuLi4t37dqVkpKyZMmS7qsL2dnZGRkZXC43Ly/v/PnzsbGxXl5eZDIZRdHa2loul/v03f1TiMXiTZs2ZWRkzJ07l0QiPXz48OHDh01NTTKZjMlkyuVyHo/X1NR06dKlsrIykUhErCyVShUKhXV1dd3f9BEEWbx4cWNjY0JCQkdHR1NT04ULF0QiEXEtR29UKpVGo3V1dWEYFhUV5evre/Dgwerq6s7OzpycnLfeeuv27dsIgrzyyitXrlxJS0urq6u7efPmhQsXes5qwYIFPB7v9OnTbW1tbW1tly9fbm9vf++9956y9J9//vmdd94pLy8Xi8VCoZBMJndfiwIATn8Bw5s1a1ZqampNTU1ISIiLi8vWrVt3796dnp6O47hUKt2/fz+xD6qqqhIKhVFRUT2/Dg8bNuzw4cOff/758uXLPT09WSwWj8fDMOyzzz7717/+RRQhEomEouiOHTsYDEZzczObzd6/fz/xLd7f3//o0aMMBqPvN9LrqKysvHLlikajiY+P/+mnn4jGN954Y9OmTatWrfrpp59ycnJUKtWgQYNGjRqVnJx8/vz5RYsWTZky5dNPP/3www/37NnTPaupU6cuXbp03759586dUyqV7e3tGzduHDRoUEdHh36xIQiCoiiHwxEIBNnZ2aNHj96/f/+WLVveeOMNDodTV1cXGRn5+uuvIwiydOnSurq6tWvX2traUqnU8PDw5uZmnVtBJ06cuGbNmiNHjly6dAlBkKampnfffTcgIKD7WLOnTZs2LV68eNGiRV5eXl1dXXK5/KuvvtJ7XcAzBm5+BIanVCrDw8M//PDDxYsXIwii0WhEIlFRURGO40FBQQ4ODsTZ+Z07d/76668ZGRnaV+m74Tguk8keP36cm5tLnC+KjIy0t7fv3icGBgbOmTNn1apV9+/fd3FxCQ8PJ55kheO4WCyura11cnJycnISiURMJpNOp0skEgzDuu9GlEgkNBqt+85BiURiZWVFpVKlUqlKpWKxWDKZDMMw7ZBoNBqTyVQqlWVlZRUVFUFBQYMHD1YqlYWFhQEBAW5ubiqVqrGxUa1W+/r6KhQKFEVZLBaKoiqVqr6+Pjs7m7ivxcPDg0KhEDGQyeTu1ZdKpRiG6TzUi6jEOI53X9TpnlipVLJYLBqNhuO4QCAoKChoaWkJCQkJDAyk0+lEVyiVSolEwuPxHB0d4+LiPv300/Lycnd3d+J0HHEhSqVSNTU1ZWdnq9XqMWPGeHp6UqlUDMNkMhmxCsQSZTKZRqMhwuNyuYWFhVVVVd7e3iNGjHB0dOzPg8jAswSKCjCK77//PiMjY//+/b0+UBJBkJaWlunTp3/yySczZ87UbxHEo8B27tzZjzCfcYcOHaqurv7www8dHBxaW1vffvttqVSampoKBQAYD5z+AkYxY8aM9PT00tLSMWPG9PyrRqNJSkqKjo5+5ZVXTB/bwBESEvLDDz90dHS4ubmVlJRwudyvv/4aKgowKjhSAUaBYVhdXR2TyeweN6VNo9HU1tZaW1u7uLjovYjr1697eXk9/R6RAU6pVFZWVqampra2tg4aNGjMmDH+/v5QVIBRQVEBAABgMPCdBQAAgMFAUQEAAGAwRrxQn56eLhaLJ02a1D0GVC6XZ2Vl3b59m8ViRUdHjxkzhhj4qNFoHj9+nJKS0tbWRrTb29sbLzAAAABGYpRrKsRF2rlz50ZGRn7zzTfEQzi4XO7atWtTUlJGjBhBIpEKCgpmzpy5Y8cOe3v7q1evfvzxxx4eHkwms6yszMfHJy4ujnjwHwAAAAti+NNfpaWla9euXbp0aV5ennZ7UlLShQsXdu3aderUqbi4uG3btv36668PHz5UKBTHjx8fOXLkyZMnT506tWvXrqKiotOnTxs8MAAAAMZm+KKiUCikUqmfn5/OKxays7NdXV2XLFni7Ozs5OQ0bdo0NptdXFys0WjKyspGjRrl6enJZrOff/55e3v7qqoqgwcGAADA2Ax/TSUiIuKHH35AECQsLAz58ymnOI7Pnz//pZde6r6+0tDQ0NXV5eXlRaVSJ0+efPHixdDQUBsbm8TERLlcrvMYbaLwSCSS7hYURYnnBho8fgAAeDao1WrtCxw0Gs3f39/YL3420R31KIo+99xzxM8KheLWrVufffZZWFhYZGQkjUabP3/+0qVLZ86cyeFw6uvrJ0+e3P0+IkJzc/Mbb7wxbNiw7hbixRgWVFTKy8sdHR0dHR3NHYieGhoacBz39vY2dyB6IgaJjB8/3tyB6M/SU6ilpUWlUkEKmZJMJtN+YHZDQ8OKFSveeustoy7U1I9paWpq2rJly2+//TZhwoSvvvrKw8NDJpPt2LHDy8tr7969HA4nISHhyJEju3bt2rVrV/enurq62tra7t27pz0rC6ooCILs3r177Nixzz//vLkD0dPJkye7urr+/e9/mzsQPZWXl9+4cePLL780dyD6s/QUOn/+fH19PaSQKemMw/rPf/5TX19v7IWarqhoNJrU1NTVq1fb2NgcP3589uzZRHtmZmZhYWF8fPzIkSNRFN28eXN+fn58fPzGjRu1r8qgKGrR44wZDIaVldWTnq74z+fo6Mhmsy03fk9PT09PT8uNH3kmUohMJltu/M9ACv3lq04NwnRF5f79+/PmzXvzzTc3bNjg4eHR3S6TyRgMBvGEcARByGSyq6srjuPd70YFAABgKUx0R71arU5ISLCxsVm0aJFGo6mvr6+rq6urqxOJRMOHD1epVElJSUqlEsfxkpKStLS08PBwDodjmtgAAAAYihGPVOh0OpVKJX4WCAT19fWNjY2jR4/WnubAgQNvv/32jh07Pvroo19//dXV1bWystLW1vbYsWM676ezdB4eHjY2NuaOQn+Ojo46b6yyLFQqVXughyWy9BRis9k67422LDQazdJTiEwmm+AZ1UZ8SvEff/zB4XDCwsJIJJJMJsvNzeVyuTrThIWFDRo0SKVSZWdnp6enCwQCPz+/adOm6TwvvaioaPLkya2trUYKFQAAnnlbt27lcDjr1q0z6lKM+MVBe1gwk8kcO3bsk6akUqkxMTExMTHGCwYAAIAJwFOKTWTbtm137twxdxT6i4+Pj4uLM3cU+mtqaoqOjjZ3FP1i6Sl06dIlSKGBwDJe0gWnvwAAoJ9Mc/oLjlQAAAAYDBQVAAAABgNFBQAAgMFAUQEAAGAwUFQAAAAYDBQVEzlw4EBmZqa5o9DfxYsXz58/b+4o9Nfa2jpjxgxzR9Evlp5CycnJFp1CbW1tlp5CpgFDigEAYECAIcUAAAAsDBQVAAAABgNFBQAAgMFAUQEAAGAwUFQAAAAYDBQVEzl16lRBQYG5o9BfcnJyUlKSuaPQX0dHx6pVq8wdRb9YegqlpaVZdAp1dnZaegqZBgwpBgCAAQGGFAMAALAwUFQAAAAYDBQVAAAABgNFBQAAgMFAUTERuVyuVqvNHYX+lEqlQqEwdxT6wzBMJBKZO4p+sfQUUqlUkEIDARQVE7l+/XpVVZW5o9BfTk5Odna2uaPQn0Ag2Ldvn7mj6BdLT6GioiJIoYEAhhQDAMCAAEOKAQAAWBgoKgAAAAwGigoAAACDgaICAADAYKComEhra6tYLDZ3FPrj8XhcLtfcUehPqVRWVFSYO4p+sfQUEggEFp1CKpXK0lPINKComEh5eXlnZ6e5o9BfQ0NDfX29uaPQn1wuv3Pnjrmj6BdLT6GWlhaLTiGZTGbpKWQaMKQYAAAGBBhSDAAAwMJAUQEAAGAwUFQAAAAYDBQVAAAABgNFxUQsfehOfX19XV2duaPQ3zMwdMfSU6ilpQVSaCCgmDuAgeIZeG45hmHmjkJ/GIZZ9E0eyDORQkql0txR6A/HcUtPIdOAomIi4eHh5g6hX/z9/c0dQr9YWVlNmzbN3FH0i6WnkLe3t7lD6BcWi2XpKWQacPoLAACAwUBRAQAAYDBQVAAAABgMFBUAAAAGA0XFRDIzMxsbG80dhf7KyspKSkrMHYX+xGLxL7/8Yu4o+sXSU6i6uhpSaCCA0V8m4urqam1tbe4o9Mdmsy3i2aNPQqVSAwMDzR1Fv1h6CtnZ2bFYLHNHob9nIIVMA4qKifj6+po7hH5xdXU1dwj9QqfTIyMjzR1Fv1h6Cjk6Opo7hH55BlLINOD0FwAAAIOBogIAAMBgoKgAAAAwGCgqAAAADAaKiolcv369qqrK3FHoLycnJysry9xR6K+rq2vfvn3mjqJfLD2FioqKLDqFBAKBpaeQacDoLxMZPXo0g8EwdxT6CwoKsughxdbW1vPnzzd3FP1i6Snk7++v0WjMHYX+rKysLD2FTAOKionY29ubO4R+seg7JBAEoVAo7u7u5o6iXyw9hSz6JhXkmUgh04DTXwAAAAwGigoAAACDgaICAADAYExxTaWrq6upqYlEInl4eNja2ur8VaPRVFRUuLq6stlsEwQDAADAeIx+pHLr1q25c+fOmzdv/vz58+fPf/Dggc4Et2/fXrhw4f37940diXmdPXu2uLjY3FHo7/bt2ykpKeaOQn9cLnfjxo3mjqJfLD2FsrKyIIUGAtSo40RLSkpmz55tb29/4sQJmUw2Z86cQYMGXblyxcbGhpigvb09MDBQLpf/+OOP8+bNe9J8ioqKJk+e3NraarxQAQDg2bZ161YOh7Nu3TqjLsWIRyoajSYpKQnH8eTk5NDQ0JEjRx46dMjLy6utrY2YgMfjrVmzZtKkSZY+VhIAAADBiNdUpFJpTk7OtGnTKBTKgwcP1Gr1hAkTYmNjiTseVCrVTz/9JBaLv/nmm3HjxqEoarxIAAAAmIYRj1QUCkVtba1arQ4JCRk7dmxsbGxUVNSjR48oFAqCIDU1NXFxcR9//LGDg0Nf5iaTyRYsWLDkT/v27RMKhceOHaupqdGZ8sSJE3V1dTqN8fHxOmfPFApFQkICn8/Xbuzo6Lhw4YJQKNRubGpqunLlikKh0G4sKyu7ceOGWq3WbszOzu551jg1NTU1NVWn8dq1a9nZ2TqNiYmJeXl5PSPveSb9yJEjlZWVOo299kZcXFxTU5NO45kzZzo6OrRbhEJhr72RmJgokUi0G2tqaq5du6az4oWFhTdu3NBZSnZ29p07d3QaU1JSel4/S0xM7NkbCQkJhYWFOo0nTpwoKyvTaTx27FjP3uh7GvTaG31Pg157o+9p0Gtv9D0Neu2NvqdBHzeKJ6VBrxuFzlKelAZ93CielAZ93CielAZ93CielAZ93Cj6mAZP2ij6mAZP2ihqamoOHTq0RMuVK1cQ4yNv27bNSLMWiUQnTpy4c+fO4sWL9+zZM2XKlOTk5Dt37rz88ss4ji9ZsiQ2NnbBggVqtfro0aNTpkwJCQl50qza29tPnz69devW8PDw0NDQ0NDQ4OBgd3d3Fovl5uam8+wKOp3u6upKp9O1G2k0mrOzM41G625BUZROpzs6OhJFjkAikVgslqOjI5lM1m60srLicDgk0v/XYDKZbGtra29vr32MRSaT7e3t7ezstBdNoVDYbLbOsDcqlerg4KBzmzqNRnN0dOzZ6OLionM3Mp1Od3NzYzKZPRt1eoP4uPaKd/cGlUrV7g0mk9lrb3A4HJ3esLa2ZrPZOituZ2encxqT6I2eK87hcLovqnXH4+Tk1HPFnZ2drays+rLirq6uvTb2MQ169gaDwehjGtjY2PTsDVtb2z6mgaOjY8/e6HsauLu79ycNnJyc+rhRPCkNet0otJfylDTo40bRaxq4urr2caPoSxogT9gonpIGfdko+p4GvW4U/d8b2Nra+vv7h/6pqanJw8Nj9OjRiDEZ8UJ9W1vbCy+8MHTo0F9//ZXo65s3b77xxhtxcXGpqam//PLL119/7eHhIZFI3nzzzTVr1kyePPlJawsX6gEAoJ8s/kI9hULhcDhDhw7trt4jRoxQqVQymSwlJaW9vX3dunVz585dtGgRl8vdv3//m2++abxgzO7YsWO5ubnmjkJ/V69evXz5srmj0F97e7ulJ5ilp9Dt27chhQYCI16oZzKZw4YNy8vLk8lkTCYTw7A//vjDzs7O3d09JSWl+/yjSCQaP3781q1bX331VeMFY3arVq0ydwj9Mm3aNHOH0C/Ozs5nzpwxdxT9Yukp9MILL5g7hH55BlLINIxbVObMmfPuu+9u2LDh+eef5/P5+/btmzlzZkREhPY5QSqVSiKRbGxsOByO8YIBAABgAkYsKiiKjhs3Lj4+/uDBg0ePHrW2tl6/fv2CBQt0rjJRqdTZs2f7+voaLxIAAACmYdxnf9FotNGjRz99sAGTydy7d69RwwAAAGAa8JRiAAAABgNFBQAAgMFAUTGRL774Ii0tzdxR6O/s2bMWPfSlubl5woQJ5o6iXyw9hX7//XeLTqGWlhZLTyHTMO5Tig0Fbn4EAIB+svibHwEAAAw0UFQAAAAYDBQVAAAABgNFBQAAgMFAUQEAAGAwUFRMxNLHg8KQYrOz9BSCIcUDBAwpBgCAAQGGFAMAALAwUFQAAAAYDBQVAAAABgNFBQAAgMFAUQEAAGAwUBtYpSsAACAASURBVFRM5NixY7m5ueaOQn9Xr169fPmyuaPQX3t7+5tvvmnuKPrF0lPo9u3bkEIDAQwpBgCAAQGGFAMAALAwUFQAAAAYDBQVAAAABgNFBQAAgMFAUQEAAGAwUFRM5OzZs8XFxeaOQn+3b99OSUkxdxT643K5GzduNHcU/WLpKZSVlQUpNBDAkGIAABgQYEgxAAAACwNFBQAAgMFAUQEAAGAwUFQAAAAYDBQVE+nq6pLL5eaOQn9isVgkEpk7Cv2p1erm5mZzR9Evlp5CUqkUUmgggKJiIpmZmY2NjeaOQn9lZWWlpaXmjkJ/YrH47Nmz5o6iXyw9haqrqy06hSQSiaWnkGnAkGIAABgQYEgxAAAACwNFBQAAgMFAUQEAAGAwUFQAAAAYDBQVE6mtre3q6jJ3FPprbW1taWkxdxT6UygUeXl55o6iXyw9hTo7OyGFBgIoKibS2toqFovNHYX++Hw+j8czdxT6U6lUFRUV5o6iXyw9hQQCAaTQQEAxdwADxejRo80dQr8EBQWZO4R+sba2XrBggbmj6BdLTyF/f39zh9Avz0AKmQYcqQAAADAYKCoAAAAMBooKAAAAg4GiAgAAwGCgqJhIQUGBRT+7rLq6urKy0txR6E8ikVy9etXcUfSLpadQfX29RaeQVCq19BQyDRj9ZSIMBoNCseDeplKpFvHs0SchkUjW1tbmjqJfIIXMC0VRS08h07DgHLUsQ4cONXcI/eLt7W3uEPqFyWTGxsaaO4p+sfQUcnNzM3cI/fIMpJBpwOkvAAAABgNFBQAAgMFAUQEAAGAwUFQAAAAYDBQVE7lz505tba25o9BfYWHhgwcPzB2F/oRC4fHjx80dRb9YegqVl5dDCg0EMPrLRIYOHWrR4xG9vLwsejwog8Gw9KE7lp5Cbm5uarXa3FHoD0Z/9REUFRNxdXU1dwj9wuFwzB1Cv9BotMDAQHNH0S+WnkJ2dnbmDqFfqFSqpaeQacDpLwAAAAYDRQUAAIDBGPf0F4ZhbW1tly9f7ujo8PPze+mll9hsNolEQhBEpVKVlJQkJydLJJKoqKiYmBg2m42iqFHjAQAAYFRGPFLBMOzu3buxsbFxcXE5OTkHDhwIDw+/fv06giA4jh84cGDmzJlJSUkPHz788MMP33zzzba2NuMFAwAAwASMWFTkcvnZs2f9/Pzi4uJOnToVFxdna2t75MgRhULR0NCwZ8+eV199lfjT559/XllZefr0aeMFY3aXLl0qLy83dxT6S09PT01NNXcU+uPz+du3bzd3FP1i6SmUn58PKTQQGPH0l0wmKy4uXrFiRXBwMIIgbDY7PDy8srJSLBZnZmZiGDZ//nwfHx8URceNGzdkyJDff/9906ZNxovHvKZOnWrRj5iNjo626CHFdnZ2GzZsMHcU/WLpKRQaGophmLmj0N8zkEKmYcQjFTabffXq1fnz58vl8pqamrt376alpY0aNcre3j48PPzYsWNBQUEoiuI43tbW1tbWNmzYsKfMDcOwoqKikj/V1dWp1erGxkaZTKYzZVNTU8/GlpYWhUKhM8PW1laVSqXdqFQq29radEbTy+Xyjo4One1BIpFwuVyd/axAIODxeDqL5vP5fD5f57nlnZ2dAoFAZ8r29nahUNgzcrFYrNPY0NAglUp1GnvtjebmZrlc3nOeSqVSu0WtVvfaG+3t7RqNBkEQGo1Gp9MRBJHJZJ2dnTorLhKJuFyuzlIEAgGfz9dp5PF4XV1dOo3t7e09e6O1tVUkEuk0NjU1SSQSncbGxsaevaGTBiQSycbGptc06LU3+p4GvfbGk9JAp7Gzs7PX3ug1DdRqtU5RaWho6LU3+p4GfdwoutOgG5EGvW4UOkvpTgMqlUqkEIIgPB6v197oexr0caN40t6gjxuFdhoQKUSkQa+9oXcaPGmj6OPe4EkbhUwmq6+vL9HS0dGBGJ8RiwqJRGKz2XQ6vaSkZP78+fPmzVMqlfPmzSOTyYGBgXPmzCHGrT948GDbtm0KheKdd955ytxUKtX58+cv/en+/fsKhSI3N7fnfyg/P79nahYWFur8M9RqdUlJiU5uSaXS0tJSnS1NJBI9evRIZxfT2dlZXV2ts1E1NzfX1NToLLq+vr6+vl6nsbKysqmpSaexvLy8paWlZ+Tt7e06jTk5OT233l5748GDBz23yaKiIp3NT6FQ9Nob5eXlOrsYPp9fWVmps+JtbW3V1dU6S2lubu55B3hNTU1jY6NOY3l5ec/eKCkp6flOqvz8/M7OTp3G3Nzcnr3R9zTotTf6nga99kbf06DX3uh7GvTaG31Pgz5uFE9Kg143Cp2lPCkN+rhRPCkN+rhRPCkN+rhRPCkN+rhR9DENnrRR9DENnrRR8Pn8rKysS1pMc/oUNcE5DYlEUlVVlZOTs2XLlpCQkJ9++ol4s4JAINi/f/+3337r7++/b9++kSNHEgPDeioqKpo0aVJ1dXX38DAymUyn05VKJYVCIZPJ2hMrFIpeG6lUqvb8cRxXqVQUCkW7EcMwtVpNpVK1x6H12qjRaDAMo1Ao2o1qtRrHcSqVqr1oIv96NqIoqvPFU6lUkkgkncZeV0cul1OpVP1WvJ+90fcVf1Jv9HHF+94bf6ux54orlcpeewPS4O+uONHYxzSwlN7456fBUxpVKpX2QdXOnTtdXV3XrVuHGJMRT9GqVKq6ujoPDw8rK6vhw4cPHz7c1tZ2zZo1BQUFbm5uFRUVGzZsqKio+Oijj5YvX/6Xz5/o9bVr3UfTejSiKEqj0XQaSSRSHxvJZLLOfxFBkF5Peesk0FMaey4FecLqMBiMPk5p8N7o+4r3vTd6XfG+90Y/V9w0vTEQ0gB6Q5vJVvwpjTpR9TpPgzPi6a+Ojo7Zs2fn5OR0tzg7O6MoSiKReDze22+/TaFQEhMT169fb9FPNAIAANDNiEWFwWCw2ezvvvuOOCnZ3t7+1Vdfubi4DB48OCkpqaio6I033rCysqr7U88zp8+SU6dOFRQUmDsK/SUnJyclJZk7Cv11dHSsWrXK3FH0i6WnUFpamkWnUGdnp6WnkGkY8ZoKhmHnz59///33VSqVn59fQ0ODQqE4efLk7Nmz33vvvZMnT+pMHxsbS9wa2VNRUdHkyZOf7aoDAABGtXXrVg6HY8HXVEgk0ty5c319fe/fv8/j8VxcXKZOnerv748gyKJFiyZPnqwzvaOjo/GCAQAAYALGvZeKRCKNGjVq1KhROu09WwAAADwD4CnFAAAADAaKCgAAAIOBogIAAMBgoKiYyIEDBzIzM80dhf4uXrx4/vx5c0ehv9bW1hkzZpg7in6x9BRKTk626BRqa2uz9BQyDVM8pqX/YEgxAAD0k2mGFMORCgAAAIOBogIAAMBgoKgAAAAwGCgqAAAADAaKCgAAAIOBomIi27Ztu3Pnjrmj0F98fHxcXJy5o9BfU1NTdHS0uaPoF0tPoUuXLkEKDQQwpBgAAAYEGFIMAADAwkBRAQAAYDBQVAAAABgMFBUAAAAGA0UFAACAwUBRMRFLf8QsPKXY7Cw9heApxQMEDCkGAIABAYYUAwAAsDBQVAAAABgMFBUAAAAGA0UFAACAwUBRAQAAYDBQVEzk1KlTBQUF5o5Cf8nJyUlJSeaOQn8dHR2rVq0ydxT9YukplJaWZtEp1NnZaekpZBowpBgAAAYEGFIMAADAwkBRAQAAYDBQVAAAABgMFBUAAAAGA0XFRLq6uuRyubmj0J9YLBaJROaOQn9qtbq5udncUfRLH1MI/5MJQvpbpFLpM5NC/8we/oeAomIid+7cqa2tNXcU+issLLTo8awikejEiRPmjqJftm3bduPGjadPI5PJkpKSzp0719bWlp2dfffuXbVa3c/lqtXq/Pz8nJycfs6nvLy8/ynE5XKTkpIkEkk/56MHIoU0Gs3Dhw9//vnnO3fumD4Gi0AxdwADxaxZs8wdQr/ExMSYO4R+YbPZn376qbmj6JfCwkIvL6+nT5OYmLhu3bpRo0aFhYUdOXKkqanp8uXLFIo+m3lCQgKPx1uyZAmO4z/88INYLD516pQ+cf9pxIgR/fk4obq6et26ddevX/fz83vKZJs3b46NjZ0yZUr/l9iNSKH6+vpNmzY1NjYuW7bshRdeMOD8nxlQVACwDFKpVKVSPX2azMxMhUJx9uxZKysruVwulUr1XlxmZmZDQ8Obb75pbW39ySefYBim96wMKDQ0NCkpycPD4+mTnT17lsPhGLaoELhcbnFx8S+//DJu3DiDz/zZAEUFAGNpbW199OjRsGHD0tPTW1pa3N3dR48e7eTkhCAIjuPt7e0FBQWPHz9ms9kRERH+/v5kMhlBEC6Xm5ubW1tbi6Kor69veHi4s7Oz9mxxHK+trX306FFUVJSjoyPRqFary8rKHj9+rNFosrKyIiIitD8ik8ny8vJKSkqUSmVwcHBUVJSdnR3xp/b29tzc3Lq6OiqV6ufnFxERweFw0tLSampqOjs7r1+/Pn369Pb2do1G4+bm1tHRUVhYOGbMmLS0tLq6OkdHx/Dw8EGDBiEIgmFYbW1tYWGhSCQKCQmh0+lSqXTkyJFP6R+xWJyXlxcYGFhQUFBfX+/o6DhmzBh3d/fu3svKyqqpqXF2dh4+fHhgYCCNRpPL5XV1da6uriQSqaSkhEwmk8nk/Px8lUrl5eUVExOjVCrT0tKkUmlpaWleXl5kZKT2Eh89etTa2jpo0KD79+/z+fyAgIDursAw7PHjx6Wlpc3Nze7u7iNGjCBKV0VFRXV1dURExL179xwdHUtLS+Vy+cOHD+3t7cPCwiQSSWZmZk1NDYZhAQEBI0eOtLGxQRCko6OjvLzc09MzNzfXycnJ29u7tLQ0MjLy/v377e3tgwcPjoiIqKioKCwstLOzi4yM9Pf3J5FIGo2mtLS0pKSks7OTw+EMHTo0LCyMONBMS0tzcnISCATEWoeEhHSvmkAgIP5fDAYjIiIiNDSUTqf3mmD6JPHfB0UFAGPJysrasGFDeHi4RqOxtrZOT0+PiYnZvXu3l5cXl8t955132traBg8eXF1drVarDxw4MGrUKIFAsHXr1ps3b44bN06j0Xz++edTpkz58ssv7e3tu2dbX1+/atUqFxcX7cqhVqszMzMrKio0Gk1iYqLOibI9e/YkJiYGBweTSKTvv/9+woQJ+/fvRxCEy+WuXbu2tLR0zJgxMpns888/nz9//scff3zjxo3y8nKpVJqQkDB+/Phvv/1WLBbHx8c/fPjw7bffnjx5cm1tra2tbWZm5vDhw7/99lsfH5/8/PyNGzeq1Wp3d/dTp04JhUIbG5vbt28/pX8aGxuXL18eGBiIoiibzc7Pz3d2dj5x4oS/vz+xjlwuNzw8/Pr1652dnZ9++umMGTMqKiqWL19+8+ZNFxeXo0ePlpaWkkgkBweHjo6O4uLiXbt2TZs2LSEhQSwW5+fnp6am6hSVn376KT4+PioqikKhoCi6a9eupUuXbty40cbGJjc3d9OmTRQKxdXVtaSkxMnJ6fjx435+fgkJCV9++eWcOXMyMzNff/313NxcuVx+/fp1CoXi6+v7+eefnz179rnnnsNxfPfu3bNnz/70009tbW0fPnz47rvvenh41NbWrly5sqCgYPPmzbNnzxYKhSKRqKSkZOLEiY2Njc7OzqWlpQ4ODleuXGGz2ffu3duwYYOTk1NAQEB1dXVtbe3XX389bdo0BEE2b96MoiiFQnF0dKytrRUKhSdPnoyJiWltbd2wYUNBQUF0dHRra+vXX3+9Y8eOOXPm8Hi8nglmkKz+a7glePjwoYuLi7mjAODvuXjxorW19dKlSyUSiVwuLywstLa23r17N4Zh77///vPPP//o0SO5XN7S0jJ79uypU6fiOJ6Zmenr65uVlaVQKORy+blz5wYNGpSdnY3j+MiRI3fv3t3Q0BAQEDB9+vSmpibtZWEYplQqV61a5ezsLJfLNRrN66+/PmbMGLFYnJOTw+FwTp48KZPJ5HL55cuX3dzcrl27huP49evX7e3tHzx4QCwuLi4uMjLy0aNHCoVi9erVs2bNam9vF4vFb7/99rx583AcJ/bmL774olAoJAYF2NnZnT17FsfxsWPHTp8+vaWlRSaT3bt3b9CgQZGRkU/vH2J/OmfOHKJ/Hj16RKVS16xZo9Fo5s6dO3jw4MrKSoVCwefz33333eDgYBzHMzIyPDw8qquriahIJNKdO3ekUqlYLI6Ojp4wYUJHR4dMJvPx8dm1a5dCodBZ4kcffUQmk/fs2SOVSmUy2ZUrV5ydne/fv4/j+GuvvbZs2TJiiF1xcfHgwYNXrVqF4/i2bdtIJNKyZcva2trkcvn9+/c9PT2zs7OVSmViYqKjo+O9e/fkcrlMJktJSeFwOAkJCURHoSi6atUqoVAol8u//vprCoXywQcfSCQSiUQyevRob2/vjIwMmUx269Ytf3//3377TaPRrF+/ftKkSRKJRKFQSCSS4cOHr1ixQqPR4Dg+atSoIUOGVFRUyGSysrKykJCQhQsXEuHRaDSi1Eml0rlz5xIVpdcE++STT/bv32+I1H4aGP1lIrW1tV1dXeaOQn+tra0tLS3mjkJ/CoUiLy/P9Mslk8kfffQRi8Wi0+lhYWHR0dHFxcUdHR3ffvvt8OHDSSRSQ0ODWCwePnz43bt329ragoODf/vtNx8fn9ra2rKysoqKCpVKpVAoiLk9fPhwzpw5Uqn0m2++6T5NREBRlEqlkslkFEXpdDqJ9P+b9smTJ52dnadPn85gMOh0ekxMzJAhQxISEhAEGTly5J07d1xcXIgzP9XV1QqFQqVS0Wg0CoVCJpPpdHrPldq7d6+NjQ2DwRg3bpxarRYIBFVVVfn5+dOnT3d1dWUwGNHR0aNGjUJRFMdxgUDQ1NTU1NT06NGjsrKypj8plUoEQUgk0jvvvEP0T2Bg4CuvvFJcXFxcXHz9+vVXX301ICCARqPZ29tPnTqVx+P1HD/5wgsvjB8/nslkWllZTZgwgSgVDAaD6A0ajdbrf2TZsmVMJpPBYIwcOdLFxaWkpEQoFKakpIwcObKjo6OhoYFOp48cOfLatWvENstkMtetW2dnZ1dcXEyj0VAUpdFoOI7fv38/NDR07NixdDqdwWBMmDAhKCiouLiYWDV3d/cVK1bY2Nh09+GyZctYLBaLxfL39x8+fPjgwYMZDIazs7OdnR3xYMP169cfPXq0o6Ojqqrq4cOHIpFIKpXif45dnjlzpo+PD4PB8Pf3d3R0bGxs5PP5d+/ejY2NjYyMpNPpTCbz008/XbBggVKpfFKC/f0U/tvg9JeJ1NbW+vr6ap/EsCxtbW0Yhrm5uZk7ED0RRUXnZIgJ2NnZubi4dP/q7+/f1tZWWVmpUqnu3r1bV1dHtHO5XFtb287OTk9Pz4yMjJs3bwqFQhqN1l1OEATBMOzKlSuDBg2SSqWPHz/28fHpYwxVVVUcDqf76ouNjQ2LxSJ20BiGpaSkpKWlSSQSKpUqFov7MkNvb2/iBxaLRSaTiaspNBrN09OTaGcwGI6OjtXV1RqN5vz584mJiQiCtLa2qtXq7mkOHjyIIIiVlZV2/4SEhNy6dauyslKj0QQHB3e329raEjHrFDnthLSzs8MwDP+r20ecnJw4HA7xM5VKdXV1JS59KRSKH3/88erVq8SfmpqabGxshEIhgiBkMtnd3Z1IoaioKGIClUrV1tY2ZMgQ7Zm7urryeDyiqNjb27NYLJ2/Ej+QyWQWi9Vd81AUxTAMRdHOzs4ff/yxvLyc+GagM86CzWYT11eIeimTybq6ukQikfYgtJCQkJCQkPLy8icl2NM7xyCgqJhIbGysuUPol+HDh5s7hH6xtbVdsWKF6ZcrkUi0h2xJpVIqlUrsi2fOnLlw4ULtiX18fBITE7du3bpt27Zx48ZZWVkVFxe/++67xF9RFJ01a9bmzZvnzJmzf//+4OBgnQv4T8JgMLq6ujAMIwYCyGQyhULh6uqK4/ipU6d27dr19ddfjx49msViZWZmfvbZZ385Q2I+2phMJo7jxM4UQRCNRiOVSjEMI5FI4eHhVCq150zYbHZ7e7tCodAunGKxmEwmM5lMFEW124kzQq6urnw+X3sm2gdkfSQQCNRqNbF3xnFcoVAwmUwWi2VjY7NixYrRo0drr2Z3GSCRSEQK5efnEy3EwZB2kAiC8Hi8wMBAYuYkEglFUe2/ah856fwJQZD29vadO3e2tbV99dVXTk5O1tbWc+fO1Z6g50eIcQrat8R2dXXxeDwSidRrgv3www9/2T/9B6e/ADAihUKRkZFBnGvm8Xh379719fUNCQlxcHBoa2vz9fUdMmRIQEBASkrK+++/j+N4WVmZt7f3ypUrQ0JC3N3dMzIyumeFomhISEhwcPAPP/yQmpp65cqVPsYQHR1NXMcmwigvL29sbJw6dapUKi0uLh42bNjixYuDgoJcXV2zsrK0P9j3YcQBAQE4jufk5BAVtKamprS0FMdxEokUFRW1uDcODg4IgiiVyry8POIIQyAQJCYmenp6RkVF2djY3Lx5k9hlq9XqwsJCEokUEBDQx3iI4Hs9apFKpQ8fPiS6orGx8dGjR6GhoUOGDEFRVKlUBgYGDhkyxMfH58iRIzt27HjKLT40Gs3X1zc9PZ14TACO4y0tLYWFhQEBAb2eM/xLPB6vrKxs/fr1MTExgwcPptFoxL2iTzn2cnR0dHNzS05OJu4GVavVn3zyyYYNG+zt7XtNsF6ru8HBkQoARkShUHbs2NHa2mplZXXu3DkbG5vXXnuNRqMdPHhwx44dX331VVhYWFVVVXx8/LJlyxgMhp+fX1NT03fffefq6vrgwQPiWm5eXl50dHT3PEeMGLFw4cK9e/dOnDjR19f3L2NYuXLllStXtm/f/vrrryMIcu7cOVdX1wULFlAolICAgGvXrp08eZLD4WRlZWVnZwsEgtzc3JCQEA6H8/vvv586dUrn226vXFxc1q9ff/78eRqN5uXldffu3erq6r6coCOTyd98841arba3t79x40ZXV9fSpUudnZ23bdv22Wef7dixIzo6uq6u7syZM++++27f7+K0s7O7c+fOiBEjJk+erPMnGo22ffv21157DUGQ77//PjIyMiQkhEKhrF69+vjx4ziOOzo6pqen//bbb/v373/KkRCFQnnllVcuXLiwYsWKmTNnajSakydPhoWFTZw4sechRV/Y29v7+PjExcWhKCqVSq9cueLl5VVbW1taWjps2LBeP8JisVauXLl8+fL169fHxsbW1dURR7oODg69JhiPx9MjsL+LvG3bNhMspp/a29tPnz69ceNGcwcCwN9QXl5+8+bN3bt3X7hwISUlxdnZ+YsvvoiOjiaRSIGBga6ursnJyVevXm1ubl66dOmSJUvodLq3tzeJREpISCgsLPTz89u6datYLO7s7Bw/fjyPxwsPDw8MDCSRSH5+fkKhUK1Wh4WFaS+Ry+Wy2eyXXnoJQZCOjg5PT8+xY8fa2dmNGjXq0aNHiYmJaWlpgYGBW7du9fDwIMJQKBQXL14sKSkJDQ394IMPOjs7u7q6XnzxRTab3dzcXF5ePmPGDKlU6unpGR0dTYwfmzJlSvf+vb6+fvz48X5+fiNGjPD09MzPz6+srHz++edVKpVGo1myZMlT+qezs/OXX37ZuHHjrVu3bt68SaPR9u3bFxsbSyaThw0b5u/vf+PGjd9//726unrx4sWLFi1isVjEsKiJEyeyWKyuri5PT0/t2zVsbGxiYmJYLJaDg0NZWRmTyRwzZoz2ElNSUkpKStauXXv27NnU1NTw8PCtW7f6+PigKBoaGoqi6KVLl27duoWi6ObNm6dNm0Yikbq6ulgs1ksvvUScvFIqlcRlDDs7O0dHx1GjRmVmZl6/fj0jIyM0NHT79u3+/v4oispkMpVKNXbsWGtrawRBhEIhhUKZPn06ceaws7PTy8srMjKSSqUqlUqJRBIVFRUcHDx48OCMjIwbN260t7fPmzdv3rx5ubm5Hh4eISEhLS0txH+fqFjE3TZjx4718fGJiYnJzMy8e/duR0fH5s2bZ82axWAwek2w9PR0JpOpfYrPGODNjwAYS2Ji4tq1a4uLi7vvNHxWaTSa9PR0Ly8vX19fFEUFAsGiRYscHR1Pnjz5lE+VlZW99NJLV69efdI3cYPbvHnzqVOnLHocY3/Amx+fKQUFBRZdFKurqysrK80dhf4kEkn3wB4L9U9OIRKJtH379iVLlty4cSMtLe3o0aMVFRU6583q6+stOoWkUqmlp5BpwDUVE2EwGPo91+8fgkqlWsRB7ZOQSCTiRIQpcTicyMjInmOl9PNPTiEURQ8cOHDo0KEdO3YoFAonJ6dPPvnkueee056mZwoxmcwRI0bojLs1Km9v7+4xwX8XiqKmTyFLBKe/ADAWtVqtVCqJAbLmjsXoiOG5KpUKwzAKhcJgMHqOqdWBYZhcLiemNE2QSqVSrVabsoz9o5jm9Nc/9IsPAMajVquJ+zZMs7g+3lH4LCEup/dxYtP3zwD8jxCkUmn3jZ/GA0UFDCydnZ0nTpy4f/9+/99eBYBlqa9vXP72O8ZeChQVMIDIZLK9e/ceOnRIJpOZOxYATM2K5URCjP6kJRj9BQYKpVJ55MgRqChgwEIRFEUMM2zkKaComMgz8I76Bw8emDsK/XG53E8++WT79u1QUcDAheIISWPshcDpLxMZOnSoRY9H9PLysoiBgr1SKpXff//9vn37tK+jOLg5eAf5ksjG/V7Fa6C1PmLiOIogCErCh8YKSEb/pvgPpZCQGh5aKcT/XX/HAITlYN6IBhylkIeQ2429FCgqJtL9uFMLZYJBI0ZCvAnxyy+/1K4o9k72G7/fPPrlGOMtF8eR1gr6sYUBGtwaQRAqA3vrcO34f3UYb4n/ZAop6crnbr9ne2AICSUhby5LBQAAIABJREFUgychk/6D0C34W5ZFyr74LYI+K0cqYrGYz+cTjxvqblQoFE1NTUKh0MHBwdXV1TRP0AQDCoZhly9fXrt2rfYj09383N/d/75RKwqCIC3ljDPrfGtzrREEZdqpZ37S+NxCU7zN4h9IIUVvHnS5sd8dU5MQBBk8CRn7PlSUZ5YpigqGYTdv3rx+/frBgwcZDAbRKBaLv/jii+vXr0skEg6Hs2DBgpUrV0JdAQaEYVh8fPwHH3zQ0fH/xwfOXi6rD60f84pxKwq3gXp8sf/jHGsEQREEmby2NXZFO5VuqecP+0MhIV3a4XHzkKtKTkYQxGcMMm49YtOnF8EAi2SKC/V5eXkfffRRVVWV9u1mR48e/e6771avXp2WljZlypTNmzdXVFSYIBgwQOA4/ttvv23cuFG7otg62K4+sG7MKzFGvcVd0Eo5vijgcY4NUVGmfdw4e0cj08ZE91r+o6iVaNJet+QDbkRFcQ9HZh2EivKMM25RKSgomDp16ty5c3XejdzZ2blv3761a9cuXLjQwcHhX//618KFC4uKiowaDBg4cBy/d+/e5s2buVxudyPL1mrFl+/FzBpn1IrCa6Se2eDz6J4tgiAMG82sTxte/bTJeIszC0yj6cuoDY0aST/tePOQq1pJIiHIcwhypgCZ9rEJAgTmZNyi4ufn99lnn50+fXrWrFna7Xfv3lWr1bGxsQ0NDbdv35bL5bt3754xY4ZRgzGvS5culZeXmzsK/aWnp6emppo7ir5KTk5evny5doczbVjOXs5T3nrZqI+ZkvDJv2z0yb3ggGMoiYyPW9Y2eW0rhWaYs15pl+7Wl9caZFbdZGLZw7TC9N9SH+WVK+WKv5y+s6njzO4fv1jyWWttS/LppD/O3nzSlBiG3PrG9ewmHzGPiiDIUAbyMpLfhPSeQhkXjz+8nYhpzP+Mg672pps/7O5srOn5J6mQf/277U//+M0fPq8rzu774nAMq8y9nXHxuEal/HuB/oMZt6jY2dlFRUWNHj3a09NTu514nWdcXFxkZOQrr7wyevToQ4cOPf2CikwmW7BgwZI/7du3TygUHjt2rKZG999/4sSJuro6ncb4+Hid51EqFIqEhASdV153dHRcuHBBKBRqNzY1NV25ckXnZdRlZWU3btzQedRHdnZ2SkqKzqJTU1NTU1OnTp2q/TLUa9euZWfrJl9iYmJeXl7PyIuLi3Uajxw50vMp4r32RlxcXFOT7jflM2fOaJ8UQhBEKBT22huJiYnEQ5yio6NHjhyJIEhNTc21a9d0VrywsPDGjRs6S8nOzr5z545OY0pKyv3793UaExMTe/YG8aIqncYTJ06UlZXpNB47dky7N9LT0999913tFqYN6719aw+nH//jbDKvlav9WZVCeevMja6OLu1GqVBy98IfEuH/PL2qs6kj40qqUvE/G399WW3mtQyNWoMgiExIOjpvcM45B5mqSIakjFnYMXd3gxX7v4NtilILH6YW6ESedS2j5L7uAXpa4t2KPN3vH8nx15w8nT0C/mc7unTkQl1Zrc6Uvx1LbK7R/Y8nxV3taNIdS/rzF/EbJ6/5YMr7O+ZtWTfunU9e+4jXyr2dcEvE/5/8F3R0pSXelUvkGIbdOf/HL1/+RKaS2+pbfz2YcP9quk5v5NzIRBAEx5DUOKfE7Z5SPkWBZLN877y7CJmHhI5ERhJTVmSnHF016Zft/yJ+fZCc8Oh+csm9q/U99sgPbiQ0Veimwf3EEy1VuhtFWsKRjnrdjeJ+4gl+i+7eIOdqvKBdt4vyks6I+R0ibmvGhW+7WusRBJFLhIW3Lsgl/+0NprVd7MINgvamW3FfHFr2fPHd37o/y22qKU27hmnUOVfj2x6XEo1NFYUV2bp7g5oHqTUP/r+y4jheV5R547ttjwszdKYsup3YUKa7N8i5Gt9zxe8nnmh7rLtRpF84xm3S3Ru0VJUgxr8xoPcL9TiOSySSlpYWf39/pVJZXFxMvBguKCiIyWT2f6l8Pr+rq+vRo0c//vijl5fXzz//vG/fvujoaOKNdb2iUqlvvvkm8fI1BEEcHR0ZDEZMTAzxpmttY8aMYbPZOo3R0dE2NjbaLRQKJSIiQmd1rK2thw8f3j2agGBnZ0e8cFS70cXFhcVi6Xzt9fb2Vip1v3EMGjQIQRCdeQYHB+u0IAgSFhbW816W6OhoJycnncbnn3/e0dFRp7HX3hg5cmTPN0RFRkbqLIjBYPTaG2FhYUSfd/e8g4NDUFCQzoq7u7vb29vrLMXb27vn87UCAwN7Pr89LCzMyspKpzEiIqLn/3HMmDEuLi46jTExMd29UVhYuGHDBu3iSmPS5m5Y8OJbL1HptCHRQSyb/3lCLYlCDowcyrT+n/8FlUHzHz6YxqBpN1rZWfmGDCJT/uc2E3sXDpVBQ0moTEi68B+v0tu2OI7SqG4Rs7C3v68haa2o2yD3nluzd7AvjU7TafQL82dZ6z5Gd0h0sL2TPfl/uy70+eFsF90uGhYTauug+x8PGhlsbaebWuW5ZdwW7qaT/wkeHZKbnPXDlhMH13y9bMcKOvN/eoNhzfQL86fQKJgG62zuGD4+/MMftnBbuVZ2NtonwXAct2bbkChkHEfyL7MTP/WUCSgIgrgGeE/4WEktkSMIiYb8d2WdvANl4i6s6b8Vd9Gun0kUqlwsoDGYf84N06hUZArVY2gEy/b/1xHDMATHfUPH2DrqjtEfFPG8NVt3o/ANHcO0ZWOYRqNSUqh0lERCEMQ7JJphbYcgCI5hapWCTKGRyGSvoEg609rNf9j7pzKs7BwRBKHQGO6Bwyk0hkatQnCERKEwrGxQFHX09Oc2P5aJ/v+LCMvOwXVQEIqScBwn+kStUthwXLQjJ7rI3sULxzEcw9DuLQjHrdlObDfv7mk0ahWCY67+wxjWtjqr4zk0wsreAcdx7VO4xDqqFHIKjd7d7jc8hmXnoFGpEBQhU/77fd3W0RUx/gOzey8qQqHw8OHDp06dKigo+OOPP9555x1fX18+n//BBx8sXLiw/++HwDDMyspqw4YN06ZNQ1HUzc3twYMHx44de0pRoVAo06ZN02kMDQ3tOWWvb5ELCgrSaSGTyYGBgTqNTCZz8ODBOo3W1tY99/UcDqfnrRu93ozi4eHRs7HXV4v7+/v3bOwZOYIgw4cP79nYa2+EhIT0bBw6dKhOC41G67U3eoZkZ2fXs0r1LHvIE3rDy8urZ2OvK94zHuQJ/9zuFa+pqVm9erX2QQ+NSVvwwVvzNr5JpdMQBPEJ8tP5LJlM9h6q+yp1Ko3qOVg3TqY1i9ljX2/LsbXl2KqVyNUv3FNPOWNqEpmKRcwgLdiLk/5323L06KWL3HzdezZ6+Hv2bPQJ8u3Z6D9cN1cRBBkUGtCz0TdkUM/GqoLKGatejZ0zgUwhv7xsRn5KXlbS/TUH1+tUUzqTToSU8ktyeXapuEuUsPfM+LkTrGz/vzeEXEHKL8lNVY0Igjh7Dsr4Zi2/iY4giJ0nNnR656PcKzWZjTcRRjASHIksUMrwmoJUqYArFfCyLv8wfNKcqrw7TFt2YPREEa8t4+Jx94DQ6vxUQUeTrYNr+OTXrdlOCIJgGFaZ80dtYYZapfQNG6OUSxvK8wMiYynU/0brHqi7UXCbHlfl3fH6P/bOO66J7Angs5vdFAIEEnoHkSIqCCp6drGgcmLvoigWBBQFK+qdnooFLNjbWc6K3bOC7exYEEUEBJQivYaEkLr7+yP+ECICp0T0yPfjH2bYvJ192d15782bmVbt3724V5L9nm1k0brnEF2zlvqW9iRJZiQ8Sbx/hV9ayNDQsuno1sK5B0qhlBfnJ9z9u1XXQdoGZnHRp9Q0tQsyklOf/4MAmNi7OLoNFwn4mW+eiisrXt+9yNTSsevcH6VQGOoshvrHh0JQXhpz4c+clFc4Xc2uUz9tg4/WQioWvYiOzHkbJxWLNdj6dl3cTezayf+kpsnW4BgAAK84//Xdv/PfvZHJJFr6pg5dB2mw9QHg1c2zYmEF28gi8cE1iajSoIVD297D5BZLwC15//Jh/vs3hExqaN22Xb9RDA0tAGAbmcdFn8p/nwgIYtG2s61rXzpTg6n1PcJNa1/+SkxMPHHiRFhYGABcu3bN1dU1MjIyMDDw6NGjCqtAX4eRkRGNRpOXhgYALS0tHR0dhQUZFf9hFi5cOHv27MjIyOqO9G8kNTV15MiR9+/fr5JQ6VTvFdPGLfZiqDfC9PpLEDKIXGh2fZOhPFa8Tf+y8ZszOKY/+hI5SZA9RvRy7tNBPvdCKSiCIghAHbsYuEVcAV8gEUsKswtlkk8xdGWFpeu8V0WGH8No1MyX6nsX70vJXCyDMgYbOgfkPL3tn/r8toG6BQnkGljzW85cgiAqeWVSiVgmEVeUlxCE7NG5va9vnycIWVn+h0tbF534wyf7bRxJyGIu/vnX0vGETAYAT/8+dCRkfEbCE35JwfnwwBMrfV5cPyEV1/U6KshI/jti4Zl1/vnvEzV0DF5EnzqxYopIwAeAtzE3ji2flP7qEVNLN/vty8NLxj35+yAAcAuybx5YK184irn45+l1fjcPrCOkkoKMt+c2zImLPkXIJJW8MpIghPxyYUU5QI35p0wi/ufopqeXD+M0Rkb84yPLJiQ/jpL/6erO5dd2/UaSpJaBaWrsnTNr/YqyUqt/V1RZcfPguhv711AZTA22QVx05KFFo0vzsgDgRfTJ85uCLm8LEfBKy4tzL29b/OjsHgAQlJee3xh0bfdvKAUjSbi6a9nl7SEyqVQkqPgzaNg/xzaTBMEvKTi7PuBe5DappBFe3Q2h9pnKu3fvrK2tu3XrVllZ+fz5cz8/PyMjo3bt2h0+fLhREoZ369Zt3bp1r1+/bteuHYqieXl5OTk5nTp1+vaWVfwUzJgxIzIy8o8//ggICBg1alRAQICVldVXlzUkSTIjI2PGjBmxsbFVQgpOGeQz2NN32OfrS40FSYJEiERvNbixzUAmRRGUtGzPn3EkVY31E+weRlBkxlo/+f8lYsmz6Cev/olr39+VbfDFwezgmUPzM/NK80v8NwUKeAK5kCTJe+f+ef3w1Za7u8XFrdPOWHOkswpgIEfbc3DYEIJWgFCQMcv39bhr1usuiQK6JXlbD/qOriNnxUVFAoL0nhgMAIRMVhVvIOSX9xw3t8+UxQhKefr3oTPrA3LT4mlqGg/P7m7Te9jIxTsQBCnOfh82zsnEzqmeiyRJqVho1a7brwFrMSqtTY8hhxaPfnRub0ePSU/+PqBjaj114wUURQmCOLbc6+GZXS079CZJsmpvG0kQGE4duWSnoXVrfmnRkWUTnlw86DJgXOdh05MfXW8/cIJz/zEKJyQImbGN05jl+zQ4+hXckj+Dhp7dMGf+iZcAkHDvUpcRvr0nzQeA9gMnbPHuwi3I0TH5NK0UcIvz05PG/L6/ZfteAGDToff2mb2zk19oG5iSJIkA4jZ5oX3XgeLKir8jFr26da73pAVpsXcTH1713nDGyqkLAHCMrZ5ePlT0Ie31nQsfEp/P2nPLxLYdADw+v//2kfCOHpMaenN8G7U/xhiGySu4paWlFRYWyldgysvLZTJZo2zH7Ny5s6en5/bt23k8nq6u7q1btyorKwMCAr69ZRU/BVZWVosWLfL3979y5cq+ffs8PT2nTJkyderUr0sGk5ubGxISUn1TAIqiA7w9Ji6b8vmCVSMik0LUFoOrYUYyKYJSSIe+ZZN2vv8pLEoVJElmJKbfOh517/zdDu6dZqyd9W8fcFGlKPlZUuuujjK+Q+Qis4I0Gg1ccGhp45GkayclCdvRS/dUlBU/y0jOh6I4iJPKRAQhQ7+8hK6pY9jCpQdKwQBAy9CMymBWlBaV5GaU5WV6bzgrV49jbNm651AgCQAoyc2oLC9TaISC4Vr6JgBAY6i37NAbo9IAgG1iqW9pn/Twmq1r36zE50PmbZK7BlEU7Ts1ZOesvqV5mVRGjYVuizadOSZWAKDG0tZg6+d8tmXg8/PadXFXZ+sCAJPFbtV1YNT+VWX5H9iGZtO2XBYLBe9e3K/gFhVmplbySmVSSfXvanAMRizaLpWK02LvVnCL0189AiCrpmJsIwsLx18QBKHS1TjGlm9joklC9iH5hY5pCxPbj8a14+BJBlatqDTGm/uX2MaWQn556vN/AABBUSGPqzAxUh61GxU7O7vCwsKAgICkpKSWLVuamprevXs3LCzM2tq6ymHbcFAUbdeunaamZtVQFMOw8PDwo0ePXrhwQSAQtG7dOiIiwtxccWn7v8TBgwednJycnOobW/2oREVFyWSyOpxeX4G6uvqIESO6du0aERGxdOnStLS00NDQz53zdVNQUODl5XXnzp3qobXD5oyatHyKutanrRncwrL9y3bN27Wo0bQH+Gef3qW1xpVcDIA0b1cxNjxDx1yJq17XDl62dmpp7VSLq+nrEAvFd07dPLnhKJVO8/7dx6VvR6am4naJhjTCLSqDSrs9E63z3tIBEEBBk8Mm0TIAqYBXdm33b1mJsXoiNhNkmZBZb4M4lYbTPi5XYhgun0lUlpcRBMHS/VQLRFvfpDQvEwDuHtuScO+SQiMabL2Bs1YBAAXDNbQ/BlvS6Ey6ulZhxluJsEJUwZdbnY/H6xhKREKJUKBgVKh0NbnPBkUpFJzKLcqtW3mMSlPT0EKQj24FTV0jIEhhRTkgaFz0idjrJ4AETR1DTT0jDKcpfFcqFj2/diwuOhJI0DIw1dCu4YSj4FQqgwkACIpScCpJkgRBlBfmaBuYIf/PUcpkcey7uHMLckQCHrcw9/L2ELmckElxhpp83e87UMOoyCd9CII4ODgsX7588eLFMpls0aJF+vr6Y8eO5fP5oaGhNJpiX9QLhUIZPny4glBXVzcwMFDZ1ZJ/HCZPntzUKnwT/fr1a6ymSJIUCoUkSdJoNAqFYmRktHbt2latWvn5+VlYWAQHBzdwHYwkyYKCAh8fn5s3b1ctbSMo0nfigIlLvatbFABg6Wo1okWRSeH+Qd3Ds+Teb5JlIPaLfKtrqVw/ivvkQY3b4O2TN3YEbRkaMHJCyOSvXnukYBS6GuPhOZkOMACAQoMBf5CXDuWpa/dAKfjdY5tzUl5NXn/KyLoNSZKXt4fkHQitp0UEgc8mS1SGGknIJCKhfHsYSZLcwo/v9y6j/D5fhqLgVLaRRfqrRzKZVFBeIhdKJSKJkM/U0qHgVJSCiYWfiiAUf3hHZTBpTA2FdgBBoJo2Gux6kgHIJBKxUCDfnUWSJL8kH6FQNLR138bcuL5nRc+J8/tODcGptPKi3NRndxS++yEp9s5f4cMWbHUZMA5BkKzE57HXj39SpJZ+QuhMTW5BNkl+HE4JeNz8d681dY0xnGbdvqfXmuPyiR0hk0lElVS62tPzu+vWv1Go4agvLi5++vRpbm4ugiCDBg2Ki4uLj4/v2bMnAOzatev27du1bjpSoaLhyGSyqKioUaNGeXp6Hj58uKqSuZeX18KFC3fv3v3mzZsGNsXlclevXh0VFYVTdBD4OMTu4tnN+3cfTbbiXsxGRCaBmBOc00tNAQBBSNO2gvlRicq2KI2OVCI9tem427h+Q2aNEFeKBTyB/B9BEMIK4dvnSUU5Ddo4U56rWZ7lIIJ/pJBJ14Iec0mawbPSvA96FrYohVKQmWJs68w2tCBJkleSn5XwFADg/4NXQiaVO+HrRdvATF1b99HZPVKJiCSIvLSExIdX5X/SNW1h1rqjwj9jWyf5JiiJqPJD0gupRAwAeWlv8t4lturmocbi6JpZx0WdlC8uiYWC+5HbtQ3MqnZq1Y38TS0R1VKYRyoRvX9xv4JbDAACbknSoygTO2d1tn5ZfhYhI1r3GIxTaYRMlh4fU5aXpeDk5xXnqWlqW7v0QBBELBQkPbwGJCgcUx0UpehbtcpLS5Cva0kl4n+Objq+YqpMItG3bJX+8mFZXpZ8i/ObB1f+DB5WXpz/paYalxrDkw8fPqxYsUIoFDo6Onbv3r1Hjx5VaxG17u9UoeLfEhMTM2XKlP79+6MoumjRopcvX/7+++/yGJeZM2e+fPkyKCjo6tWr9Q6cBQLB4sWLDx06JBaLAQrkIzlnt/b+m+bqmyu3ykD8ddapJWbl+TgAadxaMG5TuomDUKlnVAZZyZmZSRkYFQ+f/mnqQKXTZm2czS3mrhi91HPW8FHzxtbdCDcP+8vf+sN9bxRuF4OXml6f9CzR5eOnrF16WLTpjCCITUe3O0fCbx4MZahrZyY8FYsEAPD8+nHnvqO19M0SH165dXhDlxEz69XWqGXb9oO8ovavyn4bR2UwM+OfKISAfAmSIOJunq7gFjO1dJIeXaMzNdsPGM/U1mnv4XV15zJRJV/HpEVBRnLstRPDF23T0jPhldRvStU02RSc9vjCfjVNdtveQ+XuHzkYTn3/6uHZ9bP1Le1z3sYVZaVOWnuSgmEm9i5UBvP63hXWzj2Lc95/SHyuZWDy/Noxo5Ztq77LMbYCgCs7lhnbOeW/S+SXFAACyY+jzdvUvoMJQVFb1z7xt86cWOlj26mvsKL8xfWTvbyCdUwse3kFp796GLl6eguXnsKK8jf3L9t3dlfTVIwkUxKU33//veqDrq6up6envb19TEzM1q1bN27c+ObNGw6HY2Rk9O2xKd9CQUHBX3/9FRwc3IQ6qGgU9u7dS6VSDxw44OHhgeP42rVry8vLu3fvTqVSGQyGpaXl6tWr3dzcag1nqUIikcyYMePAgQMSySdXZ7tezr9FruYYKoa/NS5J/2hEDLPlF+EACF1d5ns81aYbX5mZX5RFaX4JnUk3tDRi6bCq/mnpabf+pQ2GYZV8gX1HB4UAfgAgpISBhaFlaysSSF4h5dmx7kWJHRBSVw2GmnZLrpDcLs17167vqAGz/mBoaCEIYmDVCqXgCfcu8UsKnAeM7zl+Hr+0AEiwdPrFyqlrBbcYw6nmbTqhKGrUso2+pR0AYFSaRZvO8rg/giRwGsPSsYsmx8C8jWsLl55leVkIgrpNWVTBLaGgFPuuA6si+z6nKCv1zf1LbpMXFqQnpTy7ZdbadfCc9Vr6piiFYmDV2tjGKS32n7TYuxhOH75wW+sev6IUCkmSFJxq6dhFTZMtk4iNWrbVs7CTT01kUgnHpIVF204MdRbb2JJXmKtlYGbUsi1S7ecnCJnrkKmiCl7Sg6tqLPaQ4M2mrdojCKLB1rNx7ZP69HZ28gsDy1aec8N1TFpkJ8fZdupLpTM19YxM7Zw1dY10zWzexkR/SIw1a92x/7RlWgbm5YU5pnbODA0tXXNbs1bt5eciZDJ1tp6l4y90pqZ9l0EiAS8z4alMIhrkv9a5/xgKhjO1dJz6jy7ISE56dK28KK/z0GndRvvjNEZO0jNTDejYoYMy7qgqkC8lhisvL79z587FixdjY2MZDIazs3P//v3btGljamqq1OxJtRIfH9+3b1+FPCsqfiIIgnjz5s3NmzcvXLjQqVOnNWvWyOXbtm1bs2bNhAkTlixZoqWlRZLk8OHD7e3tV61a9aVtSFwuNyIiYu3atQLBx12tCIK07to2aPfCz2MbGxGZFBKiWbsnWvOLcQDQMRdOO5xm152nvDP+yBRlUI8Gmr/4m03KEFwNOk6Bjt5KPB2/tDD12W09C3ujlm0AQFhRvme2h03H3v18ltWxkSzxwdUjyyZM3XjByqmrEpX7eXhyducvRuA/y1epZ/niIoOmpubgwYM9PDxyc3NfvXr18uXLgwcP2tnZLVu27Ct89SqaOS9evBg9erS6unpeXt779+/HjBnTtm1bAJg2bRqO4ytWrCgtLd25cyeGYQsXLly6dGlFRUWt1ZcJgli/fv2OHTuqLAoAtHSxnRU+28zOQqmXkPJAI3KRGb8YAyB1LUUTItKbrUURlKEn5pu9vKxNyhCMBo4jwGmUcs9IEsTzq8fK8rO6jvJDEDQ19k55UY5tp/51WBQVTUU9cw4URY2Njbt06eLm5hYRETFv3ryv2FKsAgA2b978+PHjptbi6zl79uypU6e++usnTpxwdHSMioo6deqUQCCYPn36q1evAIBGo3l7e4eFhXl6esqXWNu3bz969OhabzOSJDds2BAeHl5W9ikuwbqdzarz62zb29cdYFGSVxwyeP5X6/8hgb57gnVWvBoAwtCUjVqX2cZdMTZC2ZzefOLNY8Vkgt8fcSWy28v62VmOTIICQKvB4DoN8AaEAyU9ioqL/spbSJ2tNzR4s3mbzndPbL11eINUJPRac9y8dT3LOExtXZuOfdQ0GqcSdnlx/r65/+VM6o1F7ctfYrH44sWLoaGhd+/eff369cSJE7lcro6OzrZt23r27KnUchS1olr++nnhcrnr1q27du3amjVr3N3dASAxMXH48OFsNnvnzp215iurlcrKyh07dixevPiTHwUBc3uLkCMrWrZT4i4SQgbZbxhbhtoWptEBgMmWjFid1XumYsbf5gBJAr8YOzHf7P5BPQBAcWjlAW5L4Gd0KTVPvs/yV+23w9u3b8PDw9u3bw8Af//9t4aGxr59+7p27bp3795Gyf2lovkgk8mSkpISEhKioqLkOX7s7e337dtHEERAQMCLFy8a2M7hw4c3bNhQ3TNvaGnkGz67hWMt+RMbC5KEnETGsbnmhe9oAMDSF48Jy+w1vTlaFACQipBLoYZPIjkAQKGCXX/o6qeyKCoU+aJR0dDQWLFihVgsjomJmTBhwq+//jp58uSsrKzqT7UKFfWira29cePGIUOG7N279/jx4/K4d1dX1x07dvD5/PT09IY0cvHixZCQkOr1Q5ks9UUHlrXv21Gp20b4xdixeebJ/2gCiahpST2Xf/hlfBHSLF+jhAwu/GF8a5eBWEABAOve0NUf6A3epGp1G0ZMhxHTwfV7hN+paEq+mPpeW1ubTqdzudyUlBSDt6qeAAAgAElEQVR5dSYEQWQNKyOqQoVQKLx3797Dhw9Hjhxpa2t74MCBoUOHLlq0SFNT89dff6VQKE5OTg8fPqzXRSeTyc6ePTtqVA1HsI6JbsiR39t2V2LOG5IEUQUa5m6b/lwDAFAK2WtGXu+ZBc3TokhFSORi0+ubjAAAEOBYQe8FQFcsgFAX6oVg8hwAQPDvsvCo+Pmo/RGxsbHJzMw8d+7chg0bDAwMjI2NMzIyLl26xGazvzqdg4rmQ1FRUVBQ0IIFC27dutWrV6/Dhw+TJHnhwoUBAwYsWLDgzJkz8nWwei2KVCq9evVqUFBQdaGeuf6MdX5turT90re+HZKEkiz8wHQruUWha0gHBOcMXZHdPC2KuBK5vtngzl59AEAoYNkFRu7+dxZFRbOi9qekdevWQ4YMWbVq1alTp6ZOnWpkZLR06dIzZ85MnTr183qFKlRUhyCI+fPnP3/+fN++fUePHnVwcFiyZMmff/5Jp9PXrFnTp0+fgICAzwsk18q9e/fmzZuXlZVVJcFwzG/jnB7De1OUObgRlFFOLTZ7doYNADhd1mtm/pDlH3BaM52j396jdyXMSF4txqwD9AwGhmq2oeLL1G5UNDU1Fy5cmJKSkpOTM23aNCqV6u/v/+jRo6FDh37/yMf/Br///vvnBdt/Ig4fPnzgwIGGHJmYmHjq1KmQkBAXFxcKhfL27Vtra+vg4OBdu3bp6upu2bJl//79DcnWHB8fP2DAgOql5jEc+/3Umu7DeuG0LwZRf4mi7IKZHRoUnkdIYe+kFo+O6UrFKIKSXScVDlmeTVVreoty8Pd9cXdi6z+uUbkabnAs0JJfhAMAUwd6LwKtunId1MV5OH8AGnQL/ZhwC7I3TlBuLPp/gy8O93g8Xmxs7KtXr3Jzc2k0mq2trba2toaGRtPma/l5qZ4O52fEy8urgUeSJIlhWGlpaX5+vre3t7u7+5o1awIDA319fSMjI0ePHu3j41N3C1Kp9OnTp1OnTq2+1ZClw5q6emYnj1++Tn8dY71dT+t/o3HzsWOBFi/+ZgMARiO6TCwYvT6Trv5DlEiZ/Hs9/da4iCuRJ5Gc8ys+ZmoxaAPuK7/eogDAEBgCAG8bRbmmgKVnPO/I06bW4iegdqPC5/P379+/ceNGDQ0NIyMjiUSyfft2BweH0NBQV1fX7x+nouInwsbGZu7cudbW1mfPnuXxeH/88Yeenl7btm3Lysrs7e3bt29f72T3xYsXCxYsSE5Ori4cNntUn3H9lDqmqeSi1zYaPjvHBgCMSvSclj9idRZD84ewKN+f5+fY51eYCHkUANC1hV7zQbtBOXxVNHdqNypv3rzZsmXLihUrBg4cSKVSSZLk8Xi+vr5btmw5cOCAyq2iQgGCIBITE+Pi4tq0adO6detFixZVVlZu3bq1X79+hoaGXC738ePH48ePHz58OJVKrXtQkp+fP378+NTU1Or7DKeumTkycAyNodz8QDd36t/YaiAVoYCQ7QaXeC7NbsYWRevQLMtKLgUAUTeAXvNB376pdVLxk1C7UUlLS2vZsuWgQYP09D4WpWGz2fPmzZPHM6uMiorqFBYWLlu27MqVKxQKRSAQjBo1atmyZUwmk8VinT171t3dPTo6Oj09fejQoXXfOfLy1SNGjKjuR6EyaBOWTJqwWLnltUV89Mxyk49bZoG06Vo+YUuGpr5UqSf9MZFJIfmuxq7xLcWVFABg6sKgNWCkqqOkosHUblS0tLQwDJPVrJ9DkiSLxVI56lUoEBYW9ubNm+3bt1tbW586dWrjxo09evQYPnz45MmT379/P3z4cGtr6xUrVqip1ZMf6t27d/7+/vHx8VUSnIb/OmOI5yzFsqGNS2U5GrXF8MY2AwBAELLtgNJxmzK0jJpjkC9BQPw11vEgc7lFYZlAr4WNY1HyHeDxdACAYqtGaE3Fj0ztRqV9+/YmJiabNm0KCgrS19eXSqVpaWk7duzw8PBQTVNUVEcgEBw4cGDdunWDBg2SSqXPnj0bP368q6traGhocHDwoUOHysrKWCyWrq5u3e1IJJLFi5fcufNP9VUvj2mek3/zYbL+deH0hkNI4dExnSsbDGUSBBCy8/jCUWuztI2bo0UBgII02tG5FgWpdADQNILuc8HctXFazneAfIfGaUrFD07t046srKzbt29HRESYmZkZGxvr6uq2bt1anhPQxMTE0NCwR48e1aMHVNTLfy9LsUwmk0gkFRUVIpGIyWSWlZV5eHhgGLZ8+fLbt2/v2bPn7du3BgYGdnZ2hoaGdcTMkiRZWFjYr1+/06fPicW4vIYjBae4je8XEDFPXUu9UTaG1JqlWCpGnpxiH5trLuRhAGDbrXzoig8/rEVRapZiQgZZrxihPVsVpDIAEJwOXf3Buiegjbcx4luyFP8IqLIUN5DaH3U9Pb3p06fXkeZLR0dHQ0NDaVr9BwkMDGxqFb6JYcOGKUguXbrE4/FGjBhhZWV19OjRkydPMhiMzZs36+vr29jYSKXS6iVPvgRJkh8+fAgICPh/EI8IgEljSLsP7+kbHtCI+wzZBpzVFzdUl4grkbv7dU8uNJcIKQBg2YE/Ze97Pasft9T8iMAxSmqZJCD1sfqB6VZlOTQAYOpCVz+w6dvIZ7Hr3K+RW/y+aHL0fTZdbGotfgJqNyomJibz588HgOLi4tzcXBaL1eQVhVX8aISHh7u6uo4YMSIkJGTq1Kk6Ojo3b940MzMTi8W7d+/W19e3sqp/+ZzP569ater69ev/F0gAyE4e3b1XTtPSVWLctkwKz86yL64xkadHtHDhT9nz3sDm5ys13ygUvqedCTHNTWIAAEMbOs8Eew9QBQ6o+Dq+uCiRk5Mza9asCxcuyD/q6+tv377d09NTlftLxcOHD6Ojo1EUHThwIJ1OHzx48Ny5c9euXevu7u7l5XX//v3o6OioqCgdnfrLxQcGBv7555/VJS0cLYP3LlZn1VL2sRF590T9Lz9LARcDAP2WlZN2vjN1rH9e9Z9EyEMjhtlkvWICAIJC2xHgoLIoKr6B2i1ETk6On59fTk7OypUrjYyMuFxuTEzMggUL8vLyZs6cqZqyNDckEsnTp08NDAysrKwqKioyMjJ27doFAFwulyRJKpW6cOFCW1vbw4cPX79+3djY+PHjxy4uLnW3WVpaunz58uoWhYJRnPt0WHxwmVItikwKibc0d0+0lkmBghM65qJxGzOsOjRHi0KSUJBG2z3BWm5RqExwGg2uUwBVjRtVfAO13z6vX7/OzMzcu3evs7OzXCKTySIiIs6cOTN58mQmU4m7cVT8gFRUVKxbt04oFPr6+j5+/DgoKGjPnj1z587dt29fhw4djI2NGQzG2LFjPT09KyoqWCwWjteTm6usrGzjxo0Kc5S23Z38Ns3R0lPiqhdJwKurWkfmWJQXUBGUNG/Hn7Alw7ozX3ln/JEpfEc7tcjs/XN1AMDo4DoN2o0Byr9Oq6ZCRQ1q3/317t07KysrS0vLKgmFQuncuTOPx1MIXlHRHGCxWPPnz8/KyhozZgyDwWCz2R4eHidOnEhOTp4wYUKVQ15NTU1XV7femHkA2Lx587p166p78jlGOkF7FpnZmis1CVDaU+aR2RZF72kAoKknGRueYf0Lv3kmtAeA40Fmz86xCSmCYtBuDDiOVFkUFY1A7c+TpaVldnZ29UJ7AJCens5kMlVrX1/HwYMH4+LimlqLrwRBkLy8PJFIZGZmFhUVJU9c7+Lisn379ry8vEGDBqWkpMhLOtYLn8/funXr6tWrq+8ttO1gv+3BHuMWJsqzKGWFZfO6Rez1si5KpwMgGrqS8ZvTbbvxfyLnwbWDl1PjGicfY3kBttfbKvYChyQQlAJthkHHqYArMwKNWQDiffd5EVfZaUo8i1LhlxVFrp7Z1Fr8BCC1VnLMysry9fUFgKFDh1paWkql0oSEhKNHjw4aNGjp0qX1Lm40OvHx8X379s3Ly/vO51VRRWFhYVxcnJ6e3ty5cyUSyY4dO9q0aUMQxL179wIDA52dndevX8/hcOpuhM/nb9u2bcWKFULhp31Wdh1bzd0x38bFTnnKkySkPFA/5Gv54TUTAJhsyYQt6a5jiinN0nlQmo2fXmp6/6AeACAUaDscugUAXk+6g2+lbST0XgcA8LYPXFmn3HOp+BJPzu78xQj8Z/kq9Sy1z1SMjIxWrVpFkuS8efMmTJgwadKkpUuXurq6Tp8+XbX7q1khk8lOnz49YMCAOXPmaGtrOzo6hoeHSySSUaNGxcXFIQjStWvXo0ePjh07tiFxS2fPnl2/fn11i8I25Mzc4G/t1FJ5l0CSkJNIP7nA/EOCGgCoaUvGbcroNLaZWhSZBG7u0H98XAcAEBTsB0Kn6Uq3KCqaFbU/WPIS4pcvX05LS0tOTsZx3N7e3sTE5Dsrp6JpkUqlu3btCg0NdXJyqqyslEgkJEm2a9du3759w4YN8/T0HD58eF5e3tGjR1u1alVvU48ePfL39+fxeFVCtgH7j3PrWrkqN31HWTZ+2M8y9ZEGADBY0lGhmZ3GFDVioPhPhLgSid5qcCnUmCQRAGjpBt1mg5qqjKOKRqWGUSkpKYmPj5fXD6+CRqMBQHJycnJysq6uroODg8qt8l9FJpM9e/bM1fVjvqf09PQTJ06Eh4ePGTNGLBYnJCTs2LGDw+H069fv0qVLy5cvf/DgwZQpU+p1hEgkkrNnz06bNq26RTFqYTxv90JlW5TcZPohX8ukOywAwKiEx6LsLl5FGFWp5/xBEZRRLq01vLL+o0Wx6ArdZoMau6nVUvGfo4ZRSUhImD59evUnXwF3d/cdO3aojMp/FT6fP3bs2NjYWC0tLQDIzMzEcbxHjx58Pn/Tpk3Hjh0rLS0lSTIoKGjevHk7d+4sKyszNjauu02CIC5durRkyZLq95Weqd7M9f6O3dsp9XLy3tL+8rdIvM0CAJxGjN6Q0cOngMpo+sLA3x+JELm1U+/GNkO5RbHpB73mqyyKCqVQw6g4OztfvFhXcht1dXUqtVkO874ZoVCIYdgP7pFisVhMJvPKlStjx45FEERPTy8hIcHb2zsxMbGsrGzWrFmrV68+fPjw/v37/fz8tLW1tbXrWTohCCI2NjYwMDAzM7NKiNPwGev9uw3rqdRr4RdTIheZJdzQAiBxGuH5W2bnie+pjJ/YeyAWiigYhfLvbyGCgId/cc79bioVowBg0h66zWkCiyIBCQEEgHIrrSkPkiBElRV0pirnYT3UcNQXFBRERUVZWFjY2tra2tqamJjo6enZVsPY2FhVT+XruHbtWmpqalNrUT+TJ08+ffq0fFbRokWLFStW4Djer1+/lStXDhgwAEVRkiQ1NTUbsveXIIhr1679+uuv1S0Kx0hnwf6QXqP7KPEaAMpy8RPBZs/PywsDk7188zuMen9myzGlnlTZPLn2ODv1w7/9lkSEPDrC+Wu2pdyiGLSBHnNB00AJ+tVHPMQ/gSdNcOJGopLPvXNkY1Nr8RNQY9STlpa2fv16Ly8vuR9l9+7dsbGxR44caSLd/lMMGTKkqVVoEBMnTty1a9etW7cGDx7MYDB8fHxGjx5Np9O5XK6Ojs79+/f37NkzZcoU+R1SBwRB3L59OzAwsPpGcC097amrZvQa00epEY5lefjRQPOnpzhAIghCDlqY3S8wT52tNuk3H+Wd9DvQdUiPf/sVqRi5f0jndIiZPBOzaXtwC2myUvPO4AwAjRNo0xSoaWq7z/itqbX4Cahr2vH27duYmJjvpoqKHwFdXd2BAweGhYUVFxcDAI7jbDb7xYsXzs7OLVq06N+/v4ODw5gxY+qdsKakpMyZM6d6YWAAGOQzuM/4/kqd7Ar56PkVRs/PsuXOg54z8gcvzVFnN9M0EK+jNE+HmPGLMABgW0KvhU1mUVQ0H37oJX4V3x8EQby9vW/evOnj47Nr1y5DQ0MAcHFxWbdu3fPnz9u1azdu3Li6/WokSaalpXl5eSUkJFQJGRpqE5ZMGhU0DsOVeMsJ+ejltUb/7NMnpCiKkZ1GFw1b8QGjNkfPPCGD1Eca+6e04BfhAMC2hN6LgG1Z7/eUxatR8GpUk51dxfdE5SBRoUjr1q1XrlwZExMzc+bMV69ekSRJp9O9vLy2bNkyefLkendqxMXFTZgw4cmTT6vnGtoaYxZMGLtworItyrnfTK6EGRFSFAAcB5YOX52lqSet94v/PUgCYi9qbxvZsryQCgBaZuC2BExcVAntVXwPVEZFhSIYhg0ePPjkyZMxMTETJ068efNmw7+blZW1cOHC6qumOI06Onj8qLljlepHkQiRS6FGN7YZSEUoADj0KZt2ME3H/Mct46g8SBLSYpinFptx86gAoK4H7ivBuJ3Koqj4TiiOHCUSyeXLl9XU1AAgPT2dz+efP3++6q+Ghobt27dXxal8BXl5eerq6urqyq091VhgGNajR49Hjx4tW7Zs/PjxAwcO9PLysrS0NDIyqmOmUlRUNHfu3Ojo6E/tUPF+E91HBY/DqUrMFycVIbd260VtMZSKURQj27qXTt71nqldw48iFUtz03NMbX5il0JJXjFDncFQr2tXNElCdgL9wAyrvGQGADB1odcCMHD4ISxKJY9LEFImq54EcT8sMqmkOPu9nrlNUyvyo1PDqNBoNC0tLXkhYTkoivr5+VV97N+/v6Ojo8qofAVJSUkWFhY/mlHh8/mPHj0iSbJLly6fl8mxtLTcvXv33bt379y5ExYWRqfTPT09J06cWOucIy0tbc6cOZcvX66S4DTqUP8RU1ZOU6pFkUng5k798ytMRBUUALDrwR0blqFlJFE4TCwUvbwT+1MblcykDAMLwzqMCklC8j8ah2ZZ5iSqAQBNA36ZCZZd4QfJ7V9elCsVV/68RkUiqkx7fkdlVOqlRpbiioqK3NzcOnKYM5lMQ0PD7x+qospS3FjweLyoqKjhw4cDgEQi8fLyunXrFkmSnTt3joiIMDc3r/VbEomkrKyMx+NhGGZqavq5UcnJyZkzZ87p06erJCgF7T9p4MwNAZpsTeVdjkwCVzYYXlz9sdS8qWPFnHPJOhbiH2Fg/v1594R5cKZlxgt1AKBpgsdaMHFRlXFU8Ynvk6W4xh3HZDKtra2rPpIkqWBgEARR6sq4CmWzf//++fPnb9261dvbe926dTExMZs3b5ZX9vX29t6zZ0/1G6AKHMd1dXV1dXVrbbO0tHTx4sVnz56tkiAo0mnQLzPX+yvXokjh7gHdS+uMxQIKIKSZoyD4WiJLvzl65gEgN5l+ZI6F3KIwtMFtCZi5NrVOKpoltQxjuFxuamqqhYUFhUJRiHy0tLTs37//D55rREUdeHt7v337dt26dSiKnjlzJjg4eOzYsQBgaWm5YMGC4ODgzZs3W1hYNLxBHo+3fv36o0ePVo0/UArac2Rv/y3zNDksZVyCHJKEl39r/b3aWFiOAZDGDoJxG9M1dZupRclLof0VYJH2WAMAMDq09wLLLk2tk4rmiqJ5ePXqVUhISGlp6dq1a/X19eVVNLhcrlQqtbW1XbhwYZNoqeLbIQhCLBazWKywsDAdHZ3Q0NC8vDwrKyv5X/v27RsRETF79uwxY8bs27evdevWDWmTy+UuW7Zs9+7dVUWmEQTpNqxnwNYgLR0tZV0JAAA8Pa19dI5lWS4VAHQsRBO3pdt25f0gzoPvTEEa7eAMq8TbmgBAwaFbADh4AvazZthS8dNT4yksKipatGhRVFTU5MmTnZycAIDFYp05cyYvL2/06NEoirq4uKimKT8pISEh/v7+fD4/NTU1JCRk5MiRMpls3759YrEYADAM69Wr15EjR+Lj45csWVK9evyXEAqFoaGhO3fulLcgp013R79Ngcq2KEl3NI7M/mhRWPriJf8k2PfgNc8SKeUF2JHZFom3NQEQQOAXP3AaAzijqdX6jLaREOgCgS4wUDUu/a9Tw6jEx8cnJCRcuXLFx8en+j4lDodz4sQJZ2fnP//8s3ppcRUNJykpqaio6PufVyKRyLNDWlhYyDN6ubu7Z2VlrVy5csmSJQ8fPly9enVVUnpHR8enT5+GhYXJ95RXJzMzMyMjo+qjSCTau3fv9u3bq1ffsXK0Dtw+X9e4dtdLY/E6WvNwgCU3jwpA6rWonH44lWNW/z0pqhTF3YlVqmLKJjMpnVtUVl3CzcNPBJu9vKIFgGAMcJ0KbX7gDHO5kJsBGfUf96MiEVWmPrvT1Fr8BNSYdqSnp+vr63fq1KnWQ4cOHbp+/XqRSPT9a9T/BxAKhQrVz74Px48fj4+PX7x48bhx454+fbp//347Ozt1dXU6nR4SEqKrq7tp0yahULhq1Sr5z/qlGo4SiaTKayIUCv/444+tW7fy+fyqAxx7tpu3c4GZnYVSL+f9M+aR2Ra5SWoAwNKXjA3PsO9V3pAvkgRZya9/+vUjIxaKZdJPwTdludiBaZZxl7UBEABwmQDO44D2A+dll4BEDD9xOCpJkiIBv/7jmj01ZiplZWUcDqdqx7CxsfHp06fbtGkj/6itrV1eXl7HhmMVdeDk5GRg0AQJx21sbCIjIwMDA2UymY6OzoIFC1JSUnx9fQsLC3Ecnz59enBw8J49e3x9fUUiUR3ttGjRomXLlgAgFovDw8PDwsKqF91q07Xt3O3zlW1R0l+obfSwzU1iAABGk/mfTnb6tYzSsBEOnUnv7NFVqeopG2snG7bBxyAPfjHlsP8ni9J2JLj6AF2JW+0aATMwawktm1qLr4dKV3Po7tHUWvwE1Jip6Ovrp6amlpeXMxgMAFBTU+vdu3fVXwsKCigUimpL8c9Fx44dIyIi5s2b5+fnt3btWhMTk969e/v6+gYHB//xxx+mpqY+Pj5isfjMmTPv3r2zt7evuzWCIA4ePBgWFlbdj0LD7YzZf8SebKfU1SWJCI29oF2ejwMgAKRl+4qEaK2EaOU6b35MSICsl2ov/29RmLqAM+DJ/qZWq07eJcBLAAAoToOU3U2sTLMlL60lMjSz/uO+jRpGxc7ODkXRLVu2LFu2TG5XquByucePH3dyclJVfvy5IEnS0tKyc+fOkZGRABAaGtq/f//w8PBFixYFBQUFBQXl5uaOHz9+0KBBLVq0qLspgiD++uuv3377razs08o+Bq00JdsSLvZ8c/F7jjaQlAeaKQ9+7JH596KiEJ4fbmolGs57gD1NrUNzhapuA0MLlH2WGkbFwcFh7NixYWFhr1+/njlzpouLC4fDyc7Ovn79+u7duwsKCnbt2qUyKj8XN27cCAoKsra2dnNzu3r1Kp/Pj4yM9PDwYDAYU6dOffToUYsWLdq3b1+vRSFJ8syZMwEBAdVXvShgxoadNOiGgGr+qkKFCoDPc3+FhIRgGLZ169YbN25ULbLT6XQWi7V27Vp3d3fV8tePjFQqlclkVWUZBQLB9OnTJ06cuGzZMhzHHzx4MHPmTDc3t9OnT/fv3//u3bt//fWXp6eniYlJ3c3KZLKLFy8GBQVVtygsHd2ubst0OS0B8pV1PSSUF2AJ0VqV5RgAUNVkbQeUajbXmHmJEHl7TzM/hQ6AICjo2YG+Q1Pr1GB0UsH4BQBAmTFk/NLU2jRXSrLTAepynTYKikEnOI4vXbp0+PDh9+7de//+vUAg0NTUlI9z6331qKiDx48fm5iYKLUPCYK4cePGgwcPli5dKrcrsbGxIpGod+/e8o9du3bdunXrkCFDpkyZsnHjRltb299//70hLV+5ciU4ODgrK6tKwjHSmRUe0HNkK5SixE2ipTn4sbnmIgEKAAxN6cAFOYMW5DTQM69AJV/w8O/7bmP7NbKK3wuJCPl7c3rpWVcAC0DAtAP0XvQzlXFsGwnmL9KEIMTtHa4samptvgqRgJ9w929n97FNrcjX8+RsAqn8SUHtkYz29vZyny1JkqqpSaNgYGCg7BTFCILgOC7fTyGXGBoaikSi/Pz8qgN69uw5YsSIM2fOhIaGRkREsFj1Z1K5devWzJkzc3JyqiQsHdb8fUs69HdVamrRilLKgemW8de15EW3ekwt6Ouf/3UWBQAwHPt5UxSTBERt0b/0h46kQgsF0LOHXgtAy7Sp1fo3pPWEt1YsCaixtJtala+FguG6qhTFDaCe8PjGtShCofDRo0ePHz9WU1Pr06ePjY1N8wl5+VcJtb4OBEHc3Nzc3NzKy8tXrlwZFBRkZWXVrl27Q4cOde/e3djYWH6MkZHRiBEjli5dqqFRT1ADQRAxMTGTJk2qblE0OZqztwZ17N8JQZU12iBJEPLQP32sXl5mAwBKIbtOLhi9IfNbYuZxGtXGxa7RVPyOyKRwd7/u+RWmMgEFBdAyh5G7gKpYpuBHp0IPQE8HAEqaWpOvBqPSTO1dmlqLn4DvlyypsLDQy8vLx8fn8ePHly5dcnNz2759u1Ao/G4KNAdIkhQKhSkpKVevXp0zZ05aWlpoaGh6erqfn9/NmzeTk5OvXLmyZ8+e/v37W1pa1jvPiImJ8fPz+/DhQ5WErkb3Xjm9+7BeyrMoAMDNxyIXmcVd1gYAqpqs96w8793vm2cWFgC4f0j33O+mYgEFEDBsCwP++PksiopmxfczKtevX79w4cKGDRsOHDhw8ODBMWPGHDlyJDs7+7sp0BxIS0vbtGmTs7Pz+vXrExIS/Pz85Bkk09PTvb29vb29Z8+ePWrUqP79+9fbVHJycmBg4IsXL6okNAbNJ9TXffIgjKrE/G+EDC78YXL/kK5UhKIY0XFU8eCQ7GZrUWLPa51ZZiovDMyxgu6BoPdTTrdUNCO+X3bIlJQUmUzm7u4uzys1cODAixcvNiRxoYqGU1hYuH//fnt7+8GDBzOZzDFjxowfP/7kyZP37t2LjY1NS0tr166dg4NDvfvCU1NThw4dmpiYWCVBKeik36YO9RuBUpQ4ECFkcDTQ/M5ufUKGAIB1Z97Y8AyFwsDNh+fntfGx9ggAACAASURBVHeObSkRogCAMaD/76Bn/0MUBlbRiMgkEm5hDk5nqGvr/jcc2F80KkKhMD09PTExsaSkZNCgQdnZ2fr6+kZGRl/tm+3UqZO+vv66deuGDRsmEonWr1/fvn17fX39Bn6dIIj4+Piqs6urqxsbG+fl5XE4HIU4zezsbDabrSDMzc1ls9lVe23lDRYUFHA4nOp+HbFYXFpayuFwqidjFgqFPB6vegIbAKioqBAKhWw2u/p9wOVyZTIZm82ufurS0lIA0Nau4aAsKirCcVzBT15QUECn0zU1a8T05ebmamhoKDj5s7KyOBxO9bSPJElmZ2c7ODh4enr6+vp27NixZ8+ef//99+DBg319fSMiInr06NGjR4+qNjkcTnXTIpVKi4qK5L2RmpoaEBCQnJxc9VcqgzY6eJyn7zCUgooqRcKKSk0Oq/qFC3gCiVjCqllApYLLJwhCQ7vG5ZSXlKMoqq5V43LKCkpxGk5BNa+sN7q1y4CQIShGGrd953c6S51Nr9Fv2YVMLXUGs8aPW/ihQIOtSVdTPFKDrUlj1EgBX5xbpMlm4bRPvzhBEGX5pRoczeo1j2VSWXkxV5PDomCfpkhioVjAq9DksKrfBsKKSlGl6PPekEqkCgXK+KU8EkBDu4Yfi1tURsGwz3sDo1JT7hkfmWMhtygsE+jkl6tloYEgNY/Mz1LTZFMZzJrCD0wWB6fXDF4uzGGy2Bi1RheVF+WqabIx6qcuIgmCX1qgxuJQsGq9IRFX8srUWBy0Wh1xibBSLKxQ02Qj1XpDXFkhEQmZWjUKBgv5XIIg1DRr3P8CbgmCIgyNGsKKsiIKhtPVa9xFvOI8Kp1JY9bst4JsujqLpvapNzJeP3l25ciAmSsUTsQtyFZjsXHap96QiIRrR7Tq7TW/y0jfsvwP26b1nLj6qHkb1/KiXCaLQ8GpVQ0eWDACRSkYlQYIggDC1OI4uo1w7DMCw6lqmuxaeoPFqX4biCp4MqlEjVXjbVDJKwUA+YWX5X+4fST85Y1TIkEFkIQ6W/+XETM6D51OZ2oAQMzFgzf+XDP2t/1W7br9c2zL7SPhLV169p0awtIzll84SZKpz26fC58rKC+dHnHZyLrN/nlDPiTH4TQGgoBULGJoardo1639oInGtu3kN61IwAdQekXz2i1EZWXlkSNHRo4cuXDhwlWrVmVmZq5cuXLq1KkvXryoXn74X9G9e3c3N7fQ0NBhw4b9+uuvjx8/HjhwIIfT0ILVEonk1KlT5//Po0ePRCLRs2fP5K/s6sTGxnK5XAXhy5cvq2c/BACpVJqQkKDg1BEIBG/evFHIgsXj8ZKTkxXSQRYVFaWlpSlkQsvJyXn37p3CqTMzMzMzM69du5aamlolTElJ+XzpLykpKTc393PNCwoUg2CfPn1aXFxc9fHdu3fh4eGHDx/m8/mBgYFqamoRERFisbhDhw7z588vKSlZsmRJVckTAIiPj1eYI4pEInlvFBUVBQYGRkdHVy+6NXLumLbdnTIS0wGAV1r+ISWLrHnhpfnFOWkfoCZFOYV56YqXk/suu+CDYlxLRlJ6YXbh7d160dsNCCmCYqTjwNIe/jf53EKFI9/GJilk6gWA5GeJ5cWKv/jb2KQK7qdfnF/Gj9x4LO1likJaSUIqexefKhLUuA0kInH6m/cSUY3shwJeRVZyJiGtMW0qKyqrtTdy3yn+uPmZeQWZivWwP6Rk1dobT84JIxealWTSAEBdD3rMBWC8fHr5cGFWavUjM18/5Zcppr7OevNMwFN8KLKTXwgreArC3NR4UWWNh4KQSXPTEiSiGr0hFgry05Nk0hqpoAW80sLMFEJW46HglxUVfUhTOAu3IKckJx0AclLiM17HyIXF2e9KcxXzhRRmpnALFPstNy2hvESx37KSYvmlHx8KkiRL8zJvHAi9f3JrlbD6kUJ+jXuDJMmy/CyhgCe/3rL8LKlEJO8NsfDTvSGViHhFuca2jm6TFvSbGtJ70nxjG6eLW+Zf3ro4N/V1rb2hcBuUl+QXZyu+DUpzM+UXLhLwL+9YmnD370H+oR4Bob/OWec8YNy9E1tjzu+TH8kvLeQWfJCIhQAg5HPLC7KTHl9Pehz16cIJ2bu4B4Xpydz8rEpeGQDwivOBkLlNmt93aohTn5E2Hd1Snt46MH/425joqjZB+SC1GolXr16NGzfOx8fH3d19/vz5y5Yts7Cw8Pf3ZzKZu3btqj7ebzg7d+5csmTJjBkzpkyZwuPxFi9eXFpaevToURub+nfpxcfH9+nTJy0trWogQKFQaDSaWCzGMIxCqbHiLhKJahXiOF59jEmSpEQiwTCsupAgCKlUiuN49RFHrUKZTEYQBIZh1YVSqZQkSYUtbfJiARUVFXQ6nU6nVwkRBFEoTiMWi1EUVRDWejlCoRDHcblQKpWuWbNmzZo16urqQUFB/v7+sbGx06dP/+uvvzp27CgUCt++fSsQCFxdXatU/VJvlJaWDhgwIC4urvpdMem3qeMWTZRJZUACQ0ONkBEEQVCwGlngZFIZSZIYXkPzWoVSiRRBgFLzGiViyY1thmeXWcpLzVt35k07lMox46MUtPpcAQDEIjEFoyj0hlgkxjBMYV1OQSiTysoKSjU5LApOUbhwqVhai1AixXBM4TYgpDJKTaFMJiMJsiG9IZVIAaAhvZF4h751uF1FCQ0AARQGhYJ1TyAIkUjApzKYOO3TbEMqFqIUHK3ZG1KxCMUwFFUUUjAcqbnMIJWIKJQaQpIkZVIJBcOQavXOSIIgZFIUU3goZCRBoJSaXSSTkSRRfZYDAIRMSpIkBcPFlQKSlNHUNABA/lJWOFImlSAIglIUukiMoqiiUCxCKRhKoQgFvL1zPIo/pPGK8wmZdPXtEoWZyue9IRZWLu6uOdBvtdukBSU56WuG2vrujG7h3F2hN9Je3Nvt7z58wdaOg70RBCFJUioWHpw/ojQ/a0rYWY5JC4XeIKTSsvwPKIZr6ZvI76WqCydJUsArBUCYmtpVF56b+vrAguE9x8/rPGw6IZMCIDKJ+Mw6/6yk5wtOvASAB6d3Xdg4b+qmC7aufa/vWXnv5FaGhlanIdN6TQyS/+JioWC3/wCpWPghKTb4WKyhdZvNkzqLhfzAQ0+odIZULAIEKc3L2jatu5653ZSwswwN1uNT27qaUpRdo772mUpKSoq2tvbo0aP19PTk7zg9Pb2ZM2cmJiZWzyTYcEpLSy9fvmxtbb1mzRobGxsXF5e9e/dmZWXFxcU1sAUEQdTV1Zn/h06nIwhCo9EU3i8A8CWhwsIdgiBUKlVBiKIolUpVWNmsVUihUBTMDABgGPb5Jmkcx3Ec19LSqrIocuHn5c6oVOrnQoXLIUmSJEk6nV4lxDDM3d3dyMioVatWBw8e9PT0RFG0bdu2x44dk1uytm3bdurUqbqqn/cGABQXFytMRik4NmCqx/DA0VQ6jaGuxtBQAwCUgiq8bQGAglEUXpdfEmI4pvAOFVcid3abnAiyFgsoCEKatuHPPJZi0FKE03AFiwIAVBr18x+XSqN+7ulREFIwCsdIB6fhn98GtQupij8uiqLYZ0IKhdLA3sBwrN7eIAjIesU4Nte6ooQOgDDYMHQL2PQBFAOMSmNqcapbFADAqHT0s97AqDT0s40NGJWGfPaLY7iiEEEQDKciNStoIihKwT9/KCgU7LMuolAU7AQAoBRMLqQy1OQWBQAoGP75kRQMVzAeAIDh1FqEVJr8wlEUs3Xt+8vwmcY2TgCA1Hbhn/dGrdTSG4BUWU0EQTAqnaVvQsikBCFTsCjJj6O3TOmyfUavLd6dd/q6pb24J7/wW4fWh7jp3j0esWG049NLh6pfuEwqJmSy4pz0Sl4ZgqIUDKMy1Ny8F/06e/3Hs9fsW3VtXWM757gbkQAfH8+yvCxeSb6+lQOCoshnRU8xKg3DqbqmLXqOn5f//k1mwhMA+PxuUQa1+1RwHKfRaJ8/P1/tUJHJZFKpVF9fv6oFGo2mpaWlKvn1ryAIIjY2lkqltm3bFgByc3MzMjI6dOjQvn37WbNmbdu2LSIi4tmzZ9OnT2cwGPfu3fPw8OjTp09DWi4oKAgJCYmOjq4udBvbd8qK6RpaGhpPmJwr2gBQ4SAoHNmYkQZSMXL/kO75FfJEA6R9b+7kXe91LX7iqhvfQsYLtePzzLNeMgFAjQPd54DFfyWjiX4CWN4HACi2gpS+jdYslc7o57MUAMrys7ISnzVauwAAQJKEgFfKLcgmAWQScW7a66SH141sHFm6RtUPK3ifdGHjvFbdPNr1HS0WVjw6u/fkH9NmRFzhmFjJZNLK8tKUpzfdJi+06eBW/VsckxbWLj3vHttcnJViZOOkb2GvZ2mrY2qt96X4SgRp0a7b28fRH5JemDl0AICYiwd0zWw4RhZQp0fC7hf3a7t/45UoLZfSZ9RuVMzMzIqLi69everp6SmXiMXiU6dOGRsbf124IovFsrS0PH78+IMHD3755RcAuHr1amVlpbW19Ver3gyRyWSRkZF37tw5efKkoaHh3r17jxw5MmjQoODg4OnTp0dHR9++fXv58uXDhg3bunVrampq9RCTOpBIJAsXLjx58mT1aWhnjy7T187iGOoAgMYTpsUKEwAoGFncuEbl5WXW+ZUm/GIMAIwcKkesytJrofTcRD8mOYn0P6daZb1ikiSCYtBhMli71f+tnwX9BOi0BwDgbZ/GNCpKRSoW/XN007NLhwGAIGT80kIqQ72P9yIqo4av++HZ3VSGepeRvmxDCwCgMpgH5g9/efts74nBAIDh1C4jZ9l26qswYWKoswb4rjSycXx16+ydIxspGM7U0jG2dRo4axXH2LJWfcxbuzK1OC+iT5o5dJCKRbHXjnUeNp2uVk+ubi09E6lELK6s+Iae+HfUblRat249ceLEwMDAdevWlZeXBwUFpaamYhi2f//+r3Oo4Di+aNGiW7duDRw4sGXLlgKBIDMzMyAgwNHR8dv0b17gOO7n5/f06dMOHTr8888//v7+IpFo27ZtV69e3bhx45YtW0aOHDls2LBu3brt3bt3xYoVenp6dTdIkmRlZeXs2bMPHTpUJURQpItn9/n7l2hqKzG3PEFAQjRr+ygbmRQFIOkaUp8/01p0/H63/o8DSUJZLr59TMsPr5gAgFKg6xxwHtfUajV7UAxr4dLTvLUrAFAwnGNsaenYRWEFEgDexz3QNrRgG5jLl3b0Le1pahrZibH/bwQ3c+igYFHkK8waHIPuYwK6jwkQVVakv3z47Mpf8XfO56TGz/vrKU6t5TXL0NBq03NI4oOrfbyXZL15KuCW2HbqV7X34UtU8koxnKqwRVCp1G5UMAzz9/e3sbE5ffp0cXExhUKxtbWdMmVKdWfvv8Xc3PzZs2fnzp1LTU2l0WhOTk59+/ZVJdL/t5ibm+/atcvLy2v8+PFhYWErV64cP378nj175s6da2trq6uru3nz5k6dOuE43pDklTweb9WqVceOHasubN+348z1/hpaSqxMKxUjb25oHphpKZOiAGBoVzntQDO1KABQkEY7Ns88+7UaAFCZ0G4MuKgsyg8AhYLbdOjdwcOr7sOEFTz5tmP5R5lEQpIE+v+tyQgAitbyms1OjkuPf9x1pC8A0BhM2059W3boZWzb7vK2JVlvnlo51V6ltL2H1/OrR1Of3U5+HKVj3tLY1qleo/Lm/mWGhra2wfdLfPfFOBUqlerh4TFgwAAej4eiqLq6+rdnD9TQ0PDyqucX+q9y4sSJ1q1bt27d+lsaIUkyJSVl06ZNfD4/MTExICBg586dPXv2DA0NnThx4rlz5w4dOlRYWPjq1SsXl/qTFJEkuXnz5p07d1ZWVlYJWzrb+m8ONGphrDB6uA23CSDagNO36F9F4m2NY0HmJVk0ADC0E0zclt6ik3ItSnkx92joId+w2Uo9y1cgFiCRC81eXdEmCQRngNNocPnCIxJ7/YRhi9aG1t90CzUhMRDDB74p/KyLehXc4ht/hnrODVOQ61valxflCrjFTC0dAChITxJV8OrOEoYgSP77N1d2LLV17aNr9rHEMkrBNDkGKAUTV34xJNzAykHHxDr2+vGC90m/jPDF8HoG5QUZb+8e36pvYWfYsm2DLrIxqLmXMTFx9+7ddeTjcnR09PHxaT5ZIBuRMWPGfHsjQqEwICCAJMlLly7l5eWFhIQMGDAgKiqqW7duLi4uzs7OPj4+9+7da4hFAYCVK1cqpL5v2c5m24M9VPr/2DvPgCaSNo4/u+kJCQmBUEIHUcFOUQ8bYtfz9GwgKjZUEBUEKRYUe0FsiAgKir3cib2g2Bt2UVGRJkqvARJS9/2QezEgQiyAaH6fjrnZ2WfXzf53Zp5Sx5PqAA4AkA9Fn/+vr6Uwkxg2unVVBQ4AqEyJy6ZMK0fe9w9bPwy2+s+oKAJkywiLF/H/ecFaDIDu7vClj7cuA3/AI9SMdIWuAPC2Sc4l5Fc8PLefV5gzeFZwg51z05MVw0KJZGqd2Yhp6uzPFQUA+rr6Rc0b+urWOZshE8RCwf3TMWJhVbcR0+o/qXGHP5gcbrh7vxlbzuqYWSEIUpSdcfdEFIFMNuvS60tHoSjaaeC4Exvm4QhEu+GTP+8gEQnzM14TSGSpWPT+1cOE2A2FH945L42m0puu8HYNUREIBGlpaZWVX/xm5HA43xz8qOL7efr0aUpKyuHDh01MTExMTI4dO+bl5eXk5BQWFjZ06FAikWhsbKxMOmQej7dr166QkE+/EARFLLq0nh/hX6ei/ChkUki5o7ZzgrlcUZi6ognb0tsPqh23+DuAYVDykXDQ2+jlFSYA4EnQdij08f2ioqioHzpbh2PUuno1RSaVFH5ILf6Y/nlPBEE4xq2pDA0AwOEJmgbmNw5sUuygbWo5ZmEEkUTVMrKoFd5fJ4ZWto6TA67u33j3RJS4SgAoMmbhDiKZCgA0dbaWYavPnbkBgM01GeG7+fLuVVHzhhHIVARFxVV8bZM200NPy7dtKHSmlpEFkUwDABpTk61nIvdFbt21n0Fbaz2LjiQKDQCodBbHyEKeCIClayQoL9m30Fl+nQQSRdesndOSXSadmtSJsIaotG/fft++ffXIhjzkovGtUlE3+fn58jAd+Z9sNjs0NLRXr14+Pj5SqXT06NFKjhMdHb1y5UrFFAPGViZzt80379y45SLSH9IOehsXvScBAIsrHB+aafN37djv3wRxFXJqJffJaQ1MhqB4aDsEeswB/Lc4wagAAOg2YnoHh5HV6VhIVLWe4zwlojoWXXAE4oSV+xmaugBAY2lNXHWgVgcCiUJlsIhk6vjgPUxOwxuTeAKx9/h5bf4YWJqbheLwWoatNP7vvtXRcbRZl15ygfkcC9u+XIuOOe9e8HnFCILSmJo6Jm0p/w/etLBz5Bi3YXNNAaCD49+tbPvKbdbQMx6/fG91xE+bPwbqtmrP1NYHgCHuyxWTAhApNHUtbq2EPU1ADVFRzEYlk8kuXLhw5syZDx8+aGpq2traurq6KiabUtH0dO3ataio6MWLF1ZW/xWS1dLSGjRoUEJCgmLWlvo5f/58UFCQYmFgLQPOsiOr9FsbNmrRrapydN8c48wnNABEjS0esfSD9cjiXyKB3lcjk8ARP8ObezgSIQoABrbQbSaQGtEx4teHpWPA0vlUtgzF4TV0jersiaKoPFISAPAEIrd13duEODxBT+l9CAKJot+6s37rzrXaGZo6DE2deg6kqbPNrXvX/b+YmvJNGgBgsHUYbJ3/20zSNv6UqlqNpaXG0pL/909SQ6zujXoej7dq1ardu3dramrSaLTMzMzLly9HR0dv377d1tb210il2VKorKxMSkoqLi62tLTU1dUdPnz4okWLzM3NraysSCRSSUnJu3fv/P39nZ0brnIqFosvXrw4atSoT/EoCGgb6gTuDTJsa1zfgZqSio6VAFBl9C1BJBgGZTmEjUNbv3+qBgBEqnSIX3bvaQWfRQH/Fggr0eMLDS6H6QIAIKDbDgavBErTrXg3DwImFFgAAPB0m9sUFY1M3aKSlJQUFxe3ZMkSJycnLS0tkUiUnJy8du3aTZs2xcTEKKYbUdGo8Hi84ODg2NhYADA2Nvbz8/Py8srLyxs0aND48eMNDAzu3r1bVFTUvXv3BpVeLBafPXvWx8dHMcJR20hn7tb57ezb139sgVNxgdM3xjxiGHxIohxfbCBXFBpL/FfQR0ePvN9TUaoq0Cvh2rditQAAQcHEHvr4/vqKAgApAyBlQHMboaJJqPuXnZqaamho6OTkJE+sQiaTO3fuPHXq1JSUFFVilW8jIiLi4cOvTiNx/vz5Y8eOHTp06MKFCxwOx8PD486dO+Hh4X5+fg8ePNi9ezeDwYiNjVVmc/78+fOzZ89WTKKMJ+C9wxd0HfwH7rOEY59z98yt2ydvfK39AFBRhDvib/j8HAsACGTpEL9sR488PLGp3T1K8otXuixt4pN+zpm1eqdWcfmlOAAwsIHePsDgKnvs7eMR71/94EwkTUnKg6svrp1sbiu+nfLi/H2LXJrbihZA3W8TfX19mUxWK3ekRCJhMpmNuuz+CzNr1qyv6o9hWHJy8tWrV2fPni3P3/XPP/9MmDAhKCiIRqP5+PgsWLBAyaFkMtnVq1fHjBmj+A/K0GDMjwzoOlhZt5Duw+qOxqofAQ+NcDF/cYkFACgec/TI7T8nt+kVBQBYHI3FBxr2Lm08JCLkdiz79Kr/Nn6ZBtA3AJgG9R9UA/vRX/cI/Wy0snVobhO+C7oG5/NdfRWfU0MhKioqXr9+nZycLE/Avnnz5nv37qWkpCQnJ58/fz4qKqpv377flqZFxdcik8l8fHwOHjxY7YxHJpPlSYgDAwP37t2rZLpomUx27949T09Pxf4aOmyP0Hn2f36LTihP8QfC/rnGckUhUqQD5mX/veIDifY7uqSLBMiN3VoH5xvL/9RpD8M3AqvujWQVKlo2NWYqT58+nTt3rjy+uqioKCEh4d9//6XRaFKptLi4uLS0VEtLSyqVfp6eXcUPB4fDBQYG+vj4REREjBo1qlWrVgBAo9GWL1+Ow+H27NmjzM48ALx8+XLu3Llv336KOcMT8bM3e9kP74knNqJ3eGUJ7sRSg7uHNAEAxcsGeOWMCPpIIP+OigIAT88w/12qX1WOAwBtS+jrD2yz5rZJhYrGoYY8mJmZBQQEKJYIrAWXy1UpSpPRq1evHTt2DBs2bPTo0adOnTIyMkIQhM1mb9q0SSgUKuMuUVhYOHLkyNTUGsX4lh1fbf9nz0az+j+uRnJuxGgBhiAI9sf4wiG+Ob+toqQ/oEZNNpfXH6Npgr0naLdtbptUqGg0aiiErq7u2LFjq//EMEyxXO7Hjx8fP34sk8k+r5Kk4odQUlKyd+/e3bt3FxUVubu7e3h42NjYnD171s3NbcaMGaGhofLwFBwO12DAEIZhjx8/nj59uqKiUNQof88d29iKUlmCu7RF5+RyfcAQAMx2TNG4De9pGl/8UvmFkYiQp2eYMTNM5Yqirg+OgWDUtbnNUqGiMal72iGVSm/evHn8+HHFYu95eXkSiaR///6qoPrGoLKycs2aNRcuXPD398/Ly1uwYIE8u5e1tfXu3bu9vb1nzpy5c+fO6rDH+nn9+rWPj8/z58+rW4hk4nD3v8f6NG7+28oS3OnVejd2cfAkmbgKtRtbNGFrBoMjafjIXw5MBslX6Yd9jeTVYlhG4BgIBrbNbZYKFY3MF8sJz58/PyEh4eHDhxcvXkxNTY2Li0tOTp47dy6F0tRB/78Ga9euvXXrVj0dbt68eeLEiePHj7u4uAwZMgTDsNjY2IULF1ZUVHTq1CkiIoJOpzOZSkU0iESi6dOn37hxQ3GiOcpr7LQVM+isb4zbTjgcf/nAxQa73dnPvhymW1mKx+GwruMKJ2zNUNf+KRSlKLvQu+/spjxj7ltytJtZQToJAKGwoMcc0Fcqz+cXuRyzNu1JfY/QT87Lm2cfnW/B3lNlhTnbZ/RtbitaAHXPVN69e0cmk0+dOoVh2KxZs7Zt22ZoaOjm5padna1KKPltBAQE1N8hNTUVRVEDA4PCwsLFixe7u7v37NnT29vb09Nz2LBhlpaWZ8+ebdCfG8OwnJwcNze3O3fuVDeSqeRRXmOnrZz1zakQ9MI4y+csAYD8k0WvjqbU2UfER27v0zy8wEieesSse8WYNVk/iaIAAFtPc1PC9qY5FyaDlDtqYWMsynKJAECiQ895YNYHvjMTRb8pDTxCPzMdjoLXuqEA8PYanFvX3NZ8E+qaurMjE5rbihZA3S+p4uJiLpdLo9Hku8GlpaV4PN7FxSU+Pl4o/E2rvTY2nTt3btWqVWVl5aFDh6qqqlauXDlgwIA+ffo8evRo8+bN8qo29Y+AYdiHDx98fHzOnTtX3UggEQZPHebkN7FRk+uIq5BrkZx9c00kQhwAWDqWTgpP1zL5HUvNYzJITaTt9TCRKwqVDX18wXLY9yqKChUthbpnKlpaWh8+fKisrFRTU8Pj8Xl5eQBAoVByc3Pr8Q1T8W1UVFRQqVQ7O7vY2FgikXj06FFvb28NDY3s7GyJRLJv3z4ul6uhodHgOFVVVfPnz4+Li1Ns7DPGceqKmTRGIxYTlUrg1l7Nkyv1pSIUANoNKHXbm8rU+U0zL+SmkGJnm8jLOJLVofd8sOivUhQVvxF1f/y2atWKQCA4OTkVFRW1b98+ODj45MmT4eHhVCpV5fr1PchkspycnOo4xLt37/bu3ZvD4Ziamh44cIBAIMhkstzcXB6PV1ZWFh8fX1xcrK+vr6Wl1eBt5/P5Pj4+x48fl0j+W3FCcWi7Hh3nR/ipMdUab5oik8DbW/SjAUYVRQQAMOpc4bQh8/dUFAyD/DTi5r9aZz5WwzAETwLbyWDRD1DVL0bF70TdomJqahoSEtKjRw8UBT0odwAAIABJREFURZ2dnY2Njf39/XNycnx9fVXZJL+H7Ozsvn37xsTE8Pn8d+/ezZo1y8zMbNWqVT179gwKClq2bBkOhxs6dOiKFStcXV1DQ0MnTZqkzOZ8Xl7e4sWLd+zYUd2C4tA/hvcMOrScTGtExwqZBO4eZu9wbsUvxQOAjoXAKSRTv72gwQN/PTAMspPJkZPMc99QAQBPBhtX6DgW6ipPrkLFr0zdjzyKonZ2djY2NgCAIMi2bdsKCwvpdLqOjo4q99f3wGKxpk+fvnz5cplMlpaWZmJiEhoaqq6uXlFRERMTs2HDBj09vUWLFnXp0iUzM9PHx8fa2rrBaNOKioqNGzeGh4crNnYd8of7hjmaXK3GuxaZDB6fYh0LMJRvHrANqzyPvtXvIPg9l3oKM4mHfIze3aUDAI4IdtPAegLgG7GKpgoVPyl1v7AwDBMIBElJSRkZGYppifX19Xv27KlaAfsG1q5d26NHjx49esybN08mk/n5+bHZ7ClTpsgnInQ63dPT8+3bt6tXr542bZqrq6uSw0okksjIyNDQUMW9Lq65fuDeoFrew3K3vW9eBzsMh6Ug7Q+D/j8aZDyiHVlgVPKRBIDptK6aEplq0PHnnaMUZReunLC0kRzAxFXIUX/DpAssAEAJ0GE0WI//8YpyOWataacepp0bN2Nb43EWzpZCqS201ES/ZYU5+xe6qBzAGqRuUcnJyfH29r569aq2tjaR+OnH0bt37+7du6tE5RuodinG4/Hu7u5isXjlypV37twpKipis9kAgKKok5NTdHT048eP+/ZVyh2+vLw8MjJSMbMOiqJtulouPbKylqJIxJK7Z26ZdjDXM+V+m644gRMA5EMRAGAYvL2pFjHBvDiLDACaxkLnkEyLHhUNDNGsNJ5LcfFHwhE/w8SjmgCA4KDjaOg6HfCNsEjcol2KAWAoDAWAtw32+1lRuRQrSd2i8uLFi4cPH27ZsqV9+/aKokKj0VTh9N+Pmpqal5eXtrZ2UFDQ9u3b/fz85DtVmZmZKIqyWCxlBuHz+VFRUcuWLavemQeANnaW3uELOAbatTrzSnixK2K0uFqzN3txzRouu10PGAYv4hmxHiZyRaFriSaGpXcYVPZ7LouW5hBOBOnfP6wJACgObCeD9SQgqTW3WSpUNB91i0peXp6FhUW/fv20tBpxUf53hkqlTps2TUNDY/LkyUlJSUuWLElJSVm0aNGwYcM6d65d6bpODhw4sGTJEj6fX93CYDN8IgNM29fIfysUCA9v2H9w7T6RQPjuyVt+OX/j5W04/NfNNbM987M98+X//f4Z9cA8k/xUCgBQWRKvU2/Mu1V+1Wi/DBIRcnKF3o0YDmAIIGA5DGynAEGVcaIuno+F52Mb7qbiF6Duz0sLCwuxWCwPT1HxQ0hJSfn48WOtxqFDh65du/bq1au2trYrV64cM2ZMTExMg0NJJJLjx4/7+/srKoquqd6aMxtrKQoA3D1z6+rhy/4xi49nnw6MDaooLffpNyc77eO3ZUYoek+McTPJeU0BAJqG+O/lWcbWv6miVJbi4oK5V3fqAIYAgFlv6DZTpSgqVHxhpqKnp8dkMv39/UeOHMlms6s9vnR0dGxsbFR7Kl+LTCbz8PDo37+/l5eX4nIikUicOnUqjUbbuHHj5s2be/bs2aBznVgsPnz48OzZs8vLy6sbjaxM5m3zsezW7vP+8fsv9Py7T6+/++AJ+P4ugwzbGC8dHbhp1nqP0LnGVqZftb/y8SU5ZqZJ+gM6ABDI0r+Ds3pNK8D/lquhAh56agX30hYdTIYAgLkD9PEFeu1FRxUqfkfqFpWsrKzLly+XlZVdvXpVcRNl6NCh0dHRKlH5WhAEsba2/ueff0aOHCkvt1UNiURycXHp06cPh8NRJhHLuXPn/P39FRVFQ4ftucmrY6+6F81KC0pxBDyKQwEAQZHWNm3cVs9aM2lF6Kx1S4+sUt7n+MMLSqyHccptBgDgSdJZ+991+rO0WQoDNzsSIXI5TDshQlsmRQHA2B4cFwFVqY0wFSp+fep+i3Xs2PHWrVtJSUmJiYm3FVizZo3ih7YKJUEQhEKhpKSkXLxYR6JfHA5naGjYYFSpTCa7ffu2h4dHTk5OdSODre6xaZ5Nfzu5bFQjFoqlEimGYV36Wt87e/v968xqS1rbWGoZcATlgtWuwVWVSjkBF38kHAh6+uTmNQCERJP+vfxD579KWpailOQXr3RZ+v3jSITIvcPsuOUGIj4OEDDsBr3nN5Gi3D4e8f7Vw6Y4U+OQ8uDqi2snm9uKb6e8OH/fopbqD92UIIpr61KpVCgUyqvQ15k4EofDEYnERk1NWCdJSUn9+/fPzc1t4vN+Jy9evCgqKuratSuZTK6qqgoODj5z5szNmzeVzGCviEwmO3369Lx58zIzM6sbOYba7iFz+4yp4X8slUjvnLn17NpjFkejr3N/mVS6ymWZGos+OdittU0bPo+/0y9MKpE6jh+w0mWpR+jcARMG13/qovfEfXOMn5xiASAIgo1Y9mHAvFyq+u+YAk4kQC6Haf+zxFCeiZnbGRz8QMuiuc1SoUI5Ev/d8YceeHq4N+pZaix/PXjwwNvbe9euXWKxeMaMGfJi9Yo4ODhs2LBBrjoq6qe0tHTixIm5ubm9e/cODAzs0KGDk5PTyZMnw8LCFi9e/FVDYRh2+fJlLy8vRUXR0GVPWzWz58jetTrH778QPn+LGpNeUVZx+dDFRfuCPTZ5rZ+6ctnohVxz/apKQUl+yZqzGw3bGGkb6aQ9ewcT6jt1WR4+drbx0zMsAAQAGzg/e7BPDokmq++YXxSxELm6k3Nqpb5cUXSsYPBKUFPto6hQUZMaayYMBqNz585UKpVGo3Xp0sXmM8zNzVVpWpTh48eP3t7ex48fnzNnzpMnT7p37z5p0iSpVDp48OBNmzZ97gZWDxiGJSUl+fn5ZWRkVDcSKSTXpdP6jR+o6ByMYVhRTuHFvWfH+Izf/+7Y+vObAINlYxbiCbitN3f2de6Pw+M69u4cnXTAqK1xxov0ouzCtt3qqyNZWYI7vtjg2XkWAIInSQf5ZDuHZP2eiiKTwct49fitOoJyHABot4VBK4Cuo0o/rEJFbWrMVCwtLatTSEVERNTqKhaLhUJhg6moVAiFwsTExHv37pWUlAQGBrq4uBw9evT8+fPOzs5t2rTh8XiHDh2aP3++MvKMYdjTp0/d3d2fPXtW3UjXYIwPmDRs+l8oihZ8yKezGGQaGQCy0z7G77sgkUhdAiahKNrGzjLo8MpQ93VhXptnb5o3a70nAJSXlCdeuIeiyNndpzv16dJ96BdzfggrkYubdO7u08KkCI4g6zWlYIhvzpc6/9pgMngZz4iZaVKWhwKGsYyQPzyAadjcZqlQ8VNS33tNJpOJFHj27NmKFSuqqqqazLiWiEwmCwwMjIiI6Natm42NDYIgRkZGCxYs2L9//7p16+h0Ooqi586dy87OVma058+fu7m53b9/v7qFQqdOWjJl7HxnFIfyinmb3NfvDd4lFokBoKKk/HRk3PvkTKHgv/0wk3amPjsDKGqUkOlrXt5JAoCUJ2/CvDbtCd5t2c3KY+NcIrlutwthJXp8kcG5DXpiIQoAfbiiRU9p9rNM9Tfofuf9aXFIJXD/iEbMDLPSbBImJahz0f5LwLCbao7ydRjdgj994E8f6LK3uU1R0cjULSpisTgqKkpbW5ukgK2t7d27d1XlhOsHRdE2bdrEx8enpaUptuvp6Y0YMWL//v1v3rzJzMxMSkpqcKi0tDRvb+9Hjx4pDj7M7a/h7n/Lfb0YGowujjbcVgYEIgEALLq0cd84VyqRrpqwtDobmLGliW9UIJ5EqBJUAUCXvjbHP56Ofr7fNWiahg67zvOKBMixQIMr23XEVTgA6DC4xM87x/weXfOkBuPB75WBBMMg+SrjiL9R0XsSAFBYMGILcDuDag34a1HPBrNrYHYNdF41tykqGpm6fxzPnz/funXrX3/9NW3atNatW3t5eY0bN87S0nLBggWqeioNMnXq1M2bNycnJy9durS4uFjeePjw4RcvXgCAnp7egAEDrl27Vv8gWVlZ7u7uV69erW4h08gj54yetmIGkfRpejHay2mg65CjGw/Groiu4FX0Gd131gbPpFvPN81aX5xbJP8C0DbU2XYzwtrRVhnjpWK4tEXnRjRHKkFRHNblr+Lpu1NRFLsKV6/Ala+8Ez8RvKKyHb5bv+oQDIM3N9T2eZoUZ5EAgKEHjoHNuer1+OLhnHcvmu303819uN+iH6HKsqKTm3yb24oWQN0bJOnp6Vwud/Xq1RKJZPr06TNnzrSwsFi/fv3du3cHDRqk2qv/HJlMdubMmXv37slkMkdHx8mTJ5NIJC8vr/z8/GXLlmlrazs5Ocl7VlRUZGdn118eODMzc+rUqQkJn1KiEkgEZ/+JTgsm1LlgxWCrH95wIOvte/cNcwZPGcbksHb6hUUGhs9aP4epxQQAIlkphz2JGE6t1L+0WUdYiQOA1r15Y9a8Z+hIAMABHOD/WYpbIgy2unvI3K865O0ttShX88JMMgCQ1aGPL5j0aM4yjl0GOjXbuX8EXaErtOQsxTR19l/eIc1tRQugblGpqKig0+lEIhFFUQRBeDweiqK9evUKDg4WCoWqRMW1EAqFnp6ex44dMzMzy8rKCgsLmz9/vr+/P5fLdXZ2lslkoaGhNNp/VeJFIhGNRhs/fvyXRsvJyZk5c6aioqB4dPiskWO8nepUFAKR0H/CIBKFtGrCMolI7LV9gf3wnkQyMcRtTbDT4pCLW5RMHymTwtk1eqdXcWVSBAAMOlTOPvJWjS39PTcP0h/QYtxMqxVlxBbQsQJE9TWlQkVD1P0rMTExSU9PT0xMRBCEwWA8fPiQx+Pl5OSUlZWp9lRqIZPJoqOjL1y4cPr06UePHr19+3batGnR0dHHjh0bNmxYbGzslStX4uLiqvtra2sfOHDAyqpuX97c3FwfH59Lly5VtyAoMnDSkMnLplPUqCV5xRLxf4nuM16mhfts8e0/90TYsfISXp+xjivi1iUnvorwC+MVldn0t5u9yWvwlGFKKopEhNyK1YzfpiuTIgiKWTqWzj/zhq75mypK5lNqrKdxzhsqAFDZ0NtbpSgqVChL3TOVtm3b2tjYeHt7Hz16tEePHtu2bXv69OnTp0+trKxUaVpqwefzb9++/eeff/bs2RMAmEzmunXrJBLJxo0bnZ2dhwwZQqfT27X7lOqxnnwExcXFvr6+R44cqVZuBEV6j3KYud5TjUkvyS/e7LnBYWz/Hn/1lEikOxaEVZZW6Jjo7l+9N+Nl+pTlbl0HdZ+5zjMqMHzb3FC3tR69/u6j/FUkHtOIW2ZQXkgAAGPrinHr37P0Rd92Q1o6OW/Ie91N0hLpAECgQvcZ0KqfSlFUqFCWukVFS0tr9erVGRkZenp6Li4uEonk4sWLDg4OM2fOVIlKLSQSiUhU4/1LIpGmTZuWkJBw+fLloUOHOjo6KjNOcXHxggULDh48qKgofcY4zt40T52tDgBUOo1Kp4XP34wj4KQSqaC80ndXoBaX8+jyg+3zN5cVlQbuXdpzRC+KGmXZ6IW6ZtwpwW5K7n49OM7aP8e4soQAAEw94ZTINIPftdR8aTYhZoZJ6r3/Ss33XwLmfQCneuRVqFCaul86FRUVhYWF7du3Z7FYTCZz3rx5586dW7hwoUwmUy1/yZFKpSKRCMMwBoPRpk2bgwcPpqSkVNeB19PTY7PZ8oI0CIIgCFJaWlpPiE9JScmiRYv27dv36fYiYD+8p3vIHLaupryBRCHN3+FnN7j7Rrc1t05cb9PVytjShKZO6zGy14w17s9vPPMf7M0r5nUd3H3rrYix88croygyKTw+ydzrYVpZQgDANAyr/C+/Muok+PzQCqgoh/K6xmgZSCXSouzC+vuU5uD3zzV6c5MBAHgyOAZC6wE/kaIIykvFwhYcJcYHfot+hGRSSVmBUuFlvzm1Xx7Z2dnPnj07fvz4lClTbt68+UyBqKgod3d3VfAjAPB4vF27dgUFBR0+fLiqqsrZ2dnU1HTSpEm3bt0SiURSqfTSpUsVFRUDBgyoPuTevXsfPnyoczSBQLB69ero6GixWFzd+MewHnO3+WjpcxR7EkjEqctn9BnjeOXgpex3H3nFPABAUdRhXD/PzV757/PCvDaX5JdYdGlTq0b9l3h9nX7E36i8gACA6bYWTI1M02tbRyLRio78+HlXL81LKBpSosywPyGCCsGVw5fq6VCWhz8WaPgojg0YgiNAh9Fg1qepjFOOjKR7pfl1P0I/P4Wt4Lhz6gHnV+n2zW3KtyIUVD6+eLi5rWgBILVmHmvXro2JieHz+cXFxdra2opJWUpKSoYNGxYREdH0CSV/qizFGIa5ubnFx8czGIwPHz5Mnjx52bJlaWlp06dPLyoq6tSpE4qir169mjt3roeHR4OjCQQCf3//qKgoRbXu/qf9gl0LWZzabsdlRaV8Hp9MJR/bfORUxL8TFk4eNW+sPPJRJpO9fvAq6dbzYW5/0Rg0ZS4k/SE13KlVfioZAFHXEc3Y+66tAw/3W3r2lXwk7Jpi+uoqUyZBAKDzeOg6HSjqzW2WChU/lGbIUgwAgwYNMjU1TU5OPnny5KxZs9TVP/2w2Gy2nZ2dKkVxUlLSwYMHT5486ejouH79+hUrVhCJxKCgoCtXrmzevPn06dM0Gm3dunVDhw5tcCiRSBQWFhYZGalYaKBjn85zt/ooKgqGYUJ+1d7l0f9sOQII0n2ofdDhFTgcErt8N4PNGDhpCA6PQ1HUsms7y651FH/8HEwGb27Sw8a2Ks8nAmAkNcmsQymWfVrw0sQ3g2EgKMMd9jV6Ec8EAAQHVn9CH5/mNkuFihZLbVHp1KlTp06dXrx4IZVKx4wZw2J9Kj9UWlqak5Ojpqb22wY/VlZWPnr06NatWwwGw8HBAUXRgIAACoUSEhKCYVhAQMCyZcuWLVum5GhSqTQyMnLdunWKitKqS+t523x1jGuk2BJViQ6u3fcwPtEjdC6BSCCQiDg8bpyvC4FEDPfZWlZY9ufMEWrqX5FAJe0B7cA8o/J8AgDG4oombMn4PRUFAISVaFww9+EJDQCEQME6jIJuM5rbJhUqWjJ1e3/x+fz3799X54+Sc+fOnQMHDuzatYtCoTSJbT8XGIYFBwcfOnSIx+PJZLLExMQ//vgDANzc3Egk0sKFCwsKCtatW8fhcBocSj7amjVrNm7cWFpaWt3Yxs7SL3qRiZVprc6l+SWJF+5ODp5u/2fP6uXKgg8F1v1sqQzawbWxOsY6fcY4Klk8LecNaf9c46znNACEwRE5hWR2HFba8GG/Ivwy3BE/w9uxmvISKa0HILZTgKjU2qEKFSrqpraorFmzJjo6ms/nl5SUXLt2TbEcfVFRkfw1+nvy4sWL2NjY1atXs1isiRMnLl68eM+ePYaGhlQqdfr06UQiMTw8XHGnvR4wDNu7d29wcLBEIqlu1DPjztnibWxpIv+zvLSczvxvs11UJeKVlOsY6oJCmMve4F1sPc3pq2aZd2xl0q62Dn2JvBTSWgfL0hwiAAIAfwV9sBtT3IypR5oRiQj5Z7H+9V0cTIYAgLE99FkAeFVmOxUqvo/aC1mGhoZdu3a1tLRkMpnW1tbdFBg/fvySJUt+w4SSYrE4ISHhzJkz3bp1mzx58siRI69du5abm+vp6ZmSkgIAeDx+6tSp169f53K5XxokIyNDPimRSqVHjx5duHChoqJwzfXnbvNpY2cp14xrxxImWox9GJ/44NL9/Kw8ihqFxWFd2ndOIvp0SIfenTNepkvEkk59uqhrMhucpmAY5KeSYmaaluaQABAaW/z3ivf9ZucrqSjFuUXFOS018RcAiIWit49eV/8p4iMXQnVu7uFgMgTFg1E3GLwCCJSfOqF9cXaGoLwFzykrSgp5hS24JI9EJMxKftRwv9+e2jMVFxcXFxeXlJSUCxcuuLq6MhiM6v9VWVmZk5Mjk8kUpy+/A0Kh8Pjx48eOHbOxsRGLxSQSqUuXLhEREfPmzXN1dd2yZYutrS0AVGf3qpPc3Fw8Hs9kMhMSEgICAnJyPv26OIbaXtt9u/Szrd6sMutobtmt3ZpJyzV02d7hC1p1ad1zRO/DIQfUtVgjPUdTaBQAKM4pUtdi4pSumVaYQTzgbfTmJh0A6FriEUs/9Jqar/xNKC8px2QyDd26s+X//EjEkqy37y2s2wAAJoPL27XPrOEKK3CAgKEd9PEFEqPBMZoZXmEuisNT6MzmNuQbqaook4iqGJottSSPVCIuyHxr0Na6uQ352antUixHKpVKJBIikSj//s3JyTl06ND+/fvbtWsXGRnZ9JOV5nUpxjAsJyfHxcXl2bNnoaGhrq6uCIJIpdKXL1+OHDnS3Nz8yJEjTKZSP/VLly45OztX58MHAHUt5rKjqzr27lxrqnHl0KVVLssodOqyY6tsB3StLKvY7LHhxr/XbAZ0dRjnmPky/erRKzPWze45ojeCNvx1LeSjGwa0fneXIV/qGbE0a1hgNoH0O8axYjI4u143brm+WIADAJYRjNgG6no/9RxFhYofQvO4FMtBUVQmk2VlZb18+XLv3r0XLlwgEon6+vp2dna/zzRFKpUWFhYWFxejKMrhcE6dOjV+/PhVq1ZpamoOGTIEh8N16NDhxo0bhYWFyiiKVCq9fPnyrFmzFBVFQ4c9e7NXh56d6ly8cl067UNKVvCYRYGxQXaDugfuW2pl3+FMZNyuhRFEMtFloav98B4NKgqGQWkOYc9Mk5Tb6gBApEr7z8n9a8nHr9pHwRfgyR+JACBmSoTGLTgnmLgKuRbFObOWKxbgEBR02sHIrUBSKk5UxXdBLgF6PgBAFR3K9ZrbGhWNSW1RwTAsKyvr9u3bd+7cuXnz5tu3b3E43NChQ6dOnWptba2hoaGki1FLRx4Vv3Xr1vT0dLFYbGtrO3/+/MjIyKVLl86fP7+srGzcuHF4PJ7L5dazj6LIvXv3AgMDMzIyqlvINPLkYLdef/eRl3GUg2FY4ceC0oJSu0Hd+zr1L8ouJFFJoe7r3Va793Xu/5f7347O/YuyC5laLCaHVcdpPqOiCHc0wDDpIhMAiFTpgLk5o1d9+Nr0iJwjGhZzTAEgf0zRq6MpX3fwz8TdQ+xTK7mCMjwgwO0MDn4qRWkiLOKh7zoAgLf94Ny65rZGRWNSQ1Tev3+/du3aK1eu5Ofna2pqjh07dsuWLSEhIQ4ODooZR34HcnNzFyxYMGrUqJCQkNzc3IULF7q6uiYmJq5evTogIGDu3LkCgWDq1KlKhuw8ffp04sSJ6enp1S0UNcqiA8F2g7rhCZ/+CSRiyf6VMVeOXBbxhVR12qQlU3v93cd9wxw6ix4ZEM6v4PPLKvTMDRzGKus9LJPC0QDDxCNsqRjFEWQ9JxcM8cv5bRPu3tnHPuxrVFlMAAC6DvSeD2xlneZUqFChLDVE5e3btwcOHNDV1d29e/fAgQOpVGpFRYWa2u9VllxOTEyMgYHB3LlzNTQ0ioqKysvL161bV1hYSCQSd+zYIZVKjY2NlVEUDMMyMzPHjRunqCgkKnn2Ji/74T0xDMMwTK4QMqlsb/Duf7YcGePjbNja6PCG/Zvc14sEwv4TB01cPIXP4+/0204gEnwjA5RRFAwDcRVy0Nvoxm5tAEAQzHpksVNIJpHyO+6jyGTw5BQrZqapSIADALI6/B0GGsbNbZYKFb8iNUSFy+UOGTLk7t27a9euffz4cY8ePUxNTRsjLXFFRUVqaqqZmdlPq1hpaWnq6uo0Gu3atWuBgYFeXl6DBg3q1auXi4vLnDlzdu/ereQc5fXr135+/mmpn3y9CCTCON/xDmMdAeBhfCJDg2HRpTWComkvUm/8c9VnZ4Dj+AG84rKXd18wWOlsPc33rzONLU1mrJ3dxdGGocns1LuzMucVlOFOBHNv7uEAAI4osx5RPGVn+vcoSiqkykCmDvVVQf45kckgOYFxNJBdKjhPhWEaptDbu0Uqysc3T+lsHYamTnMb8o28h/dCEAK0am5DvhFRFT8lMcGq17DmNuRnp8absU2bNuHh4UePHp0wYcKdO3emT58+ceLE27dvFxQU/EBpkUqlmzZtmjFjhjzI4+ekS5cuL1++DA0NnTFjhqur64QJE4hEIh6Pl7sCK6koHz9+dHd3P3/+nEQqRoAlP9B12fSxPuOpDFp2+sdtc0Pfv86UxyEWZOVVllXaDe5eXlK+N3j3y7sv5myb//51ZoRfGADQ1Gm9R/ft3KeLkgtfFzfr3IzmSIQoipd1HVvosimTypQ2fNiXIQCBCD9NFvivIeU2PdbTJOc1DQU1hh70ng+Gds1t0zeBJ5JRnLIe5D8hLfcRkoMgCIn6k34E/1TUeDkiCMJisezs7ObOnZuQkBAfH29lZVVcXLxkyRJzc/PIyMiysrLvP+WZM2e2bduWmpoqEAi+f7Qfy8uXL+WOyxMmTODxeIsWLQoMDHR3d6dSqQUFBRkZGcbGxkoOVVpa2rdv3+vXr0ulUoAqDCpQRH2Mj7NLwCR5FuGs1++Lc4tQHI5fwc96k0lnMYgU4u1TN/7ZeuT5zadbb+wwtjQhU0mv7iR97VVc2KQTF2wg4OEBwNS2YsLWTKaeUqH+9WAIhkZg9J2DND3pD6lrHCxz31AQoJDRPv2XgHF3QFvmm1nbpI0aS7O5rfh2dEG3JT5C1RBIFHObPs1tRQugvi/utm3b7t69+82bN2FhYW3atFm3bt3s2bO/s57Ku3fvIiIi7Ox+rm9FDMNevnzZq1cvBwcHGxubVatWoSgaGhpqbGwcFhYWExNz6NCh4cOH29vbjxw5UpnRUlNTJ0yY8Pbt2+pGIgUZ5z98wkLX6hab/nZ//Nkjdvnu2d2nn4k6adbRvN0fHbYyNc7kAAAgAElEQVR4hFw/luAd4U+ikKr4VVlvs4yVTsECAMJK9MoOzmFfIwBAUKxN7zL3g+9orO+ao7RQZFJIua0W5WqGSREAoGnBkFUtdY6iQkULooFvNgRB9PX1Z8+ePXXq1OfPn1dWVuKVDuH+HAzDNm3aZG5ubm1tfe/evW8e54cjEAgiIiJYLNb+/fsfPHiwffv2zMzM4ODg6Ojo2NjYrVu3MpnMP//809XVVUtLq8HRCgoKvL29L12qURJqhMeocT7j1ZifPFhxeNwIz9HLRi8q+JD/l8coEpXsunRabkZOTtrHxHN3BeX85zeeJl64O3Odp5JXIZXAzb2acUsNMBkCgHUYVOKyJVOzJYeVfA8fX1EOeBl9TMYBIqNpoj3nQCulyjqrUKHiu8ApmaqdQCDo6+vLXZ6+OVRlz549R48eDQkJ4fF4p0+fdnZ2NjAwUObA/Pz8yMjI58+fnzlzJi4uLi4uLi0tzcrKKiYmRkNDQzE/PwBERUVpamrWCkiMjY3V1tZW9AsQCoX//PMPl8ulUCjFxcWxsbHr1q0zMzMrLS21tLQMCQkpLCyUZ/rq16+fvr6+q6srm/0pSUlycvLjx49r+YAlJiYmJSXJFUUxx3OPkb29d/hR6Z/yuNw/d6e8hCcVS8lqZDqLfin2AsdAm1dYaje4u6hKdDoy7srBS7mZOdNWziwrLMMTcLUKdsVtP67GUmOwa5SROrz69IlFnYTlmgCIcZfKyTvTdVoJL+w5w+Qwa5XtunzgooauJpn2KTMCn1d5K+6GJleTRPlUL6esoPThpfscQx3WU3X2eRYAVFoJnlsnvbz7QtdET/HCU5+lpD5L4ZrrK57ldeKrDylZtdL4P77yoDivmGOgrdh468T1yvJKLW6NBM9Xj1yWSqUaOjUSw5yNOkmikplaNf5xT0WcoKnTFO9GaS5+6YA7OS8NUZQ1eCVqYo9Y9AcUBw/OxNLZ2oor4xKR8MmlIwxNXSLl0y2qquS9vHGaqa2PJyrcjfyP7x5d19A1VtzYyEtPfv/yAZtrgijcjY9vn+WmvmRza0wx057cLMl9z9Ktsf7z6ta5ytJCpnaNX0HS1ROiKr66Vo0QwQdnYlEUR9eocYtuHdlOotHVWDU+dG4fj6Cpa1AZNX4U90/G0DU4ZFqNXDSPzh9Q0+DUuhvPLv+jzuESSJ8ykVeUFLy5d4mlY4gjfNoRKfqYlvH8LkvHsNbd+PD6saaBueJZ3r9ILHif0rbE2OQ2AECRKaT0h7eJV8ryP35+NwS8EnVOjcCvJxePyGRSBruGe8LdE1F4Aunzu0FhsGjq7Fo91ZiatXLbPDgTq8bU/PxuKP8YMDn6n9+Nb34M3iZeKS/K++bH4O6JKCKZqsxj8PD0XktDLTs7W2hMlBUVOfJy699wGgzDnjx5MnXq1ODgYAcHh9evX3+tqOzbty8oKKhTp07t27dv3769paWlnp4elUrV1dWtlTaGRCLp6OjUKiZGJBI5HA6R+Ok5QBCERCKJxeKgoKDFixe/efNmxIgRRkZGampqAwcO1NHRke8hdevWjcViMZlMNput+BrF4XAMBoPJ/JTJEcMwPp+/adOmM2fOfOpGwHUfZj9zvWetoltSiRSHxxm2NbYb2K3XKIeMl2mX9l3QMdGz7mfr6DxgwIRB/ScMnBQ0zbS9OZFMZGlrkKk1rpFAIrB1taoFQCJCnp9X3zentVTIRYGkZSKcuf+dQXsBggCBiNfQ1pBXh6wGTyQwOUzFEBlAECKFpK7JxOE/hdojKEKikhgajMrugoxlHzKWfSgYU4yiKEWNosaiKz4JKA5HU6cpzsMAAMWhNKYajVFjbxNHwDM0GFQ6tUYjEc/UYlHUajTiiXgWh0Wm1aizQCARNHTZJErtu6Gh858cYhjkviXvnGie9YyFAx0ihcK1RqyGgTw6B08g0lkcxdcBAEIgktRYHBxe4RYhCIFEpjE1UYX8EQiCkig0KkND8cWBojiyGp1CZ9W4GyiOrMagqNWQfBSHpzJYtV5kODyBxtQkUek1G4lqLE0SpcZ9wxOIdLY2kVzrFpHUtfQIZErNniSGpi6BSK7Zk0jX0MbXuHDAE4hqLK1adwNPJNFYmjgFqUAQlECmUtU1UFTx2UDJVDUKnVXrbpBojFpvcBSHo9CZZV0Z92bCvZmQ0l/eSKCpa9R1N9i1NsNxBCJdg6P4rv//NerUdTd0FeVQ3pOuqaOoCv9duAanrrvxFY9B3Xfjmx4D+d349sdA/i+uxGOQ8+axGYdqZ9u4olJ37q8fTmFhoYeHR2FhYXBwMA6Hu379+tq1azds2ODo6GhmZtbg4Y2U+6uysnLevHlJSUndu3e/ePGiurp6dHS0paUlAEgkkpiYmLVr1+7YsUPJwM+ysrJVq1ZFRESUl38qeNV7TN+Z62brGOs+u/5Ex1hXx1hXJpMl3Xp27VhCbnq2lj6n9+i+nfp0riyrjA6KSrxwd3zAxIGuQ2tpQP1IxfD4JGv/POPSbBIAGHSsnLX/nX67H+wEkfosBZNh5p0tfuywP5yCdNI+T+Oki0yZFCHRwW4qWE8ABIWqSt6Ti4e7/92CK3C9e3hNQ89YQ8+4uQ35RvLSX0tEAm5rpXzif0J+gUeoOXN//XCKiorevXuXnp7u5OQEAAKBoLy8fNGiRWlpaWvXrm0aG2ohlUqfPXuWlZUVExNjbm4+ZsyYCRMmTJ06NTw8vEuXLng8fuLEiXZ2dqamSu2Ty0t47dy5k8/nVzd27ms9L8yHqcVCEMSwjRFFjQIAKY/frJ+22rKrVee+NvfO3l7junzm+tn9xg+ctnIGiUKK8A0TVAhGzh6NV1pXUu6oHfA2Ls0mAoBOa8GELRk/XFEAQMtAG5rk++N7EFche91NXl5hyKQIjgAdx0LH0f/NUQhEspl1n2a27/vgGLdp0S6tDE1dmUzScL+fFQKJ0tIfoaahiUTFzMwsISGhepshPj7ew8Nj3759PXr0aBoDPicuLm7mzJnGxsZcLpdIJNrb21+4cGHo0KHu7u5RUVEdOnQgk8kdO3ZUZig+n79o0aLNmzdXtyAoYt6p1epTG6pXb+R7AzKZbJP7emtHG8/NXgQS0cDCcMeCbQwNdV5RGYOtPmu9J56Ir+RVKvn2lskg6yll+1gLXj4RAOiaYpfNGW16N0phYIbGT50aHsOgvAAf7myenMAEABQPln9CNzfA/V+acQQix+hnn2bVT8sNe5RDoas33OknBocntPRHqGloojxQ8lIi7P9Dp9NRFGUwGM0YUd+rV6/+/fsnJycfOnRIJpMBQOvWrY8fP06j0Tw8PEpKSpQcp6KiYtOmTTt37vzUhIBV9/YLdi2qtR8AAHxeZVpSavseHfFEwq2467Erol0CJzHY6msmLS8rLENQZPrKWS6BrgRSw9MUqQReX6NvG/OfomiaVE3emdZ+4A8IJGpxYBiU5RIOeBm9vqYOADgSdBoHDgs+KYoKFSqajOYJA9PX13dyclKynHsjoampGRISAgCLFi0iEAhTpkxBUbRDhw7btm27fPlyrX3+eoiKigoJCVEM5DRqa+wdvqBWfEllWUUVv4quwcAR8B9TP1w5HL9j/taZGzwdxji+e5aS+vxddtpHphYTQRElN1TSH6gd8jEuSCcDgJZJleuOtPYDePBbpJCujbgK+Xcp99EJNiZDcAToOBq6TgdcC47dVqGiBdM8otKxY8ewsLCmP2919kYAQBCEy+VGR0dPmjQpMDCQTCY7OTnhcDgrKysrKytlRpNIJGfOnPH19ZVPdOQYWhpvuR6hrll7pr/Na5NULPXc7DVg4qCjIQcRFF24L8h+eC8Mw8qKSvEEfC3/rnqvAiqKcJGupnkpVACgaYhHrXzf7jdWlKgpZolH/gs1b9UPus8CIrX+g1SoUNFY/EZp0PPy8j73H6NQKPv37x8+fHhwcPC///6rKA/1U1VVdejQoUmTJn06BAHTDmb+uxfVUpTykvL3bzLTnr2z6t5OjUmftGSakaUxQ4OBJxCy3rxPuv08ZnFkl342hm2UymCBYZD9irzO0VKuKBR1yd/BWXZji3+PMje1qSzB/btUX64oCArGf4CDn0pRVKhoTn5lUVFUiIqKitDQ0IcPH37ejUQirVmzZtCgQQkJCUqOLJVKT548GRgYqOg9zDXX99zs3dqmjWJPDMPun7+zemKwSCg2bGOMw+M0tDW8wv3MO1uscF6ywjlo44y17Xp0nLZ8Zo2okS+AYZCTTD7gZZz1nAYAZLpk3Lr3DjPzmyDN4Ivbz5NuPm3003wNIj5yIVT3SrgOACAotOoHA5YC+Qv+BHxeyYWdwU1q348m6WpcXvrr5rbi28lKfpz25GZzW/Ht/AKPUNPQMlPrKQGfz3dyclq6dKm1tbX8zxcvXth+IepHU1Nz/fr1oHT64atXr7q5uSkqCp6ID4hZbNW9PfLZCN2G2iccin90+UFq0ruOfTrjcDiLLq0XHwjOzcjJ/5Bn2NpIQ4et5D6KSIAc9DF6dUUdAEhq0hFLP/ScUtAE29E6UVpdvSYCBqVjy9/sSWv08ylHfJj22bV6UgkKAPrW0MsLqOwvdqaoqfeZML/pjGsE2vwxqOVmKbY6ATNC2mOYLKM/xLfMN/Mv8Ag1Db/sTKWiokIgEMyYMePKlSsymUyeC+BLq1sIgpDJ5FqR+XUikUguXbo0atQoRUXhGHBWnlzfzr6joqIIKgX57/MKPxYQScRlx1b3Ht03bvvxhMOXpVIpgiAkCsmorbFt/67ahjpKKkppDmHb3xZJF1gYhhBIssE+2X1n5eGJTRE7ggoRCp9CEVBw/K8pbd9oCPlowg7OsQAjuaLodoS+gUDXhnrWABEUJdNadulgAomM+47Me80LTgzUKgJNSCJ8V0La5uQXeISahl9WVDgczv79+y0tLX19fePj4+Wicv/+/cTExOLi4m/LIyCVSm/cuOHp6cnj8aobWdost7UeNv0+zYEwDMt6+z4yIHylS9DKCUv3Bu8qL+bN3uxlO7Bb9OKdJ3f8KxF/dQhYQTpx3xyjpIssAMCTZH8u+jDEL5tE+9mjERsDkQC5tUfz2CIDDEMAwNgeBq8AjRacUl2Fil+KlvrhowwcDickJMTf33/8+PEbNmxAUXTHjh2xsbFUKtXMzKx79+729vY9evRgMJQN63v69Ons2bPfvXtX3YKgiPcO/25D/1D8hBQLRdFLdpaXVIzyGpfy+O35mDMPLt1ff2GL22p3ApEQFbBDJBCN9hqnzCaKnPJC/BE/w8dxbABA8bIRSz4MXpDTNHOUn5B7h9hHAw2reDgA0GkHvb1BndvgQSpUqGgifmVRQRBEW1t727ZtVVVVfn5+eDx+8eLFXC739u3bjx8/PnToUE5OjpKVXaRS6dOnT0eOHJmVlVXdSNdgzN7s1XNkb8WegkoBr6is4EOBf8xiAwvDXn87dHaw3jB99epJwUGHV7hvmIPD41KevOEVldXKv/slBDz05Erug+NsAASHl/WYXOA4u4lWvX42JCLk2Tn1fXNMRHwcAGiYgIMfaJg0t1kqVKhQ4NcUFYFAcP/+/aSkJAsLix49euzatcvX13ffvn04HG7SpEmurq4CgSAtLY3NZmtqNlxKTyaT3b17183NrZaiTF423dGpf62e56NPJye+YmgwmFosAEAQpIujzbRVM8PmbXp0+UHvUQ5uq2eV5pcoryinV3Pjt+oAIIBg9hMLRgZ/+M7CwC0UqRienGJGzzCTKwrbDPoGgI5SAUUqVKhoOn7BPRWhULhjx44ZM2bs2bNn2rRp4eHhZDJ51apV06ZNCwsL27VrF4ZhFArFyspKR0epZErp6emBgYFv3rypbsERcGPnOw+eMrTWEhYCiGEbo7tnbn9Iycp7/19MDIIgDuP6MTkama/SMQzD4fFsvYYrfQGAgIdeCNWN36YDGAII1sct3zn0Peu7CwN/G5fg0nk43yynlvPmBj1uOZdfigMApgH0DQD9Ll9xeEVJwdFVsxrLuCYh8dSej29+Lq/ur+IW3GreR+g7qSgtbOmPUNPwC4rKrVu3duzYERkZee/ePRcXl4CAgG3btjEYjA0bNvTv33/BggWHDh1ScqNeXiJl3rx5t27dqj4ER8C5BE5yWehaq/4HACAoYtO/a2hCWGVZxeH1+0VVQvlRMqlMJpV+3r8eZDK4HKZ9ejVXxMcBglmPKB6zOqsZ5ygDYMBgGNwsp8ZkkPOGtMOlVVYSAcEL6DrQez5wvzKBuhpLa+yiiMYxsImwGz6Z27pTc1vx7fSAHs31CP0Q1JiaLf0Rahp+weWv9evXjxw50t7evqqqKjc3t2fPnkFBQaWlpe7u7mvXru3YsWPnzp2VKTWGYdjbt299fX3Pnj1b3UhTp43zHT9h0ZR6RjDv2Mo/Zsn2+ZtXOAcNmjKMxqBdO5ZAUaPa9LdVssSZSIDc2qt5aqW+VIwCQPsBpWNWZ6mx6/YZk4glyu/5tzhkMniVwNg5wZyXR0QA1NjQNwBMetTnPaxChYpm5Bd8GRUWFopEIplMFhISUlRUFB4efvjw4Y0bN167dq1169Y7d+5UXlHmzZsXHx9f3UggEQdNHvr33LH1j4CiqHU/W+9wv5UuS5/deNq2q5Wuie78CD9jS6X2lEUC5NIWnZMr9EUCHAC0H1TiGp6uZVJ3qfmywtKjoYfGB0yqVTD4x1I8pOyF/hsAEOo1acV7TAZvb9APehnx8ogAoMZRKUpLJcMeTocAAFQ0ZxZZFU3BLygqa9asyc3NTUxM3LBhw7lz5ywtLadOnbpr1y4Gg+Hq6qrkXKGqqsrb2/vixYuKjXaDu01bNYvyWUL7z8HhcZ36dIl8vHd29+nlxbyAmCUsbVaDRwGATAa39mqeXKEv34427lLhFpOqrvPFuJan1x6fijjR2qZtr7/7KDP+t1FlKqwyFTbe+F+i5CMx2s007x0FAMjq4OCnUpSWCo8LPJXn9+/Br7CnUlVV9ezZs0uXLt2+fbu0tHTAgAGTJk06cuSIvr5+z549ZTLZ/v37+/bte/r0aXt7e2UGzM3NnTVr1vnznzYVCSRCP5eBC2OXKioKv7zywaX7UQt37PDddjPuekVp7epYGtoaK06sQ1Bk8Ui/1GfvGtzIEVchN3ZrHfEzkitK615lkyPSGNr1RUr2HNnHvFOrG/9crSyrUObSWgoYBh9fkreOaiVXFAIF7KapFEWFihZAixcVHo8XFRU1depUT0/PKVOmeHt7JycnAwCNRissLDx48OCePXvCwsJGjRql5IBFRUXLly+PjY2tbsET8Q5O/T1C51Hpn3baqyoF/247FuK2Jict+/2bzNCZ66KXRBZmF9YazbS9mcfGuWKheKd/GK+ovgpaUgnc3qd5yMeoqhwPAEZdKpxDMo1t+PW/RlEcOs7HJfn+y4zkDCUvsEWQ85q8f55x+gM6ABCo8Mds6DhaVXRLhYoWQMsWFQzDTp8+vWXLlkWLFiUkJKxZs+bkyZMzZ84UCAReXl4GBgbu7u4+Pj4+Pj5Dhw5VZkB5MuPo6GjFRpsBXWet92RqMRUbX91/eT76TEDMYt+owICYxWYdzJ/deCIRi2tNR1AUtezWbsWJdTgCPvN15pfOK5PC3YOa/wYZyBXFxLbc58zrLymKsEq4Zc7Gl3eey1OZWXVvZ9axVdz248pc4Ddz499r149dadRTVFOQTto/zzj5qjoA4MnQez50Ggt4Zaum1Q2vMHeX1/AfY18zcf3A5ozn95rbim/n9d1LT+OPNbcV3w6vKG+Xd8t+hJqGlr2nIhQK4+LiXFxchg8fLhQKnz9/bmBgsGXLlidPnlhaWj548ODBgwccDsfMzEyZ9MOVlZU7d+4MCQkRif7bjkZQpLVN2wW7FrI4NXZEMBn2PjnTwMLQsls7DMPith8vzitaGLv0+vGrrTpbdOlro9gZQRBtQ+018m3KusAweHFJ/YifIS+PCIAZdq6cGpWmrltj1Svvfe6FPWeHuf1FppLvnbvz8OL9hMPxHXt1Gjvf2bCticO4fps81r999NrCus2XzvKdNOqejSLlhfhDPoYv45kAgCNBl/HQZhCg353HkqGpM33zqR9gX/PR28WruU34Ltp0H9DcJnwXDLb29E0t+xFqGlr2TEUmkxUXF7NYLADYunXr/fv39+zZo62t7eXllZqaSiQS7e3tW7VqpYyi8Hi8ZcuWBQYGflIUBLEb1G3ZsVUa2hrV3fjl/Nsnb4iEIhSPlhWVikTiE2HHX9x9ERCzRNdE7+2j1/fP3/2qS8AweH5OPXa2idzBiWNeNW7de/32glrdinOKrh65vNxpyXbvzTIM23R1+/SVMzEZFjR60cYZa8sKS7lm+jsDwkVVTeqd9cMpek+MdjN9dEKe5QysJ4DNJCA07BihQoWKn4WWPVPB4/GtWrWKi4vLzc2Nj48PCwvr2LFjQUGBSCRSLBrfICKRKDw8fPv27WLxp3h1qz/au4fM5RhoK/Z8eTcpzHuzb1SgYWujkvySZaMX8kp487b5mHe2EFQIUByKfuVW8pvr9FhPk8IMMgCw9IVz/3nLbSeoFkGRUPT48oNuQ+0tbNrMj/D36uORnfqxn8sgTa7WULe/eo9x/JiSFbfj3/2rYgTlAqlU+uz6Y9uB3b7KgJ8HXj7+2EKDJ6dYAAAo2E4Gu6nfu+qlQoWKJqblzVQwDCsuLs7IyMjMzOTz+SNGjHj37t26deuWL1/etWtXmUz27NkzBEE0NDQaHgsAACQSyZ49e9asWaOoQxxD7TlbvI3aGle7IGMYlvEq7dX9FybtTK0dbS27t+s+xP75jaetOlromXL55fwXd56/TnzVdcgfyl9L5lPqwflGhRkkAEzDQDhtV6pBB4HitOr2yRtrXFdcPXYFh8O9fvBKx1hPTV1t95KdRTmFCIIwNBhtu1oFxCwOubTV/q+eRDIp4cgVkbBFTlZEfOT0Ku69g5qYDEEJ0H4kWE9SKYoKFS2PFjZTwTDs0qVLISEhqampFRUVtra2s2bN8vf3X7Fixfr165OTk/l8/uHDh6dPn25qaqrMgEKhMDo62tfXl8/nVzda/dF+Xphvq84WNc8NsStiHv2PvfMOqKn/4/jn3H1v97b3HhqSpIw0iEhCMrJ69AhFKAoZRdlkVEb29uSxZW+hULaMiGhv7brznN8f19Ov51Zc1K3bc15/8fU953y+X5973ue7Pp8bKbZD7QGAQqX4rPClseh3/r65eNh8JQ2lvM95owI8TXt0FrMtGY9ljszWz3zOBAA5de6ETZnmAypF6vQZas/ZyLHub/Ph2fuBEwc7jnSqKKnYNjdq4ZCgoB0hnXt3IRAICILodzFcfDj80aWk/cv25HzINuxqJKYNYiLzkq5wRw4Aao3ZX4eWt+zNAaCqhHg6TCdhj5owRUpnN7D1BWornubEkTTKH0DnCQBAmS58cWhra3BaE2JERERb2/BjioqKjhw5Mn/+/JycHB8fn+7duy9ZsmTAgAF37969ePHiqFGjxo4d++nTp8TExKqqKn9//3HjxjGZzB/elsvl7tq1Kzw8vGHSLV0zvYCYIPPeovFvEQTRNNL6/PrTmwepNgN7KqorURm0rvbdTGxMFVQVdc30hkwZbjvUXpyjkQDw+Qlj72SjrBdMACDTBBOjvvQYVUZu9GFOopA7WZmUFX7dPGP914Kvjh79lDSVjbub3DuT8PzOM10zPRKFVFFazpJnIQiiqK507dBls17mWp20xbFBfFROKRrPMVC8Jo/wkGLPry1789py4rkI7Vs71AFDAMBkEDgGAlOskJs4UkOnW9B/A+g/BAIf0gf9uD5Oa5D77okOC3o1k1W9pZCm6S8ul/v48WMlJaXt27c7OTmNHj366tWrampqK1ascHBwOHbsWEpKSnx8vJeXl7y8/A/vhqLoyZMnw8LCvn79/1tSXlXBb/2srg7dmrzEuLtp8K5Fyloqwc4BH1+mAwCVTrUe0MMzaLzHzNHdHK1ojGYTEh+M2Psi4ZnwzwUfqPt9jXLfygAAmSqYeSzdcXIphd7s0UhVHVWHEX1Pbj4WOW0NhmImNmY7UvZzOdylIxf5WEyMDd4i3MecfDmpqrSileK1HIbDB+BAi9+Wz0WubFK/FftNUYydYfDyVlGUiqLczX+07m+ptbm6K+Ljk4S2tuLXOQfnWsOFJEYHcCHJIE0jFTqdHhYWpqioOGnSJOGGLjKZrKure/z4cX19/S5dfiK3Boqi165dCwgIKC0trS9U1VVbfDi895A+9esoKIqmpbyNmb1x29zohxeTdEx1DboYWjv3fPvo9d0Tt3Q7G6jqqIoZ98XKyVpdXwMASjMpxxfqvUuQBUAYCrwxq7JtJ35tcsssn8cvzCrI/ZhNoVEsHbuTaeRrBy8XZReY9jRnybOs+lvXVNRoGGjO3BQoI8sEgKqyKgMLo16utkRiC2eSZ6XIDLji1B2613Spa8GRCrcOuRmrFr9CR5hqXq8P9A0CGbESzfw0NBnZPqP8WuXWkqJTDydFTf22tuIXUXsDQ5LMukP3UkNpHal0ABfCRyqiODs7m5ubJycnX7x4UViCIIixsbGhoeGLFz+RZ0IgEPz9999Tp07Ny8urL9Q20Zm3a5GN87+OmLy8+3zNpOU6JrpBO0J4XN6GqWseXkrUMNRccjhcw0hra+Cm14kvf6oJZbnk/X4GT04rAoYAYMOX5PadUtxcGsek8/dX/xGxfGzYpunrP736ODZoQkBM0ONryXuX7OCyubqmeoFbg0P2hapofQvR19Wh25Apw8gU6Th3zqtDrkZpnFmqw+cSAEDTCpzmgbxOW5uFg4Pze0iTqJibm+/du9fU1NTf3z8pKUlYWFhYWFRUZGNjI+ZNMAy7du3a/Pnz8/Pz6wsVNZRmRc3t4fKv1MLsWvap6L8tHCynrp7h4NFXy1CrMLsgZkhLd8YAACAASURBVNam1MSXqrpqAdFBnaxM5FXFChMppDyfvHeK4evr8gAIADZyRfbguQU0Ftpk5dqq2u1B0frmBt7hUz+9SI+cujr/S17/8QP91s16eDEpdEQIu5ZNppAbBr1HEETMYVObI+DD7V1qF1ZrCaOcafeAkVtBUR8P7YWDI/VIk6ggCKKrq3vt2jVLS0tvb+81a9YcP3586dKlxsbGrq6u4twBw7CUlJSFCxc2VBSmPMtnhV/vIX1EzkiWFX4tzSs17m6KIEjCydtvHr1ZfznKtKfZKq+Ie6fvvEt+M2/XQh1TPTGNrywinQrVeXdbDgChMgUjl+d4LM0j/qMIHDanturb9jMURQuzChJO3jKxNp2xMWDI5KEbrsfIKrCWjV7y4UmavYfj9MhZJXnFOenZzT6sfYMKIOmwyj/5x0DbGgYtBQoDAFcUHBzpR5pERYiqquqBAwfs7OwiIiI2b948evTozZs30+k/3nOFYdjVq1d9fHxev35dX6ispRKwJcjNZ1jDb/zy4rI3D18rqCqY9uyMIFCQmX9+xxnvZVO6OnQb9IerrCJr96LYjNefBAJUzJFBbTnh+EKdh3HKAj6BQMIGTC8YNLugYYXTMSdObD5WVVYFAJWlFbsXxZ7fdVZZW1W46q5ppBW4dZ6CqsLy8UtTLj90nuCy6tz6Tt2MxeyxdgUqgJvb1Y6H6FYVkwFAxQT6BoGcZlubhYOD00JIn6gAgLq6+tq1a4cMGfLlyxc5OTldXV1xXu6PHj2aM2eOMIaxEFklWd91M50nDCIQ/9UPZ7edipm1AUXRyRHTBv859GXCczqT3meYPQBwajlWTjbrr0SNnjOOShfrbF5dJeGgv8HDoyp8DgEAug//OmxJnozit8TAKIqWF5drGGgSiQThXJaMLLOnS+8Pj9O+vMkoyS0GAARBDLoahewLVdNV+2vt4fzPeVpGLbxpWDJgKDw+pXguQqe6lAwA8rowZCWodgZEKt0QBwenCaTy14wgiLa29l9//WVtbR0SEnLmzBlhvN7v8O7du3nz5qWnp9eXUOhUz6DxA8YNJJJET4A6jOyXl5F79eAlOSU5BotRnFvE5fDqqmpz0rMTTtwy69lZ21iHKccUR8k4NYQLa7WenFYq42/hkx/0HFM6+0Q6s4Gi3Dh6NdBhevcBNn+ETn794OVGv7VcDmfwn27hJ1Z/Tv10eMX+yq+Vwiar62usu7x58vJpmkaSznYkkBXE6R07oneUq8L7ce3meXND9u8FejVlJACQ0wa3taBkJKF1FDxKcdvCZcApjev7NE7W/sQqZPsCj1IsJsgPM0e1B1JTUwcNGlRQUCBSXl5ePm/evKqqqkOHDn1nBiwrK2vq1Kk3b96sL2HIykxcOMkzeAKFRqkvrKuu+1pYqmmohSBI3PojiefuLjkcrtVJ+3XSq8ipq5U0lfk8vqK6UkBMUP2Gq++DonBhjeblDZrsShKJgvbxKhmzKlte8//v5eqK6o2+a0vzSqITYtk1dQmnbu9dstPO3dFnua+ypvKtY9cPLd/Xxd5y6srpyprK4nZW+wSDdwmyRwL0c98wAEBBD/oFg74dPkbBwZEcKWd22GnC7Jn+rfoUaTqnMn/+fJFyKpVqb2/ft29fJSWl5sYNGRkZkyZNSkhI+P9VdOqUFb5j5o4nU/+/+5bL5sYGx5yOOcHn8fXNDYy7mz669IBTwza3tVDWUjHrZU4gEKycurv7j1LRFOtsCiqAC6u1LkVqcapIANBlUPnEqEx5TZ7wUlSAVpSW05mM7LTM5EsPaqpqbsZdc/ToZzOw57ltp7LSvtgNd9DrbKBlrH1yU9zHFx8s7C2Zcj+OEdBueXubtdvbuOgTDQBocjBkFejYtEBAexwcHPHBz6n8GARBlJWVDQwMmgxuj2FYRkbGjBkzEhMT6wuJZKK7/8jhM0aSKP+a9SKRSRUlFR9ffNi9cPtCt+CSvGK3qcMv7b9Qml9KppAt7Cz/CJ3sOnmYmo46QviBomAY8LlwcZ3mmXAdTjUREKyTXWXAqXRF7W+KgqHYuR2n/awn11bWTFg4ybKfVdzawyQyWdNIu7eb3eyYuc9vPw1xC+ayObZudivPrU9//j7l6iOpGFM2BsPgQyLz0CzDslwKAFBZMHwDaFsDQcrCzuHg4IiFdIvK9ykqKlqwYEHDWS+EgLhOHuq9dGrDeCp8Hl/AFxCIhFlRcwy7GjlPcNEx0V3qsfDRxSQqnbptbtTPJikR8ODGFvUrmzQBACFiZn0r/eM+UmX+v+pTXlJ+98RtXTM9pjyLU8smUygWDpZvHqbeOnYdFaC2Q+1nR8/NSstcP2V1zofszr26xNzd6TJpiLScQREh6yX9xCLdgvc0AGCpwcAw0Ore1jbh4OC0Gh1WVIqKinx9fePj4+s/8AlEwug546avn8WUZ3LqOMJCHpd3aMW+PUt2FGUXqmirTlzknfnu88jZngsPhCEEpCS3+MH5xJf3nv/Uo29uVzu/Rru2jAQARr2q/tjyRUnnX7JEZ9J1THXSn73/a+2hHfO3DpzoEno0ot+YAcfWH/lr7SEMxfp5DgiLW571PvPC7nNcNlfDQFPMnWbtjeLPlH1TjNKTWAAIEMA+AIz64usoODgdmY45B1FdXR0YGHjx4sV6RUEQxNVn2OTwqTJyzLrq2s0zIg26Go6eM644u6i6vObinnPJlx8EbAnu6dI75eqjOyduTls9w8TGzMGj362/r1vYdRX/0S8vy51YpCfgEgBAUZc94+hHZQOuyBiDSqf6rpv16dXHwyv3D/fzsBnUi0KjTArzQfmCv9YcIpFJY+dN7OZoteL0WgFf0HArgXRRlkve9UenzOcyAAggMCgUTF3wdRQcnA5OB/xorKysXLlyZcMxCgDYjXCcssK3vLj88fVkVICqaKn8tfrQQte52+ZG+a3z356028DCcJVX+La50foWhneO33z/5B2VTrV3d1wWt5LOZIjzXAEPnl+QPzzbQMAlAIIZ9KyKSH6tYvhNUa4evPTxxQdhTQRB6Ey6jBxTw0Dz+e2nqYkvMQyj0qnT1viPW+B1fseZc7GnBXyBrqmeQRfDdjLr9fh6csrPZEouzyMfDdT7+JAFgFBkwDEALDzaUlGqy4pPrJ7RZo9vCVLOH8x9/xMx7tobGc8T3yVdaWsrfp3q8hJpdyHJIN1bihtTU1OzdOnSXbt2NUy6ZefuODtqLkuRFTE2lEKlRJxaw2NzA/vOyHj1ydVn6Nzt86l0Wl11bWriK6GcFGUXahvrrL20WeFnQns9OqZ4eqmOcIOThlndlN0ZJo7VzVXm8/iJ5+7qmOqejjnx/M7TKSunDxg3kEgi8ri80zEnbh27Fnk1WkFV3OSV7Y2aMmJckN7DOGUBj0CkQs8/ofsEoMm2tVk4OP9tJLOluENNf3G53ICAgCNHjvD5/PrCnoN7L9izWF5VISstM+PVJ8u+VhiK5XzMoTMZIwM8b/99g0gmBW1fQGcyernaWjp2+/Tq48GIvRWlFT8V7vf1ddkDMwzZlUQAhCojmBiV2alP04pSXV51/9xdfXODfmMGAMDMTYFbAjbFBsdgGOY8fhCJTBoV4Ok4qp+sktxv9kZbUfOVuNXT+P1dOVSAAID1BOjxJ5CbTTSDg4PToeg4olJdXb1hw4a4uLj/KwoC3fp2nx45W05FHgC0jXUGerlcPXhp/qAAACQ6IRYwTFlLJW7dYQTAd40/S1GWyqB16dN1/ZUoLptDY4iVwxEVQNpd1g4vY3YlCQBT1mdP3f/JvH9V45o8Lu/pjZSNfuvIFHJ1edWkpVOG+Y5gyrMWHlwaPXPD/rBdAOA8fhCFRmlvUVg0t6maBBgCQJFn6dsT6d+pWZ5H/itIL+2OHIYhRAp0dgO7mfg6Cg5YnoAB6wEAPgyEy+vb2hqc1qSDiAqfz9+0aVNMTAyHw6kvtHS0CogJMuxqJFyWIBAJU1ZOf/Mg9XVSqvuMkQgBIRJJY4MnyKvKH115EEGQ4TNGZrz8aD/CkSnPElNRAODLM8bfC/SqS0gAmLZFrVfMlyYVBcOwFwlPdy+OnbjI29q5x9ltp3Yu2FqSWzxx4SR5VYXp62YxmIzjG472HmwrlEBphFuHHF+k8/ScolBRLDzAzh9XFByc/xYdQVRQFA0PD4+Ojm64jtLZtktY3AplTeWGC92oQMBSlPOYNfr+mQQqg+a3biaJTHL9cyhLnhU7b0vylYcq2qq9XG3Ff3T+e+p+X6PsVwwARFaVO3ZdlqljE4oCAOxa9r3TCV3tu3nMHMXl8Di17N5udlcPXuLzeL5rZ8rIM72XTRk4yZUpL63H5rlsZP80w+QTSiifAACd3cDOH6istjYLBwdHski9qAgEgkOHDm3cuJHL/f9ZEB1T3eCdISpa/891jmGYgC8gU8ir4yMBQE5Z7tj6ozQm/Y/F3mQqxcGjn6yyfNLZu2OCxiuoibU8jmFQnEFZP9C8LIcKAEQyOnZdVrehFc3Vr62sKSsq0zTUQgiER5cfpD1+u/3Bnrun72yesb6ypILL5QXFhhhbmfx6R7QyXOBi0PSeDgwDbi3hxCKdh3EqAIAgYDYEnJe0rzEKhqKcuhqajBSrHI/DJhBJjeOfSgs84KGAAkjliSvoEC4kGaTVQYUIBIKTJ0+uXLmyoaLomukFbAk26vr/dCMCvuDJzZTnd56WFXw17GrUZ5jDH6E+dCbj/M6zRCJhbPBEOpPezdGqm6OVmM/FMMh+RT8SoC8MPSKrxh22KNfRp+Q7l7x5kGrQxVBWUbaytCI+9vT4BX/IyDE79zK3sLMsLfjara8VgyXWxuW24jE8RgE1BfPG/8SrQy5FaiQeUgEAAhk69YcBi9uXogBAXXXFvWNbXKeHt7Uhv07ag6uq+mZqBmZtbcgvkgqpNVCjBo5tbcgv0gFcSDJIt6jEx8eHhIRkZ/8/B6JWJ+2FB8LMepnXR+hCUfTI6gP3Tt+xcrJhKcqe3nLi/tm7QbELRs8ZR2cyjkUeKcktnrV5Dk1G3EUUAKgpJcUF6ac/kAUMYcjzR4Tm9vMr+v4lfUf37+1mRyQRHl1+wK3jWDpaAUDBl3xtYx2vJX8qa6m089zy9mAPAEVQKlKOonBlk8b1GA12FQkADB3BMRDIP9GXEoIhqyDtr4Ou/T3a2oTfwhqsAeBDW5vxy3QAF5IMUiwq8fHxo0ePbliioKa46tx6/S6GDQtTE1/+vf5oyIHQAeMGAcDY4Amh7gs2z4jcmrRr+HQPBIEz207yODzxRYVTQ9joZvr58bdR8OCgfOdZheKEHhGGWkH5WEFmQUFmPlOBdSB872DvIWp66k0GxGz/YCicXqJzcf23/C6ymjAwFOjSus8ABwenBZDKd5lAILhy5UpgYGDDQiVN5dkxQbpmoknj3yW/oTJoTmMGCP+qoq3qvzGwKLswfscZBEGG+XnEPtrHUhTrYB6GQVEGdfs4Y6GiUJl8j/Bs99DcJhWFy+HeP5vArmWLlPdw6WXRp+sqr/ApXScadjVy8nSWUkXhsZGb29Ru7lADAIQAWt1hwiFcUXBw/utI5UglKSlp/vz5WVlZ9SV0Jn3GhtkOI/oSiKJz+RQqhcvmFGYVahhoAgCCIBYOlpaOVjeOXBk5awyCIHSxxyiVhaRTodqvr8sBAI3FHzI/321BXnOLB1/efF7rvWLensXO4wc1LKcz6YHb5n18kU4kEU1sTGUVpfWQY9IR5QvrtNiVJAQBfTuwnwUMaY0AgIOD02JIn6gkJSWNGDGivLy8voTOpK88F9ndyVok1bwQq/42AHBk9cGg2AXCdQsKlSIjJ4OhPxefBuXDoZkGz+IVMRQhEDHnmYVuC/LItGZvot/FQFFdKT72dG/XPg03CiMIoqShrKQhTZkc832Li/4oBQCU/K29D/5SOjLbgM9FAEBWC/rNA3mdtrQQp53z2gPeDwEAEEjfKwfn55Cm/2EURZOSksaOHdtQUYgEFTvnkOovLklH6hUF5fA/ZH66Vl1VamTqJsfq1cVyXsLfuymkQ5a9RhMIsqUlL5MvvbbuPff+QbHf7Bg8Pq348tK3T3FFHY6KASf5uNL3L7Lvv+Hyibkn1rwxNnfjQyYB5AkgrdNDAigEwIigDgAF7+nXotX5XAIAAALGzpD3AvLad6hDDDg8eE0Bm7Y25Nfhw5cWdyECCVABNLNXvIVBoQQDHhE0JPGwVqADuFDJW23Q+MGWot9HmgJK3rt3z9/f/86dOw1spsvDaiZMI8D/N49z4W0ZzEaARgA5KvRjwlQAqITIathHBDUiqPPhMw0Gy8NqpKU1FQM+B+4TQIUM5ggQMMBKYDwCJEXYxYUnJNAngX7LPlFicOElAEoBaU2whUJlDfzNAr+2NuTXYUNCi7sQkcYVcEiASWJVjwdpGNThLtSGUJiZc9cmzprt1apPkZqRCoZh06ZNe/DgQQNFISnAVhmYSIB/LYqUwXwymMnCUgIwMEDZcE8A+UyYRYehbLiDQTUTAqjQq8UVBYW6OrhYCStRqKaDuywEk0CXBbNKYTIP0mjg1LKPkzAU6NbWJvwWBJCV6tcBALSGC5EAQyU0UAEySOsJGyEdwIUwFBPwea39FKkRlZqauvv379f/lUol2Vou0JJzBihsWI3NLbuQlNTdfKISq6qg8OPrzJUIPQlBBHWC/n27bWIwRv5TsQTge2cVv92NTXz3QrWmmgoACILpGpZp61c2l98kM+/hi4ywvpYBbLjzMXN/6dejsoTpJvoDGZVmVRUrnGyjidK5y0uIQIDkZbEyP32bAJRTgM5dgSSt+cNwvkFnUDlsQNEf18TpAGTm5mKAi8o/kKATwLe0vmQycdq0XhEraIqKp0SqcTh8K0uKrN5qBVXWo89priMNxo0bTSITg4PO+0dEDxz0E3FQqiooB7ZYv0jWAAACER3s8SF8y201zdrGNfl89O7dTw8fftF/Lx8dUykv75CWZnL2TOq1q3GFRbuVtGj5ZQWzV+ja2ev/YuPbGhSFh7d1VwY7Cf+qZwRrdoDDoO9eg4OD085YtuwaBq2+R1NqRIUIGvWi8sek7mHLBikoNLEVmEolbYsdFbnuTlFhVeyOUfb2BkpKjMpKNoIgBMJPpFDk85CjO6z2bOzJ5xERBHPzTAvbdLdJRQGAzMyyoLnxHDZ/ope1vDydQEDMzdVMTVUmeds8f567Z9cjAR/dtPlur946JFI7i14iHh/fKa2a5/ThtQoAaGjDkg1g59zWNuHg4LRLJCoqbDY7OTn5zp07DAajZ8+effr0oVKpYqbLpTNqkVoCgYBNndYrdsfo71zl7Gzs7GyMYVhtLY9IRCoq2L7TThjoK3TvriWmnQIBcuWM8cZQBxQlAGCWPfMXrEpS06xprr6RkVLkhmFjPY8kJ2dlZZXp6ysCAJFI0NVV0NVVcHfvcuzY8yWLLj9/ntuzp66YNrQfMjPkJrmMKcpjAQCZDPNWwGAPaB85jnFwcNodkpvlLy0tnTp16rhx41JSUu7duzdp0qR58+Z9/fpVzMstunN9p7nMmm0XGTlMHB2qqeGNG3tk4oS/3IbsLSyo3rh5uIKiWBEbuRzCmcPmCyYPESpKD/vcDQeu6ho1EX5YIEALC6vevy8qL68bPNj02N9eX758DVtyJSenvGE1BEHGjrWSl6c/TslufJP2DIbBl49y21b1Kspj8uCTnEp6xBYYM1kqFaWmpubixYttbcVv8eLFC3EyardbsrKy0tO/l+GtnVNbWyvtLiQZJDdSuXLlyqlTp2JjY4cPH44gSHx8fFhY2JgxY/r37y/O5RRqzYbNbhwOn8kSK3Q2gQA+Pj1fvMizdzAYNszc1FTlx9cA8PlIwlWD6HB7DpsMADb2uat3XTc2b0L5KirqDux/fPNmellZna6uvK+f7aBBpqvXCBYtvDRr5pmo6BGGhv8/xfL+fTGbzSeTpWzuqyCHuXqe08d3ChhgygABABP5UqkoOG3PLYDVAFyACQCz2toYnNZEciOVlJQUdXX1yZMnq6qqqqioDBs2TEFB4fXr1+LfgcmkKijQ1629nZ5e/MPKDAZl1Oiu4REuc+c6mpiIe8jxSaLWUv9BedksADCxKF6x7VaTisLjCTZsSNi6NXHYcHPfab3T3hW5D9t/5fI7d/cuh49MSEj4NGvmmZyc/w9ucnPLjYyVRo3uKqYZ7QF2HXGu19BbFzp9SVeiAuIPRt7FxoR7bW3WryIjIzNs2LC2tuK3sLKyUldXb2srfpV3oHtH1zjJGO62tSW/CoPBkHYXkgwSEhUMw8aPH79z507iP7G5srOzy8vLdXTEDe7B5vCLi6sj1yds3ZJ49WqasDAnp7yuTnSHXG5uhbAQQRASiUAkEhAEyc+v5HD4DauhKFZYUMXjCf75Kzy+r+nv6ZqfX4OBQEOnctH6u+ZWxQgCbDa/uLgabRDWJT+/4vDBJ6vXDPHzs508pefFy1P79zcKDjqfmPjZ2FjlToI/gYDk/jMJVl5W16un7sWLU5WUZOrvUFJSU1EhGmuyqKi6slK0MD+/srqaI1KYnV1eW8sVKWyyN/LyKthsvkhhQX4llytoWMLno/W9gWGQn82cMWpE8n01PlZMpqLTuiFT/0muVFdXV1JS0vDMLJ/Pz87OLi0VjYpfUVFRVlYmUvj169eGARH+aXhRRYXoBGNBQUFVlWgazdzc3Joa0cWtnJychkk/62vW1dWJFObn5zdMOA0AKIrm5+c3zMcjbFFhYSGf/69+Y7PZxcXF6L+339bU1Ij0BgBUVVU1ntctKytr3BslJSVN9kZlZWVjy6urq0UKs7Ozm+yNxg3Py8tjsxu7VhO9UVBQwOP9y4u4XG5RUZFA8C+HEbpB494Q3w2a7A3x3aDJ3hDfDZrsDXHcoLy83N/f38TExNTU1NjYWE9Pz8DAwNjY2NDQ0MTE5OLFi/fv3+/Ro8eRI0cau0FsbKyurm6nTp06d+7cuXNnCwuLoUOHXrx4MScn53fcQPijOHnypKmpaf0ThW6QlZX1pgHFxT/+HP99JCQqCILY2dkNGTIEADgczqVLlwIDAy0tLW1sxI15UFnJXrP61qFDj5eGD/L3txcWPn2SXVYm6kbPnuU0fl+/fJkn8mrm89HXb/LZbB4AoCgk3dQLmer6tQR48FbfOH/dnqtOrl+ENauq2B/eF/P5///9pL4qQAgIiUQQvk20tOR27Botw6Rs3ZKY9q7QykrryNGJNj20hZWzssoys8pE1oHS04tzc0V/P2lphfn5om708mVeUZGoGz1+nFVaKtrwJnvjxfPcqirR3khNzRfRJA6HX98b+dnM1fOckm7qYVBLYqT5zuMFeUP9iZSysrL09PSGb5Nbt26FhIQ8efJE5Cl5eXlfvnwRKczIyMjJyREpTEtLy83NFSl88+ZN4yWEZ8+elZSIHjB68uRJ43fZs2fPGr+hXr58KfKb5PP5qampIi8jDofz9u1bkRduVVXV+/fvRV4xJSUlIr0BAIWFhRkZGSKPzsrKahgCVUh6enqTvZGfn9/Y8qIi0QAbjx8/brI3Gr+vnz9/3vjVnJqa2rg33rx5I/LCra2tTUtLE1EaoRs07o1Pnz6JPKU5N2iyN8R3gyZ7Q3w3aLI3xHEDDodjaWm5YMGCRYsWTZkyhcfjGRgYBAQETJ48edGiRebm5mw2W6h5jd2gsrKypqbGy8srNDR0yZIlc+bMYbFY/v7+e/bsaZgUSoj4biD8UdTU1OTk5NS7otANkpOTzzUgLS0NWh9Jh2nJzc0NCws7f/78gAEDIiMj9fT0xAn8npqaOm6cW1HR19AwZ/+ZdhQKqa6Ol5qaT0CQLhbqdPq39FZ8voBIJHC5AuEApeEdOBw+mUxsuKsYwzAeT0AiEQkEJPWJ6tw/hma8V8QAU9cq23zoRp8BOfUqgKIYn4+SyYR6YXj6NHv4sP1/H5/k6GhQXxgdfe/mjfTYHaN1df8VnUn4+S+yoMLjCYQDqYaFXK6AQBAt5HD4jZvDZvPJ5CbaKE7Dv98bGIYEThh27ayxgE8kkVGfOfygcLLMQQQCAADAEwTHBCiKkkik+oZfv37dy8vryJEjrq6uDZ/C5/MxDCOT/5V8jMfjIQhC+ndOXC6XSyAQxCnkcDgkEon471jUP1VIJpMbuhyGYVwut3Ehj8cjk8kNPwVQFOXz+SKFAoFob3yn4QDwy73RZHPYbDaZTP61hjfXGzwej0QiNSwUv+HCQpE2fuuNXeR6F4IT0tQb33GD9+/fjxw50snJaevWrfW9cePGDW9v72XLlvn6+oq4wbp16/7+++8rV65oaGgI719UVOTk5OTq6rpmzRo6/V9nJLhcLoIghYWFKIpqa2sLDWvYnOLiYgzDVFRUuFwuiUQ6cuTIrFmzMjMzlZWV62vyeLyGQ8yVK1eqq6vPnTsXWhPJrakIBIKEhITBgwenpaXt3r375MmTBgYGYqYSYbPZ+fkVnbuoef/Zg0Qi3r6dbtdn6zC3fQOdd7kP2/fsWQ6GYRXldTOmn9oQeYdCIRIbhSumUkkiL1YEQSgUEoIgOZ9ZIVNdM94rASBqGjXzVqb0dsptOK4gEBAKhYiiWG5uRVZWWV0dz8xMTV9fceeOhwUF3753UBSrrGArKTFkZERPmZPJxMZL9GQyUUQ8AIBCaaKQSiU1bg6N1kRhkzUbN/w7vVFVQQuZ4nr5pJmATyQQwWMiYe4yigzzXzWJRKLIz6xnz542NjZxcXEiHygkEknkrQEAZDKZ1CjLOoVCEbOQSqUSG2U3+KlCEZdDEKTJQgqFIjK4JBAIjQsb9wY03/Df6Y0mm0Oj0X654U0WChsuUih+w4WFIk+R9t5oWTcgEon1zUEQREZGRkFBgc1mixjJ4/GSkpIsLS1tbW379OnTpUuX69ev83g8KpU6ePBgLy+vP//8s1u3bl26dBk6dGhxx5LceQAAIABJREFUcXH95TweLzIy0sDAAEVRIpEo7BMrK6tdu3bRaDQKRRIxMCQnKg8fPhw3bpyLi8vJkydHjRr1U9fSaLQuFupVFexTp17dv5cx1efEgAGdDhwcFx0zoqKSszDkUk0NV4BiSkoyHI5A/KEXhsHTJI2ZY93TXqkCgKJKTdjmhJGT3hKJorfg89FDh56M9Tzs4X5gecT1ujpuaKhzSnLWdL9T8edeP3+eu2vnw7//fuHu3qXJI5kAkJDw6csXcfdPtwmlRfSNYfZnDlsAAJkCnpMhbBMw/wnU+RJepkBKSlVKvXKUlpYK/ywnJ+fl5XXv3r0XL9pvpOLKysrdu3e3tRW/RUJCQuN5JCkiDdKe/3N+WRppERficrn5+fm5ubk5OTlpaWlHjhz5/Plz9+7dRYTzxYsX06dPd3NzO3369KlTpwYPHuzv7//06VMA4HA4t27dMjQ0PHnyZGRk5Lt37yIjI+svJJPJNjY2XC738uXLwpJr166x2WwbG5vG4tpKSGhLMZ/PP378OIvF8vb2FggE9dOpioqKLBbr+9cKUVCgT5nSfevWRFlZWo+eOsvCXeTkaCiKsWSp8+ddeP4818HBYOGiATRaEx/mzfHhtdLahU6vn6oDgAyLs3TzHTfPD40VBQAePvyyPPz66DGWTCZl/76U9A/FMVs9oqLdF4Zcmul/Rk6OVl5et2jxANchZs09XV9fQV6+/aVu/wd2HfHYbsvThywAgEiEMd4wbyUoNAjtrwZqx+H49ofboy5Hubm5JSUlLVmyZOjQoX5+fgoKCoMHDz569GhISMi1a9faZyJLKpUq/gJe+0RfX19eXlpTJwCAMijzWj/wVOvRIi706dOnSZMmCSWEy+Xm5eW5ubkNGTJEZPr01q1bNBotIiJC+Hrs0qXLjRs3EhMTe/bsCQDW1tYzZsxQU1OzsrI6fvx4SkpKw0d0795dV1d3//79wmzr+/bt09fX79ZNcgFhJSQqFRUVWVlZOTk5tra2Dcujo6NnzJghzh0QQMaO6/bkSfbuXY9itnrIydEAgEBAbGy09fUVkxK/ODoaKop3vPGbSeXUdQv7PXugBQAMJnf+qsRh4983VhQMwwQC9P79z33s9DZHuQOAiYnKdL9TwXPPb4sd+frtgoSEjyXFNf36Gampf08dhcfs2yd8HnJst+XmZfYYRgAARxdYsAaU/n2wRx3UvcE7riZu9uzZe/fuZTAYDAZjxYoV0dHR4eHh48ePnzp16vjx4xMSEvr37y9mlARJ0jFEpa1N+C2UQZoS0zWmRVxIWVn5jz/+YDKZAMBgMCwtLS0tLUXGEFwuNyMjo0ePHvUf3LKysmZmZpmZmcK1KD09PUVFRQCQkZFhsVgiuxsUFRVdXFw2b96clZWFomhCQsLChQsl+TkiIVFhMBjz58/38fERKbe0tPyZm1AWhPRHUczV1VRYgmFYTk5F2ddaaxtxQ7AI+fJRfsXc/glXDAGATBbMWvJovO8rEklUUVAUS0zMuHb1feL9z10tvyUX+mOSDZVGCltyZf68C6tWDxkwwPinHt3eqKki74+xjg7/pih9nGDlNlFFgc4Af4ICKNzoesPvsd/cuXMjIyPj4+OTk5Pj4uK2bdu2d+9eDw8PDQ2Nffv29e7dW0ZGpsln4fx36QzwJwAA9GxjQ9oWFRWVyZMnq6h87yw2iqJsNlsoPPUIV+OFn2sEAuH78wFjx47dtGnTjRs36urqMAwbM2ZMixgvJhISFTqd7ujo+Pv30dNT2BzlTiIR7t/LIJEJdbW81atude6samenL/5NMj4oLJ/T/95VQwCgUPhzwh/4zHlKowsa10xK+jzV54SKKrOwoOr9++LxE7o7OBgAwKhRXSlk4oL5F2b6nzl7brLUHZWvh11HPBxrtSuyF4oSAMBxEGzYDxrajeo5AzgDAMiC7KbcTYsXL/bz8wsPD/fx8bG1tU1LS7t9+/axY8cqKyuTkpJevnxpZ2cn6ZbgtHP+cSGcH0KhUDQ0NBpm+uByua9evXJ2dm688t8kZmZmffr0uXr1ak1NTb9+/YyNJfrhKzVRiuuh0cg5OeXek45lZZUjCAwd1jly4zAmU6zYLQBQXUneGOogVBQSWbBg7b3Jgc8bj1GEnDzxqret3tG/Jn76VOLmus9rwl9xx7zsHQyIRMIIDwuWLI1OJ0mvogDA7UuGMRH2HDYJAGzsYN3uphTl32hpae3evdvT0zM4OJhEInl7ewuH8IGBgRcuXAgODr5161bv3r0ltiqIg9MO+fLlS8OlDjqdbm5uLua1FAqlb9++Bw4c2LNnj3Bf8uLFi0kkkqOjo5gLlkQiMSAgYPz48SiKXrp0ScLLnNInKgCgpSV38/aMp0+zlZVl7Oz0aTSx1BsAivIZUeF2V06bAACFyp+xMHmCb2qTilJby1286PLt2+kRES4AYGSkfO2G7xSf47Nmnd24afjAgcYAMGBAp5Zrk6ThcgiXT5ksmurK4ZAAwLoPhEeDtn7TlQUCwaNHj3bv3v3x48dx48ZNmDDh9OnTwcHBq1atQhDEy8tLeLJhxIgR1dXVsbGxwcHB+AwYToeHQqEYGBioqak1LJSRkenUqVN8fHx8fHx9YadOnU6cOKGkpKSvry/O91b//v2DgoI2bdq0f/9+LpfL5XKDg4OFi+26uroNn6ilpSU8niknJ2diYlJ/cycnJw0NDQUFhd69e7dIY8VHKkUFQRAjIyUjI6UfV21AXhZrxdz+184aAyAIgvnNT/Gd90SG1fR2FAIBIZIInz9/PXnylfsICwqFqK+vuHuPZ1jolbmB5yI3DnNz6/xTTz937rWZmaqZmepPXdVKcDmEUwctosLthYpi2QMi94Jx8x9SeXl5s2bNkpOTs7Ky2rhxY2pqalRU1KpVq5hMZlhYWHFxcWBgoHALvKamZlFRkchB6/ZAWVnZli1bwsPD29qQX+fcuXNmZmZmZtKalPfZs2c1NTUtMg3eJjR2IQ0NjY0bN4osfnTt2nXHjh0iPwEqlUqlUt3d3fv27SsrK/vDZzEYjAULFri4uBQUFGAYpqenZ25uLhSMiIgIOp1eP/iYO3euMAJCv379Dh06VL+2TyQS1dTURo8eTaPRfq/dP41UisovUF1Fjl3b6+b5TkJF+TPg6azQ5CbXUYRQqaSwsIGVFexjcc+3brkfFNyXQCAI86b4+Z4SCSMmDk5ORjRae+ntO5cNosLtSwoZAGBqAZF7odN3JfLGjRudOnXauHGjioqKg4PD/PnzKyoqDh8+HBoaWltbGx0dPWjQIOFn1L59+3r16kWlijsbKTFYLJavr29bW/FbODk5Sf4F0YKYmZmJBBCTLhq7EI1G69xZ9JfDYrEsLCyavIOamprIsOY7kEikJjebiSyQ1O8JVFRUFG4JE/Lu3buysrK+fftKfiK6vbzmWhUOm3hst+WJ/V0FAgKRJBjt/WZO+MMmFeXr19rHKVkpKdmqqsxBLiZR0SNIJELU5nsMBmXK1F5UKklXV+HCxSm/sI7STg6poCi8e6kSEeBcUigDAHpGsHQTmFk2G9C+oqIiJCSktra2d+/eenp6CIKMHTu2trZ24cKF48ePj42NjY6O9vb2rt8Fv27dOgKB0A7ffSQSSVNTs62t+C2k+pAKADAYP7Hjvx0iLS6UkZEREhLy6NEjT09PCwsLye/v7/iiUllO2bGu16Gt1jwuCQAGuX8MWpEkryga9xcAioqq58w59z6tuFMnpYyMr7t3PVoaPjAqeoSaGisq6h6bzZsd4NBkzBVpAcPg/nW9xb6DC3JlAUDHAFbHgsOg76VI4XA4GIYdO3ZMRkamurqaxWIRicTJkyczmcxly5ZFRERERkb26NGjvr629o8W+nFwcFoTZWVlLy8vLy+vfv36icQTkwwdXFTYtcQ9G3vui+ohVBRHl8+rdtxUUhUNhS1k9aqbae+KDh0er6OjkJVV5jHiwPu04qFDzReEOJHIhDVrbvfqpWvvYCDZFrQYGAapT9TWhvTLz5EFAA1tiNwLffr/IOmWqqpqZGQki8U6fPhwjx49pk2bBgBEItHT01NXVzcjI6NNvBYHB6c5ZGVlR44c2YYGdGRR4fOQkwe7HNxqzeOSiETUyS1jw4ErCkpNjFEAoLaWez7+jd8M265dNYqLa+YEnnNyMho12nKkx8G4Y15Lljj362covYoCAB/fKS72c3mfqgoA6lqwdhfYOjWtKAKBoLCwMDk5+e3btzY2Nra2titDVgqyBPNnz2cymSNHjhSG3uvTp0+fPn0k3QwcKaUSQBj6jgHQLnar4LQWHVZUBAI4ecAiKtyhupIKAPYDM5duvtOcogghkQhFRdWfPpUumH9RR0d+7Vq3L5lldxM+JSV+HuLWuW9fI0nZ3vKkvVKe7+P69oUaADBlISgCHAZBc5vXExISVqxYQaVSKRTK7t27ra2t1+qvDTsVJgMyPn/45EXm+fr6ihmxDQfnG4ehYeh7nA5Me4z99/tgKJw6YLFmgVNZCQMAOpmXRGy5pWskmqunIXQ62Xmg8fFjLyb/+beGBitmi4e6hiyNRkIQpEUyzhw8+PjFC9EERJLh7QuVxX4ub56pA4CsPGw+BKO9obmTuQKBYMmSJU5OTgcOHDhw4MCOHTtSU1OnH5p+CS5ZgdVa3bVbtmx59OiRhNPw/D7FxcViRplrtxw8eLA9x4H+IYmQeAWutLUVv05JSYm0u5Bk6IAjFQyDO1f0N4Q6CscoekZlR2+cVNMUzboKAPn5lVFR9758Llu4qL+NjfbqNUPOnknNzirfHDVCUZHB4wn27kmmUon9nFpgjDJ5ctvEPCouYKwI6v8iWRMASGSYvxIGe3yv/tOnT2tqajw9PbW0tADAzc1NVlZ2YN+BQ2DIIlgEPcBpiZOxsXE7DBn5fVRUVHbu3NnWVvwWkydPbmsTfgsHcGhrE34LZWVlaXchydDRRioYCveu6i0PdC4tkgHATCyK1+65pqrRhKJUlNdN9zt180Z6bk75yBEH9u55xGRSz8b76OkpjB55cJJXnPvw/Skp2adO/9k475a0kJPJmj95SHKCLgDIMGHWYhjz5w8u4fF4XC63YUJZBwcHn4k+j+FxERQBgJWVFX5aHgcHpzk61EgFwyA+zixySd/8bFkAUNeuCtt8p6dDbpNf1Q8efikrqzt4cJyiEiMm+v6a1beqa7izZ9sfODTuzu1PGRmldg76ffsadu4s7mGl9kbmJ7mIAOd71wwAgEKFeStg3FSQ+dFSSLdu3fh8/uXLly0sLOqPm/Tp1Ocv+IsNornucXBwcEToUKJy+6LhirkDykoZAKCkWnP42ikjs6+Nl6PZbN6Tx9mJ9z937are1VIDQZBl4S58Phq25GpVFWfJEucpU5VQFCUQCAgCUjfPI6QwTyZitvNdoaJQYOVW8PQBohj/20wmc+bMmcuXL1dWVp45cyYAsNnsnZd32oKtOqi3ttk4ODjSTscRleS72usW9S0rZQBgBiZla/dcMzZvIn3v16+1AbPP3k34VFHJtrbWzsws09NTYLGoq1a78niCbVuTSCRCUFBf8YNUtkOqKilbVvS5e80AwxAqDaYFgftEsRRFiI+PT2ZmZmho6NmzZ62tra9fv87MYc6EmRSQ1mlAHBwcidFB1lRSn6gtm+X88a0yACir1YZuTLCxy2uy5v37GXl5lTt2jt602b0gvzI8/HppaS0AyMhQN2wcPn9+PwEf5fFQiVrfolRVUJYH9j++ryuGIQDgEwC+wcD4mUUQJSWllStX7tq1y9jYODc3d8yYMQenHOwEUhySGQcHR2J0hJHKm+cqM8cMz8mUAwA6g7vp8CX7AdnERgHt2Wz+8ohrCAEZNsx86DBzDMPUVJlzAuNHjzp09txkRUUGnU6eG9SXxxPQ6S0/TImOvmdrq2drq9fid25I+VfquoV9zxy2ECrKBF8IigBa8yGXEhMTc3NzBw4cqKT0r5DP8vLynp6ew4cPFwgENBqNtJN0Bs4IQOAJnq1qf+tRUFDg5+d3/vz5tjbk14mOjra1tRVJyC1FXIfrFVAhvS5UWFjo6+sr1S4kGRCpOHCQmpoaGjrp3Pk/RMoxDNLfKi2ZPuhpkhYAyMpzov+62N/tS5M3efOmYMzowxmfShcu6h8e4UIkEjAMi/vrWXDQhR49tffs9dTQkJXSFRQhHDZx6yrbnet6CwQEIhE8JsLyrcCSa7pyaWlpUFDQhQsXyGTyuHHjtm7dKlljcXBwJM2yZcsUFRXnzp3bqk+R7umv3EzW2pC+zx5oASAKSnUL1txzGJjVXOUuXdSP/jWhTx+9s2dfP3qYCQAIgkz0st6337OosPr8+TcoKgX62hzsOuL+GOv90TYCAQEAXEfBnHBgNZO4oaamZtWqVVlZWcePH7927dry5cvT09NfvXpVW1srUaNxcHA6HFIsKvk5zMAJw+5eNcAwBACbG/Fg9J9vyZTvLYfY2Ojs2eepqyvv73/61as8AEAQZOgw86NxE0eMsCAQpHWYwuMSNi+137Lcrq6GAgAD3CAiBnQNAZppUGZmZlJS0rp161xcXLS0tDZt2uTh4TFmzJioqCiJ2o2Dg9PhkEpRwTAoLaaFTBn8/JEWhhJIZMG8VYnes1/QGT/OnWVsrLJt+0hZFm3ggF0pKVkoiiEIYmqqKr1zXzwu4dA2qyM7urPryAgC9gNgbzyoavwg/DCHw3n06NG5c+dcXFy2bt06fPhwT0/PTZs2lZWVScpwHBycDohUikpJIWPNPKdHCboAICvPnrkoeXrIY/EvNzBQOnRkgk0P7YDZZ9+/L5KKVaXmEPCR4/sstq3qw64lIwjY9oPlW3+8e9jAwMDT0zMmJmb+/PnW1tb37t1bt27dhAkTtLS0CgsLJWI4Dg5Ox0T6dn+VlVKXzhx466IRn0ckEtEJfi+nBD0lk39uE7CRkdLefWMvXHjDYrW7HIXig6KwP9p6+1rbijI6AJh3g4iYZhMD8/n8J0+enD59uqKiwtXV1c/Pb/DgwUQisVOnTiwWi8vl3rlzR1ZW1shIioMx4+DgtDlSJiq1NST/0e7Jd79tzB3jkxqy5j7hn0yM1dUcOp1MJIo1/NLSkpsxw66V7GzM8ojr/ZyMnFoiNqUQDIWzh82jIuyF6ygmXeDEXWA2szIPAKdOnZo6daqqqqpAINi/f39AQMCqVaswDIuKiiKTyR8+fIiPjz98+DC5mfDFhw8fFggEPj4+LWW/hMnNzfXw8Hj8+CdGtO2NiIgIJycnJyentjbkFzl37lxZWRnuQh0eaRKV6kpydITd0wfaAECj80Z5v1mx/Wa9orDZ/KWhVzMySqNiRhgYKLa3BZLwCJeWveGNeKPN4fZ1NRQEAfNusOHA9xQlIyMjMDBw4cKFwcHBNBrtzz//vHLlyvTp0+Xk5MrLy+/cucNgMGJiYlxcmjXS29u7Ze2XMFpaWtL+OoiIiGhrE34LD4/vxsdu93QAF5IMUiMqGIbsi7I5sc+SzyMSSYLhE97NW5lIbJAtnkhEuHzBxYvvysvZm6OGW9totzddaUHuXdNbt6hfXpYcABiawrIo6Gz5vfoXLlygUCgzZ86k0+m7d+/OzMyMiYm5fv26oqLiunXrioqKaDSayPlHHBwcnF9AahbqSz6P27HOtqqSCgA2drkL195XUP5X0FwSiaCvpzBwkHF+fuXs2Wc/fChu+K8Yhj1OySopqZao0a3DrQuGEYEDvqTLAwBDBrb8Bb36NpvGUQiHwwEALpe7a9euRYsWLV++3NnZ+fbt23FxcWQyWUtL6weKchhAH0AfYFbLNQPnPwXuQv8ZpEZU2JUWHDaJQER7OGTvPBOvpFonMg5BEMTAUKmyknPl6jQUxSb9cSz9Q/Hbt4VPn2SjKJqdXb5gwcU/vOIEAimO64Wi8PCO9spgp88flBBSjZYetu88WFg3rSgoipaVlX39+pXP5w8YMKC6unrSpEm7d+8+d+6cs7MzgiB0Op3H44n14EqATIBMgOIf18XBaQLchf4zSM30F4FcRiCi/YdkLN9+q7lU84aGitlZZXLytNgdo4PmxnuMOKCuLmvTU7urpaaaGisw0FFRkS7mMn775M1z1RVzB2R+VAAAw06sJeuhV9+ma1ZXV589e/bChQs8Hs/Hx8fNzc3Pzy86Otrd3b1bt248Hu/atWuJiYkrV66UaANwcHA6OlIjKiqdDo4eY+Lp81pTp6q5OoaGSkQi4fnzPGdn4/CIQS4D95SU1PrP7EMmExAEGeHRRXrPzANA6lPVOROGfU5XAEBIZFi0Fvq6AqmZ/8BTp06tXr3a29ubxWKpqakRicTFixeTSKTdu3c7ODjIy8tnZ2d7e3uPGzdOso3AwcHp4EiNqFCopYvW3/9+HXl5up6ewqNHmYaGihHh13v31mXIUBYvumzWWdXCQqNtxyi/E6UYRSH9rVLghGFf0hUBgCUHu8+A3YBm6wsEgqioqFWrVnl6egoEgszMzMjISAzD/P39BwwYEBcXR6fTV69e7ejoSGpOlBqBRyluc/AoxW0LHqVYTKRGVMSku7XWrRvp794WKioy9uwd+7W0duWKG/fvf7aw0Ghbw+bObWaiSgxyM2XXzHcSznopKkPw8u8pCgCUlZXV1NRoampmZmZevnx57969BAKhtrb22bNnsbGxAwcO/AUbRsGoXzO+naCuri7tr4PWDi7b2rhAC++qlzBqamrS7kKSoaOJSv/+Rnt2Pxo0yGRTlLuqKlNFRWZTlLuCAr2t7fp1cjNZoTMGPbilh2EIiQwzQmD0nz+4RE5OjsViBQUFIQhSXFw8c+ZMd3f37Ozs4ODgz58/KysrS8RwHByc/yIdTVQ8Rnbds2+so6OBrq4CACAIoq7Oamujfp3yr9SZY9xfPfk2zJq9BKYvaLZyUVFRfHy8mZmZo6Pjzp07N2zYoK6uvnTpUjU1NQCoq6sjEok0mhSHpcHBwWn/dDRRAQAvL+u2NqFl+PJRLnJR39fP1ABAVh7+mA5zljVdk81m79+/f/Xq1To6OhQK5dy5c7179z516hSKoi9evCgvL8/Pzw8JCXF1dcVDe+Hg4LQqHVBUOgbsOuKa+U53LhuiKIHOAJ9AmL6g2ROOt2/f3rZt28aNG+3t7QkEAgBcvXrVzMxMRkYmMDCwtra2rKzM09MzKCiIwWg+t/B3cAY4AAAA+r/YHJz/OrgL/WfARaU9wq4l+o7wSLqlL0w17+UHsxYDhdp0ZR6Pd/fu3UGDBo0fP14gEJw8eXLOnDlVVVXq6uqXLl06efLkixcvDA0NDQ0NmwsW+WM6AzQT/BgHRyxwF/rPIMUnAaWLgwcfv3iR+8NqGAbFBYxFvoMTbxpgGEKlwZRACN0IVFqzSbeIRKKcnFxCQsLRo0cnTpy4ePFiFxeXQ4cOaWtrR0ZGamhoDBkyxNTU9NcVBQAArl+/fuXKld+5Q9tSXFw8Y8aMtrbitzh48OCLFy/a2opfJzExUapdqKSkRNpdSDLgIxUJMXlyT3GqcTmEPZt6XDtrDABUGriPhznLgED83iUEAmH48OEPHz6MiIjo2rXrhg0bRo0ahWHYrVu3vn792iLGA8B3AhhLBSoqKjt37mxrK36LyZMnt7UJv4WDg0Nbm/BbKCsrS7sLSQZcVNoRqAAiFzse223FriMDwPDxsGgdyCk2XTk3N3f//v2JiYkmJib+/v579+6trq6Wl5dXUFAgEAhPnz59+PDhsmXNrOzj4ODgtA64qLQLMAxqa8gxy233R/cEAAIBrPvAym3AkGm6fklJiYeHR0VFhYGBwdmzZy9fvnzo0CF7e/ubN28eO3ZMR0cnLi7O3d19yJAhEm0GDg7Ofx58TaVdUFdL2hXZM26XFQCQyDB4JOw736yiYBg2bdo0NTW1K1euXL16devWrRiGvXv3rqCggMlk0mi0ly9f+vv7L168WEammVvg4ODgtA74SKVdcGS71cEt1jVVVAQB56GwdBPINzPrBQCVlZWXLl3avn27kZHR69ev165dO23aNAsLi/Hjx586dWrTpk21tbXy8vJE4neXYnBwcHBaAXykIiHYbB6fL2hcLuAj8XFm6xb2q6qgAYCRGazdDVrfDTtJIpEwDCsqKnr9+rWHh4e9vX1ISAiKoo8fP05NTaXT6UpKSi2uKFwuV5jpS0pBUbSqqtn41lIBm83m8/ltbcWvw+PxcBf6L4CLioS4evX9x4+lIoVcDuHcX52XzhwIgAACvR3h4CVQUmn6DhiGlZSU1NTUMBiMSZMm7dmzx8/Pb9SoUevXryeRSBwOB0GQ1orC8g4ez36cMisFElrl9hKgoqJi8+bNbW3Fb3H16tWPHz+2tRW/yjtInZeKu9B/AXz6S0J4eFg0Lrx2ttPGUIeqCioA9LSD8BjQMWj68qKioqioqIcPHyopKfn5+a1evdrd3f3t27ezZ89GECQ9PX3NmjV9+vTp1q1bq1h/C+z32AMAVAI4tcoTWhsFBYXw8PC2tuK38PDwaGsTfoNbYL3VGgB3oY4PPlJpM1KfqC6dOagglwWAaGjD0s3QuRlFqKysDA0NPXjwYPfu3evq6srLyzU1NXfu3NmpU6dp06bp6+v37t27oqLi6NGj+Mo8Dg5O24KPVNoAPg95nKg1Y9SIynI6AGjrw5qd0K1Xs/VfvnyZmJh46dIla2trDMOEhVpaWvHx8RcuXPj48WOXLl1GjRolJycnGftxcHBwmgMXFUmDoZByX3vpzIFCRTE0gdU7fpB0682bN3p6etra2gCAIAgAVFdXz5o1a968eXjcCBwcnHYFPv0laT6nKyyZ7vL5gyIAKKnAgtVg2+8Hl6iqqr5//768vLy+hE6nZ2VlPX78uH7ggoODg9MewEVFQhQUVFZWclOfqI53Gpf5UQHDEFl5CN0IbmOaDu1VXV2dlJR0/Pjxly/Rdr9QAAAgAElEQVRfmpubM5nMlStXlpSUCFUEwzDhZJfEROUrfC0F0d1rUgSXy/3w4UNbW/FbFBQUVFdXt7UVv04FVEi1C/F4PGl3IcmAT39JiHfviqtKzfauH1RcwAQALV0I3QhDRjddOS8vLywsLCkpSV5evra29vTp0yEhIfPnz58yZcrUqVO1tbVv3LhRXV1dnz1FAmRDNgqoEihJ5nEtDpvNTkhIMDExaWtDfp20tDR9fX0mk9nWhvwi+ZBfB3XS60J1dXXS7kKSARcVCaGr0WPeoiFvnqsBgJomLIuGwR5NR7MXCARRUVHXr18/f/68qqpqdXW1gYGBrq6uhoZGYGDglClTZGRkuFzuvn37unfvLjH7u0HrbFaWFLKysn5+fm1txW/h5OTU1ib8FmZg1tYm/BYdwIUkAy4qrQ6GQXUlefa4YWmv1ACATAGfQHAZ0Wx+lJKSkkePHgUHB1tbW/9zB+zBgwccDuf169fPnj0rKChwcnKS6BcrFUC4s+yX8kbi4OAu9N+hDUSlrq4uJyfH0NDwPxKcKjeTFTZzkFBRZOXBazpMDmg2MTD8s0zy5csXDMOEe71QFE1OTt6zZ4+rq2uPHj0kZXgDfAF82+CxOB0H3IX+M7TBQv29e/emTp36H4miU1zA2BjmmHhDDwBkmDBnKcxbAfTvfqwpKSlZWFgcOXIkOTlZWEIkEk1NTcvLy+vq6iRgMw4ODs4vI2lRycjIiIyMvH//vkDQRHTFjsfCaYPj/zIX8IkkMkwLhkkzgUxpumZubm5sbOzx48eJROLChQvZbPb06dOfP3+OYRifz09NTTUyMpLeRVocHJz/CJKb/qqtrR05cuTHjx/LysqQ5tYTOhAFOcw1C/rduWQEAGQKWPRKG+GlTKUpN66JYdjp06fXr19PJBKzs7OvX7++cuXKu3fvBgYGjho1auDA/7V35oFQbu8DP7MbDIaxL9kpe2gRiXZtqntblVRol3vbtLhabZWoJEWltG+uUtkqElEqKlH2fWcss8/7++P9fedqqFQYo/fzF+c973uec+aZ95lzznOeZxKNRsvNzT1+/PiAd+I/ysrKIAgaNuyb8ZMHMTQa7cWLF0K91/3x40cKhUKh9KBCQkF1dTWTyURUaMgzcEYFj8fv37+fw+FcuXIlPDx8aNuV+lrRwJ3WsVeHAwCwOLBuO7Cwp4tJ9By3PCsry9vbe8OGDbNmzXry5ImbmxuDwQgLC4uOjn7y5Mnr168pFIqbm9uYMWMGthNfwGKxuFyuAAX4RbhcrlAf8gBDIvQ9k8kUtBQ/DwRBwq5CA8PALX9hsdhRo0aNHTt22LBhP3G6oqKyNS+vlq/wdNjzoiL+41Rnz2SUljbzFV6MellTQ+1awmCwr1173dzc2bWwob791s23VCq9a2FlZWts7HsG44vv88e82vhHH9nsL96zWZllSUkFLCb6tL9lzOURAAAMBuiOTDWyTh0/wVRBQYFXMy4uLjMzE/47KCho2LBhbm5uL1++jImJ0dLSSklJmTJlCoVCcXFxMTMzW7hwoY2NDR7/38LZyZMnP336xNfHsLCwoqIivsJz585VVlbyFUZHR9fX13ctoVKp165da27+Ytzq6+vv3LnT0dEBANDS0tLR0QEAFBUVxcXF8b3d3r59++jRI75WMjMznzx5wleYlJSUnp7OV3jnzh3eaPCAD37yFZ45cyYvL4+vMCwsrPtonDlzprS0lPevmJjYzJkzo6KiampqulZjMBg9jsbNmzep1C8UprKyMjY2li8jSF5eXo+jkZSUxCdPampqamoqX2FcXFyPo/Hq1Su+wqioKCwW21WFAAAnT57scTR6rwbdR+PbasADVoPuo/ENNVBTU4NVCACQlJTU42j0Xg3evXvHV9jjl4JPDWCioqJ6+aXoqgaioqIzZ86E1aDH0fhpNfjal6JHNeje8a99KYqKikJCQlZ0ITY2FvQ/GB8fnwFopivp6emPHz/+66+/iERiL2+pq6t7/PiOy0pzIhHXtZxAwCgqSoiIfFGIJ2AUFEgEwheTMDweIydHwuP/8zdDoQCBgKVQxLDYLoVoFFEUR6GIYTD/mT00GiUmhpeWFkWj/5tdoTFokgRBSorYdcqFwaCJIqQbEeNOHhrD5aIBANPmgt2HsWrqZAkJia7y4HA4GRkZeI8kKiqKyWQuXrw4OTn54sWLly5d0tfXDwsLe/ToUVZW1uTJkzU1NfnCDxMIBEVFRb4BhAv5Uqrg8Xh5efmuBgkulJOTw+H+GzcUCkUkEikUChb737ih0WhRUVFpaemufnpoNFpcXJxMJn/ZcYykpKSUlFTXVjAYjJSUVPeOS0tLk0gkPnlkZWX5doxgIXvZcQUFhR4LCQRC92d2HQ0UCkUgELqPhoiICIVC4eu4mJiYtLR0159EGAyGRCJ1Hw0JCQm++J5YLJZM7kENKBRK99GgUCjdR0NeXl5U9AsfDwKBoKSk9CtqICsr2300fkgN+EZDQkKi92rwjS9FVyF7VAMFBYXuo/E13fiuGoCvfCm+oQa9+VL0Xg16/FL0Xg2+9jaQkJDQ0tIy+h+VlZXKysr9veaBGvjgUUeOHNmzZ09FRYW09NdT5n5Jbm7url3L7v7r1K+C/TptVHz0KeMje2zYLAwKBRz+ALsCv5PGEQCQkpLy7NmzadOmubu7r1692s3NraSkREdHx9XV1dDQcOXKlb23vggICAhfw9vbW1paevPmzf3aCnL4sc9gMtGXw4xPHhrDZmEAADP+AIdOA0ny92+0trYeNWrUxYsXqVSqi4sLCoVKSUkZNmzY0aNHMRgM3+8pBAQEhMEMElCyb2Ay0VfPGAXvHddOFQEAjJkAtvn2yqIAANBotIiICJFIbGxsvHnz5rNnz44fP+7p6UkkEgeLRTkBAAoAFAALBC0JgpCCqNBvA2JU+gAGHXM+eOSBv+xonTgAgJE58AkGw7S+qJORkVFRUfGNh0yZMmXZsmXbtm1zcXEZN26cu7t7v8r8o+SBvPfgvaCl+Hna29uvXLkiaCl+ie+q0CCnEBQiKvQ7IIDlLwMDAycnJ76tM+GFxUJfO2t04uBYFhMLABhnDw6EAs1ukUwVFBTExcWbmpoyMzPJZLKJiQnfVqqcnJyPj8/y5csxGIyGhkbXDcPBABmQISDEuVtwOJywx5eFVUjQUvw8kkBSVJgjfw0BFRoYBGBUpk2bNm3atIFvtz+AIJCerBq8b2xbKwGggJUd8I8Aquo91FRRUbl58+b27dsbGhq4XO748eMvXbpEoVC6uotISkoOZODhH0IBKHy/0iCGQCCYm5sLWopfQl1dXdAi/BIUIKzHNmGGgAoNDMjy18/DYaOeJ6ntcJ3aVC8GANA3BFv2AZWv+HplZ2f7+/vPnz8/ISEhMDAwNzd34cKFdDodSd2IgIAwlECMyk/C5YIHt3S2uEyrLpcAACgPA/tOgJFW/x/QHoKgwsLCrvWvX79ubGy8Z8+e0aNHi4mJqamp7dq168WLF2VlZQKRHwEBAaE/QIzKzwBB4FWacoDX+JoKEgBASQ2cvQtG2fyXIiU/P3/JkiU7d+7kTUSKiooUFRVJJFJSUpKfn9/evXvt7OxWr179/PlzQfUCAQEBoc9BjMoPA0EgJ0t+p/vk8mIpAFAq6uBQGNA3/iLplpaWlpOTU2ho6F9//dXY2AhBkJmZWXp6+smTJ1evXr179+5Jkyah0Wh5efmWlhbBdQUBYbAAQRCdTm9tbeWLX06n03+TNBlDBsSo/DCZKSoeS2d8zqMAACSkwHZfYDOZP+kWDodbu3ZtaGjogwcPfHx82traxMTEXr16tW3btg0bNixevBiDwWRmZjY0NAjL7msWyHoBXghaip+npaXl6NGjgpbil3j48OHnz58FLcXPkwtyv6ZCTCbz9u3bHh4ebm5uAQEBlZWVvCn+rVu3vLy8BlDMr9La2irsKjQwICfqf4z3r2V9NtmXfpYGAEjJgNBrYMwE0GMGy9bW1qKiIgkJifDw8Obm5iNHjpDJ5B07doSGhjIYDBQKFRwcPGPGDFtb24Huw0+wHAyfORwCkPB6hIqLiy9atEjQUvwSY8aM4XNDFyaWA62ZWhzA6VGFHj9+vGrVKgqFoqKi4uvrm5eXFx4eDnc2Jyfn3r17J06cGGiBuyEmJibsKjQwIEblByjKJ/tts/2YIwcAkFMEh8LAWLseEgNDEFRaWrpq1arm5uaZM2fq6enFx8d7enoeO3ZMW1vb29v74sWLBALB09Pz77//Fo7zOhJAXOKrJyRSU1O/EZJdRERk7Nix/SPWD4DFYpWUlAQtxS/BF6hRyJAAohJf/Uni7e09a9asoKAgCoXy8OFDd3f3W7duLVmyZFAlyBgCKjQwIEalt5QVSfhuHf8scRgAgCgK1u34YtWruLiYF24WgqD79+/X19cnJibKycmx2eyYmJjdu3fv3r3b29s7ISGhsrJSSkqKL3yp8OLj45Oenk6j0SgUSvekBqqqqi9fvhSIYAhCAQRBJSUlbm5ucP4xOzs7Z2fn3bt3W1lZaWhoCFo6hB8GMSq9orpcfPuqqRlP1ABAoVBg6wGw2BWI/C92cENDw+rVq4cPH3706FE8Hs/hcAoLCw0NDeXk5AAAWCx23rx5KBTK1dW1vr7+4sWLwpv8rkfOnj0bFhYWEhICH+fkuzpYwpchDGIgCGppaYEgCI69v3bt2ujoaB8fn/DwcEGLhvDDIEbl+zQ1iPhtH//iqRoAKBwObP4HrPL8ogKFQvnjjz/gJAcsFguOs/LgwQMGgwGvbqFQqDFjxlhaWiYnJwcGBu7du1cgHeknNDQ0HB0dY2JijI2NFRUVBS0OgpCBQqGmT59+/vx5MzMzS0tLEomkqKgYERExb968kydP0mg0QQuI8GMg3l/foalBJGCHzf3r+hCEEiGClZuB88Yeqq1du3bRokVBQUFeXl7Nzc3W1tZoNHrNmjXl5eVwBRqNJioqeu7cuV27dg1oBwYEdXX1+fPnC/E2MoJA8fHx0dTUdHZ2trCwgEsmTJjg6+sbGRl5+fJlwcqG8KMgM5VvUVMp5rNhYmKsNoeDBgAsdQfuWwFJooeaLBarsLBw2LBhoaGhRUVFQUFB27dvd3NzKy8vd3JyUlBQOHPmDIFAGDdunJAuBz1+/JjL5U6cOLHHqwoKCv/8889gC4LZlcbGRl9f38OHDwtakJ/n6tWrhoaGhoaGghbkJ3nx4kV7e3uPKqSurh4eHl5QUNA1k7GLi8uoUaNevXrFl95YUAwBFRoYBJD58ScQSOZHait+y/LpCbHaAEIBAFZuBv8EfbVyYGDg6dOn7927V1JSMnPmTAcHh4iIiOrqakdHx+LiYgCAiYlJdHS0gYHBgMmPgICA0JWByfyILH/1DLUFH+Q97ulDDQCvenmArQd6rkmn0z9//pyQkDB69GgNDY1p06Y9ePAgPz/fw8NDVlb2w4cPL1++zMzMTEtLQywKAgLCkAcxKj1Ap2GC/rG6Em7MZGIBANPngbXbgajYfxUgCGIymfDfJSUlnp6e+fn5NjY28La8vb19QEDAy5cv4T0Vc3NzS0tLMTGxnpoSElIB2AzAZgDOC1oSBCEFUaHfBsSo8MNioo/5WF0MHcmg4wAAE6aDvSFA7kufpmPHju3evbujo6OgoEBNTc3U1LS2tjY5OZnFYgEAMBjMjBkzTp8+nZiYeOzYMS6XK5CO9CVvAQgGIBiAOEFLgiCkICr024Bs1H8BnYaJDjO5GGrGYaOxWDBtLgiMBKLdzpKj0eioqKiPHz9mZGQkJSXt2bOHwWBcuHDhyJEj69evJ5FIWCzWzs7u+fPnampq3c8DDiW4XC5fBMDuDOYNfASBg6jQEAMxKv/BZqHOHjU/H2Le2Y5HoYDtVLDdDxB7WrVas2bNmzdvzp8/b2RkpKCggMfjDx06RKFQzpw509bW5u3tDa+DmZiYDHQfBpyCgoKzZ89+owKZTB6SXtQIfQWiQkMMxKj8PxAEQv1GnfIdQ6fhAAC6BmDvcaCiDr4WfEhOTs7d3T06OnrTpk0hISGysrIbN27E4/GBgYE1NTUnTpwgEold64eFhVlYWPDc8IWOe+AeB3DmgDl85W1tbTk5Od+4UUFhUOQhrqur8/T0jI6OFrQgP4+wq9Bj8JgKqIgKDXkQl2IAAGCzUf9e1vdeP7mjHY9GAwNTEHEPyHc7Gw5BEIPBaG5uZrPZEhISJBLp3r17q1atmj17dkBAgLS0NARBoaGhR44cuXnz5pBKZ30CAPjI558AXP9WRQiCOBwOm83G4XBoNHpQBQREECSICg0CBsalGJmpAADAg5u6R72tO9rxKDQwtwL+Z3qwKACA5ubmkJCQu3fvtrW1rV+/fuPGjbNnzw4PD/fy8vL09PT09Kyrq1u4cOGUKVN0dXUHvBOCh81mJyUlvXr1qra2duXKlc3NzRQKRXgP6yEMPIgKDQEQowIe3tb2225bVSYBAFDTAH/vA+o6PdcMDw+Pj4/38vKSk5NTVFTEYDAQBDk4OHC53PXr179580ZOTu7kyZN6enoD2oHBAQRBvr6+Fy5cIJFIubm5dnZ2ycnJaWlpJ0+eHDNmjKClQxACEBUaGgxlx6TeEHtVb/PSmbBFERMH4bfBWLuek26xWKzQ0FAPD4+FCxfa2tqWl5cbGhpKSkrev39//vz5T548mTBhwoEDB37POQoA4M2bN97e3u7u7qmpqWJiYqKioocOHZKVlXV3d/9GthUEBB6ICg0Nfl+jwuWChH81fbfZMuhYFArojACX4oG+8Vfrt7W1MZnM6urq5ORkV1dXONb95MmTd+3alZOTo6+vHxISMmbMmKG5BKwJwBwA5gBg+dUq6enpRCJx48aNPBdqcXFxLy+v2tpaoU6Ci9A3ICr02/D7Ln9lpSr7b7OtLicBADR0wN4QYDLqW/XJZPKsWbMOHjyIQqEsLS1DQ0NtbW1RKJSJiUl5ebmx8dfN0RDAAQCH71QRExNDoVAcDqe7WcX0OPVD+K1AVOi34TedqeTnyrjOcSzMlwYAhcWCw+e+uurFA4VCBQUF3bt3Lykp6ebNmw4ODuLi4ikpKRgMRkVF5bst+vn5PXv2rM86MOBcvXr1286U1tbWTCbTz8+PTqfDJfX19QcPHlRRURkMScmqqqrs7e0FLcUvIewqdP/+faFWoerqamFXoYHht3Mp5nJB7iv5HaunwqnmlVTBwVPAfsZ/FahUak5Ojrm5ORaLRaFQWCz/ZI7BYFy5ckVJSamgoMDPz+/vv//evHnz0Fz1+kFu3Lixe/duCIKKiopGjBjR0tIiKSl5+fJlIyMjQYuGIBwgKtSvIC7F/cKn9zI+m+zzc2UBAIoqYM9RYDvtiwp5eXnu7u7Tpk3T1NRUVlaeNWsW39SbxWKlpqZmZmaSyeQ9e/Y4OzsjFgXmzz//1NTUTE1NLS0txWAwmpqakydP1tH5ii8dAkI3EBUaAvxeRqWhlrht5bTcVwoQhMLhwcbdYOKs/1a9mEwmHo83NDRctWrVjh07NDU1g4ODuxsMcXHxw4cPNzU14fF4RUXF7lOZ3xlzc3NTU1M6nY5CoURERIZ23DOE/gBRIWHnd3khQhCoLCWtmTfn/WsFAABRFOw+DJa6/1chKytr1apVt27d0tHRMTU1JRAIdXV16enp48aNExfnjyhJJpPJZPJAyj/44XA4GRkZhw8fLioqgqM1wygrKyckJAhQMARhAVGhocHvYlSqK8QP/GWX91YOACBJBht3Aae1X1QQFxc3NzenUqkdHR2SkpLBwcE0Gs3Pz6+xsXHPnj1ycnKCkVt4yM3NnTFjhpGRkbW1dddk9dLS0gKUCkGIQFRoaPBbGBVaJ3bvJvvHcVpcLpogAlZ6fDFHgRk+fHhwcDCVSl2zZs3ChQtdXFzodLq4uPimTZuampqOHDkiLy8PQRAyGf8az58/7+zsjIqKUlVVxWAwyD4Two+CqNDQYIi/IiEItLXiV86YG39Xl8XEoDFg1kKwYVcPKVIAABISEkQiEYKgJUuWPHnyBI/HOzs737hx4969exs2bFi3bp2Xl9dPO8sJtz8oA1wNuxp9Mhp0fLUKgUDA4XCqqqqw19wACtcrEJdiAcMA96PvC7UKIS7FvQTj4+MjaBm+T11dXXLynUWLf+yAIQSB+mrRwJ028Xd1IAglKg6WrwXexwAe30NlJpPZ1tZGJpNHjx5dXV29d+9eNTU1HR0dfX19Q0PDhw8flpeXOzs7/3QUFmtrazU1tZ+7V/CEAcP1hsZxxuATAH/2XEVeXj4uLg6FQg0bNgyHw3H/xyCZ3pFIJGdnZ0FL8UsIuwrpuuoiKiRYHj9+TCQS+zuQ2lBe/qLTMId3W9+7Nhxe9Vq+DmzcDQgiPdQsLi729/f/9OmTvb392rVrAwICpKSkduzYwWKxli1bNn36dAMDAy6Xq6WlNeCdEBoqKysBALt377569aqEhASvXF5ePiIiQnByIQgNiAoNDYasUYG4YM+6SXcvGXA4aACAzWSwbgcQ62nVCwCwYcOG7OxsKSmpffv2FRYWHj169ODBg2w228PDg0gkLlq0SFNTc0ClF0JYLJaioiKcT4nJZPLKu/6NgPANEBUaGgxNo9JGxYf5W966YAQAwOLA+CngyHkg2ZMPMIPByMrKKi4ufvDggYmJSWRk5N69e728vA4cOODj48NgMNatW6erqzty5MgB7oLQYWxsHBERoaCggBzcQfg5EBUaGgh+pbLPodMw50PMok6MBABgsWDmAnDkHJDqySmxubk5MDDwzJkzlpaWJiYmKBTKycnpyJEjDx8+XLduXUdHh5+f36lTp4YPHz7QfRBCHj165OTkVF1dLWhBEIQVRIWGBkPQqNyNHn7Kd0w7lQAAsJ0Kth0EZErPNXE4XFFR0fXr16urq+EpNoFAmDt3bnh4+L179zw8PBgMxoIFC/iyzSP0iJqa2tOnT9PS0gQtCIKwgqjQ0GBIeX/ROrFXzxh5r5vMYmIBACPHgKMXgJIa6O6d2NjYWFBQoKSkNGXKlNLS0rS0NCkpKWNjYwwGg0ajtbS07OzsKioq7O3txcTE+qQLYWFhAAAlJaU+edpAkwnuPbiXB/L0DfS/5rojJiaGx+NDQkI4HE5bW1vR/6iurh4MPkt1dXVubm7z588XtCA/j7Cr0OMHj3NADqJCAgTx/voxaB3Y6NPGQd7WXC4aAGBlDwIjgaJqz5Vv3bq1b9++4ODg2bNnh4WF+fj4HD16lM1mr1mzBl7PHTt2rKWlJQ6H6yvx1qxZ01ePEggzwcxvV3j58uXt27cJBAKfo46SklJ8fHx/itYr5OTkvh13ffAj7CpkB+y+XQFRoaHB0DEq8THaJw6M7ezAAQBGWYN9x4HK11MwzJs379mzZ56enjgcbubMmbt27cJisT4+Ps3NzTt27MDhcCgUqg8tyu/A2LFj7927170c2XRF6CWICg0NhsKeCpcLMp4o71g9tbWZCABKVR3sOwF0RvRQk8PhwEfiKRRKeHi4tbX1qlWrUlNTRUVF//nnn4ULFwYFBYWHhwtFjpkBZQMAEAAQANe/WkVMTGzYsGGysrJ0Oj0/P19UVFRWVlZRUbE3GcwQhj6ICv02CL1RYbNQj+M01sxzpNNwAABdA3DiGhhu0kPNpqamoKCg169fwzZDREQkICDA3t7e0dHxypUrbDY7ODjYz8/P3t5+EIaIGPxAEPTo0SMHB4dp06Y5ODg8e/Zs165d69atKy0tFbRoCMIBokJDA+E2KhAEMlNV/LbbtjaLAAAMzEBgBDD9Sqp5Op1++fLllStXpqamwnZFRUXF19dXUlJyy5Yt0dHREAS5uroiDsQ/R3FxsYuLi7a29tmzZ4lEoqio6OLFi9+8ebNt2zYOhyNo6RCEAESFhgbCbVTKiyS3r5z2+QMFAJSCMvAOAqajv1pZSUnp4cOHHR0dbm5u79+/hws1NTWnTZumoaHx9u1bFouFzFF+moSEhLq6upCQECsrK9iJbvTo0QcOHEhJSSkuLha0dAhCAKJCQwNhNSpcDkh/rDLPaklFqSQAQEoaePmD0eO/c5ecnFxCQoKKioqTk1NaWhqTySwvL3/x4sXatWuPHj0qKirafwJfvXr13bt3/ff8/ubx48dJSUnfqABBkJSUFJ93g6ysLJfLZTAY/Szd92lsbNyyZYugpfglhF2FXrx4gajQ74BQulVAXPAyTdln08TGOjEAgKIK2BkIZv7Zw3mU7gwbNiwkJMTT03PJkiX29valpaUoFGrq1Kn97eu1aNGifn1+f2Nn9x1/UEtLy9bW1mvXrs2aNQsuoVKp586dk5WVVVX9imf3ACIjI3P48GFBS/FLCLsKjR799WUEAACiQkMFoTQqFaWkne5TCj9KAwAUVMD+k2DiTNDL2NgoFGr48OHXr1/funXrlStXbG1tL126hCR2/HXMzMz27du3du3aU6dOdXZ2BgYGVlVVffr06f79+yQSSdDSIQgBiAoNDYRs+QuCQHGB1Jp5joUfZQBAkWXAln3AfkZvLQoMCoWSlJQ8ffp0a2trbGyskpISspXy0/Dcr9Fo9M6dOyMiIiQlJY2MjJqbm/X09BITExFvOoRvg6jQEEPIZioln6R2rZ384Y08AEBKGuzwA3OdAAbzX4Xm5mY8Ht+b2CooFArR1F+npKQEg8HwomgsXLjQ0dGxvr4eg8FQKJTm5uaIiAg3NzfBCokwmEFUaIghTDOV2iox3222L56oAgBExcEOP/CnC8D+byuESqUePHjQ1tbW1tY2OjoaycHQl1wFwBQAUwC28l8pKChYvnx5eXk5r4RAIKioqCgoKOTk5CxYsABZhkYAAFGh3wihMSpctsihreMTYnS4XDQeD1w2fjFHYTKZ27dvP3Xq1MiRI4lE4pYtW54/f873BAiCBHhUvqWlhWe8jLIAACAASURBVE6nC6r1X6UBtL9tb3vbBrqdQpOXl8/JyfH09CwrK+MVdnZ23rlzZ+7cubm5uS4uLgMq6ldgs9lVVVWCluKXEHYV6nzbiajQ74DQGJWGkj//vTwCAIDFAae1wG0LEOkSkP7KlSv379+PjIyMjIyMiYkxMTHJzMysqKhob2+HK7BYrOTk5A8fPghEeABARkZGRUWFoFr/dfJA3gfQw+iZmppGRkbm5uZu3bq1vr6ey+Xm5uZ6enq6uLgYGBjcunXLy8tr4KXtTnt7+9WrVwUtxS8h7CpUCAqFWoU6OjqEXYUGCEgYyMnJMVWNVQOQOhoK8oHaqfwVHBwcrK2t6XQ6BEEdHR0rV67U0dExNTWdNWtWamoql8stKyuzs7ObOnUqHP5r4Glqaurs7BRI033AcQgCEAQg6M8eLrJYrNu3b2tra0+aNCkyMtLMzIxIJO7fv7+yslJQo90dFotVWVkpaCl+CUSFBMsQUKFdu3YdOXKkv1sZiI16CIKKiorevHkze/bsrsdBOjo6XFxcnJycZs2a1d7enpCQ8PbtW2lpaVtbWwMDA76DI52MUhweLFwJ3LcCYrdDiurq6mlpaXV1daqqqnl5effv39fX17ewsLhy5cqGDRuePHmioqKyc+dOdXV19A85ivUdwcHBEyZMmDBhgkBa71ewWOzcuXNFRETmzZuXmJior6+fkZFhbPyd5DcDTG1traOjY1ZWlqAF+XkQFRIsQ0CFOjs7ByDl4EC8Yevr648dOxYaGspisbqW5+bmFhQUWFtbl5aWLlq0aPv27dnZ2f/++++UKVP27dtHo9G6Vm5FBXoHAQ/vHiwKAODvv/+Wlpb+9OkTACA/P3/z5s3//vtvYGBgVFRUe3v77du3USjUpEmTtLW1+7OjvzXTp0+PiYnR1dUdPXr0YEiphCB0ICo0NOjfmUpxcfH58+dfvXqVmppqYWHR9RIEQbm5uXp6epKSkrdv3y4oKAgNDTUzM6PRaEFBQWFhYVOmTLGxselyB33Z2q+emdfU1Dx16hR87HbhwoUMBgOOuaKnp6eurl5QUNBvXfzdaWxsfPPmDfw3BoOZNm3a5cuXRUVFeQnyRERExo0bJzgBEQY7iAoNMfrXqDAYjPb2dhkZGXV1db5LNBotIyNj6tSpbDY7KyvLxsZm/PjxBAIBALBixYpTp07l5uZ+aVS+E4VFT08P/gODwfCieJWVlZWXl3t4ePRRhxD4yc7OnjNnDu9fLpfLZDJPnz59/vx5uERNTe3jx4+CEQ5BGEBUaIjRv0ZFX1//yJEjLBZr79696enpXS+1traWlJRs2LABi8U6OTmJiorCmyhsNjs7OxuPxysrK3/xLEi0pKSkN41WVVWlp6fb2toyGIzdu3dLSkpqa2v38t7+o6WlpaamRuBi/BykJhILsCAASXRI1JfUd70kJia2c+fOb9wrJiY2GHpdVVXV2dk5GCT5aYRdhSAAsQALUSEBQqVSZWRk+rsVFNT/Rzd4RiU2NpY3h0hISAgJCYmIiOgad6ujo+P69esHDx40NjY+c+YMr/8NDQ1bPA+ra4n0prmqqqqUlBQajcZisTQ0NAwMDBQVFQV+eL6iokJCQkJCQkKwYvwc8jXy9BI6F3AVpBU+6X4StDg/Q2dnZ15enrm5uaAF+XmEXYW4JVw6oCMqJEDq6+vnzp07adKkfm1FYGFabty4YWxsTKFQeCUlJSUeHh7p6enOzs67du2SkpLiXaJQKMdP7uZw2b15MgRBdDq9rKxMXFxcQUEB0zWKCwICAsLvCgqF6k0Iq19EMEalo6MjPj4+NDQUdvCl0+k3btzYsmWLoaHhzZs3rayssFh+wUgS4j/UhKKiYp+Ji4CAgIDQOwRjVOLj47FY7KhRowAAXC43OTnZ19d327Ztq1at6jpBQUBAQEAQLgRjVG7dujVhwgR4y4TFYt26dUtfX3/GjBmtra2tra0AABQKRSaTkSQKCAgICMLFABkVLBaLx+Ph3fLKysqcnJzg4GD4XxaL9fbt23fv3sXFxfHqE4nEgIAAV1fXgREPAQEBAaFPGAjvLy6X+/Hjx+bm5jFjxmAwmMbGxqysrIkTJ8I+xCwWKykpiS/8KhqNNjIy0tDQ6G/ZEBAQEBD6kIEwKggICAgIvwkYHx8fQcvQA5cuXRIVFZWWlu5amJiYePz4cRsbGxQKlZqaeuPGjeLiYgUFhQFwkvshOBxOcnIyg8GQlZXtWv706VMPD49FixbxDs1UVVWdPXt2xIgRIiK9OoIzYDx79qygoEBTU7NrIZVKNTU1NTU1VVNTYzKZd+/ejYmJKS0tVVRUHGwfAUxjY+OtW7d0dXX5gpMKBe3t7bGxsdeuXauoqKBQKCQSSeBnrX6Oly9fRkdHC2OclZycnOvXr79584ZCoQidAxHvLUShUHiaA0FQfn7+hQsXMjMziUSivLx8vyhVf4dB/lFoNFpcXByJRLpx4wbfpTVr1gQGBlZUVMycOVNHR2fixIkWFhbDhw+/e/fu4ImPzWaz3717p6+vf/78+a7lLBZr3759q1at4pV0dHQ4OTlJSEiUlZUNuJjfoqCgwNbWdtmyZXzlN27cIJPJra2tz58/19HR0dbWtrOzMzMzU1ZWvnnzJovFEoi0X4NOp58+fVpKSqq+vl7QsvwwhYWF48aN09XVnTRpkrm5ua6u7u3btwUt1M9QVFRkY2NDoVAELciP0dzc7OHhoaCgMGHCBCsrK2lp6QMHDnR0dAhart7S9S3EezdyOBw/Pz91dfUJEyZMnDhRU1Pz+PHj/dH64DIqUVFRTk5Ow4YN625UaDSaubl5YmKit7e3jIxMQkJCc3NzQUHBnDlzpk+fPhjyTHA4nLi4OFdXVzh0Jp9RaWhomDt37tWrV3mVd+3apaCgICMjM3iMSlZW1oYNG2xsbAgEAp9RYbFYq1evdnd3b2trW7ZsmZGRUWZmZmNj46dPn+bMmWNnZ1dYWCgosflgMBhBQUFLliwZNmwYAEAYjYqrq+vIkSNTUlJaW1sLCgr++OMPdXX19vZ2Qcv1Y3A4nLVr11IoFDk5OUHL8mPcvHmTQqFcvHixoaGhsrJy+/bt2traWVlZgpbr+8ATlK5vIZ5RefbsmaKioq+vb0NDQ3Nz886dO/X09PpDhsGV+bGpqQmCIB0dne6Xnj59CgAwMjJ69eqVmJjYuHHjpKSkNDU1LSwsqqqqOBzOgAvLDwRBVCq1s7NTQ0NDTEyMb17Z2NjY0tIyYsQI+N8HDx4cO3Zs69atcAzNQUJ7e3tLS0uPk/3y8vJ37965urrW19d//vzZ2dnZwsJCWlpaW1t76dKlhYWFNTU1ApG5O1wut76+HgCgrKyMxWKFcdXo3r17NjY2VlZWEhIS8Iywpqbm8+fPgpbrx4iKinr69On8+fO7n2Ue5BQXF3d0dMyZM0dGRkZJSWn27NltbW0tLS2Cluv7QBDU1tbW41soIiJCRkZm5cqVMjIykpKSmzZtOnnyJNQPe+qD68OGwwmnpqbOmDGjazkEQefOnRs1apScnNzUqVNfv34dHR1tb2/f1NR07949a2trPB4vIJH/A4PBLFy4cOHChW1tbd3zC718+VJJSUlJSQmCoKKiIn9//8OHD5uYmAhE1K8B54CqqalxcnLqWg5BUE5ODg6HMzc3b2lp2bp1q6mpKayvbDb7w4cPZDJZXPzHQh70HyIiIgcPHgQAXLlyxd3dXdDi/DBcLvfAgQNmZmZwhCE44SAOh1NQUBC0aL0FgqCMjIx9+/YFBAR0zTwvLBgbGysrK/v5+bm4uLBYrEOHDunq6gqFMyoGg5k9ezZsBbu+hRgMRmpqqrm5eWlp6eXLl2k0mpWV1ejRo/vjJ9fgmql8jZqamqSkJEdHRwDA8uXLjY2NPTw8Zs2aNXXq1IaGBkdHx8G/ExsTE2NpaUkmk1ks1vHjx0eMGOHm5iZooXoLm81++fIlPKGWkpKaO3cu/AVraGg4derUqVOn5syZw7erj/DToNHolStXmpmZAQA6OzsjIiJu3Lixdu3arqFXBzkVFRWHDh1aunTpvHnzBC3Lz2BtbT1z5kw/P7+pU6dOmjQpPj5+zpw58GqqkNLS0tLZ2fn+/fu///77zZs3r1+/XrlyZVBQUH+0JRxGJSUlhUgkwulVDh069PbtWy8vr4sXL54/f55MJoeEhPAdcxlsNDQ0vHr1ytLSEo1G37lz59WrVxs3bhRUYuOfoK2t7c2bN+PHj+9amJmZuXTp0oMHD27dutXT03PwzFSGBlwuNzU1dfLkyb6+vitWrNi5c6cQreNFRkaSSKRNmzYJkZJ35d9//717966zs/Ply5ejo6NtbW0vXbqUnZ0taLl+ns7OTi6XS6VS9+/ff/z48dOnT7u5uQUFBTU1NfV5W4Nr+atHOBzOkydP5s+fTyQSy8rKLl68aGFhsWvXLhQKZWZmRqfTV69eXVxczNuuGITcvn2bTCabmpoCAFxdXY2NjS9fvgwAqKyspFKpAQEBBgYGa9asEbSYX6WhoaGtrY2319XR0XHy5ElfX9/x48c/ffqUlx4Noa9gMBinT58ODAzU09O7e/fuyJEjBS3RjxEUFDR58uRjx44BAF68eEGlUnfv3m1hYQEvNgxyqFRqTEyMqKjo2bNnYaNoZGRkYmKSlpZmYWEhpGZSREQEjUbr6enZ2trCJdbW1qdOnXrz5o29vX3ftiUERqWysjI/Pz8gIAAAwGAwuFyukpIS/KsNhUJJSUmRSKTOzk5Bi/lVWCzW1atXHRwc4FwyS5YsgSCooaEBANDa2gpBUFNT0yDfA7x37562tjY8/WcymcePHz9+/Li/v/+SJUuQCUp/cOXKlRMnTuzZs2fVqlXCmLth0aJFPCWn0WhcLrehoaG9vV3QcvUKDofDZDIVFBR49oNAIMjJyTEYjP7Y1h4YZGRkZGVlWSwWg8GAnYNYLBabze6PnF1CYFSKi4sxGAz8c1hFRUVZWTkxMTE3N9fQ0JDFYiUkJBCJxMG8oP/p06cPHz6cOHEC/jckJIR3KSsr69WrV/v371dVVRWQdL3i5s2bLi4u8AnH8vLyO3fuODs7T548ubGxsbGxEQCAwWAoFMpgO8IppNBotN27d0+dOnXChAkVFRW8ckVFxcHgkNIbuir5yZMnS0tLQ0JChOU3PolE0tLSOnPmTEJCApzP6v79+zU1Nfr6+sLShe7g8fhly5b5+/vHxMTMnz+fy+XGxsYqKSkNHz68z9sa7EaFw+G8fv2ad+acSCSeO3fOysrK2trawMCgurq6rq4uICBAUlJS0JJ+lYyMDDU1Nd7qXNf3AuzwisPhBrOjQX5+fmFh4dixY+HZYU1NTXl5ua+vr6+vL6+OmpralStXrKysBCfm0OHz58+VlZWRkZGRkZFdy1+/fg2voA5+uio5PNMSFnMIAMBisRs2bEhISHBwcDAwMGCxWHl5eQsWLJg4caIQbWt1x9PTMyMjY/ny5f7+/i0tLS0tLWfPnu2Pz2Uwxv6qq6tLSUkZPXq0qqoqh8N59eoVmUzW1tbmfaLV1dXXr1///PmztLT0xIkTe0zqJUBYLNbDhw8NDQ1hF6mcnBw6nQ4nj+GjsbExLS1t0qRJvCzLgwEajZaRkUEkEseMGQMAKC0tffv2rYODAzzINTU1aWlpLBar6y2ioqJWVlZd83gOBkpLS7OysmbNmjWoDgN9l9ra2sePH3cvnzp1KplMHnh5fpGCgoK8vLw5c+YIWpAfo729/dq1ax8+fMDhcKampo6OjsI1Eee9hdTV1Xlvzs7Ozvj4+BcvXkhKSk6cONHc3Lw/5l6D0aggICAgIAgpwrpEiICAgIAwCEGMCgICAgJCn4EYFQQEBASEPgMxKggICAgIfcYgcppCEAhcLpdGo8FRHLBYrKioqIiIyMC7TsKBdggEQh82DUEQnU5Ho9Hdvb/gU7QEAmHgTx6w2WwGgyEqKvrTPeVyuR0dHWJiYmg0Gv7g+CpgsVg8Ht/Z2UkgEPrDWx2CIBqNhsVi4SQ6cCEKhcLj8X0SFprD4bS2tpLJZKF24f1tQYzKbw2NRnv06NHdu3ffv39Po9EkJSUNDQ3nzp1ra2tLJBL7u/WysjIWi6WlpQUAOHnyJABg06ZNffgS7OjoOHz4sI6OztKlS/kuXb58ubq6es2aNXzZRfn49OmTuLi4oqJiX4kEAHj79m1ERERAQIC4uHhVVVVbW9uPxrl59uzZ8+fPN2/eLCIisnfv3urqar4K5ubmf/zxh5eX1+LFi6dPn953sv8/1dXV4eHho0aNiomJodFocCEWi1VWVra1tYUPDH6NlpaWxsZGFRWVb/h50+l0T0/PjRs3wjFMEYQLZPnrtyYqKsrNza24uHjFihUHDhz4888/k5OTV69eff36db6TKP2Br6/v1q1b4b+bmpoaGxv71sGdyWTGxcW9fPmy+6UXL17Ex8d/N7rPunXrIiIi+lAkAACdTq+pqYGnF+Hh4StXrvyh21taWjw8PLS1teGXckxMzMePH8lkskwXSCQSjUa7ePFiXl5e3woPEx0dnZOT09TUdO3aNTQabWRkZGRkpKqqmpKS4uLi8uDBg2/cm5KS8tdff1VWVn6jjqio6Lhx43bt2jXIwxch9AgyU/l9qaqq2rx58/z580+ePMkLSbB27VoHBwc/P7+JEycqKyuz2WwUCoVCoRgMBgAAXt+Aa8Jp5uAFEBwOB697QBDEYrHQaDQKhWIymfByFpfLZTKZXC4XjUbj8Xh4xYnNZpeVlVVVVTEYDBwO5+PjAwCAHw5BEJvNZjKZAAA43ED3J8ON8qY18FUWi4VCobBYLHxLbwYB7gUEQRgMBg7uBK8dQRDEZDKLiop0dHSYTCb8QC6XC0dMwmAwXTvC4XDweDyTyWSz2XDr8CX4IfAY4vF4DAaDQqHGjBlz5coVPB7PYrGqqqo+ffrEYDDQaDT8EN6NHA6Hy+XyHXiGIOjUqVOdnZ1z5szhdXDSpEl79+7lm+GVl5fz3chgMDgcDm+RCgDA5XLZbDYOh4OFxGAwXZcf4U+Nw+FgMBgcDscLQcblcsPCwjw9PeHDgHPnzuUdbCwqKlqwYEFAQMDUqVNZLBYWi+XdxeFw4HFobGwsKipqa2uD9QG+xGKx4NVXeJxRKJSrq2toaCgcKhhZBBMuEKPy+3Lw4EEymezu7t41yA2BQNi6dauTk1NsbOzy5csjIyMlJCRqa2ufPHnC5XKtra1dXFyUlZUBADU1NZcuXUpLS2ttbR05cuTixYstLCzodPqJEycoFAqDwfj3339DQkLk5eXPnTv35MmTtrY2Eok0YcKEVatWQRB04cKFN2/e0Gg0b2/vzZs3w2Gb4eWvd+/eXbx48fXr12w229TUdMWKFSYmJh0dHSdOnJCXl29paUlMTGQwGBYWFuvXr1dVVeVyuRkZGefPny8tLUWj0dra2suXL7e0tOzNIHC53Li4uPfv3ysrK9+5c4dKpWpra2/cuFFeXv7w4cO1tbWJiYkBAQFbt25ls9mxsbGxsbE1NTWysrLz5s2bP38+BoN5+PDhzZs3Fy9efOnSpZKSEh0dnWXLltnY2KDR6BcvXkRERJSXl2OxWEtLSzc3NyUlpTdv3kRERPj6+sbGxiYnJ1OpVE9PT0tLyydPnqxZs2bs2LEAADabffbs2c7Ozr///rurtOXl5bdu3frRRUI40fXVq1crKysJBMLkyZOXLVsmLy+fl5d3/vz5iRMn3rhxo7S0VFZWdunSpVOnTsXhcBAEXbx48cGDBw0NDWQyecaMGQsWLIDjPmRnZ5eWlk6ZMiUnJ4evIXhDTkREpKKi4tixY9bW1rx8KrGxsc+ePZOTk7tz5055efnOnTtDQkK0tLTq6uquX7/++PHjlpYWDQ2NRYsW2dnZwdb3zz//fPTo0dy5cwdzECaE7iDLX78pbDY7KSlJTk6u+7K1tra2pqZmeno6k8l8+vTprl27iouL169fv2DBguDgYD8/PxqNBkHQ1q1bHz58uHDhwg0bNnz+/NnNza2zs5PNZj9//tzPzy8qKsrGxkZKSur27duRkZFTpkzZuXOnnZ3diRMnHj58iMfjx44dq6ysTCaTp0+fTiKRkpOTk5KSOBxOZ2fnunXr8vPzN2zY4OnpWVpaumbNGiqVymKxnj179s8//7x+/drFxWXevHlhYWFnz55ls9mdnZ1//fUXGo3esmXLunXrPn/+7Onp2ctxgCAoPz//yJEjUVFRCxcuXLZsWVxcHJztBhZMV1fX3t4ei8XGxMQcOnRo1KhRf//9t7q6+o4dO27evAkAKCgouHr1amBg4Pjx4z09PQsKCg4cOFBdXU2j0Xbs2EEmk7dt27ZixYrk5OT9+/cDAMrLy69du8ZisczMzHR0dERERBwdHY2NjRMTE8+dOwdLxWAwQkNDu8cnzs7OrqqqmjVrVtfCxsbGvLy8D//j48eP8CSPx8OHDz09PdXU1Hbu3Lls2bJLly4FBwcDAKqrq6Oiory8vMaNG+fp6UkkEl1dXeEIMc+fPw8MDBw1atTOnTttbW0DAwNTU1N5Txs9ejS8EwYAKCwszM7Ozs7Ofvr0aXBwcF1d3Y4dO0gk0qdPn44cOcKT4ejRo4WFhTY2NmPHjoWtlIyMTGdn5/Hjx8PDw+fMmbNx40Ymk7ls2TJeQ7a2tjk5OXDEUgRhoj8S3yMMfioqKpSUlGbMmNH9Ul1d3ZQpU6ysrJqamubPnz98+HAulwtfunDhgpaW1osXL+7evSsnJ5eQkACX5+TkmJiYnD59mkqlOjo6SkhIwBskEAT5+voGBwfDq2QNDQ3Tp0/fvHkzfGnWrFkjR46E/3ZwcJg+fTqNRvP399fR0cnMzITL3759q6ur6+Pj09TUNGPGDGVlZXiRCoIgR0fH+fPnNzU1VVRUODk55eXlweWhoaEkEolOpzc2NlpaWvKa64q7u7utrW15eTmLxQoICJCWlq6trYUvbd68WV5evqCgAIIgLS2tDRs2wOVaWlr+/v5sNhuCIA6H88cff4wYMYLD4Rw5cgSLxd6+fRuuFhMTo6ysnJ2dXVdXJyUlFR8fD49eYmLi/v37IQi6c+eOtLQ0PD5r1qyRlZWFb1y6dKmenl5VVRUEQRkZGSoqKunp6XxiBwQEKCsrdy3pvskvLi5eUlICJ/E9cuQIjUYzMDCYNGkSLDmXy71y5Qo8PgkJCWQy+ezZs/Cj2Gy2hobGkiVLGAzGnj17LCwsPn78CEFQZ2fnhQsXHj58CEFQW1vb5MmTo6KiIAi6ceNG9znE4sWL6XQ6LKqIiMinT58gCCosLCQSiUFBQRAEXbx40djY+MOHDxAE5eXlqaioPH78mCeAqqrqypUr4QXJ/Px8FRWVjIyM7h8fwmAGWf76TYGXs+F3Pd+aNY1G6+jokJCQgP+dNGkSr4K9vf2WLVuampoSExMxGExZWVlsbCwAoLOzE4VCPXr0aPHixQCAiRMn8ryq/vrrr8LCwpSUlLKysnfv3sFG4huCpaSkKCkp8dJra2pqysjI8JLuTZkyhbfNoKmpWVBQwOFwlJSUDh8+XFxcfPv27eLi4rt373Z0dPzQaJiYmPASw2hqanK5XL5cohUVFbW1tS0tLXFxcXAJkUgsLy+vqqqC/+XlPlJVVYV3WURFRU1MTNavXz9v3rzx48drampu2bLlGzKsXLkyPj4+LS3tjz/+iIyMNDQ05EvoAGfugxMQdGX27Nnz5s3jTWtwOJyMjExzczNP8sbGxtWrV8MVUCiUmpqatLT0+/fvAQAEAoEnOQaDGT9+fE1NDZVKnTZt2vnz511cXBYsWGBhYTFhwgR4zbOgoKC5ublrri1/f384JSiDwXj79u2pU6fGjRuXnJw8ZcqUo0ePXr9+fefOnTdu3CCTyZMnT+aTvKSkhM1mf/r0qa2tDS7R1tYuLi6G/YlhB/fa2tpvDBrCIAQxKr8p0tLSFAqloqKiqamJL1FPXV1dVVXVkiVL4H+7/hqVk5ODt9Crqqo6OzsTEhJ4jqEmJia88P5dbzl9+vSlS5ekpaXV1dXl5eUpFMq3912rq6sVFBR4j4WX13n5nbqGc+a9RouLizdv3tzY2KipqammpqaqqvqjAb3xeDxPqh6TYlVVVbHZ7KysLJ4VQaPRS5Ys4bkt8ELYwq4EsKinTp2KjY19+fJlbGwsBoNxdHSE/RF6xMbGRlFRMS0tzcbG5u7duxs3buSL+szlcmGnBr4bDQwMlixZwlfOMyqtra1sNrvro9BoNBqNhu0ugUDo6torJycH+3lbWVlFREQ8fvw4Li4uJCREWVnZ29t70qRJ79+/19LSIpFIvFv09PTgaNZwF1Ao1KZNm9LT0ydOnGhpaXn//v1Vq1bFxsaOHTtWX1+fT/La2loGgxEfH8+zlGpqarq6uvAvHjQajcPhYA8RBCECMSq/KQQCYd68eUFBQUlJSQsWLOh6KSUlpb6+/s8//4T/LS4u5l369OkTkUgkkUjq6urS0tK7d+9WV1cHALBYrA8fPnRfDGlra9u9e/fatWu3bt0qKira0NDw9OlT6Jt+w2pqavX19e3t7fDUoba2tr293czMDL7ao0GC00BFRETo6+vj8figoKA7d+780Gh8179IXV0dj8c7OzvPnTsXLikuLq6qquK9rLs/AX5jrl+/nsvltrW1nT59OigoaMWKFV9rAofDLVmy5P79+9HR0e3t7Q4ODnwHMzEYjJiYGJVK/aGuSUtLY7FYeDUMprGxsaWlRV9f/+3bt21tbY2NjbwccQUFBSQSSUxMLCsra9iwYT4+Ph0dHfA2SXBwsK2tbVpaGm9m0x00Gg1PcJlMJhaLdXNzc3d3j46OLi4u9vb27m6tVVRUxMXF9+zZw9uheffuHRqNhj96DodDo9EGWz4FhO+CbNT/vnh4eCgpKQUFhV8HrQAABu9JREFUBaWlpdXW1jY1NVVXVyclJR09etTd3V1bWxuulpiYmJ+fT6VSq6urd+zYoampqaWlNX/+fBqN9uTJExaLxeFw4uPjnZ2dux8+aG9v53K5ZDIZ9rhNT0//+PEjg8GAd5LRaDSNRmtsbORwOLxbFi1aVFZWFhMTQ6VSW1tbHz161NDQsHbt2m90pKmpSUREREJCAo1GFxUVpaSk0Ol0uOlfHCIMBtPW1tbS0iIrK2tsbPz06VP4nV5dXb169epTp059I5FPaWnp0qVLs7KyMBiMlJSUmppaV4dsGDQazWKx6uvr4VNBDg4O1dXVYWFhZmZm3fNxoVAobW1t2DGh911QUVEZOXLk1atXP3/+3NHRUVtbe+/ePXNzc1lZWQAABEHnz59vaGhobW19+vTpgwcPLC0tSSTSiRMn1q9fX1tbKyoqKisrCyedpNFoBQUFJiYmXZ9fV1dXUlJSUlICj3x4eLiqqirswzZt2jRRUdGwsDBpaWneiUjYdbuxsZHNZmtqaoqLiz9+/Bj2OP/8+bOdnd39+/dh80Oj0TgcDiwnghCBzFR+X6SkpCIjI318fBYuXDh8+HASidTY2Pjx48fFixdv3rxZVFQUfvWrqKisXr1aXV29vLy8tLQ0ICBARUVFTU3N09MzIiIiNTUVi8W+e/du5syZkyZN4tvMkJeXX7Ro0blz5z58+ACfRdDT00tKSrp///7cuXPHjh0bHx/v5eXVdVFo/vz5KSkp/v7+Dx484HA47969c3d3NzAw4K3ndMfFxWXNmjWbNm1SU1Orra2FDwDu2bPnr7/++sUhmjBhwr///uvr67tv375Dhw5t27Zt9erVioqKeXl54uLihw8f/sa9RkZGJiYmXl5eJiYmXC43Ozt71apVKioqvP0hAICpqWlkZOS6dev27NljbGysqKg4cuTI69evBwQE9Bg/ZsSIERISEk+fPu39OXkcDufv7+/h4eHk5GRkZFRdXV1eXh4QEABfJRAI79+/X7lypbi4+PPnz2fOnAmfC9m6dauLi4uLi8uIESPq6uqKiooOHDjw5s0bDAYDp57jsX//ftiXDE7trqen5+/vD08vsFjsokWLDhw40LU7ZmZmra2t27dvv3Dhgpqa2o4dOw4dOvTs2TMikfj69etp06a5ubnBNQsKClRVVb8d8gBhEIIk6fqt4XK59fX1eXl5L1++7OzsVFZWHj169LBhw8TFxVEoVHNzs6urq6am5pIlSzIzM+FckBoaGvDPbTqd/uHDh5cvX8LesYaGhhISEhwOp6ysDIPBqKmpwU00Nzenp6cXFRVpaGiMHDmSxWJlZGSYmJjo6elRqdS3b9+iUChzc3M41oi6ujoajaZSqe/evXv16hUEQaNGjTIyMhITE4MPS+LxeBUVFfjJVVVVdDpdTU0NhUK9f//+xYsXKBRq7NixSkpKubm5ra2t9vb2lZWVYmJi8CZzV8rLyxkMhpqaGg6Hq6+vb2tr09DQgF98DQ0NNTU1WlpaRCKxoaEhJydHQkLCzMwMgqDy8vKXL1+Wlpbq6upaWFgoKSkBAOrq6qqrq42MjODbaTRaYWGhpqYmkUisr6/PzMz8+PEjHo83MzMzMzMTFxdvbW0tKysbPnw4Fottb29/9+5de3u7hYWFlJQUi8Xy9/e/fPny69eve4xiwmAwli5disVir169Cpfk5eVJSkoqKiryrb8xmcwPHz4oKSnJyckBACorK7Ozsz9+/EihUKytrdXV1XE4XGJi4qpVq2JiYqqqqkpKSvT09ExNTXkbbPn5+dnZ2cXFxUpKShYWFvDnRaVS1dTU4JlES0tLeXl511kmgUCgUChd5xbJycnOzs4PHjwwNDTkqdzr168bGhqsrKxIJBKDwSgsLHz16lVzc7OhoaGpqSnPijg7O6uoqPzzzz9ClIoYAQDEpRjh68AuxV5eXoIW5Legs7OzqKho5syZgYGB36j27NkzGRkZ2Nn3F0lISFBTUysrK/v1R3UHXoFcv3798uXLW1tbf/T2wsJCXV3drKys/pANoV9B9lQQEAYFYWFhO3furK2tdXBw+EY1Kyur1atXX758me+E42AjLi5u27ZtDx8+dHR07Oot1htYLJa3t/eff/7Jc9BAECIw3/BxRPjNQaFQUlJSxsbGPO8ghP6juLhYQkLC1dXVyMioR7dmGBQKZWFhAa/pfcNNoDdgsdhhw4aNHDnyGwGDfxrYbW/FihWTJk360fUrOErY0qVLux/KQRj8IHsqCAgICAh9BrL8hYCAgIDQZyBGBQEBAQGhz0CMCgICAgJCn4EYFQQEBASEPgMxKggICAgIfQZiVBAQEBAQ+gzEqCAgICAg9BmIUUFAQEBA6DP+D5rwhiA9hkJWAAAAAElFTkSuQmCC;movable=0;resizable=0;rotatable=0;deletable=0;editable=0;locked=1;connectable=0;" vertex="1" parent="1">
          <mxGeometry x="960" y="80" width="446" height="520" as="geometry" />
        </mxCell>
        <mxCell id="5eA97bqAue3jfniv3n-x-54" value="" style="endArrow=none;html=1;rounded=0;strokeWidth=4;fillColor=#e51400;strokeColor=#FF0000;movable=1;resizable=1;rotatable=1;deletable=1;editable=1;locked=0;connectable=1;" edge="1" parent="1">
          <mxGeometry width="50" height="50" relative="1" as="geometry">
            <mxPoint x="1150" y="380" as="sourcePoint" />
            <mxPoint x="1130" y="360" as="targetPoint" />
          </mxGeometry>
        </mxCell>
        <mxCell id="5eA97bqAue3jfniv3n-x-53" value="" style="endArrow=none;html=1;rounded=0;strokeWidth=4;fillColor=#e51400;strokeColor=#FF0000;movable=1;resizable=1;rotatable=1;deletable=1;editable=1;locked=0;connectable=1;" edge="1" parent="1">
          <mxGeometry width="50" height="50" relative="1" as="geometry">
            <mxPoint x="1130" y="380" as="sourcePoint" />
            <mxPoint x="1150" y="360" as="targetPoint" />
          </mxGeometry>
        </mxCell>
        <mxCell id="5eA97bqAue3jfniv3n-x-55" value="" style="group;movable=1;resizable=1;rotatable=1;deletable=1;editable=1;locked=0;connectable=1;" vertex="1" connectable="0" parent="1">
          <mxGeometry x="1030" y="470" width="20" height="20" as="geometry" />
        </mxCell>
        <mxCell id="5eA97bqAue3jfniv3n-x-56" value="" style="endArrow=none;html=1;rounded=0;strokeWidth=4;fillColor=#e51400;strokeColor=#FF0000;movable=1;resizable=1;rotatable=1;deletable=1;editable=1;locked=0;connectable=1;" edge="1" parent="5eA97bqAue3jfniv3n-x-55">
          <mxGeometry width="50" height="50" relative="1" as="geometry">
            <mxPoint y="20" as="sourcePoint" />
            <mxPoint x="20" as="targetPoint" />
          </mxGeometry>
        </mxCell>
        <mxCell id="5eA97bqAue3jfniv3n-x-57" value="" style="endArrow=none;html=1;rounded=0;strokeWidth=4;fillColor=#e51400;strokeColor=#FF0000;movable=1;resizable=1;rotatable=1;deletable=1;editable=1;locked=0;connectable=1;" edge="1" parent="5eA97bqAue3jfniv3n-x-55">
          <mxGeometry width="50" height="50" relative="1" as="geometry">
            <mxPoint x="20" y="20" as="sourcePoint" />
            <mxPoint as="targetPoint" />
          </mxGeometry>
        </mxCell>
        <mxCell id="5eA97bqAue3jfniv3n-x-60" value="" style="endArrow=none;html=1;rounded=0;strokeWidth=4;fillColor=#e51400;strokeColor=#FF0000;movable=1;resizable=1;rotatable=1;deletable=1;editable=1;locked=0;connectable=1;" edge="1" parent="1">
          <mxGeometry width="50" height="50" relative="1" as="geometry">
            <mxPoint x="1230" y="410" as="sourcePoint" />
            <mxPoint x="1210" y="390" as="targetPoint" />
          </mxGeometry>
        </mxCell>
        <mxCell id="5eA97bqAue3jfniv3n-x-59" value="" style="endArrow=none;html=1;rounded=0;strokeWidth=4;fillColor=#e51400;strokeColor=#FF0000;movable=1;resizable=1;rotatable=1;deletable=1;editable=1;locked=0;connectable=1;" edge="1" parent="1">
          <mxGeometry width="50" height="50" relative="1" as="geometry">
            <mxPoint x="1210" y="410" as="sourcePoint" />
            <mxPoint x="1230" y="390" as="targetPoint" />
          </mxGeometry>
        </mxCell>
        <mxCell id="5eA97bqAue3jfniv3n-x-61" value="&lt;b&gt;&lt;font face=&quot;Courier New&quot;&gt;P1&lt;/font&gt;&lt;/b&gt;" style="text;html=1;strokeColor=none;fillColor=none;align=center;verticalAlign=middle;whiteSpace=wrap;rounded=0;" vertex="1" parent="1">
          <mxGeometry x="1240" y="400" width="30" height="30" as="geometry" />
        </mxCell>
        <mxCell id="5eA97bqAue3jfniv3n-x-62" value="&lt;b&gt;&lt;font face=&quot;Courier New&quot;&gt;P2&lt;/font&gt;&lt;/b&gt;" style="text;html=1;strokeColor=none;fillColor=none;align=center;verticalAlign=middle;whiteSpace=wrap;rounded=0;" vertex="1" parent="1">
          <mxGeometry x="1060" y="450" width="30" height="30" as="geometry" />
        </mxCell>
        <mxCell id="5eA97bqAue3jfniv3n-x-63" value="&lt;b&gt;&lt;font face=&quot;Courier New&quot;&gt;P3&lt;/font&gt;&lt;/b&gt;" style="text;html=1;strokeColor=none;fillColor=none;align=center;verticalAlign=middle;whiteSpace=wrap;rounded=0;" vertex="1" parent="1">
          <mxGeometry x="1150" y="335" width="30" height="30" as="geometry" />
        </mxCell>
      </root>
    </mxGraphModel>
  </diagram>
</mxfile>
